<svg width="1235" height="882" viewBox="0 0 1235 882" fill="none" xmlns="http://www.w3.org/2000/svg">
<g opacity="0.3">
<mask id="mask0_324_3184" style="mask-type:luminance" maskUnits="userSpaceOnUse" x="0" y="0" width="1235" height="882">
<path d="M1235 0H0V882H1235V0Z" fill="white"/>
</mask>
<g mask="url(#mask0_324_3184)">
<path opacity="0.15" d="M1235 6.10352e-05H0V957.942H1235V6.10352e-05Z" fill="#1262A9"/>
<path d="M33.1007 -20.3648L-832.796 1011.9" stroke="#357AB6" stroke-width="0.83" stroke-miterlimit="10"/>
<path d="M45.2046 -20.3648L-820.692 1011.9" stroke="#357AB6" stroke-width="0.83" stroke-miterlimit="10"/>
<path d="M57.3086 -20.3648L-808.578 1011.9" stroke="#357AB6" stroke-width="0.83" stroke-miterlimit="10"/>
<path d="M69.4124 -20.3648L-796.475 1011.9" stroke="#357AB6" stroke-width="0.83" stroke-miterlimit="10"/>
<path d="M81.5259 -20.3648L-784.371 1011.9" stroke="#357AB6" stroke-width="0.83" stroke-miterlimit="10"/>
<path d="M93.6298 -20.3648L-772.267 1011.9" stroke="#357AB6" stroke-width="0.83" stroke-miterlimit="10"/>
<path d="M105.734 -20.3648L-760.163 1011.9" stroke="#357AB6" stroke-width="0.83" stroke-miterlimit="10"/>
<path d="M117.838 -20.3648L-748.059 1011.9" stroke="#357AB6" stroke-width="0.83" stroke-miterlimit="10"/>
<path d="M129.942 -20.3648L-735.946 1011.9" stroke="#357AB6" stroke-width="0.83" stroke-miterlimit="10"/>
<path d="M142.046 -20.3648L-723.842 1011.9" stroke="#357AB6" stroke-width="0.83" stroke-miterlimit="10"/>
<path d="M154.159 -20.3648L-711.738 1011.9" stroke="#357AB6" stroke-width="0.83" stroke-miterlimit="10"/>
<path d="M166.263 -20.3648L-699.634 1011.9" stroke="#357AB6" stroke-width="0.83" stroke-miterlimit="10"/>
<path d="M178.367 -20.3648L-687.53 1011.9" stroke="#357AB6" stroke-width="0.83" stroke-miterlimit="10"/>
<path d="M190.471 -20.3648L-675.426 1011.9" stroke="#357AB6" stroke-width="0.83" stroke-miterlimit="10"/>
<path d="M202.575 -20.3648L-663.312 1011.9" stroke="#357AB6" stroke-width="0.83" stroke-miterlimit="10"/>
<path d="M214.679 -20.3648L-651.208 1011.9" stroke="#357AB6" stroke-width="0.83" stroke-miterlimit="10"/>
<path d="M226.792 -20.3648L-639.105 1011.9" stroke="#357AB6" stroke-width="0.83" stroke-miterlimit="10"/>
<path d="M238.896 -20.3648L-627.001 1011.9" stroke="#357AB6" stroke-width="0.83" stroke-miterlimit="10"/>
<path d="M251 -20.3648L-614.897 1011.9" stroke="#357AB6" stroke-width="0.83" stroke-miterlimit="10"/>
<path d="M263.104 -20.3648L-602.793 1011.9" stroke="#357AB6" stroke-width="0.83" stroke-miterlimit="10"/>
<path d="M275.208 -20.3648L-590.679 1011.9" stroke="#357AB6" stroke-width="0.83" stroke-miterlimit="10"/>
<path d="M287.312 -20.3648L-578.575 1011.9" stroke="#357AB6" stroke-width="0.83" stroke-miterlimit="10"/>
<path d="M299.425 -20.3648L-566.472 1011.9" stroke="#357AB6" stroke-width="0.83" stroke-miterlimit="10"/>
<path d="M311.529 -20.3648L-554.367 1011.9" stroke="#357AB6" stroke-width="0.83" stroke-miterlimit="10"/>
<path d="M323.633 -20.3648L-542.264 1011.9" stroke="#357AB6" stroke-width="0.83" stroke-miterlimit="10"/>
<path d="M335.737 -20.3648L-530.16 1011.9" stroke="#357AB6" stroke-width="0.83" stroke-miterlimit="10"/>
<path d="M347.841 -20.3648L-518.046 1011.9" stroke="#357AB6" stroke-width="0.83" stroke-miterlimit="10"/>
<path d="M359.945 -20.3648L-505.942 1011.9" stroke="#357AB6" stroke-width="0.83" stroke-miterlimit="10"/>
<path d="M372.049 -20.3648L-493.838 1011.9" stroke="#357AB6" stroke-width="0.83" stroke-miterlimit="10"/>
<path d="M384.162 -20.3648L-481.735 1011.9" stroke="#357AB6" stroke-width="0.83" stroke-miterlimit="10"/>
<path d="M396.266 -20.3648L-469.63 1011.9" stroke="#357AB6" stroke-width="0.83" stroke-miterlimit="10"/>
<path d="M408.37 -20.3648L-457.526 1011.9" stroke="#357AB6" stroke-width="0.83" stroke-miterlimit="10"/>
<path d="M420.474 -20.3648L-445.413 1011.9" stroke="#357AB6" stroke-width="0.83" stroke-miterlimit="10"/>
<path d="M432.578 -20.3648L-433.309 1011.9" stroke="#357AB6" stroke-width="0.83" stroke-miterlimit="10"/>
<path d="M444.682 -20.3648L-421.205 1011.9" stroke="#357AB6" stroke-width="0.83" stroke-miterlimit="10"/>
<path d="M456.795 -20.3648L-409.102 1011.9" stroke="#357AB6" stroke-width="0.83" stroke-miterlimit="10"/>
<path d="M468.899 -20.3648L-396.998 1011.9" stroke="#357AB6" stroke-width="0.83" stroke-miterlimit="10"/>
<path d="M481.003 -20.3648L-384.894 1011.9" stroke="#357AB6" stroke-width="0.83" stroke-miterlimit="10"/>
<path d="M493.107 -20.3648L-372.78 1011.9" stroke="#357AB6" stroke-width="0.83" stroke-miterlimit="10"/>
<path d="M505.211 -20.3648L-360.676 1011.9" stroke="#357AB6" stroke-width="0.83" stroke-miterlimit="10"/>
<path d="M517.315 -20.3648L-348.572 1011.9" stroke="#357AB6" stroke-width="0.83" stroke-miterlimit="10"/>
<path d="M529.428 -20.3648L-336.468 1011.9" stroke="#357AB6" stroke-width="0.83" stroke-miterlimit="10"/>
<path d="M541.532 -20.3648L-324.365 1011.9" stroke="#357AB6" stroke-width="0.83" stroke-miterlimit="10"/>
<path d="M553.636 -20.3648L-312.26 1011.9" stroke="#357AB6" stroke-width="0.83" stroke-miterlimit="10"/>
<path d="M565.74 -20.3648L-300.156 1011.9" stroke="#357AB6" stroke-width="0.83" stroke-miterlimit="10"/>
<path d="M577.844 -20.3648L-288.043 1011.9" stroke="#357AB6" stroke-width="0.83" stroke-miterlimit="10"/>
<path d="M589.948 -20.3648L-275.939 1011.9" stroke="#357AB6" stroke-width="0.83" stroke-miterlimit="10"/>
<path d="M602.061 -20.3648L-263.835 1011.9" stroke="#357AB6" stroke-width="0.83" stroke-miterlimit="10"/>
<path d="M614.165 -20.3648L-251.731 1011.9" stroke="#357AB6" stroke-width="0.83" stroke-miterlimit="10"/>
<path d="M626.269 -20.3648L-239.627 1011.9" stroke="#357AB6" stroke-width="0.83" stroke-miterlimit="10"/>
<path d="M638.373 -20.3648L-227.523 1011.9" stroke="#357AB6" stroke-width="0.83" stroke-miterlimit="10"/>
<path d="M650.477 -20.3648L-215.41 1011.9" stroke="#357AB6" stroke-width="0.83" stroke-miterlimit="10"/>
<path d="M662.581 -20.3648L-203.306 1011.9" stroke="#357AB6" stroke-width="0.83" stroke-miterlimit="10"/>
<path d="M674.695 -20.3648L-191.202 1011.9" stroke="#357AB6" stroke-width="0.83" stroke-miterlimit="10"/>
<path d="M686.798 -20.3648L-179.098 1011.9" stroke="#357AB6" stroke-width="0.83" stroke-miterlimit="10"/>
<path d="M698.902 -20.3648L-166.994 1011.9" stroke="#357AB6" stroke-width="0.83" stroke-miterlimit="10"/>
<path d="M711.006 -20.3648L-154.89 1011.9" stroke="#357AB6" stroke-width="0.83" stroke-miterlimit="10"/>
<path d="M723.11 -20.3648L-142.777 1011.9" stroke="#357AB6" stroke-width="0.83" stroke-miterlimit="10"/>
<path d="M735.214 -20.3648L-130.673 1011.9" stroke="#357AB6" stroke-width="0.83" stroke-miterlimit="10"/>
<path d="M747.328 -20.3648L-118.569 1011.9" stroke="#357AB6" stroke-width="0.83" stroke-miterlimit="10"/>
<path d="M759.431 -20.3648L-106.465 1011.9" stroke="#357AB6" stroke-width="0.83" stroke-miterlimit="10"/>
<path d="M771.536 -20.3648L-94.3611 1011.9" stroke="#357AB6" stroke-width="0.83" stroke-miterlimit="10"/>
<path d="M783.64 -20.3648L-82.2568 1011.9" stroke="#357AB6" stroke-width="0.83" stroke-miterlimit="10"/>
<path d="M795.744 -20.3648L-70.1436 1011.9" stroke="#357AB6" stroke-width="0.83" stroke-miterlimit="10"/>
<path d="M807.847 -20.3648L-58.04 1011.9" stroke="#357AB6" stroke-width="0.83" stroke-miterlimit="10"/>
<path d="M819.961 -20.3648L-45.936 1011.9" stroke="#357AB6" stroke-width="0.83" stroke-miterlimit="10"/>
<path d="M832.065 -20.3648L-33.832 1011.9" stroke="#357AB6" stroke-width="0.83" stroke-miterlimit="10"/>
<path d="M844.169 -20.3648L-21.728 1011.9" stroke="#357AB6" stroke-width="0.83" stroke-miterlimit="10"/>
<path d="M856.273 -20.3648L-9.62402 1011.9" stroke="#357AB6" stroke-width="0.83" stroke-miterlimit="10"/>
<path d="M868.376 -20.3648L2.48926 1011.9" stroke="#357AB6" stroke-width="0.83" stroke-miterlimit="10"/>
<path d="M880.48 -20.3648L14.5933 1011.9" stroke="#357AB6" stroke-width="0.83" stroke-miterlimit="10"/>
<path d="M892.594 -20.3648L26.6973 1011.9" stroke="#357AB6" stroke-width="0.83" stroke-miterlimit="10"/>
<path d="M904.697 -20.3648L38.8008 1011.9" stroke="#357AB6" stroke-width="0.83" stroke-miterlimit="10"/>
<path d="M916.802 -20.3648L50.9053 1011.9" stroke="#357AB6" stroke-width="0.83" stroke-miterlimit="10"/>
<path d="M928.906 -20.3648L63.009 1011.9" stroke="#357AB6" stroke-width="0.83" stroke-miterlimit="10"/>
<path d="M941.009 -20.3648L75.1221 1011.9" stroke="#357AB6" stroke-width="0.83" stroke-miterlimit="10"/>
<path d="M953.113 -20.3648L87.2261 1011.9" stroke="#357AB6" stroke-width="0.83" stroke-miterlimit="10"/>
<path d="M965.227 -20.3648L99.3301 1011.9" stroke="#357AB6" stroke-width="0.83" stroke-miterlimit="10"/>
<path d="M977.331 -20.3648L111.434 1011.9" stroke="#357AB6" stroke-width="0.83" stroke-miterlimit="10"/>
<path d="M989.435 -20.3648L123.538 1011.9" stroke="#357AB6" stroke-width="0.83" stroke-miterlimit="10"/>
<path d="M1001.54 -20.3648L135.642 1011.9" stroke="#357AB6" stroke-width="0.83" stroke-miterlimit="10"/>
<path d="M1013.64 -20.3648L147.755 1011.9" stroke="#357AB6" stroke-width="0.83" stroke-miterlimit="10"/>
<path d="M1025.75 -20.3648L159.86 1011.9" stroke="#357AB6" stroke-width="0.83" stroke-miterlimit="10"/>
<path d="M1037.85 -20.3648L171.963 1011.9" stroke="#357AB6" stroke-width="0.83" stroke-miterlimit="10"/>
<path d="M1049.96 -20.3648L184.067 1011.9" stroke="#357AB6" stroke-width="0.83" stroke-miterlimit="10"/>
<path d="M1062.07 -20.3648L196.171 1011.9" stroke="#357AB6" stroke-width="0.83" stroke-miterlimit="10"/>
<path d="M1074.17 -20.3648L208.275 1011.9" stroke="#357AB6" stroke-width="0.83" stroke-miterlimit="10"/>
<path d="M1086.28 -20.3648L220.388 1011.9" stroke="#357AB6" stroke-width="0.83" stroke-miterlimit="10"/>
<path d="M1098.38 -20.3648L232.493 1011.9" stroke="#357AB6" stroke-width="0.83" stroke-miterlimit="10"/>
<path d="M1110.48 -20.3648L244.597 1011.9" stroke="#357AB6" stroke-width="0.83" stroke-miterlimit="10"/>
<path d="M1121.35 -20.3648L255.465 1011.9" stroke="#357AB6" stroke-width="0.83" stroke-miterlimit="10"/>
<path d="M1133.47 -20.3648L267.569 1011.9" stroke="#357AB6" stroke-width="0.83" stroke-miterlimit="10"/>
<path d="M1145.57 -20.3648L279.673 1011.9" stroke="#357AB6" stroke-width="0.83" stroke-miterlimit="10"/>
<path d="M1157.67 -20.3648L291.777 1011.9" stroke="#357AB6" stroke-width="0.83" stroke-miterlimit="10"/>
<path d="M1169.78 -20.3648L303.881 1011.9" stroke="#357AB6" stroke-width="0.83" stroke-miterlimit="10"/>
<path d="M1181.88 -20.3648L315.994 1011.9" stroke="#357AB6" stroke-width="0.83" stroke-miterlimit="10"/>
<path d="M1193.99 -20.3648L328.098 1011.9" stroke="#357AB6" stroke-width="0.83" stroke-miterlimit="10"/>
<path d="M1206.09 -20.3648L340.202 1011.9" stroke="#357AB6" stroke-width="0.83" stroke-miterlimit="10"/>
<path d="M1218.2 -20.3648L352.306 1011.9" stroke="#357AB6" stroke-width="0.83" stroke-miterlimit="10"/>
<path d="M1230.31 -20.3648L364.41 1011.9" stroke="#357AB6" stroke-width="0.83" stroke-miterlimit="10"/>
<path d="M1242.41 -20.3648L376.514 1011.9" stroke="#357AB6" stroke-width="0.83" stroke-miterlimit="10"/>
<path d="M1254.51 -20.3648L388.627 1011.9" stroke="#357AB6" stroke-width="0.83" stroke-miterlimit="10"/>
<path d="M1266.62 -20.3648L400.731 1011.9" stroke="#357AB6" stroke-width="0.83" stroke-miterlimit="10"/>
<path d="M1278.72 -20.3648L412.835 1011.9" stroke="#357AB6" stroke-width="0.83" stroke-miterlimit="10"/>
<path d="M1290.84 -20.3648L424.939 1011.9" stroke="#357AB6" stroke-width="0.83" stroke-miterlimit="10"/>
<path d="M1302.94 -20.3648L437.043 1011.9" stroke="#357AB6" stroke-width="0.83" stroke-miterlimit="10"/>
<path d="M1315.04 -20.3648L449.147 1011.9" stroke="#357AB6" stroke-width="0.83" stroke-miterlimit="10"/>
<path d="M1327.15 -20.3648L461.26 1011.9" stroke="#357AB6" stroke-width="0.83" stroke-miterlimit="10"/>
<path d="M1339.25 -20.3648L473.364 1011.9" stroke="#357AB6" stroke-width="0.83" stroke-miterlimit="10"/>
<path d="M1351.36 -20.3648L485.468 1011.9" stroke="#357AB6" stroke-width="0.83" stroke-miterlimit="10"/>
<path d="M1363.47 -20.3648L497.572 1011.9" stroke="#357AB6" stroke-width="0.83" stroke-miterlimit="10"/>
<path d="M1375.57 -20.3648L509.676 1011.9" stroke="#357AB6" stroke-width="0.83" stroke-miterlimit="10"/>
<path d="M1387.68 -20.3648L521.78 1011.9" stroke="#357AB6" stroke-width="0.83" stroke-miterlimit="10"/>
<path d="M1399.78 -20.3648L533.894 1011.9" stroke="#357AB6" stroke-width="0.83" stroke-miterlimit="10"/>
<path d="M1411.88 -20.3648L545.998 1011.9" stroke="#357AB6" stroke-width="0.83" stroke-miterlimit="10"/>
<path d="M1423.99 -20.3648L558.102 1011.9" stroke="#357AB6" stroke-width="0.83" stroke-miterlimit="10"/>
<path d="M1436.1 -20.3648L570.205 1011.9" stroke="#357AB6" stroke-width="0.83" stroke-miterlimit="10"/>
<path d="M1448.21 -20.3648L582.309 1011.9" stroke="#357AB6" stroke-width="0.83" stroke-miterlimit="10"/>
<path d="M1460.31 -20.3648L594.413 1011.9" stroke="#357AB6" stroke-width="0.83" stroke-miterlimit="10"/>
<path d="M1472.41 -20.3648L606.517 1011.9" stroke="#357AB6" stroke-width="0.83" stroke-miterlimit="10"/>
<path d="M1484.52 -20.3648L618.63 1011.9" stroke="#357AB6" stroke-width="0.83" stroke-miterlimit="10"/>
<path d="M1496.62 -20.3648L630.735 1011.9" stroke="#357AB6" stroke-width="0.83" stroke-miterlimit="10"/>
<path d="M1508.74 -20.3648L642.838 1011.9" stroke="#357AB6" stroke-width="0.83" stroke-miterlimit="10"/>
<path d="M1520.84 -20.3648L654.942 1011.9" stroke="#357AB6" stroke-width="0.83" stroke-miterlimit="10"/>
<path d="M1532.94 -20.3648L667.046 1011.9" stroke="#357AB6" stroke-width="0.83" stroke-miterlimit="10"/>
<path d="M1545.05 -20.3648L679.15 1011.9" stroke="#357AB6" stroke-width="0.83" stroke-miterlimit="10"/>
<path d="M1557.15 -20.3648L691.264 1011.9" stroke="#357AB6" stroke-width="0.83" stroke-miterlimit="10"/>
<path d="M1569.25 -20.3648L703.368 1011.9" stroke="#357AB6" stroke-width="0.83" stroke-miterlimit="10"/>
<path d="M1581.37 -20.3648L715.471 1011.9" stroke="#357AB6" stroke-width="0.83" stroke-miterlimit="10"/>
<path d="M1593.47 -20.3648L727.576 1011.9" stroke="#357AB6" stroke-width="0.83" stroke-miterlimit="10"/>
<path d="M1605.58 -20.3648L739.68 1011.9" stroke="#357AB6" stroke-width="0.83" stroke-miterlimit="10"/>
<path d="M1617.68 -20.3648L751.783 1011.9" stroke="#357AB6" stroke-width="0.83" stroke-miterlimit="10"/>
<path d="M1629.78 -20.3648L763.897 1011.9" stroke="#357AB6" stroke-width="0.83" stroke-miterlimit="10"/>
<path d="M1641.89 -20.3648L776.001 1011.9" stroke="#357AB6" stroke-width="0.83" stroke-miterlimit="10"/>
<path d="M1654 -20.3648L788.105 1011.9" stroke="#357AB6" stroke-width="0.83" stroke-miterlimit="10"/>
<path d="M1666.11 -20.3648L800.208 1011.9" stroke="#357AB6" stroke-width="0.83" stroke-miterlimit="10"/>
<path d="M1678.21 -20.3648L812.312 1011.9" stroke="#357AB6" stroke-width="0.83" stroke-miterlimit="10"/>
<path d="M1690.31 -20.3648L824.417 1011.9" stroke="#357AB6" stroke-width="0.83" stroke-miterlimit="10"/>
<path d="M1702.42 -20.3648L836.53 1011.9" stroke="#357AB6" stroke-width="0.83" stroke-miterlimit="10"/>
<path d="M1714.52 -20.3648L848.634 1011.9" stroke="#357AB6" stroke-width="0.83" stroke-miterlimit="10"/>
<path d="M1726.63 -20.3648L860.738 1011.9" stroke="#357AB6" stroke-width="0.83" stroke-miterlimit="10"/>
<path d="M1738.74 -20.3648L872.842 1011.9" stroke="#357AB6" stroke-width="0.83" stroke-miterlimit="10"/>
<path d="M1750.84 -20.3648L884.946 1011.9" stroke="#357AB6" stroke-width="0.83" stroke-miterlimit="10"/>
<path d="M1762.95 -20.3648L897.05 1011.9" stroke="#357AB6" stroke-width="0.83" stroke-miterlimit="10"/>
<path d="M1775.05 -20.3648L909.163 1011.9" stroke="#357AB6" stroke-width="0.83" stroke-miterlimit="10"/>
<path d="M1787.15 -20.3648L921.267 1011.9" stroke="#357AB6" stroke-width="0.83" stroke-miterlimit="10"/>
<path d="M1799.27 -20.3648L933.371 1011.9" stroke="#357AB6" stroke-width="0.83" stroke-miterlimit="10"/>
<path d="M1811.37 -20.3648L945.475 1011.9" stroke="#357AB6" stroke-width="0.83" stroke-miterlimit="10"/>
<path d="M1823.48 -20.3648L957.579 1011.9" stroke="#357AB6" stroke-width="0.83" stroke-miterlimit="10"/>
<path d="M1835.58 -20.3648L969.683 1011.9" stroke="#357AB6" stroke-width="0.83" stroke-miterlimit="10"/>
<path d="M1847.68 -20.3648L981.796 1011.9" stroke="#357AB6" stroke-width="0.83" stroke-miterlimit="10"/>
<path d="M1859.79 -20.3648L993.9 1011.9" stroke="#357AB6" stroke-width="0.83" stroke-miterlimit="10"/>
<path d="M1871.9 -20.3648L1006 1011.9" stroke="#357AB6" stroke-width="0.83" stroke-miterlimit="10"/>
<path d="M1884 -20.3648L1018.11 1011.9" stroke="#357AB6" stroke-width="0.83" stroke-miterlimit="10"/>
<path d="M1896.11 -20.3648L1030.21 1011.9" stroke="#357AB6" stroke-width="0.83" stroke-miterlimit="10"/>
<path d="M1908.21 -20.3648L1042.32 1011.9" stroke="#357AB6" stroke-width="0.83" stroke-miterlimit="10"/>
<path d="M1920.32 -20.3648L1054.43 1011.9" stroke="#357AB6" stroke-width="0.83" stroke-miterlimit="10"/>
<path d="M1932.42 -20.3648L1066.53 1011.9" stroke="#357AB6" stroke-width="0.83" stroke-miterlimit="10"/>
<path d="M1944.52 -20.3648L1078.64 1011.9" stroke="#357AB6" stroke-width="0.83" stroke-miterlimit="10"/>
<path d="M1956.64 -20.3648L1090.74 1011.9" stroke="#357AB6" stroke-width="0.83" stroke-miterlimit="10"/>
<path d="M1968.74 -20.3648L1102.84 1011.9" stroke="#357AB6" stroke-width="0.83" stroke-miterlimit="10"/>
<path d="M1980.85 -20.3648L1114.95 1011.9" stroke="#357AB6" stroke-width="0.83" stroke-miterlimit="10"/>
<path d="M1992.95 -20.3648L1127.06 1011.9" stroke="#357AB6" stroke-width="0.83" stroke-miterlimit="10"/>
<path d="M2005.05 -20.3648L1139.17 1011.9" stroke="#357AB6" stroke-width="0.83" stroke-miterlimit="10"/>
<path d="M2017.16 -20.3648L1151.27 1011.9" stroke="#357AB6" stroke-width="0.83" stroke-miterlimit="10"/>
<path d="M2029.27 -20.3648L1163.37 1011.9" stroke="#357AB6" stroke-width="0.83" stroke-miterlimit="10"/>
<path d="M2041.37 -20.3648L1175.48 1011.9" stroke="#357AB6" stroke-width="0.83" stroke-miterlimit="10"/>
<path d="M2053.48 -20.3648L1187.58 1011.9" stroke="#357AB6" stroke-width="0.83" stroke-miterlimit="10"/>
<path d="M2065.58 -20.3648L1199.7 1011.9" stroke="#357AB6" stroke-width="0.83" stroke-miterlimit="10"/>
<path d="M2077.69 -20.3648L1211.8 1011.9" stroke="#357AB6" stroke-width="0.83" stroke-miterlimit="10"/>
<path d="M2089.79 -20.3648L1223.9 1011.9" stroke="#357AB6" stroke-width="0.83" stroke-miterlimit="10"/>
</g>
</g>
</svg>
