<?xml version="1.0" encoding="UTF-8"?><svg id="_レイヤー_2" xmlns="http://www.w3.org/2000/svg" viewBox="0 0 283.07 115.77"><defs><style>.cls-1{fill:#00479b;}.cls-2{fill:#e73817;}.cls-3{fill:#231815;}</style></defs><g id="_レイヤー_1-2"><path class="cls-3" d="m30.16,97.47h-6.86v-5.79h6.08c.3,0,.54-.24.54-.54v-2.54c0-.3-.24-.54-.54-.54h-6.08v-3.17c0-.3-.24-.54-.54-.54h-2.64c-.3,0-.54.24-.54.54v3.17h-2.87c.08-.81.15-1.66.2-2.56,0-.15-.04-.3-.15-.4-.1-.11-.24-.17-.39-.17h-2.35c-.29,0-.53.23-.54.52-.19,3.91-.99,7.61-2.2,10.16-.08.17-.07.37.03.52.1.16.27.25.46.25h2.51c.22,0,.42-.13.5-.34.56-1.37,1.01-2.84,1.34-4.36h3.45v5.79h-6.96c-.3,0-.54.24-.54.54v2.54c0,.3.24.54.54.54h5.52c-.99,3.23-3.5,7.03-6.16,9.28-.12.1-.19.26-.19.42v3.33c0,.2.11.38.28.48.18.09.39.09.55-.02,2.2-1.4,5.05-4.66,6.96-8.64v8.5c0,.3.24.54.54.54h2.64c.3,0,.54-.24.54-.54v-8.49c1.69,3.67,4.26,7.11,6.56,8.62.17.11.38.12.56.02.18-.1.28-.28.28-.48v-3.33c0-.15-.07-.3-.18-.4-2.6-2.33-5-6.13-5.92-9.29h5.56c.3,0,.54-.24.54-.54v-2.54c0-.3-.24-.54-.54-.54Z"/><path class="cls-3" d="m11.98,102.25v-3.65c0-.13-.05-.26-.13-.36l-3.81-4.38v-2.12h3.3c.3,0,.54-.24.54-.54v-2.51c0-.3-.24-.54-.54-.54h-3.3v-3.27c0-.3-.24-.54-.54-.54h-2.54c-.3,0-.54.24-.54.54v3.27H.54c-.3,0-.54.24-.54.54v2.51c0,.3.24.54.54.54h3.86v1.46c-.43,4.38-2.79,8.66-4.28,10.47-.08.1-.12.22-.12.35v3.88c0,.22.13.42.34.5.2.08.44.04.59-.12,1.2-1.22,2.41-2.93,3.47-4.86v11.07c0,.3.24.54.54.54h2.54c.3,0,.54-.24.54-.54v-15.61l2.98,3.72c.15.18.39.25.6.17.22-.08.36-.28.36-.51Z"/><path class="cls-3" d="m52.27,108.91c-2.08.76-4.52,1.29-7.26,1.57v-9.85h6.76c.3,0,.54-.24.54-.54v-2.61c0-.3-.24-.54-.54-.54h-17.32c-.3,0-.54.24-.54.54v2.61c0,.3.24.54.54.54h6.73v10.16c-2.42.12-4.85.14-6.73.14-.3,0-.54.24-.54.54v2.58c0,.3.24.54.54.54,8.33,0,13.94-.61,18.17-1.98.23-.07.38-.28.38-.52v-2.67c0-.18-.09-.34-.23-.45-.15-.1-.33-.13-.5-.07Z"/><path class="cls-3" d="m64.07,88.69h-1.38l-.79-3.93c-.05-.25-.27-.44-.53-.44h-2.12c-.16,0-.31.07-.42.2-.1.12-.15.29-.12.45l.7,3.73h-2.68v-3.83c0-.3-.24-.54-.54-.54h-2.74c-.3,0-.54.24-.54.54v3.83h-18.44c-.3,0-.54.24-.54.54v2.64c0,.3.24.54.54.54h18.44v.53c0,10.78,3.68,18.18,10.92,21.97.08.04.17.06.25.06.1,0,.2-.03.28-.08.16-.1.26-.27.26-.47v-3.33c0-.19-.1-.36-.26-.46-5.28-3.29-7.64-8.74-7.64-17.67v-.56h7.35c.3,0,.54-.24.54-.54v-2.64c0-.3-.24-.54-.54-.54Z"/><path class="cls-3" d="m98.08,92.29c-5.77-.81-10.1-3.48-12.52-7.72-.1-.17-.28-.27-.47-.27h-3.82c-.2,0-.38.1-.47.27-2.34,4.08-6.67,6.75-12.53,7.72-.26.04-.45.27-.45.54v2.8c0,.16.07.31.19.42.12.1.28.15.44.12.77-.13,1.51-.28,2.24-.46v2.34c0,.3.24.54.54.54h23.94c.3,0,.54-.24.54-.54v-2.3c.72.17,1.46.31,2.21.42.15.02.32-.02.43-.13.12-.1.19-.25.19-.41v-2.8c0-.27-.2-.5-.47-.54Zm-24.85,2.67c4.22-1.46,7.59-3.81,9.93-6.93,2.29,3.12,5.67,5.49,9.8,6.93h-19.73Z"/><path class="cls-3" d="m98.01,102.06h-29.65c-.3,0-.54.24-.54.54v2.51c0,.3.24.54.54.54h5.18l-2.52,5.34h-2.66c-.3,0-.54.24-.54.54v2.51c0,.3.24.54.54.54,1.59,0,3.08,0,4.49.02,10.67.07,16.01-.05,20.72-1.92l.95,1.98c.09.19.28.31.49.31h3c.19,0,.36-.09.46-.25.1-.16.11-.35.03-.52l-3.72-7.93c-.09-.19-.28-.31-.49-.31h-2.97c-.19,0-.36.09-.46.25-.1.16-.11.35-.04.52l1.28,2.78c-4.18,1.36-8.82,1.47-16.82,1.47l2.55-5.34h20.17c.3,0,.54-.24.54-.54v-2.51c0-.3-.24-.54-.54-.54Z"/><path class="cls-3" d="m131.9,110.74h-6.6v-13.79h5.75c.3,0,.54-.24.54-.54v-2.77c0-.3-.24-.54-.54-.54h-5.75v-8.23c0-.3-.24-.54-.54-.54h-2.71c-.3,0-.54.24-.54.54v8.23h-5.75c-.3,0-.54.24-.54.54v2.77c0,.3.24.54.54.54h5.75v13.79h-6.63c-.3,0-.54.24-.54.54v2.77c0,.3.24.54.54.54h17.02c.3,0,.54-.24.54-.54v-2.77c0-.3-.24-.54-.54-.54Z"/><path class="cls-3" d="m114.86,108.06c.2-.09.33-.28.33-.5v-3.29c0-.16-.07-.31-.19-.41l-4.51-3.94c2.28-3.12,3.71-6.39,4.05-9.31v-2.41c0-.3-.24-.54-.54-.54h-3.96v-2.78c0-.3-.24-.54-.54-.54h-2.64c-.3,0-.54.24-.54.54v2.78h-4.02c-.3,0-.54.24-.54.54v2.51c0,.3.24.54.54.54h8.4c-.9,4.65-5.1,9.66-8.67,11.77-.16.1-.27.28-.27.47v3.26c0,.19.1.38.27.47.17.1.38.1.55,0,1.36-.8,2.73-1.82,4.01-2.98v10.21c0,.3.24.54.54.54h2.64c.3,0,.54-.24.54-.54v-10.17l3.98,3.69c.16.15.39.19.59.1Z"/><path class="cls-3" d="m167.8,89.69h-3.07c-.3,0-.54.24-.54.54v7.87c0,8.54-3.48,13.43-9.55,13.43h-3.59v-26.93c0-.3-.24-.54-.54-.54h-3.15c-.3,0-.54.24-.54.54v30.55c0,.3.24.54.54.54h6.99c8.9,0,14.01-6.32,14.01-17.34v-8.12c0-.3-.24-.54-.54-.54Z"/><path class="cls-3" d="m142.37,84.06h-3.11c-.3,0-.54.24-.54.54v14.89c0,6.83-.97,12.46-2.67,15.46-.09.17-.09.37,0,.54s.28.27.47.27h3.37c.2,0,.39-.11.48-.29,1.67-3.14,2.55-8.68,2.55-16.02v-14.85c0-.3-.24-.54-.54-.54Z"/><rect class="cls-3" x="173.74" y="97.78" width="25.48" height="4.34" rx=".54" ry=".54"/><path class="cls-3" d="m233.13,98.91c-9.18,0-17.46-1.52-22.8-4.18v-10.5c0-.3-.24-.54-.54-.54h-3.15c-.3,0-.54.24-.54.54v30.84c0,.3.24.54.54.54h3.15c.3,0,.54-.24.54-.54v-15.8c5.54,2.43,13.97,3.87,22.8,3.87.3,0,.54-.24.54-.54v-3.15c0-.3-.24-.54-.54-.54Z"/><path class="cls-3" d="m251.47,83.91h-4.5c-6.04,0-10.09,3.88-10.09,9.65v1.32c0,.3.24.54.54.54h3.26c.3,0,.54-.24.54-.54v-1.1c0-3.48,2.34-5.64,6.12-5.64h4.06c5.23,0,6.01,2.82,6.01,4.51v.84c0,3.5-2.93,4.32-7.72,5.38-5.77,1.28-12.96,2.87-12.96,13.02v1.68c0,.3.24.54.54.54h24c.3,0,.54-.24.54-.54v-3.15c0-.3-.24-.54-.54-.54h-20.22c.48-4.04,2.94-5.81,9.99-7.41,7.17-1.63,10.81-3.45,10.81-8.91v-1.13c0-5.33-3.88-8.52-10.39-8.52Z"/><path class="cls-3" d="m282.53,84.13h-3.09s-13.25,3.12-13.25,3.12c-.24.06-.42.28-.42.53v3.18c0,.17.08.32.21.43s.3.14.46.1l12.43-2.88v24.96c0,.3.24.54.54.54h3.11c.3,0,.54-.24.54-.54v-28.9c0-.3-.24-.54-.54-.54Z"/><path class="cls-1" d="m29.51,16.52c.65,1.12,1.29,2.23,1.9,3.3h9.06c8.38,0,14.99,2.61,14.99,10.8,0,6.49-4.13,10.22-10.49,11.36,2.27,3.46,4.69,6.8,7.31,9.93,11.51-2.68,19.94-10.32,19.94-21.2,0-11.55-10.62-21.51-29.38-21.51h-17.52c1.36,2.41,2.81,4.92,4.19,7.32Z"/><path class="cls-1" d="m15.99,9.2H5.08l10.5,8.93c.24-3.43.35-6.46.4-8.93Z"/><path class="cls-1" d="m28.18,72.46C31.74,48.15,17.64,2.53,17.64,2.53c0,0,1.91,48.31-17.64,69.93h28.18Z"/><path class="cls-2" d="m66.38,72.46h-26.42L18.52,0c2.9,6.37,12.47,22.06,15.7,28.27,5.53,10.65,12.29,20.62,20.02,29.79l12.14,14.4Z"/></g></svg>