<?xml version="1.0" encoding="UTF-8"?><svg id="_レイヤー_2" xmlns="http://www.w3.org/2000/svg" viewBox="0 0 218.93 30.71"><defs><style>.cls-1{fill:#fff;}</style></defs><g id="_レイヤー_1-2"><path class="cls-1" d="m57.96,19.06h-4.37v-3.69h3.87c.19,0,.35-.15.35-.35v-1.62c0-.19-.15-.35-.35-.35h-3.87v-2.02c0-.19-.15-.35-.35-.35h-1.68c-.19,0-.35.15-.35.35v2.02h-1.83c.05-.52.1-1.06.13-1.63,0-.1-.03-.19-.09-.26-.06-.07-.16-.11-.25-.11h-1.49c-.18,0-.34.15-.35.33-.12,2.49-.63,4.84-1.4,6.47-.05.11-.04.23.02.33.06.1.17.16.29.16h1.6c.14,0,.27-.09.32-.22.35-.87.64-1.81.85-2.77h2.2v3.69h-4.43c-.19,0-.35.15-.35.35v1.62c0,.19.15.35.35.35h3.51c-.63,2.06-2.22,4.48-3.92,5.91-.08.07-.12.16-.12.26v2.12c0,.13.07.24.18.3.11.06.25.06.35-.01,1.4-.89,3.21-2.96,4.43-5.5v5.41c0,.19.15.35.35.35h1.68c.19,0,.35-.15.35-.35v-5.4c1.08,2.34,2.71,4.53,4.18,5.48.11.07.24.07.35.01.11-.06.18-.18.18-.3v-2.12c0-.1-.04-.19-.12-.26-1.65-1.48-3.19-3.9-3.77-5.92h3.54c.19,0,.35-.15.35-.35v-1.62c0-.19-.15-.35-.35-.35Z"/><path class="cls-1" d="m46.39,22.1v-2.33c0-.08-.03-.16-.08-.23l-2.43-2.79v-1.35h2.1c.19,0,.35-.15.35-.35v-1.6c0-.19-.15-.35-.35-.35h-2.1v-2.08c0-.19-.15-.35-.35-.35h-1.62c-.19,0-.35.15-.35.35v2.08h-2.46c-.19,0-.35.15-.35.35v1.6c0,.19.15.35.35.35h2.46v.93c-.27,2.79-1.78,5.51-2.72,6.66-.05.06-.08.14-.08.22v2.47c0,.14.08.27.22.32.13.05.28.02.38-.08.76-.78,1.54-1.87,2.21-3.1v7.05c0,.19.15.35.35.35h1.62c.19,0,.35-.15.35-.35v-9.93l1.89,2.37c.09.12.25.16.38.11.14-.05.23-.18.23-.33Z"/><path class="cls-1" d="m72.03,26.34c-1.32.48-2.87.82-4.62,1v-6.27h4.3c.19,0,.35-.15.35-.35v-1.66c0-.19-.15-.35-.35-.35h-11.02c-.19,0-.35.15-.35.35v1.66c0,.19.15.35.35.35h4.28v6.47c-1.54.08-3.09.09-4.28.09-.19,0-.35.15-.35.35v1.64c0,.19.15.35.35.35,5.3,0,8.87-.39,11.57-1.26.14-.05.24-.18.24-.33v-1.7c0-.11-.05-.22-.15-.28-.09-.07-.21-.08-.32-.04Z"/><path class="cls-1" d="m79.54,13.47h-.88l-.5-2.5c-.03-.16-.17-.28-.34-.28h-1.35c-.1,0-.2.05-.27.12-.07.08-.09.18-.07.28l.44,2.37h-1.71v-2.44c0-.19-.15-.35-.35-.35h-1.74c-.19,0-.35.15-.35.35v2.44h-11.74c-.19,0-.35.15-.35.35v1.68c0,.19.15.35.35.35h11.74v.34c0,6.86,2.34,11.57,6.95,13.99.05.03.11.04.16.04.06,0,.12-.02.18-.05.1-.06.17-.17.17-.3v-2.12c0-.12-.06-.23-.16-.29-3.36-2.09-4.86-5.56-4.86-11.25v-.36h4.68c.19,0,.35-.15.35-.35v-1.68c0-.19-.15-.35-.35-.35Z"/><path class="cls-1" d="m101.19,15.76c-3.67-.52-6.43-2.22-7.97-4.92-.06-.11-.18-.17-.3-.17h-2.43c-.12,0-.24.07-.3.17-1.49,2.6-4.25,4.3-7.98,4.92-.17.03-.29.17-.29.34v1.79c0,.1.05.2.12.26.08.07.18.09.28.08.49-.08.96-.18,1.42-.29v1.49c0,.19.15.35.35.35h15.24c.19,0,.35-.15.35-.35v-1.46c.46.11.93.2,1.41.27.1.02.2-.01.28-.08.08-.07.12-.16.12-.26v-1.79c0-.17-.13-.32-.3-.34Zm-15.81,1.7c2.68-.93,4.83-2.42,6.32-4.41,1.46,1.99,3.61,3.5,6.24,4.41h-12.56Z"/><path class="cls-1" d="m101.14,21.98h-18.87c-.19,0-.35.15-.35.35v1.6c0,.19.15.35.35.35h3.3l-1.6,3.4h-1.69c-.19,0-.35.15-.35.35v1.6c0,.19.15.35.35.35,1.01,0,1.96,0,2.86.01,6.79.04,10.19-.03,13.19-1.22l.61,1.26c.06.12.18.2.31.2h1.91c.12,0,.23-.06.29-.16.06-.1.07-.23.02-.33l-2.37-5.04c-.06-.12-.18-.2-.31-.2h-1.89c-.12,0-.23.06-.29.16-.06.1-.07.22-.02.33l.82,1.77c-2.66.86-5.61.93-10.71.94l1.62-3.4h12.84c.19,0,.35-.15.35-.35v-1.6c0-.19-.15-.35-.35-.35Z"/><path class="cls-1" d="m122.71,27.51h-4.2v-8.77h3.66c.19,0,.35-.15.35-.35v-1.76c0-.19-.15-.35-.35-.35h-3.66v-5.24c0-.19-.15-.35-.35-.35h-1.72c-.19,0-.35.15-.35.35v5.24h-3.66c-.19,0-.35.15-.35.35v1.76c0,.19.15.35.35.35h3.66v8.77h-4.22c-.19,0-.35.15-.35.35v1.76c0,.19.15.35.35.35h10.84c.19,0,.35-.15.35-.35v-1.76c0-.19-.15-.35-.35-.35Z"/><path class="cls-1" d="m111.87,25.8c.13-.05.21-.18.21-.32v-2.1c0-.1-.04-.2-.12-.26l-2.87-2.51c1.45-1.99,2.36-4.07,2.58-5.93v-1.54c0-.19-.15-.35-.35-.35h-2.52v-1.77c0-.19-.15-.35-.35-.35h-1.68c-.19,0-.35.15-.35.35v1.77h-2.56c-.19,0-.35.15-.35.35v1.6c0,.19.15.35.35.35h5.34c-.57,2.96-3.25,6.15-5.52,7.49-.1.06-.17.18-.17.3v2.08c0,.12.07.24.17.3.11.06.24.06.35,0,.87-.51,1.74-1.16,2.55-1.9v6.5c0,.19.15.35.35.35h1.68c.19,0,.35-.15.35-.35v-6.47l2.53,2.35c.1.09.25.12.37.06Z"/><path class="cls-1" d="m145.57,14.11h-1.96c-.19,0-.35.15-.35.35v5.01c0,5.43-2.22,8.55-6.08,8.55h-2.29V10.87c0-.19-.15-.35-.35-.35h-2c-.19,0-.35.15-.35.35v19.45c0,.19.15.35.35.35h4.45c5.67,0,8.92-4.02,8.92-11.04v-5.17c0-.19-.15-.35-.35-.35Z"/><path class="cls-1" d="m129.38,10.52h-1.98c-.19,0-.35.15-.35.35v9.48c0,4.34-.62,7.93-1.7,9.84-.06.11-.06.24,0,.34s.18.17.3.17h2.14c.13,0,.25-.07.31-.18,1.06-2,1.62-5.53,1.62-10.2v-9.45c0-.19-.15-.35-.35-.35Z"/><rect class="cls-1" x="149.35" y="19.26" width="16.22" height="2.76" rx=".35" ry=".35"/><path class="cls-1" d="m187.15,19.98c-5.84,0-11.11-.97-14.51-2.66v-6.68c0-.19-.15-.35-.35-.35h-2c-.19,0-.35.15-.35.35v19.63c0,.19.15.35.35.35h2c.19,0,.35-.15.35-.35v-10.06c3.53,1.55,8.89,2.46,14.51,2.46.19,0,.35-.15.35-.35v-2c0-.19-.15-.35-.35-.35Z"/><path class="cls-1" d="m198.82,10.43h-2.86c-3.84,0-6.42,2.47-6.42,6.14v.84c0,.19.15.35.35.35h2.07c.19,0,.35-.15.35-.35v-.7c0-2.21,1.49-3.59,3.89-3.59h2.59c3.33,0,3.82,1.8,3.82,2.87v.54c0,2.23-1.87,2.75-4.91,3.42-3.67.81-8.25,1.83-8.25,8.29v1.07c0,.19.15.35.35.35h15.28c.19,0,.35-.15.35-.35v-2c0-.19-.15-.35-.35-.35h-12.87c.31-2.57,1.87-3.7,6.36-4.72,4.56-1.04,6.88-2.2,6.88-5.67v-.72c0-3.4-2.47-5.42-6.61-5.42Z"/><path class="cls-1" d="m218.59,10.57h-1.97s-8.43,1.99-8.43,1.99c-.16.04-.27.18-.27.34v2.03c0,.11.05.21.13.27s.19.09.29.07l7.91-1.83v15.89c0,.19.15.35.35.35h1.98c.19,0,.35-.15.35-.35V10.91c0-.19-.15-.35-.35-.35Z"/><path class="cls-1" d="m12.5,7c.27.48.54.95.81,1.4h3.84c3.55,0,6.35,1.11,6.35,4.58,0,2.75-1.75,4.33-4.44,4.81.96,1.47,1.99,2.88,3.1,4.21,4.88-1.14,8.45-4.37,8.45-8.98,0-4.89-4.5-9.12-12.45-9.12h-7.42c.58,1.02,1.19,2.09,1.78,3.1Z"/><path class="cls-1" d="m6.77,3.9H2.15l4.45,3.78c.1-1.45.15-2.74.17-3.78Z"/><path class="cls-1" d="m11.94,30.71C13.45,20.41,7.48,1.07,7.48,1.07c0,0,.81,20.47-7.48,29.63h11.94Z"/><path class="cls-1" d="m28.13,30.71h-11.2L7.85,0c1.23,2.7,5.28,9.35,6.65,11.98,2.34,4.51,5.21,8.74,8.48,12.62l5.14,6.1Z"/></g></svg>