<?xml version="1.0" encoding="UTF-8"?><svg id="_レイヤー_2" xmlns="http://www.w3.org/2000/svg" viewBox="0 0 274.79 38.54"><defs><style>.cls-1{fill:#00479b;}.cls-2{fill:#e73817;}.cls-3{fill:#231815;}</style></defs><g id="_レイヤー_1-2"><path class="cls-3" d="m72.75,23.92h-5.48v-4.63h4.86c.24,0,.43-.19.43-.43v-2.03c0-.24-.19-.43-.43-.43h-4.86v-2.54c0-.24-.19-.43-.43-.43h-2.11c-.24,0-.43.19-.43.43v2.54h-2.29c.06-.65.12-1.33.16-2.04,0-.12-.04-.24-.12-.32-.08-.09-.2-.14-.32-.14h-1.88c-.23,0-.42.18-.43.41-.15,3.12-.79,6.08-1.76,8.12-.06.13-.05.29.02.42.08.13.22.2.37.2h2.01c.18,0,.34-.11.4-.27.44-1.1.8-2.27,1.07-3.48h2.76v4.63h-5.56c-.24,0-.43.19-.43.43v2.03c0,.24.19.43.43.43h4.41c-.79,2.58-2.79,5.62-4.92,7.42-.1.08-.15.2-.15.33v2.66c0,.16.09.3.23.38.14.08.31.07.44-.02,1.76-1.12,4.03-3.72,5.56-6.9v6.79c0,.24.19.43.43.43h2.11c.24,0,.43-.19.43-.43v-6.78c1.35,2.93,3.4,5.68,5.24,6.88.13.09.31.09.44.02.14-.08.23-.22.23-.38v-2.66c0-.12-.05-.24-.14-.32-2.08-1.86-4-4.9-4.73-7.42h4.44c.24,0,.43-.19.43-.43v-2.03c0-.24-.19-.43-.43-.43Z"/><path class="cls-3" d="m58.22,27.74v-2.92c0-.1-.04-.21-.11-.28l-3.05-3.5v-1.7h2.64c.24,0,.43-.19.43-.43v-2.01c0-.24-.19-.43-.43-.43h-2.64v-2.61c0-.24-.19-.43-.43-.43h-2.03c-.24,0-.43.19-.43.43v2.61h-3.08c-.24,0-.43.19-.43.43v2.01c0,.24.19.43.43.43h3.08v1.16c-.34,3.5-2.23,6.92-3.42,8.37-.06.08-.1.18-.1.28v3.1c0,.18.11.34.27.4.16.07.35.03.47-.1.96-.98,1.93-2.34,2.77-3.89v8.84c0,.24.19.43.43.43h2.03c.24,0,.43-.19.43-.43v-12.47l2.38,2.97c.12.15.32.2.48.14.17-.06.29-.23.29-.41Z"/><path class="cls-3" d="m90.41,33.06c-1.66.61-3.61,1.03-5.8,1.26v-7.87h5.4c.24,0,.43-.19.43-.43v-2.08c0-.24-.19-.43-.43-.43h-13.83c-.24,0-.43.19-.43.43v2.08c0,.24.19.43.43.43h5.38v8.12c-1.94.09-3.87.11-5.38.11-.24,0-.43.19-.43.43v2.06c0,.24.19.43.43.43,6.66,0,11.13-.49,14.52-1.58.18-.06.3-.23.3-.41v-2.14c0-.14-.07-.27-.19-.36-.12-.08-.26-.1-.4-.05Z"/><path class="cls-3" d="m99.83,16.91h-1.1l-.63-3.14c-.04-.2-.22-.35-.43-.35h-1.69c-.13,0-.25.06-.33.16-.08.1-.12.23-.09.36l.56,2.98h-2.14v-3.06c0-.24-.19-.43-.43-.43h-2.19c-.24,0-.43.19-.43.43v3.06h-14.73c-.24,0-.43.19-.43.43v2.11c0,.24.19.43.43.43h14.73v.43c0,8.61,2.94,14.52,8.73,17.56.06.03.13.05.2.05.08,0,.16-.02.23-.06.13-.08.21-.22.21-.37v-2.66c0-.15-.08-.29-.2-.37-4.22-2.63-6.1-6.98-6.1-14.12v-.45h5.87c.24,0,.43-.19.43-.43v-2.11c0-.24-.19-.43-.43-.43Z"/><path class="cls-3" d="m127.01,19.78c-4.61-.65-8.06-2.78-10-6.17-.08-.14-.22-.22-.38-.22h-3.05c-.16,0-.3.08-.38.22-1.87,3.26-5.33,5.4-10.01,6.17-.21.04-.36.22-.36.43v2.24c0,.13.06.25.15.33.1.08.23.12.35.1.61-.1,1.21-.23,1.79-.37v1.87c0,.24.19.43.43.43h19.12c.24,0,.43-.19.43-.43v-1.84c.58.13,1.17.25,1.77.34.12.02.25-.02.35-.1.1-.08.15-.2.15-.33v-2.24c0-.22-.16-.4-.37-.43Zm-19.85,2.13c3.37-1.16,6.06-3.04,7.93-5.54,1.83,2.49,4.53,4.39,7.83,5.54h-15.76Z"/><path class="cls-3" d="m126.95,27.59h-23.69c-.24,0-.43.19-.43.43v2.01c0,.24.19.43.43.43h4.14l-2.01,4.26h-2.12c-.24,0-.43.19-.43.43v2.01c0,.24.19.43.43.43,1.27,0,2.46,0,3.59.01,8.53.05,12.79-.04,16.55-1.53l.76,1.58c.07.15.22.25.39.25h2.4c.15,0,.29-.08.37-.2.08-.13.09-.28.03-.42l-2.97-6.33c-.07-.15-.23-.25-.39-.25h-2.37c-.15,0-.29.08-.37.2-.08.12-.09.28-.03.42l1.02,2.22c-3.34,1.08-7.04,1.17-13.44,1.18l2.03-4.26h16.12c.24,0,.43-.19.43-.43v-2.01c0-.24-.19-.43-.43-.43Z"/><path class="cls-3" d="m154.02,34.52h-5.27v-11.01h4.6c.24,0,.43-.19.43-.43v-2.21c0-.24-.19-.43-.43-.43h-4.6v-6.57c0-.24-.19-.43-.43-.43h-2.16c-.24,0-.43.19-.43.43v6.57h-4.6c-.24,0-.43.19-.43.43v2.21c0,.24.19.43.43.43h4.6v11.01h-5.3c-.24,0-.43.19-.43.43v2.21c0,.24.19.43.43.43h13.6c.24,0,.43-.19.43-.43v-2.21c0-.24-.19-.43-.43-.43Z"/><path class="cls-3" d="m140.41,32.38c.16-.07.26-.23.26-.4v-2.63c0-.13-.05-.24-.15-.33l-3.61-3.15c1.82-2.49,2.97-5.11,3.23-7.44v-1.93c0-.24-.19-.43-.43-.43h-3.16v-2.22c0-.24-.19-.43-.43-.43h-2.11c-.24,0-.43.19-.43.43v2.22h-3.21c-.24,0-.43.19-.43.43v2.01c0,.24.19.43.43.43h6.71c-.72,3.71-4.07,7.72-6.93,9.41-.13.08-.21.22-.21.37v2.61c0,.16.08.3.22.38.13.08.3.08.44,0,1.09-.64,2.18-1.45,3.2-2.38v8.16c0,.24.19.43.43.43h2.11c.24,0,.43-.19.43-.43v-8.12l3.18,2.95c.13.12.31.15.47.08Z"/><path class="cls-3" d="m182.7,17.71h-2.46c-.24,0-.43.19-.43.43v6.28c0,6.82-2.78,10.73-7.63,10.73h-2.87V13.64c0-.24-.19-.43-.43-.43h-2.51c-.24,0-.43.19-.43.43v24.41c0,.24.19.43.43.43h5.58c7.11,0,11.19-5.05,11.19-13.85v-6.49c0-.24-.19-.43-.43-.43Z"/><path class="cls-3" d="m162.39,13.21h-2.48c-.24,0-.43.19-.43.43v11.9c0,5.45-.78,9.96-2.14,12.35-.08.13-.08.3,0,.43s.22.22.38.22h2.69c.16,0,.31-.09.38-.23,1.33-2.51,2.04-6.94,2.04-12.8v-11.87c0-.24-.19-.43-.43-.43Z"/><rect class="cls-3" x="187.44" y="24.17" width="20.35" height="3.47" rx=".43" ry=".43"/><path class="cls-3" d="m234.89,25.07c-7.33,0-13.95-1.22-18.21-3.34v-8.38c0-.24-.19-.43-.43-.43h-2.51c-.24,0-.43.19-.43.43v24.64c0,.24.19.43.43.43h2.51c.24,0,.43-.19.43-.43v-12.62c4.43,1.94,11.16,3.09,18.21,3.09.24,0,.43-.19.43-.43v-2.51c0-.24-.19-.43-.43-.43Z"/><path class="cls-3" d="m249.55,13.09h-3.6c-4.82,0-8.06,3.1-8.06,7.71v1.05c0,.24.19.43.43.43h2.6c.24,0,.43-.19.43-.43v-.88c0-2.78,1.87-4.51,4.89-4.51h3.24c4.17,0,4.8,2.26,4.8,3.6v.67c0,2.79-2.34,3.45-6.16,4.3-4.61,1.02-10.35,2.29-10.35,10.4v1.34c0,.24.19.43.43.43h19.18c.24,0,.43-.19.43-.43v-2.51c0-.24-.19-.43-.43-.43h-16.15c.39-3.22,2.35-4.64,7.98-5.92,5.73-1.3,8.64-2.76,8.64-7.12v-.91c0-4.26-3.1-6.81-8.3-6.81Z"/><path class="cls-3" d="m274.35,13.26h-2.47s-10.58,2.5-10.58,2.5c-.2.05-.33.22-.33.42v2.54c0,.13.06.26.16.34s.24.11.37.08l9.93-2.3v19.94c0,.24.19.43.43.43h2.48c.24,0,.43-.19.43-.43V13.7c0-.24-.19-.43-.43-.43Z"/><path class="cls-1" d="m15.69,8.79c.34.6.68,1.19,1.01,1.76h4.82c4.46,0,7.97,1.39,7.97,5.75,0,3.45-2.19,5.44-5.58,6.04,1.21,1.84,2.5,3.62,3.89,5.28,6.12-1.43,10.6-5.49,10.6-11.28,0-6.14-5.65-11.44-15.63-11.44h-9.32c.72,1.28,1.5,2.62,2.23,3.89Z"/><path class="cls-1" d="m8.5,4.89H2.7l5.59,4.75c.13-1.82.19-3.44.21-4.75Z"/><path class="cls-1" d="m14.99,38.54C16.88,25.61,9.38,1.35,9.38,1.35c0,0,1.02,25.7-9.38,37.19h14.99Z"/><path class="cls-2" d="m35.3,38.54h-14.05L9.85,0c1.54,3.39,6.63,11.73,8.35,15.04,2.94,5.66,6.54,10.97,10.65,15.85l6.46,7.66Z"/></g></svg>