<svg width="1235" height="991" viewBox="0 0 1235 991" fill="none" xmlns="http://www.w3.org/2000/svg">
<g opacity="0.3">
<mask id="mask0_324_1464" style="mask-type:luminance" maskUnits="userSpaceOnUse" x="0" y="0" width="1235" height="991">
<path d="M1235 0H0V991H1235V0Z" fill="white"/>
</mask>
<g mask="url(#mask0_324_1464)">
<path opacity="0.15" d="M1235 0H0V1076.33H1235V0Z" fill="#1262A9"/>
<path d="M33.1007 -22.8813L-832.796 1136.95" stroke="#357AB6" stroke-width="0.83" stroke-miterlimit="10"/>
<path d="M45.2045 -22.8813L-820.692 1136.95" stroke="#357AB6" stroke-width="0.83" stroke-miterlimit="10"/>
<path d="M57.3085 -22.8813L-808.579 1136.95" stroke="#357AB6" stroke-width="0.83" stroke-miterlimit="10"/>
<path d="M69.4125 -22.8813L-796.475 1136.95" stroke="#357AB6" stroke-width="0.83" stroke-miterlimit="10"/>
<path d="M81.526 -22.8813L-784.371 1136.95" stroke="#357AB6" stroke-width="0.83" stroke-miterlimit="10"/>
<path d="M93.6298 -22.8813L-772.267 1136.95" stroke="#357AB6" stroke-width="0.83" stroke-miterlimit="10"/>
<path d="M105.734 -22.8813L-760.163 1136.95" stroke="#357AB6" stroke-width="0.83" stroke-miterlimit="10"/>
<path d="M117.838 -22.8813L-748.059 1136.95" stroke="#357AB6" stroke-width="0.83" stroke-miterlimit="10"/>
<path d="M129.942 -22.8813L-735.946 1136.95" stroke="#357AB6" stroke-width="0.83" stroke-miterlimit="10"/>
<path d="M142.046 -22.8813L-723.842 1136.95" stroke="#357AB6" stroke-width="0.83" stroke-miterlimit="10"/>
<path d="M154.159 -22.8813L-711.738 1136.95" stroke="#357AB6" stroke-width="0.83" stroke-miterlimit="10"/>
<path d="M166.263 -22.8813L-699.634 1136.95" stroke="#357AB6" stroke-width="0.83" stroke-miterlimit="10"/>
<path d="M178.367 -22.8813L-687.53 1136.95" stroke="#357AB6" stroke-width="0.83" stroke-miterlimit="10"/>
<path d="M190.471 -22.8813L-675.426 1136.95" stroke="#357AB6" stroke-width="0.83" stroke-miterlimit="10"/>
<path d="M202.575 -22.8813L-663.312 1136.95" stroke="#357AB6" stroke-width="0.83" stroke-miterlimit="10"/>
<path d="M214.679 -22.8813L-651.208 1136.95" stroke="#357AB6" stroke-width="0.83" stroke-miterlimit="10"/>
<path d="M226.792 -22.8813L-639.105 1136.95" stroke="#357AB6" stroke-width="0.83" stroke-miterlimit="10"/>
<path d="M238.896 -22.8813L-627.001 1136.95" stroke="#357AB6" stroke-width="0.83" stroke-miterlimit="10"/>
<path d="M251 -22.8813L-614.897 1136.95" stroke="#357AB6" stroke-width="0.83" stroke-miterlimit="10"/>
<path d="M263.104 -22.8813L-602.793 1136.95" stroke="#357AB6" stroke-width="0.83" stroke-miterlimit="10"/>
<path d="M275.208 -22.8813L-590.679 1136.95" stroke="#357AB6" stroke-width="0.83" stroke-miterlimit="10"/>
<path d="M287.312 -22.8813L-578.575 1136.95" stroke="#357AB6" stroke-width="0.83" stroke-miterlimit="10"/>
<path d="M299.425 -22.8813L-566.472 1136.95" stroke="#357AB6" stroke-width="0.83" stroke-miterlimit="10"/>
<path d="M311.529 -22.8813L-554.367 1136.95" stroke="#357AB6" stroke-width="0.83" stroke-miterlimit="10"/>
<path d="M323.633 -22.8813L-542.264 1136.95" stroke="#357AB6" stroke-width="0.83" stroke-miterlimit="10"/>
<path d="M335.737 -22.8813L-530.16 1136.95" stroke="#357AB6" stroke-width="0.83" stroke-miterlimit="10"/>
<path d="M347.841 -22.8813L-518.046 1136.95" stroke="#357AB6" stroke-width="0.83" stroke-miterlimit="10"/>
<path d="M359.945 -22.8813L-505.942 1136.95" stroke="#357AB6" stroke-width="0.83" stroke-miterlimit="10"/>
<path d="M372.049 -22.8813L-493.838 1136.95" stroke="#357AB6" stroke-width="0.83" stroke-miterlimit="10"/>
<path d="M384.162 -22.8813L-481.735 1136.95" stroke="#357AB6" stroke-width="0.83" stroke-miterlimit="10"/>
<path d="M396.266 -22.8813L-469.63 1136.95" stroke="#357AB6" stroke-width="0.83" stroke-miterlimit="10"/>
<path d="M408.37 -22.8813L-457.526 1136.95" stroke="#357AB6" stroke-width="0.83" stroke-miterlimit="10"/>
<path d="M420.474 -22.8813L-445.413 1136.95" stroke="#357AB6" stroke-width="0.83" stroke-miterlimit="10"/>
<path d="M432.578 -22.8813L-433.309 1136.95" stroke="#357AB6" stroke-width="0.83" stroke-miterlimit="10"/>
<path d="M444.682 -22.8813L-421.205 1136.95" stroke="#357AB6" stroke-width="0.83" stroke-miterlimit="10"/>
<path d="M456.795 -22.8813L-409.101 1136.95" stroke="#357AB6" stroke-width="0.83" stroke-miterlimit="10"/>
<path d="M468.899 -22.8813L-396.998 1136.95" stroke="#357AB6" stroke-width="0.83" stroke-miterlimit="10"/>
<path d="M481.003 -22.8813L-384.894 1136.95" stroke="#357AB6" stroke-width="0.83" stroke-miterlimit="10"/>
<path d="M493.107 -22.8813L-372.78 1136.95" stroke="#357AB6" stroke-width="0.83" stroke-miterlimit="10"/>
<path d="M505.211 -22.8813L-360.676 1136.95" stroke="#357AB6" stroke-width="0.83" stroke-miterlimit="10"/>
<path d="M517.315 -22.8813L-348.572 1136.95" stroke="#357AB6" stroke-width="0.83" stroke-miterlimit="10"/>
<path d="M529.428 -22.8813L-336.468 1136.95" stroke="#357AB6" stroke-width="0.83" stroke-miterlimit="10"/>
<path d="M541.532 -22.8813L-324.365 1136.95" stroke="#357AB6" stroke-width="0.83" stroke-miterlimit="10"/>
<path d="M553.636 -22.8813L-312.261 1136.95" stroke="#357AB6" stroke-width="0.83" stroke-miterlimit="10"/>
<path d="M565.74 -22.8813L-300.156 1136.95" stroke="#357AB6" stroke-width="0.83" stroke-miterlimit="10"/>
<path d="M577.844 -22.8813L-288.043 1136.95" stroke="#357AB6" stroke-width="0.83" stroke-miterlimit="10"/>
<path d="M589.948 -22.8813L-275.939 1136.95" stroke="#357AB6" stroke-width="0.83" stroke-miterlimit="10"/>
<path d="M602.062 -22.8813L-263.835 1136.95" stroke="#357AB6" stroke-width="0.83" stroke-miterlimit="10"/>
<path d="M614.166 -22.8813L-251.731 1136.95" stroke="#357AB6" stroke-width="0.83" stroke-miterlimit="10"/>
<path d="M626.269 -22.8813L-239.627 1136.95" stroke="#357AB6" stroke-width="0.83" stroke-miterlimit="10"/>
<path d="M638.373 -22.8813L-227.523 1136.95" stroke="#357AB6" stroke-width="0.83" stroke-miterlimit="10"/>
<path d="M650.477 -22.8813L-215.41 1136.95" stroke="#357AB6" stroke-width="0.83" stroke-miterlimit="10"/>
<path d="M662.581 -22.8813L-203.306 1136.95" stroke="#357AB6" stroke-width="0.83" stroke-miterlimit="10"/>
<path d="M674.694 -22.8813L-191.202 1136.95" stroke="#357AB6" stroke-width="0.83" stroke-miterlimit="10"/>
<path d="M686.798 -22.8813L-179.098 1136.95" stroke="#357AB6" stroke-width="0.83" stroke-miterlimit="10"/>
<path d="M698.902 -22.8813L-166.994 1136.95" stroke="#357AB6" stroke-width="0.83" stroke-miterlimit="10"/>
<path d="M711.006 -22.8813L-154.89 1136.95" stroke="#357AB6" stroke-width="0.83" stroke-miterlimit="10"/>
<path d="M723.11 -22.8813L-142.777 1136.95" stroke="#357AB6" stroke-width="0.83" stroke-miterlimit="10"/>
<path d="M735.214 -22.8813L-130.673 1136.95" stroke="#357AB6" stroke-width="0.83" stroke-miterlimit="10"/>
<path d="M747.328 -22.8813L-118.569 1136.95" stroke="#357AB6" stroke-width="0.83" stroke-miterlimit="10"/>
<path d="M759.431 -22.8813L-106.465 1136.95" stroke="#357AB6" stroke-width="0.83" stroke-miterlimit="10"/>
<path d="M771.535 -22.8813L-94.3613 1136.95" stroke="#357AB6" stroke-width="0.83" stroke-miterlimit="10"/>
<path d="M783.64 -22.8813L-82.2568 1136.95" stroke="#357AB6" stroke-width="0.83" stroke-miterlimit="10"/>
<path d="M795.744 -22.8813L-70.1436 1136.95" stroke="#357AB6" stroke-width="0.83" stroke-miterlimit="10"/>
<path d="M807.847 -22.8813L-58.04 1136.95" stroke="#357AB6" stroke-width="0.83" stroke-miterlimit="10"/>
<path d="M819.961 -22.8813L-45.936 1136.95" stroke="#357AB6" stroke-width="0.83" stroke-miterlimit="10"/>
<path d="M832.065 -22.8813L-33.832 1136.95" stroke="#357AB6" stroke-width="0.83" stroke-miterlimit="10"/>
<path d="M844.169 -22.8813L-21.728 1136.95" stroke="#357AB6" stroke-width="0.83" stroke-miterlimit="10"/>
<path d="M856.273 -22.8813L-9.62402 1136.95" stroke="#357AB6" stroke-width="0.83" stroke-miterlimit="10"/>
<path d="M868.376 -22.8813L2.48926 1136.95" stroke="#357AB6" stroke-width="0.83" stroke-miterlimit="10"/>
<path d="M880.48 -22.8813L14.5933 1136.95" stroke="#357AB6" stroke-width="0.83" stroke-miterlimit="10"/>
<path d="M892.594 -22.8813L26.6973 1136.95" stroke="#357AB6" stroke-width="0.83" stroke-miterlimit="10"/>
<path d="M904.697 -22.8813L38.8008 1136.95" stroke="#357AB6" stroke-width="0.83" stroke-miterlimit="10"/>
<path d="M916.802 -22.8813L50.9053 1136.95" stroke="#357AB6" stroke-width="0.83" stroke-miterlimit="10"/>
<path d="M928.906 -22.8813L63.0093 1136.95" stroke="#357AB6" stroke-width="0.83" stroke-miterlimit="10"/>
<path d="M941.009 -22.8813L75.1221 1136.95" stroke="#357AB6" stroke-width="0.83" stroke-miterlimit="10"/>
<path d="M953.113 -22.8813L87.2261 1136.95" stroke="#357AB6" stroke-width="0.83" stroke-miterlimit="10"/>
<path d="M965.227 -22.8813L99.3301 1136.95" stroke="#357AB6" stroke-width="0.83" stroke-miterlimit="10"/>
<path d="M977.331 -22.8813L111.434 1136.95" stroke="#357AB6" stroke-width="0.83" stroke-miterlimit="10"/>
<path d="M989.435 -22.8813L123.538 1136.95" stroke="#357AB6" stroke-width="0.83" stroke-miterlimit="10"/>
<path d="M1001.54 -22.8813L135.642 1136.95" stroke="#357AB6" stroke-width="0.83" stroke-miterlimit="10"/>
<path d="M1013.64 -22.8813L147.755 1136.95" stroke="#357AB6" stroke-width="0.83" stroke-miterlimit="10"/>
<path d="M1025.75 -22.8813L159.859 1136.95" stroke="#357AB6" stroke-width="0.83" stroke-miterlimit="10"/>
<path d="M1037.85 -22.8813L171.963 1136.95" stroke="#357AB6" stroke-width="0.83" stroke-miterlimit="10"/>
<path d="M1049.96 -22.8813L184.067 1136.95" stroke="#357AB6" stroke-width="0.83" stroke-miterlimit="10"/>
<path d="M1062.07 -22.8813L196.171 1136.95" stroke="#357AB6" stroke-width="0.83" stroke-miterlimit="10"/>
<path d="M1074.17 -22.8813L208.275 1136.95" stroke="#357AB6" stroke-width="0.83" stroke-miterlimit="10"/>
<path d="M1086.28 -22.8813L220.389 1136.95" stroke="#357AB6" stroke-width="0.83" stroke-miterlimit="10"/>
<path d="M1098.38 -22.8813L232.493 1136.95" stroke="#357AB6" stroke-width="0.83" stroke-miterlimit="10"/>
<path d="M1110.48 -22.8813L244.597 1136.95" stroke="#357AB6" stroke-width="0.83" stroke-miterlimit="10"/>
<path d="M1121.35 -22.8813L255.465 1136.95" stroke="#357AB6" stroke-width="0.83" stroke-miterlimit="10"/>
<path d="M1133.47 -22.8813L267.569 1136.95" stroke="#357AB6" stroke-width="0.83" stroke-miterlimit="10"/>
<path d="M1145.57 -22.8813L279.673 1136.95" stroke="#357AB6" stroke-width="0.83" stroke-miterlimit="10"/>
<path d="M1157.67 -22.8813L291.777 1136.95" stroke="#357AB6" stroke-width="0.83" stroke-miterlimit="10"/>
<path d="M1169.78 -22.8813L303.881 1136.95" stroke="#357AB6" stroke-width="0.83" stroke-miterlimit="10"/>
<path d="M1181.88 -22.8813L315.994 1136.95" stroke="#357AB6" stroke-width="0.83" stroke-miterlimit="10"/>
<path d="M1193.99 -22.8813L328.098 1136.95" stroke="#357AB6" stroke-width="0.83" stroke-miterlimit="10"/>
<path d="M1206.09 -22.8813L340.202 1136.95" stroke="#357AB6" stroke-width="0.83" stroke-miterlimit="10"/>
<path d="M1218.2 -22.8813L352.306 1136.95" stroke="#357AB6" stroke-width="0.83" stroke-miterlimit="10"/>
<path d="M1230.31 -22.8813L364.41 1136.95" stroke="#357AB6" stroke-width="0.83" stroke-miterlimit="10"/>
<path d="M1242.41 -22.8813L376.514 1136.95" stroke="#357AB6" stroke-width="0.83" stroke-miterlimit="10"/>
<path d="M1254.51 -22.8813L388.627 1136.95" stroke="#357AB6" stroke-width="0.83" stroke-miterlimit="10"/>
<path d="M1266.62 -22.8813L400.731 1136.95" stroke="#357AB6" stroke-width="0.83" stroke-miterlimit="10"/>
<path d="M1278.72 -22.8813L412.835 1136.95" stroke="#357AB6" stroke-width="0.83" stroke-miterlimit="10"/>
<path d="M1290.84 -22.8813L424.939 1136.95" stroke="#357AB6" stroke-width="0.83" stroke-miterlimit="10"/>
<path d="M1302.94 -22.8813L437.043 1136.95" stroke="#357AB6" stroke-width="0.83" stroke-miterlimit="10"/>
<path d="M1315.04 -22.8813L449.147 1136.95" stroke="#357AB6" stroke-width="0.83" stroke-miterlimit="10"/>
<path d="M1327.15 -22.8813L461.261 1136.95" stroke="#357AB6" stroke-width="0.83" stroke-miterlimit="10"/>
<path d="M1339.25 -22.8813L473.364 1136.95" stroke="#357AB6" stroke-width="0.83" stroke-miterlimit="10"/>
<path d="M1351.36 -22.8813L485.468 1136.95" stroke="#357AB6" stroke-width="0.83" stroke-miterlimit="10"/>
<path d="M1363.47 -22.8813L497.572 1136.95" stroke="#357AB6" stroke-width="0.83" stroke-miterlimit="10"/>
<path d="M1375.57 -22.8813L509.676 1136.95" stroke="#357AB6" stroke-width="0.83" stroke-miterlimit="10"/>
<path d="M1387.68 -22.8813L521.78 1136.95" stroke="#357AB6" stroke-width="0.83" stroke-miterlimit="10"/>
<path d="M1399.78 -22.8813L533.894 1136.95" stroke="#357AB6" stroke-width="0.83" stroke-miterlimit="10"/>
<path d="M1411.88 -22.8813L545.998 1136.95" stroke="#357AB6" stroke-width="0.83" stroke-miterlimit="10"/>
<path d="M1423.99 -22.8813L558.102 1136.95" stroke="#357AB6" stroke-width="0.83" stroke-miterlimit="10"/>
<path d="M1436.1 -22.8813L570.206 1136.95" stroke="#357AB6" stroke-width="0.83" stroke-miterlimit="10"/>
<path d="M1448.21 -22.8813L582.31 1136.95" stroke="#357AB6" stroke-width="0.83" stroke-miterlimit="10"/>
<path d="M1460.31 -22.8813L594.413 1136.95" stroke="#357AB6" stroke-width="0.83" stroke-miterlimit="10"/>
<path d="M1472.41 -22.8813L606.517 1136.95" stroke="#357AB6" stroke-width="0.83" stroke-miterlimit="10"/>
<path d="M1484.52 -22.8813L618.63 1136.95" stroke="#357AB6" stroke-width="0.83" stroke-miterlimit="10"/>
<path d="M1496.62 -22.8813L630.734 1136.95" stroke="#357AB6" stroke-width="0.83" stroke-miterlimit="10"/>
<path d="M1508.74 -22.8813L642.838 1136.95" stroke="#357AB6" stroke-width="0.83" stroke-miterlimit="10"/>
<path d="M1520.84 -22.8813L654.942 1136.95" stroke="#357AB6" stroke-width="0.83" stroke-miterlimit="10"/>
<path d="M1532.94 -22.8813L667.046 1136.95" stroke="#357AB6" stroke-width="0.83" stroke-miterlimit="10"/>
<path d="M1545.05 -22.8813L679.15 1136.95" stroke="#357AB6" stroke-width="0.83" stroke-miterlimit="10"/>
<path d="M1557.15 -22.8813L691.264 1136.95" stroke="#357AB6" stroke-width="0.83" stroke-miterlimit="10"/>
<path d="M1569.25 -22.8813L703.368 1136.95" stroke="#357AB6" stroke-width="0.83" stroke-miterlimit="10"/>
<path d="M1581.37 -22.8813L715.472 1136.95" stroke="#357AB6" stroke-width="0.83" stroke-miterlimit="10"/>
<path d="M1593.47 -22.8813L727.576 1136.95" stroke="#357AB6" stroke-width="0.83" stroke-miterlimit="10"/>
<path d="M1605.58 -22.8813L739.68 1136.95" stroke="#357AB6" stroke-width="0.83" stroke-miterlimit="10"/>
<path d="M1617.68 -22.8813L751.783 1136.95" stroke="#357AB6" stroke-width="0.83" stroke-miterlimit="10"/>
<path d="M1629.78 -22.8813L763.896 1136.95" stroke="#357AB6" stroke-width="0.83" stroke-miterlimit="10"/>
<path d="M1641.89 -22.8813L776.001 1136.95" stroke="#357AB6" stroke-width="0.83" stroke-miterlimit="10"/>
<path d="M1654 -22.8813L788.104 1136.95" stroke="#357AB6" stroke-width="0.83" stroke-miterlimit="10"/>
<path d="M1666.11 -22.8813L800.208 1136.95" stroke="#357AB6" stroke-width="0.83" stroke-miterlimit="10"/>
<path d="M1678.21 -22.8813L812.312 1136.95" stroke="#357AB6" stroke-width="0.83" stroke-miterlimit="10"/>
<path d="M1690.31 -22.8813L824.417 1136.95" stroke="#357AB6" stroke-width="0.83" stroke-miterlimit="10"/>
<path d="M1702.42 -22.8813L836.53 1136.95" stroke="#357AB6" stroke-width="0.83" stroke-miterlimit="10"/>
<path d="M1714.52 -22.8813L848.634 1136.95" stroke="#357AB6" stroke-width="0.83" stroke-miterlimit="10"/>
<path d="M1726.63 -22.8813L860.737 1136.95" stroke="#357AB6" stroke-width="0.83" stroke-miterlimit="10"/>
<path d="M1738.74 -22.8813L872.842 1136.95" stroke="#357AB6" stroke-width="0.83" stroke-miterlimit="10"/>
<path d="M1750.84 -22.8813L884.945 1136.95" stroke="#357AB6" stroke-width="0.83" stroke-miterlimit="10"/>
<path d="M1762.95 -22.8813L897.05 1136.95" stroke="#357AB6" stroke-width="0.83" stroke-miterlimit="10"/>
<path d="M1775.05 -22.8813L909.163 1136.95" stroke="#357AB6" stroke-width="0.83" stroke-miterlimit="10"/>
<path d="M1787.15 -22.8813L921.267 1136.95" stroke="#357AB6" stroke-width="0.83" stroke-miterlimit="10"/>
<path d="M1799.27 -22.8813L933.371 1136.95" stroke="#357AB6" stroke-width="0.83" stroke-miterlimit="10"/>
<path d="M1811.37 -22.8813L945.475 1136.95" stroke="#357AB6" stroke-width="0.83" stroke-miterlimit="10"/>
<path d="M1823.48 -22.8813L957.579 1136.95" stroke="#357AB6" stroke-width="0.83" stroke-miterlimit="10"/>
<path d="M1835.58 -22.8813L969.683 1136.95" stroke="#357AB6" stroke-width="0.83" stroke-miterlimit="10"/>
<path d="M1847.68 -22.8813L981.796 1136.95" stroke="#357AB6" stroke-width="0.83" stroke-miterlimit="10"/>
<path d="M1859.79 -22.8813L993.9 1136.95" stroke="#357AB6" stroke-width="0.83" stroke-miterlimit="10"/>
<path d="M1871.9 -22.8813L1006 1136.95" stroke="#357AB6" stroke-width="0.83" stroke-miterlimit="10"/>
<path d="M1884 -22.8813L1018.11 1136.95" stroke="#357AB6" stroke-width="0.83" stroke-miterlimit="10"/>
<path d="M1896.11 -22.8813L1030.21 1136.95" stroke="#357AB6" stroke-width="0.83" stroke-miterlimit="10"/>
<path d="M1908.21 -22.8813L1042.32 1136.95" stroke="#357AB6" stroke-width="0.83" stroke-miterlimit="10"/>
<path d="M1920.32 -22.8813L1054.43 1136.95" stroke="#357AB6" stroke-width="0.83" stroke-miterlimit="10"/>
<path d="M1932.42 -22.8813L1066.53 1136.95" stroke="#357AB6" stroke-width="0.83" stroke-miterlimit="10"/>
<path d="M1944.52 -22.8813L1078.64 1136.95" stroke="#357AB6" stroke-width="0.83" stroke-miterlimit="10"/>
<path d="M1956.64 -22.8813L1090.74 1136.95" stroke="#357AB6" stroke-width="0.83" stroke-miterlimit="10"/>
<path d="M1968.74 -22.8813L1102.84 1136.95" stroke="#357AB6" stroke-width="0.83" stroke-miterlimit="10"/>
<path d="M1980.85 -22.8813L1114.95 1136.95" stroke="#357AB6" stroke-width="0.83" stroke-miterlimit="10"/>
<path d="M1992.95 -22.8813L1127.06 1136.95" stroke="#357AB6" stroke-width="0.83" stroke-miterlimit="10"/>
<path d="M2005.05 -22.8813L1139.17 1136.95" stroke="#357AB6" stroke-width="0.83" stroke-miterlimit="10"/>
<path d="M2017.16 -22.8813L1151.27 1136.95" stroke="#357AB6" stroke-width="0.83" stroke-miterlimit="10"/>
<path d="M2029.27 -22.8813L1163.37 1136.95" stroke="#357AB6" stroke-width="0.83" stroke-miterlimit="10"/>
<path d="M2041.37 -22.8813L1175.48 1136.95" stroke="#357AB6" stroke-width="0.83" stroke-miterlimit="10"/>
<path d="M2053.48 -22.8813L1187.58 1136.95" stroke="#357AB6" stroke-width="0.83" stroke-miterlimit="10"/>
<path d="M2065.58 -22.8813L1199.7 1136.95" stroke="#357AB6" stroke-width="0.83" stroke-miterlimit="10"/>
<path d="M2077.69 -22.8813L1211.8 1136.95" stroke="#357AB6" stroke-width="0.83" stroke-miterlimit="10"/>
<path d="M2089.79 -22.8813L1223.9 1136.95" stroke="#357AB6" stroke-width="0.83" stroke-miterlimit="10"/>
</g>
</g>
</svg>
