<svg width="1235" height="865" viewBox="0 0 1235 865" fill="none" xmlns="http://www.w3.org/2000/svg">
<g opacity="0.3">
<mask id="mask0_324_1674" style="mask-type:luminance" maskUnits="userSpaceOnUse" x="0" y="0" width="1235" height="865">
<path d="M1235 0H0V865H1235V0Z" fill="white"/>
</mask>
<g mask="url(#mask0_324_1674)">
<path opacity="0.15" d="M1235 0H0V939.479H1235V0Z" fill="#1262A9"/>
<path d="M33.1007 -19.9719L-832.796 992.396" stroke="#357AB6" stroke-width="0.83" stroke-miterlimit="10"/>
<path d="M45.2045 -19.9719L-820.692 992.396" stroke="#357AB6" stroke-width="0.83" stroke-miterlimit="10"/>
<path d="M57.3085 -19.9719L-808.579 992.396" stroke="#357AB6" stroke-width="0.83" stroke-miterlimit="10"/>
<path d="M69.4125 -19.9719L-796.475 992.396" stroke="#357AB6" stroke-width="0.83" stroke-miterlimit="10"/>
<path d="M81.526 -19.9719L-784.371 992.396" stroke="#357AB6" stroke-width="0.83" stroke-miterlimit="10"/>
<path d="M93.6298 -19.9719L-772.267 992.396" stroke="#357AB6" stroke-width="0.83" stroke-miterlimit="10"/>
<path d="M105.734 -19.9719L-760.163 992.396" stroke="#357AB6" stroke-width="0.83" stroke-miterlimit="10"/>
<path d="M117.838 -19.9719L-748.059 992.396" stroke="#357AB6" stroke-width="0.83" stroke-miterlimit="10"/>
<path d="M129.942 -19.9719L-735.946 992.396" stroke="#357AB6" stroke-width="0.83" stroke-miterlimit="10"/>
<path d="M142.046 -19.9719L-723.842 992.396" stroke="#357AB6" stroke-width="0.83" stroke-miterlimit="10"/>
<path d="M154.159 -19.9719L-711.738 992.396" stroke="#357AB6" stroke-width="0.83" stroke-miterlimit="10"/>
<path d="M166.263 -19.9719L-699.634 992.396" stroke="#357AB6" stroke-width="0.83" stroke-miterlimit="10"/>
<path d="M178.367 -19.9719L-687.53 992.396" stroke="#357AB6" stroke-width="0.83" stroke-miterlimit="10"/>
<path d="M190.471 -19.9719L-675.426 992.396" stroke="#357AB6" stroke-width="0.83" stroke-miterlimit="10"/>
<path d="M202.575 -19.9719L-663.312 992.396" stroke="#357AB6" stroke-width="0.83" stroke-miterlimit="10"/>
<path d="M214.679 -19.9719L-651.208 992.396" stroke="#357AB6" stroke-width="0.83" stroke-miterlimit="10"/>
<path d="M226.792 -19.9719L-639.105 992.396" stroke="#357AB6" stroke-width="0.83" stroke-miterlimit="10"/>
<path d="M238.896 -19.9719L-627.001 992.396" stroke="#357AB6" stroke-width="0.83" stroke-miterlimit="10"/>
<path d="M251 -19.9719L-614.897 992.396" stroke="#357AB6" stroke-width="0.83" stroke-miterlimit="10"/>
<path d="M263.104 -19.9719L-602.793 992.396" stroke="#357AB6" stroke-width="0.83" stroke-miterlimit="10"/>
<path d="M275.208 -19.9719L-590.679 992.396" stroke="#357AB6" stroke-width="0.83" stroke-miterlimit="10"/>
<path d="M287.312 -19.9719L-578.575 992.396" stroke="#357AB6" stroke-width="0.83" stroke-miterlimit="10"/>
<path d="M299.425 -19.9719L-566.472 992.396" stroke="#357AB6" stroke-width="0.83" stroke-miterlimit="10"/>
<path d="M311.529 -19.9719L-554.367 992.396" stroke="#357AB6" stroke-width="0.83" stroke-miterlimit="10"/>
<path d="M323.633 -19.9719L-542.264 992.396" stroke="#357AB6" stroke-width="0.83" stroke-miterlimit="10"/>
<path d="M335.737 -19.9719L-530.16 992.396" stroke="#357AB6" stroke-width="0.83" stroke-miterlimit="10"/>
<path d="M347.841 -19.9719L-518.046 992.396" stroke="#357AB6" stroke-width="0.83" stroke-miterlimit="10"/>
<path d="M359.945 -19.9719L-505.942 992.396" stroke="#357AB6" stroke-width="0.83" stroke-miterlimit="10"/>
<path d="M372.049 -19.9719L-493.838 992.396" stroke="#357AB6" stroke-width="0.83" stroke-miterlimit="10"/>
<path d="M384.162 -19.9719L-481.734 992.396" stroke="#357AB6" stroke-width="0.83" stroke-miterlimit="10"/>
<path d="M396.266 -19.9719L-469.63 992.396" stroke="#357AB6" stroke-width="0.83" stroke-miterlimit="10"/>
<path d="M408.37 -19.9719L-457.526 992.396" stroke="#357AB6" stroke-width="0.83" stroke-miterlimit="10"/>
<path d="M420.474 -19.9719L-445.413 992.396" stroke="#357AB6" stroke-width="0.83" stroke-miterlimit="10"/>
<path d="M432.578 -19.9719L-433.31 992.396" stroke="#357AB6" stroke-width="0.83" stroke-miterlimit="10"/>
<path d="M444.682 -19.9719L-421.206 992.396" stroke="#357AB6" stroke-width="0.83" stroke-miterlimit="10"/>
<path d="M456.795 -19.9719L-409.102 992.396" stroke="#357AB6" stroke-width="0.83" stroke-miterlimit="10"/>
<path d="M468.899 -19.9719L-396.998 992.396" stroke="#357AB6" stroke-width="0.83" stroke-miterlimit="10"/>
<path d="M481.003 -19.9719L-384.894 992.396" stroke="#357AB6" stroke-width="0.83" stroke-miterlimit="10"/>
<path d="M493.107 -19.9719L-372.78 992.396" stroke="#357AB6" stroke-width="0.83" stroke-miterlimit="10"/>
<path d="M505.211 -19.9719L-360.676 992.396" stroke="#357AB6" stroke-width="0.83" stroke-miterlimit="10"/>
<path d="M517.315 -19.9719L-348.572 992.396" stroke="#357AB6" stroke-width="0.83" stroke-miterlimit="10"/>
<path d="M529.428 -19.9719L-336.468 992.396" stroke="#357AB6" stroke-width="0.83" stroke-miterlimit="10"/>
<path d="M541.532 -19.9719L-324.365 992.396" stroke="#357AB6" stroke-width="0.83" stroke-miterlimit="10"/>
<path d="M553.636 -19.9719L-312.261 992.396" stroke="#357AB6" stroke-width="0.83" stroke-miterlimit="10"/>
<path d="M565.74 -19.9719L-300.156 992.396" stroke="#357AB6" stroke-width="0.83" stroke-miterlimit="10"/>
<path d="M577.844 -19.9719L-288.043 992.396" stroke="#357AB6" stroke-width="0.83" stroke-miterlimit="10"/>
<path d="M589.948 -19.9719L-275.939 992.396" stroke="#357AB6" stroke-width="0.83" stroke-miterlimit="10"/>
<path d="M602.062 -19.9719L-263.835 992.396" stroke="#357AB6" stroke-width="0.83" stroke-miterlimit="10"/>
<path d="M614.166 -19.9719L-251.731 992.396" stroke="#357AB6" stroke-width="0.83" stroke-miterlimit="10"/>
<path d="M626.269 -19.9719L-239.627 992.396" stroke="#357AB6" stroke-width="0.83" stroke-miterlimit="10"/>
<path d="M638.373 -19.9719L-227.523 992.396" stroke="#357AB6" stroke-width="0.83" stroke-miterlimit="10"/>
<path d="M650.477 -19.9719L-215.41 992.396" stroke="#357AB6" stroke-width="0.83" stroke-miterlimit="10"/>
<path d="M662.581 -19.9719L-203.306 992.396" stroke="#357AB6" stroke-width="0.83" stroke-miterlimit="10"/>
<path d="M674.694 -19.9719L-191.202 992.396" stroke="#357AB6" stroke-width="0.83" stroke-miterlimit="10"/>
<path d="M686.798 -19.9719L-179.098 992.396" stroke="#357AB6" stroke-width="0.83" stroke-miterlimit="10"/>
<path d="M698.902 -19.9719L-166.994 992.396" stroke="#357AB6" stroke-width="0.83" stroke-miterlimit="10"/>
<path d="M711.006 -19.9719L-154.89 992.396" stroke="#357AB6" stroke-width="0.83" stroke-miterlimit="10"/>
<path d="M723.11 -19.9719L-142.777 992.396" stroke="#357AB6" stroke-width="0.83" stroke-miterlimit="10"/>
<path d="M735.214 -19.9719L-130.673 992.396" stroke="#357AB6" stroke-width="0.83" stroke-miterlimit="10"/>
<path d="M747.328 -19.9719L-118.569 992.396" stroke="#357AB6" stroke-width="0.83" stroke-miterlimit="10"/>
<path d="M759.431 -19.9719L-106.465 992.396" stroke="#357AB6" stroke-width="0.83" stroke-miterlimit="10"/>
<path d="M771.535 -19.9719L-94.3613 992.396" stroke="#357AB6" stroke-width="0.83" stroke-miterlimit="10"/>
<path d="M783.64 -19.9719L-82.2568 992.396" stroke="#357AB6" stroke-width="0.83" stroke-miterlimit="10"/>
<path d="M795.744 -19.9719L-70.1436 992.396" stroke="#357AB6" stroke-width="0.83" stroke-miterlimit="10"/>
<path d="M807.847 -19.9719L-58.04 992.396" stroke="#357AB6" stroke-width="0.83" stroke-miterlimit="10"/>
<path d="M819.961 -19.9719L-45.936 992.396" stroke="#357AB6" stroke-width="0.83" stroke-miterlimit="10"/>
<path d="M832.065 -19.9719L-33.832 992.396" stroke="#357AB6" stroke-width="0.83" stroke-miterlimit="10"/>
<path d="M844.169 -19.9719L-21.728 992.396" stroke="#357AB6" stroke-width="0.83" stroke-miterlimit="10"/>
<path d="M856.273 -19.9719L-9.62402 992.396" stroke="#357AB6" stroke-width="0.83" stroke-miterlimit="10"/>
<path d="M868.376 -19.9719L2.48926 992.396" stroke="#357AB6" stroke-width="0.83" stroke-miterlimit="10"/>
<path d="M880.48 -19.9719L14.5933 992.396" stroke="#357AB6" stroke-width="0.83" stroke-miterlimit="10"/>
<path d="M892.594 -19.9719L26.6973 992.396" stroke="#357AB6" stroke-width="0.83" stroke-miterlimit="10"/>
<path d="M904.697 -19.9719L38.8008 992.396" stroke="#357AB6" stroke-width="0.83" stroke-miterlimit="10"/>
<path d="M916.802 -19.9719L50.9053 992.396" stroke="#357AB6" stroke-width="0.83" stroke-miterlimit="10"/>
<path d="M928.906 -19.9719L63.0093 992.396" stroke="#357AB6" stroke-width="0.83" stroke-miterlimit="10"/>
<path d="M941.009 -19.9719L75.1221 992.396" stroke="#357AB6" stroke-width="0.83" stroke-miterlimit="10"/>
<path d="M953.113 -19.9719L87.2261 992.396" stroke="#357AB6" stroke-width="0.83" stroke-miterlimit="10"/>
<path d="M965.227 -19.9719L99.3301 992.396" stroke="#357AB6" stroke-width="0.83" stroke-miterlimit="10"/>
<path d="M977.331 -19.9719L111.434 992.396" stroke="#357AB6" stroke-width="0.83" stroke-miterlimit="10"/>
<path d="M989.435 -19.9719L123.538 992.396" stroke="#357AB6" stroke-width="0.83" stroke-miterlimit="10"/>
<path d="M1001.54 -19.9719L135.642 992.396" stroke="#357AB6" stroke-width="0.83" stroke-miterlimit="10"/>
<path d="M1013.64 -19.9719L147.755 992.396" stroke="#357AB6" stroke-width="0.83" stroke-miterlimit="10"/>
<path d="M1025.75 -19.9719L159.859 992.396" stroke="#357AB6" stroke-width="0.83" stroke-miterlimit="10"/>
<path d="M1037.85 -19.9719L171.963 992.396" stroke="#357AB6" stroke-width="0.83" stroke-miterlimit="10"/>
<path d="M1049.96 -19.9719L184.067 992.396" stroke="#357AB6" stroke-width="0.83" stroke-miterlimit="10"/>
<path d="M1062.07 -19.9719L196.171 992.396" stroke="#357AB6" stroke-width="0.83" stroke-miterlimit="10"/>
<path d="M1074.17 -19.9719L208.275 992.396" stroke="#357AB6" stroke-width="0.83" stroke-miterlimit="10"/>
<path d="M1086.28 -19.9719L220.388 992.396" stroke="#357AB6" stroke-width="0.83" stroke-miterlimit="10"/>
<path d="M1098.38 -19.9719L232.493 992.396" stroke="#357AB6" stroke-width="0.83" stroke-miterlimit="10"/>
<path d="M1110.48 -19.9719L244.597 992.396" stroke="#357AB6" stroke-width="0.83" stroke-miterlimit="10"/>
<path d="M1121.35 -19.9719L255.465 992.396" stroke="#357AB6" stroke-width="0.83" stroke-miterlimit="10"/>
<path d="M1133.47 -19.9719L267.569 992.396" stroke="#357AB6" stroke-width="0.83" stroke-miterlimit="10"/>
<path d="M1145.57 -19.9719L279.673 992.396" stroke="#357AB6" stroke-width="0.83" stroke-miterlimit="10"/>
<path d="M1157.67 -19.9719L291.777 992.396" stroke="#357AB6" stroke-width="0.83" stroke-miterlimit="10"/>
<path d="M1169.78 -19.9719L303.881 992.396" stroke="#357AB6" stroke-width="0.83" stroke-miterlimit="10"/>
<path d="M1181.88 -19.9719L315.994 992.396" stroke="#357AB6" stroke-width="0.83" stroke-miterlimit="10"/>
<path d="M1193.99 -19.9719L328.098 992.396" stroke="#357AB6" stroke-width="0.83" stroke-miterlimit="10"/>
<path d="M1206.09 -19.9719L340.202 992.396" stroke="#357AB6" stroke-width="0.83" stroke-miterlimit="10"/>
<path d="M1218.2 -19.9719L352.306 992.396" stroke="#357AB6" stroke-width="0.83" stroke-miterlimit="10"/>
<path d="M1230.31 -19.9719L364.41 992.396" stroke="#357AB6" stroke-width="0.83" stroke-miterlimit="10"/>
<path d="M1242.41 -19.9719L376.514 992.396" stroke="#357AB6" stroke-width="0.83" stroke-miterlimit="10"/>
<path d="M1254.51 -19.9719L388.627 992.396" stroke="#357AB6" stroke-width="0.83" stroke-miterlimit="10"/>
<path d="M1266.62 -19.9719L400.731 992.396" stroke="#357AB6" stroke-width="0.83" stroke-miterlimit="10"/>
<path d="M1278.72 -19.9719L412.835 992.396" stroke="#357AB6" stroke-width="0.83" stroke-miterlimit="10"/>
<path d="M1290.84 -19.9719L424.939 992.396" stroke="#357AB6" stroke-width="0.83" stroke-miterlimit="10"/>
<path d="M1302.94 -19.9719L437.043 992.396" stroke="#357AB6" stroke-width="0.83" stroke-miterlimit="10"/>
<path d="M1315.04 -19.9719L449.147 992.396" stroke="#357AB6" stroke-width="0.83" stroke-miterlimit="10"/>
<path d="M1327.15 -19.9719L461.261 992.396" stroke="#357AB6" stroke-width="0.83" stroke-miterlimit="10"/>
<path d="M1339.25 -19.9719L473.364 992.396" stroke="#357AB6" stroke-width="0.83" stroke-miterlimit="10"/>
<path d="M1351.36 -19.9719L485.468 992.396" stroke="#357AB6" stroke-width="0.83" stroke-miterlimit="10"/>
<path d="M1363.47 -19.9719L497.572 992.396" stroke="#357AB6" stroke-width="0.83" stroke-miterlimit="10"/>
<path d="M1375.57 -19.9719L509.676 992.396" stroke="#357AB6" stroke-width="0.83" stroke-miterlimit="10"/>
<path d="M1387.68 -19.9719L521.78 992.396" stroke="#357AB6" stroke-width="0.83" stroke-miterlimit="10"/>
<path d="M1399.78 -19.9719L533.894 992.396" stroke="#357AB6" stroke-width="0.83" stroke-miterlimit="10"/>
<path d="M1411.88 -19.9719L545.998 992.396" stroke="#357AB6" stroke-width="0.83" stroke-miterlimit="10"/>
<path d="M1423.99 -19.9719L558.102 992.396" stroke="#357AB6" stroke-width="0.83" stroke-miterlimit="10"/>
<path d="M1436.1 -19.9719L570.206 992.396" stroke="#357AB6" stroke-width="0.83" stroke-miterlimit="10"/>
<path d="M1448.21 -19.9719L582.31 992.396" stroke="#357AB6" stroke-width="0.83" stroke-miterlimit="10"/>
<path d="M1460.31 -19.9719L594.413 992.396" stroke="#357AB6" stroke-width="0.83" stroke-miterlimit="10"/>
<path d="M1472.41 -19.9719L606.517 992.396" stroke="#357AB6" stroke-width="0.83" stroke-miterlimit="10"/>
<path d="M1484.52 -19.9719L618.63 992.396" stroke="#357AB6" stroke-width="0.83" stroke-miterlimit="10"/>
<path d="M1496.62 -19.9719L630.734 992.396" stroke="#357AB6" stroke-width="0.83" stroke-miterlimit="10"/>
<path d="M1508.74 -19.9719L642.838 992.396" stroke="#357AB6" stroke-width="0.83" stroke-miterlimit="10"/>
<path d="M1520.84 -19.9719L654.942 992.396" stroke="#357AB6" stroke-width="0.83" stroke-miterlimit="10"/>
<path d="M1532.94 -19.9719L667.046 992.396" stroke="#357AB6" stroke-width="0.83" stroke-miterlimit="10"/>
<path d="M1545.05 -19.9719L679.15 992.396" stroke="#357AB6" stroke-width="0.83" stroke-miterlimit="10"/>
<path d="M1557.15 -19.9719L691.264 992.396" stroke="#357AB6" stroke-width="0.83" stroke-miterlimit="10"/>
<path d="M1569.25 -19.9719L703.368 992.396" stroke="#357AB6" stroke-width="0.83" stroke-miterlimit="10"/>
<path d="M1581.37 -19.9719L715.472 992.396" stroke="#357AB6" stroke-width="0.83" stroke-miterlimit="10"/>
<path d="M1593.47 -19.9719L727.576 992.396" stroke="#357AB6" stroke-width="0.83" stroke-miterlimit="10"/>
<path d="M1605.58 -19.9719L739.68 992.396" stroke="#357AB6" stroke-width="0.83" stroke-miterlimit="10"/>
<path d="M1617.68 -19.9719L751.783 992.396" stroke="#357AB6" stroke-width="0.83" stroke-miterlimit="10"/>
<path d="M1629.78 -19.9719L763.896 992.396" stroke="#357AB6" stroke-width="0.83" stroke-miterlimit="10"/>
<path d="M1641.89 -19.9719L776.001 992.396" stroke="#357AB6" stroke-width="0.83" stroke-miterlimit="10"/>
<path d="M1654 -19.9719L788.104 992.396" stroke="#357AB6" stroke-width="0.83" stroke-miterlimit="10"/>
<path d="M1666.11 -19.9719L800.208 992.396" stroke="#357AB6" stroke-width="0.83" stroke-miterlimit="10"/>
<path d="M1678.21 -19.9719L812.312 992.396" stroke="#357AB6" stroke-width="0.83" stroke-miterlimit="10"/>
<path d="M1690.31 -19.9719L824.417 992.396" stroke="#357AB6" stroke-width="0.83" stroke-miterlimit="10"/>
<path d="M1702.42 -19.9719L836.53 992.396" stroke="#357AB6" stroke-width="0.83" stroke-miterlimit="10"/>
<path d="M1714.52 -19.9719L848.634 992.396" stroke="#357AB6" stroke-width="0.83" stroke-miterlimit="10"/>
<path d="M1726.63 -19.9719L860.737 992.396" stroke="#357AB6" stroke-width="0.83" stroke-miterlimit="10"/>
<path d="M1738.74 -19.9719L872.842 992.396" stroke="#357AB6" stroke-width="0.83" stroke-miterlimit="10"/>
<path d="M1750.84 -19.9719L884.945 992.396" stroke="#357AB6" stroke-width="0.83" stroke-miterlimit="10"/>
<path d="M1762.95 -19.9719L897.05 992.396" stroke="#357AB6" stroke-width="0.83" stroke-miterlimit="10"/>
<path d="M1775.05 -19.9719L909.163 992.396" stroke="#357AB6" stroke-width="0.83" stroke-miterlimit="10"/>
<path d="M1787.15 -19.9719L921.267 992.396" stroke="#357AB6" stroke-width="0.83" stroke-miterlimit="10"/>
<path d="M1799.27 -19.9719L933.371 992.396" stroke="#357AB6" stroke-width="0.83" stroke-miterlimit="10"/>
<path d="M1811.37 -19.9719L945.475 992.396" stroke="#357AB6" stroke-width="0.83" stroke-miterlimit="10"/>
<path d="M1823.48 -19.9719L957.579 992.396" stroke="#357AB6" stroke-width="0.83" stroke-miterlimit="10"/>
<path d="M1835.58 -19.9719L969.683 992.396" stroke="#357AB6" stroke-width="0.83" stroke-miterlimit="10"/>
<path d="M1847.68 -19.9719L981.796 992.396" stroke="#357AB6" stroke-width="0.83" stroke-miterlimit="10"/>
<path d="M1859.79 -19.9719L993.9 992.396" stroke="#357AB6" stroke-width="0.83" stroke-miterlimit="10"/>
<path d="M1871.9 -19.9719L1006 992.396" stroke="#357AB6" stroke-width="0.83" stroke-miterlimit="10"/>
<path d="M1884 -19.9719L1018.11 992.396" stroke="#357AB6" stroke-width="0.83" stroke-miterlimit="10"/>
<path d="M1896.11 -19.9719L1030.21 992.396" stroke="#357AB6" stroke-width="0.83" stroke-miterlimit="10"/>
<path d="M1908.21 -19.9719L1042.32 992.396" stroke="#357AB6" stroke-width="0.83" stroke-miterlimit="10"/>
<path d="M1920.32 -19.9719L1054.43 992.396" stroke="#357AB6" stroke-width="0.83" stroke-miterlimit="10"/>
<path d="M1932.42 -19.9719L1066.53 992.396" stroke="#357AB6" stroke-width="0.83" stroke-miterlimit="10"/>
<path d="M1944.52 -19.9719L1078.64 992.396" stroke="#357AB6" stroke-width="0.83" stroke-miterlimit="10"/>
<path d="M1956.64 -19.9719L1090.74 992.396" stroke="#357AB6" stroke-width="0.83" stroke-miterlimit="10"/>
<path d="M1968.74 -19.9719L1102.84 992.396" stroke="#357AB6" stroke-width="0.83" stroke-miterlimit="10"/>
<path d="M1980.85 -19.9719L1114.95 992.396" stroke="#357AB6" stroke-width="0.83" stroke-miterlimit="10"/>
<path d="M1992.95 -19.9719L1127.06 992.396" stroke="#357AB6" stroke-width="0.83" stroke-miterlimit="10"/>
<path d="M2005.05 -19.9719L1139.17 992.396" stroke="#357AB6" stroke-width="0.83" stroke-miterlimit="10"/>
<path d="M2017.16 -19.9719L1151.27 992.396" stroke="#357AB6" stroke-width="0.83" stroke-miterlimit="10"/>
<path d="M2029.27 -19.9719L1163.37 992.396" stroke="#357AB6" stroke-width="0.83" stroke-miterlimit="10"/>
<path d="M2041.37 -19.9719L1175.48 992.396" stroke="#357AB6" stroke-width="0.83" stroke-miterlimit="10"/>
<path d="M2053.48 -19.9719L1187.58 992.396" stroke="#357AB6" stroke-width="0.83" stroke-miterlimit="10"/>
<path d="M2065.58 -19.9719L1199.7 992.396" stroke="#357AB6" stroke-width="0.83" stroke-miterlimit="10"/>
<path d="M2077.69 -19.9719L1211.8 992.396" stroke="#357AB6" stroke-width="0.83" stroke-miterlimit="10"/>
<path d="M2089.79 -19.9719L1223.9 992.396" stroke="#357AB6" stroke-width="0.83" stroke-miterlimit="10"/>
</g>
</g>
</svg>
