<svg width="1393" height="2393" viewBox="0 0 1393 2393" fill="none" xmlns="http://www.w3.org/2000/svg">
<g opacity="0.3">
<mask id="mask0_324_1876" style="mask-type:luminance" maskUnits="userSpaceOnUse" x="4" y="0" width="1385" height="2385">
<path d="M1389 0H4V2385H1389V0Z" fill="white"/>
</mask>
<g mask="url(#mask0_324_1876)">
<path opacity="0.15" d="M1389 0H4V2590.35H1389V0Z" fill="#1262A9"/>
<path d="M41.1209 -55.0677L-929.945 2736.25" stroke="#357AB6" stroke-width="0.83" stroke-miterlimit="10"/>
<path d="M54.6949 -55.0677L-916.371 2736.25" stroke="#357AB6" stroke-width="0.83" stroke-miterlimit="10"/>
<path d="M68.2689 -55.0677L-902.787 2736.25" stroke="#357AB6" stroke-width="0.83" stroke-miterlimit="10"/>
<path d="M81.8431 -55.0677L-889.212 2736.25" stroke="#357AB6" stroke-width="0.83" stroke-miterlimit="10"/>
<path d="M95.4276 -55.0677L-875.639 2736.25" stroke="#357AB6" stroke-width="0.83" stroke-miterlimit="10"/>
<path d="M109.002 -55.0677L-862.064 2736.25" stroke="#357AB6" stroke-width="0.83" stroke-miterlimit="10"/>
<path d="M122.576 -55.0677L-848.49 2736.25" stroke="#357AB6" stroke-width="0.83" stroke-miterlimit="10"/>
<path d="M136.15 -55.0677L-834.916 2736.25" stroke="#357AB6" stroke-width="0.83" stroke-miterlimit="10"/>
<path d="M149.724 -55.0677L-821.332 2736.25" stroke="#357AB6" stroke-width="0.83" stroke-miterlimit="10"/>
<path d="M163.298 -55.0677L-807.758 2736.25" stroke="#357AB6" stroke-width="0.83" stroke-miterlimit="10"/>
<path d="M176.883 -55.0677L-794.183 2736.25" stroke="#357AB6" stroke-width="0.83" stroke-miterlimit="10"/>
<path d="M190.457 -55.0677L-780.609 2736.25" stroke="#357AB6" stroke-width="0.83" stroke-miterlimit="10"/>
<path d="M204.031 -55.0677L-767.035 2736.25" stroke="#357AB6" stroke-width="0.83" stroke-miterlimit="10"/>
<path d="M217.605 -55.0677L-753.461 2736.25" stroke="#357AB6" stroke-width="0.83" stroke-miterlimit="10"/>
<path d="M231.179 -55.0677L-739.876 2736.25" stroke="#357AB6" stroke-width="0.83" stroke-miterlimit="10"/>
<path d="M244.753 -55.0677L-726.303 2736.25" stroke="#357AB6" stroke-width="0.83" stroke-miterlimit="10"/>
<path d="M258.337 -55.0677L-712.729 2736.25" stroke="#357AB6" stroke-width="0.83" stroke-miterlimit="10"/>
<path d="M271.911 -55.0677L-699.155 2736.25" stroke="#357AB6" stroke-width="0.83" stroke-miterlimit="10"/>
<path d="M285.486 -55.0677L-685.581 2736.25" stroke="#357AB6" stroke-width="0.83" stroke-miterlimit="10"/>
<path d="M299.06 -55.0677L-672.006 2736.25" stroke="#357AB6" stroke-width="0.83" stroke-miterlimit="10"/>
<path d="M312.634 -55.0677L-658.422 2736.25" stroke="#357AB6" stroke-width="0.83" stroke-miterlimit="10"/>
<path d="M326.208 -55.0677L-644.848 2736.25" stroke="#357AB6" stroke-width="0.83" stroke-miterlimit="10"/>
<path d="M339.793 -55.0677L-631.274 2736.25" stroke="#357AB6" stroke-width="0.83" stroke-miterlimit="10"/>
<path d="M353.367 -55.0677L-617.699 2736.25" stroke="#357AB6" stroke-width="0.83" stroke-miterlimit="10"/>
<path d="M366.94 -55.0677L-604.126 2736.25" stroke="#357AB6" stroke-width="0.83" stroke-miterlimit="10"/>
<path d="M380.515 -55.0677L-590.552 2736.25" stroke="#357AB6" stroke-width="0.83" stroke-miterlimit="10"/>
<path d="M394.089 -55.0677L-576.967 2736.25" stroke="#357AB6" stroke-width="0.83" stroke-miterlimit="10"/>
<path d="M407.663 -55.0677L-563.393 2736.25" stroke="#357AB6" stroke-width="0.83" stroke-miterlimit="10"/>
<path d="M421.237 -55.0677L-549.819 2736.25" stroke="#357AB6" stroke-width="0.83" stroke-miterlimit="10"/>
<path d="M434.821 -55.0677L-536.245 2736.25" stroke="#357AB6" stroke-width="0.83" stroke-miterlimit="10"/>
<path d="M448.396 -55.0677L-522.67 2736.25" stroke="#357AB6" stroke-width="0.83" stroke-miterlimit="10"/>
<path d="M461.97 -55.0677L-509.097 2736.25" stroke="#357AB6" stroke-width="0.83" stroke-miterlimit="10"/>
<path d="M475.544 -55.0677L-495.512 2736.25" stroke="#357AB6" stroke-width="0.83" stroke-miterlimit="10"/>
<path d="M489.118 -55.0677L-481.938 2736.25" stroke="#357AB6" stroke-width="0.83" stroke-miterlimit="10"/>
<path d="M502.692 -55.0677L-468.364 2736.25" stroke="#357AB6" stroke-width="0.83" stroke-miterlimit="10"/>
<path d="M516.276 -55.0677L-454.79 2736.25" stroke="#357AB6" stroke-width="0.83" stroke-miterlimit="10"/>
<path d="M529.85 -55.0677L-441.216 2736.25" stroke="#357AB6" stroke-width="0.83" stroke-miterlimit="10"/>
<path d="M543.424 -55.0677L-427.642 2736.25" stroke="#357AB6" stroke-width="0.83" stroke-miterlimit="10"/>
<path d="M556.998 -55.0677L-414.057 2736.25" stroke="#357AB6" stroke-width="0.83" stroke-miterlimit="10"/>
<path d="M570.572 -55.0677L-400.483 2736.25" stroke="#357AB6" stroke-width="0.83" stroke-miterlimit="10"/>
<path d="M584.147 -55.0677L-386.909 2736.25" stroke="#357AB6" stroke-width="0.83" stroke-miterlimit="10"/>
<path d="M597.731 -55.0677L-373.335 2736.25" stroke="#357AB6" stroke-width="0.83" stroke-miterlimit="10"/>
<path d="M611.306 -55.0677L-359.761 2736.25" stroke="#357AB6" stroke-width="0.83" stroke-miterlimit="10"/>
<path d="M624.879 -55.0677L-346.187 2736.25" stroke="#357AB6" stroke-width="0.83" stroke-miterlimit="10"/>
<path d="M638.454 -55.0677L-332.612 2736.25" stroke="#357AB6" stroke-width="0.83" stroke-miterlimit="10"/>
<path d="M652.028 -55.0677L-319.028 2736.25" stroke="#357AB6" stroke-width="0.83" stroke-miterlimit="10"/>
<path d="M665.602 -55.0677L-305.454 2736.25" stroke="#357AB6" stroke-width="0.83" stroke-miterlimit="10"/>
<path d="M679.186 -55.0677L-291.88 2736.25" stroke="#357AB6" stroke-width="0.83" stroke-miterlimit="10"/>
<path d="M692.76 -55.0677L-278.306 2736.25" stroke="#357AB6" stroke-width="0.83" stroke-miterlimit="10"/>
<path d="M706.334 -55.0677L-264.732 2736.25" stroke="#357AB6" stroke-width="0.83" stroke-miterlimit="10"/>
<path d="M719.909 -55.0677L-251.158 2736.25" stroke="#357AB6" stroke-width="0.83" stroke-miterlimit="10"/>
<path d="M733.482 -55.0677L-237.573 2736.25" stroke="#357AB6" stroke-width="0.83" stroke-miterlimit="10"/>
<path d="M747.057 -55.0677L-223.999 2736.25" stroke="#357AB6" stroke-width="0.83" stroke-miterlimit="10"/>
<path d="M760.641 -55.0677L-210.425 2736.25" stroke="#357AB6" stroke-width="0.83" stroke-miterlimit="10"/>
<path d="M774.215 -55.0677L-196.851 2736.25" stroke="#357AB6" stroke-width="0.83" stroke-miterlimit="10"/>
<path d="M787.789 -55.0677L-183.277 2736.25" stroke="#357AB6" stroke-width="0.83" stroke-miterlimit="10"/>
<path d="M801.363 -55.0677L-169.703 2736.25" stroke="#357AB6" stroke-width="0.83" stroke-miterlimit="10"/>
<path d="M814.937 -55.0677L-156.118 2736.25" stroke="#357AB6" stroke-width="0.83" stroke-miterlimit="10"/>
<path d="M828.512 -55.0677L-142.544 2736.25" stroke="#357AB6" stroke-width="0.83" stroke-miterlimit="10"/>
<path d="M842.096 -55.0677L-128.971 2736.25" stroke="#357AB6" stroke-width="0.83" stroke-miterlimit="10"/>
<path d="M855.67 -55.0677L-115.396 2736.25" stroke="#357AB6" stroke-width="0.83" stroke-miterlimit="10"/>
<path d="M869.244 -55.0677L-101.822 2736.25" stroke="#357AB6" stroke-width="0.83" stroke-miterlimit="10"/>
<path d="M882.818 -55.0677L-88.248 2736.25" stroke="#357AB6" stroke-width="0.83" stroke-miterlimit="10"/>
<path d="M896.392 -55.0677L-74.6631 2736.25" stroke="#357AB6" stroke-width="0.83" stroke-miterlimit="10"/>
<path d="M909.966 -55.0677L-61.0894 2736.25" stroke="#357AB6" stroke-width="0.83" stroke-miterlimit="10"/>
<path d="M923.551 -55.0677L-47.5151 2736.25" stroke="#357AB6" stroke-width="0.83" stroke-miterlimit="10"/>
<path d="M937.125 -55.0677L-33.9414 2736.25" stroke="#357AB6" stroke-width="0.83" stroke-miterlimit="10"/>
<path d="M950.699 -55.0677L-20.3672 2736.25" stroke="#357AB6" stroke-width="0.83" stroke-miterlimit="10"/>
<path d="M964.273 -55.0677L-6.79297 2736.25" stroke="#357AB6" stroke-width="0.83" stroke-miterlimit="10"/>
<path d="M977.847 -55.0677L6.7915 2736.25" stroke="#357AB6" stroke-width="0.83" stroke-miterlimit="10"/>
<path d="M991.421 -55.0677L20.3657 2736.25" stroke="#357AB6" stroke-width="0.83" stroke-miterlimit="10"/>
<path d="M1005.01 -55.0677L33.9399 2736.25" stroke="#357AB6" stroke-width="0.83" stroke-miterlimit="10"/>
<path d="M1018.58 -55.0677L47.5137 2736.25" stroke="#357AB6" stroke-width="0.83" stroke-miterlimit="10"/>
<path d="M1032.15 -55.0677L61.0874 2736.25" stroke="#357AB6" stroke-width="0.83" stroke-miterlimit="10"/>
<path d="M1045.73 -55.0677L74.6621 2736.25" stroke="#357AB6" stroke-width="0.83" stroke-miterlimit="10"/>
<path d="M1059.3 -55.0677L88.2461 2736.25" stroke="#357AB6" stroke-width="0.83" stroke-miterlimit="10"/>
<path d="M1072.88 -55.0677L101.82 2736.25" stroke="#357AB6" stroke-width="0.83" stroke-miterlimit="10"/>
<path d="M1086.46 -55.0677L115.395 2736.25" stroke="#357AB6" stroke-width="0.83" stroke-miterlimit="10"/>
<path d="M1100.03 -55.0677L128.969 2736.25" stroke="#357AB6" stroke-width="0.83" stroke-miterlimit="10"/>
<path d="M1113.61 -55.0677L142.543 2736.25" stroke="#357AB6" stroke-width="0.83" stroke-miterlimit="10"/>
<path d="M1127.18 -55.0677L156.117 2736.25" stroke="#357AB6" stroke-width="0.83" stroke-miterlimit="10"/>
<path d="M1140.76 -55.0677L169.701 2736.25" stroke="#357AB6" stroke-width="0.83" stroke-miterlimit="10"/>
<path d="M1154.33 -55.0677L183.275 2736.25" stroke="#357AB6" stroke-width="0.83" stroke-miterlimit="10"/>
<path d="M1167.9 -55.0677L196.849 2736.25" stroke="#357AB6" stroke-width="0.83" stroke-miterlimit="10"/>
<path d="M1181.49 -55.0677L210.424 2736.25" stroke="#357AB6" stroke-width="0.83" stroke-miterlimit="10"/>
<path d="M1195.06 -55.0677L223.997 2736.25" stroke="#357AB6" stroke-width="0.83" stroke-miterlimit="10"/>
<path d="M1208.64 -55.0677L237.571 2736.25" stroke="#357AB6" stroke-width="0.83" stroke-miterlimit="10"/>
<path d="M1222.21 -55.0677L251.156 2736.25" stroke="#357AB6" stroke-width="0.83" stroke-miterlimit="10"/>
<path d="M1235.79 -55.0677L264.73 2736.25" stroke="#357AB6" stroke-width="0.83" stroke-miterlimit="10"/>
<path d="M1249.36 -55.0677L278.305 2736.25" stroke="#357AB6" stroke-width="0.83" stroke-miterlimit="10"/>
<path d="M1261.55 -55.0677L290.494 2736.25" stroke="#357AB6" stroke-width="0.83" stroke-miterlimit="10"/>
<path d="M1275.13 -55.0677L304.067 2736.25" stroke="#357AB6" stroke-width="0.83" stroke-miterlimit="10"/>
<path d="M1288.71 -55.0677L317.641 2736.25" stroke="#357AB6" stroke-width="0.83" stroke-miterlimit="10"/>
<path d="M1302.28 -55.0677L331.215 2736.25" stroke="#357AB6" stroke-width="0.83" stroke-miterlimit="10"/>
<path d="M1315.86 -55.0677L344.79 2736.25" stroke="#357AB6" stroke-width="0.83" stroke-miterlimit="10"/>
<path d="M1329.43 -55.0677L358.374 2736.25" stroke="#357AB6" stroke-width="0.83" stroke-miterlimit="10"/>
<path d="M1343 -55.0677L371.948 2736.25" stroke="#357AB6" stroke-width="0.83" stroke-miterlimit="10"/>
<path d="M1356.58 -55.0677L385.522 2736.25" stroke="#357AB6" stroke-width="0.83" stroke-miterlimit="10"/>
<path d="M1370.16 -55.0677L399.096 2736.25" stroke="#357AB6" stroke-width="0.83" stroke-miterlimit="10"/>
<path d="M1383.74 -55.0677L412.67 2736.25" stroke="#357AB6" stroke-width="0.83" stroke-miterlimit="10"/>
<path d="M1397.31 -55.0677L426.245 2736.25" stroke="#357AB6" stroke-width="0.83" stroke-miterlimit="10"/>
<path d="M1410.88 -55.0677L439.829 2736.25" stroke="#357AB6" stroke-width="0.83" stroke-miterlimit="10"/>
<path d="M1424.46 -55.0677L453.403 2736.25" stroke="#357AB6" stroke-width="0.83" stroke-miterlimit="10"/>
<path d="M1438.03 -55.0677L466.978 2736.25" stroke="#357AB6" stroke-width="0.83" stroke-miterlimit="10"/>
<path d="M1451.62 -55.0677L480.552 2736.25" stroke="#357AB6" stroke-width="0.83" stroke-miterlimit="10"/>
<path d="M1465.19 -55.0677L494.125 2736.25" stroke="#357AB6" stroke-width="0.83" stroke-miterlimit="10"/>
<path d="M1478.77 -55.0677L507.699 2736.25" stroke="#357AB6" stroke-width="0.83" stroke-miterlimit="10"/>
<path d="M1492.34 -55.0677L521.284 2736.25" stroke="#357AB6" stroke-width="0.83" stroke-miterlimit="10"/>
<path d="M1505.91 -55.0677L534.858 2736.25" stroke="#357AB6" stroke-width="0.83" stroke-miterlimit="10"/>
<path d="M1519.49 -55.0677L548.432 2736.25" stroke="#357AB6" stroke-width="0.83" stroke-miterlimit="10"/>
<path d="M1533.07 -55.0677L562.006 2736.25" stroke="#357AB6" stroke-width="0.83" stroke-miterlimit="10"/>
<path d="M1546.65 -55.0677L575.58 2736.25" stroke="#357AB6" stroke-width="0.83" stroke-miterlimit="10"/>
<path d="M1560.22 -55.0677L589.154 2736.25" stroke="#357AB6" stroke-width="0.83" stroke-miterlimit="10"/>
<path d="M1573.79 -55.0677L602.739 2736.25" stroke="#357AB6" stroke-width="0.83" stroke-miterlimit="10"/>
<path d="M1587.37 -55.0677L616.313 2736.25" stroke="#357AB6" stroke-width="0.83" stroke-miterlimit="10"/>
<path d="M1600.94 -55.0677L629.887 2736.25" stroke="#357AB6" stroke-width="0.83" stroke-miterlimit="10"/>
<path d="M1614.53 -55.0677L643.461 2736.25" stroke="#357AB6" stroke-width="0.83" stroke-miterlimit="10"/>
<path d="M1628.1 -55.0677L657.036 2736.25" stroke="#357AB6" stroke-width="0.83" stroke-miterlimit="10"/>
<path d="M1641.68 -55.0677L670.609 2736.25" stroke="#357AB6" stroke-width="0.83" stroke-miterlimit="10"/>
<path d="M1655.25 -55.0677L684.183 2736.25" stroke="#357AB6" stroke-width="0.83" stroke-miterlimit="10"/>
<path d="M1668.82 -55.0677L697.768 2736.25" stroke="#357AB6" stroke-width="0.83" stroke-miterlimit="10"/>
<path d="M1682.4 -55.0677L711.342 2736.25" stroke="#357AB6" stroke-width="0.83" stroke-miterlimit="10"/>
<path d="M1695.98 -55.0677L724.916 2736.25" stroke="#357AB6" stroke-width="0.83" stroke-miterlimit="10"/>
<path d="M1709.56 -55.0677L738.49 2736.25" stroke="#357AB6" stroke-width="0.83" stroke-miterlimit="10"/>
<path d="M1723.13 -55.0677L752.064 2736.25" stroke="#357AB6" stroke-width="0.83" stroke-miterlimit="10"/>
<path d="M1736.7 -55.0677L765.638 2736.25" stroke="#357AB6" stroke-width="0.83" stroke-miterlimit="10"/>
<path d="M1750.28 -55.0677L779.223 2736.25" stroke="#357AB6" stroke-width="0.83" stroke-miterlimit="10"/>
<path d="M1763.85 -55.0677L792.797 2736.25" stroke="#357AB6" stroke-width="0.83" stroke-miterlimit="10"/>
<path d="M1777.44 -55.0677L806.371 2736.25" stroke="#357AB6" stroke-width="0.83" stroke-miterlimit="10"/>
<path d="M1791.01 -55.0677L819.945 2736.25" stroke="#357AB6" stroke-width="0.83" stroke-miterlimit="10"/>
<path d="M1804.59 -55.0677L833.52 2736.25" stroke="#357AB6" stroke-width="0.83" stroke-miterlimit="10"/>
<path d="M1818.16 -55.0677L847.093 2736.25" stroke="#357AB6" stroke-width="0.83" stroke-miterlimit="10"/>
<path d="M1831.73 -55.0677L860.677 2736.25" stroke="#357AB6" stroke-width="0.83" stroke-miterlimit="10"/>
<path d="M1845.31 -55.0677L874.252 2736.25" stroke="#357AB6" stroke-width="0.83" stroke-miterlimit="10"/>
<path d="M1858.89 -55.0677L887.826 2736.25" stroke="#357AB6" stroke-width="0.83" stroke-miterlimit="10"/>
<path d="M1872.47 -55.0677L901.4 2736.25" stroke="#357AB6" stroke-width="0.83" stroke-miterlimit="10"/>
<path d="M1886.04 -55.0677L914.974 2736.25" stroke="#357AB6" stroke-width="0.83" stroke-miterlimit="10"/>
<path d="M1899.61 -55.0677L928.548 2736.25" stroke="#357AB6" stroke-width="0.83" stroke-miterlimit="10"/>
<path d="M1913.19 -55.0677L942.133 2736.25" stroke="#357AB6" stroke-width="0.83" stroke-miterlimit="10"/>
<path d="M1926.76 -55.0677L955.707 2736.25" stroke="#357AB6" stroke-width="0.83" stroke-miterlimit="10"/>
<path d="M1940.35 -55.0677L969.28 2736.25" stroke="#357AB6" stroke-width="0.83" stroke-miterlimit="10"/>
<path d="M1953.92 -55.0677L982.855 2736.25" stroke="#357AB6" stroke-width="0.83" stroke-miterlimit="10"/>
<path d="M1967.49 -55.0677L996.429 2736.25" stroke="#357AB6" stroke-width="0.83" stroke-miterlimit="10"/>
<path d="M1981.07 -55.0677L1010 2736.25" stroke="#357AB6" stroke-width="0.83" stroke-miterlimit="10"/>
<path d="M1994.64 -55.0677L1023.59 2736.25" stroke="#357AB6" stroke-width="0.83" stroke-miterlimit="10"/>
<path d="M2008.22 -55.0677L1037.16 2736.25" stroke="#357AB6" stroke-width="0.83" stroke-miterlimit="10"/>
<path d="M2021.8 -55.0677L1050.74 2736.25" stroke="#357AB6" stroke-width="0.83" stroke-miterlimit="10"/>
<path d="M2035.38 -55.0677L1064.31 2736.25" stroke="#357AB6" stroke-width="0.83" stroke-miterlimit="10"/>
<path d="M2048.95 -55.0677L1077.88 2736.25" stroke="#357AB6" stroke-width="0.83" stroke-miterlimit="10"/>
<path d="M2062.52 -55.0677L1091.46 2736.25" stroke="#357AB6" stroke-width="0.83" stroke-miterlimit="10"/>
<path d="M2076.1 -55.0677L1105.04 2736.25" stroke="#357AB6" stroke-width="0.83" stroke-miterlimit="10"/>
<path d="M2089.67 -55.0677L1118.62 2736.25" stroke="#357AB6" stroke-width="0.83" stroke-miterlimit="10"/>
<path d="M2103.26 -55.0677L1132.19 2736.25" stroke="#357AB6" stroke-width="0.83" stroke-miterlimit="10"/>
<path d="M2116.83 -55.0677L1145.76 2736.25" stroke="#357AB6" stroke-width="0.83" stroke-miterlimit="10"/>
<path d="M2130.4 -55.0677L1159.34 2736.25" stroke="#357AB6" stroke-width="0.83" stroke-miterlimit="10"/>
<path d="M2143.98 -55.0677L1172.91 2736.25" stroke="#357AB6" stroke-width="0.83" stroke-miterlimit="10"/>
<path d="M2157.55 -55.0677L1186.5 2736.25" stroke="#357AB6" stroke-width="0.83" stroke-miterlimit="10"/>
<path d="M2171.13 -55.0677L1200.07 2736.25" stroke="#357AB6" stroke-width="0.83" stroke-miterlimit="10"/>
<path d="M2184.7 -55.0677L1213.65 2736.25" stroke="#357AB6" stroke-width="0.83" stroke-miterlimit="10"/>
<path d="M2198.29 -55.0677L1227.22 2736.25" stroke="#357AB6" stroke-width="0.83" stroke-miterlimit="10"/>
<path d="M2211.86 -55.0677L1240.79 2736.25" stroke="#357AB6" stroke-width="0.83" stroke-miterlimit="10"/>
<path d="M2225.43 -55.0677L1254.37 2736.25" stroke="#357AB6" stroke-width="0.83" stroke-miterlimit="10"/>
<path d="M2239.01 -55.0677L1267.95 2736.25" stroke="#357AB6" stroke-width="0.83" stroke-miterlimit="10"/>
<path d="M2252.58 -55.0677L1281.53 2736.25" stroke="#357AB6" stroke-width="0.83" stroke-miterlimit="10"/>
<path d="M2266.16 -55.0677L1295.1 2736.25" stroke="#357AB6" stroke-width="0.83" stroke-miterlimit="10"/>
<path d="M2279.74 -55.0677L1308.67 2736.25" stroke="#357AB6" stroke-width="0.83" stroke-miterlimit="10"/>
<path d="M2293.31 -55.0677L1322.25 2736.25" stroke="#357AB6" stroke-width="0.83" stroke-miterlimit="10"/>
<path d="M2306.89 -55.0677L1335.82 2736.25" stroke="#357AB6" stroke-width="0.83" stroke-miterlimit="10"/>
<path d="M2320.46 -55.0677L1349.41 2736.25" stroke="#357AB6" stroke-width="0.83" stroke-miterlimit="10"/>
<path d="M2334.04 -55.0677L1362.98 2736.25" stroke="#357AB6" stroke-width="0.83" stroke-miterlimit="10"/>
<path d="M2347.61 -55.0677L1376.56 2736.25" stroke="#357AB6" stroke-width="0.83" stroke-miterlimit="10"/>
</g>
</g>
</svg>
