<svg width="1239" height="496" viewBox="0 0 1239 496" fill="none" xmlns="http://www.w3.org/2000/svg">
<g opacity="0.3">
<mask id="mask0_324_3537" style="mask-type:luminance" maskUnits="userSpaceOnUse" x="0" y="0" width="1235" height="488">
<path d="M1235 0H0V488H1235V0Z" fill="white"/>
</mask>
<g mask="url(#mask0_324_3537)">
<path opacity="0.15" d="M1523.99 0.000106812H-1.23486V533.047H1523.99V0.000106812Z" fill="#1262A9"/>
<path d="M39.6445 -11.3313L-1029.74 563.072" stroke="#357AB6" stroke-width="0.83" stroke-miterlimit="10"/>
<path d="M54.5928 -11.3313L-1014.79 563.072" stroke="#357AB6" stroke-width="0.83" stroke-miterlimit="10"/>
<path d="M69.5415 -11.3313L-999.829 563.072" stroke="#357AB6" stroke-width="0.83" stroke-miterlimit="10"/>
<path d="M84.4892 -11.3313L-984.881 563.072" stroke="#357AB6" stroke-width="0.83" stroke-miterlimit="10"/>
<path d="M99.4497 -11.3313L-969.933 563.072" stroke="#357AB6" stroke-width="0.83" stroke-miterlimit="10"/>
<path d="M114.398 -11.3313L-954.984 563.072" stroke="#357AB6" stroke-width="0.83" stroke-miterlimit="10"/>
<path d="M129.346 -11.3313L-940.036 563.072" stroke="#357AB6" stroke-width="0.83" stroke-miterlimit="10"/>
<path d="M144.295 -11.3313L-925.087 563.072" stroke="#357AB6" stroke-width="0.83" stroke-miterlimit="10"/>
<path d="M159.243 -11.3313L-910.127 563.072" stroke="#357AB6" stroke-width="0.83" stroke-miterlimit="10"/>
<path d="M174.191 -11.3313L-895.179 563.072" stroke="#357AB6" stroke-width="0.83" stroke-miterlimit="10"/>
<path d="M189.152 -11.3313L-880.23 563.072" stroke="#357AB6" stroke-width="0.83" stroke-miterlimit="10"/>
<path d="M204.1 -11.3313L-865.282 563.072" stroke="#357AB6" stroke-width="0.83" stroke-miterlimit="10"/>
<path d="M219.048 -11.3313L-850.334 563.072" stroke="#357AB6" stroke-width="0.83" stroke-miterlimit="10"/>
<path d="M233.997 -11.3313L-835.386 563.072" stroke="#357AB6" stroke-width="0.83" stroke-miterlimit="10"/>
<path d="M248.945 -11.3313L-820.426 563.072" stroke="#357AB6" stroke-width="0.83" stroke-miterlimit="10"/>
<path d="M263.893 -11.3313L-805.478 563.072" stroke="#357AB6" stroke-width="0.83" stroke-miterlimit="10"/>
<path d="M278.853 -11.3313L-790.529 563.072" stroke="#357AB6" stroke-width="0.83" stroke-miterlimit="10"/>
<path d="M293.802 -11.3313L-775.581 563.072" stroke="#357AB6" stroke-width="0.83" stroke-miterlimit="10"/>
<path d="M308.75 -11.3313L-760.632 563.072" stroke="#357AB6" stroke-width="0.83" stroke-miterlimit="10"/>
<path d="M323.698 -11.3313L-745.684 563.072" stroke="#357AB6" stroke-width="0.83" stroke-miterlimit="10"/>
<path d="M338.647 -11.3313L-730.724 563.072" stroke="#357AB6" stroke-width="0.83" stroke-miterlimit="10"/>
<path d="M353.595 -11.3313L-715.775 563.072" stroke="#357AB6" stroke-width="0.83" stroke-miterlimit="10"/>
<path d="M368.555 -11.3313L-700.827 563.072" stroke="#357AB6" stroke-width="0.83" stroke-miterlimit="10"/>
<path d="M383.504 -11.3313L-685.878 563.072" stroke="#357AB6" stroke-width="0.83" stroke-miterlimit="10"/>
<path d="M398.452 -11.3313L-670.931 563.072" stroke="#357AB6" stroke-width="0.83" stroke-miterlimit="10"/>
<path d="M413.4 -11.3313L-655.982 563.072" stroke="#357AB6" stroke-width="0.83" stroke-miterlimit="10"/>
<path d="M428.349 -11.3313L-641.022 563.072" stroke="#357AB6" stroke-width="0.83" stroke-miterlimit="10"/>
<path d="M443.297 -11.3313L-626.073 563.072" stroke="#357AB6" stroke-width="0.83" stroke-miterlimit="10"/>
<path d="M458.245 -11.3313L-611.125 563.072" stroke="#357AB6" stroke-width="0.83" stroke-miterlimit="10"/>
<path d="M473.206 -11.3313L-596.177 563.072" stroke="#357AB6" stroke-width="0.83" stroke-miterlimit="10"/>
<path d="M488.154 -11.3313L-581.229 563.072" stroke="#357AB6" stroke-width="0.83" stroke-miterlimit="10"/>
<path d="M503.102 -11.3313L-566.28 563.072" stroke="#357AB6" stroke-width="0.83" stroke-miterlimit="10"/>
<path d="M518.05 -11.3313L-551.32 563.072" stroke="#357AB6" stroke-width="0.83" stroke-miterlimit="10"/>
<path d="M532.999 -11.3313L-536.372 563.072" stroke="#357AB6" stroke-width="0.83" stroke-miterlimit="10"/>
<path d="M547.947 -11.3313L-521.423 563.072" stroke="#357AB6" stroke-width="0.83" stroke-miterlimit="10"/>
<path d="M562.907 -11.3313L-506.475 563.072" stroke="#357AB6" stroke-width="0.83" stroke-miterlimit="10"/>
<path d="M577.855 -11.3313L-491.527 563.072" stroke="#357AB6" stroke-width="0.83" stroke-miterlimit="10"/>
<path d="M592.804 -11.3313L-476.579 563.072" stroke="#357AB6" stroke-width="0.83" stroke-miterlimit="10"/>
<path d="M607.752 -11.3313L-461.619 563.072" stroke="#357AB6" stroke-width="0.83" stroke-miterlimit="10"/>
<path d="M622.701 -11.3313L-446.67 563.072" stroke="#357AB6" stroke-width="0.83" stroke-miterlimit="10"/>
<path d="M637.649 -11.3313L-431.722 563.072" stroke="#357AB6" stroke-width="0.83" stroke-miterlimit="10"/>
<path d="M652.609 -11.3313L-416.773 563.072" stroke="#357AB6" stroke-width="0.83" stroke-miterlimit="10"/>
<path d="M667.557 -11.3313L-401.825 563.072" stroke="#357AB6" stroke-width="0.83" stroke-miterlimit="10"/>
<path d="M682.506 -11.3313L-386.876 563.072" stroke="#357AB6" stroke-width="0.83" stroke-miterlimit="10"/>
<path d="M697.454 -11.3313L-371.928 563.072" stroke="#357AB6" stroke-width="0.83" stroke-miterlimit="10"/>
<path d="M712.402 -11.3313L-356.968 563.072" stroke="#357AB6" stroke-width="0.83" stroke-miterlimit="10"/>
<path d="M727.351 -11.3313L-342.02 563.072" stroke="#357AB6" stroke-width="0.83" stroke-miterlimit="10"/>
<path d="M742.311 -11.3313L-327.071 563.072" stroke="#357AB6" stroke-width="0.83" stroke-miterlimit="10"/>
<path d="M757.259 -11.3313L-312.123 563.072" stroke="#357AB6" stroke-width="0.83" stroke-miterlimit="10"/>
<path d="M772.207 -11.3313L-297.175 563.072" stroke="#357AB6" stroke-width="0.83" stroke-miterlimit="10"/>
<path d="M787.156 -11.3313L-282.227 563.072" stroke="#357AB6" stroke-width="0.83" stroke-miterlimit="10"/>
<path d="M802.105 -11.3313L-267.266 563.072" stroke="#357AB6" stroke-width="0.83" stroke-miterlimit="10"/>
<path d="M817.053 -11.3313L-252.318 563.072" stroke="#357AB6" stroke-width="0.83" stroke-miterlimit="10"/>
<path d="M832.013 -11.3313L-237.369 563.072" stroke="#357AB6" stroke-width="0.83" stroke-miterlimit="10"/>
<path d="M846.961 -11.3313L-222.421 563.072" stroke="#357AB6" stroke-width="0.83" stroke-miterlimit="10"/>
<path d="M861.909 -11.3313L-207.473 563.072" stroke="#357AB6" stroke-width="0.83" stroke-miterlimit="10"/>
<path d="M876.858 -11.3313L-192.524 563.072" stroke="#357AB6" stroke-width="0.83" stroke-miterlimit="10"/>
<path d="M891.806 -11.3313L-177.564 563.072" stroke="#357AB6" stroke-width="0.83" stroke-miterlimit="10"/>
<path d="M906.754 -11.3313L-162.616 563.072" stroke="#357AB6" stroke-width="0.83" stroke-miterlimit="10"/>
<path d="M921.715 -11.3313L-147.667 563.072" stroke="#357AB6" stroke-width="0.83" stroke-miterlimit="10"/>
<path d="M936.663 -11.3313L-132.719 563.072" stroke="#357AB6" stroke-width="0.83" stroke-miterlimit="10"/>
<path d="M951.611 -11.3313L-117.771 563.072" stroke="#357AB6" stroke-width="0.83" stroke-miterlimit="10"/>
<path d="M966.56 -11.3313L-102.822 563.072" stroke="#357AB6" stroke-width="0.83" stroke-miterlimit="10"/>
<path d="M981.508 -11.3313L-87.8623 563.072" stroke="#357AB6" stroke-width="0.83" stroke-miterlimit="10"/>
<path d="M996.457 -11.3313L-72.9141 563.072" stroke="#357AB6" stroke-width="0.83" stroke-miterlimit="10"/>
<path d="M1011.42 -11.3313L-57.9658 563.072" stroke="#357AB6" stroke-width="0.83" stroke-miterlimit="10"/>
<path d="M1026.36 -11.3313L-43.0176 563.072" stroke="#357AB6" stroke-width="0.83" stroke-miterlimit="10"/>
<path d="M1041.31 -11.3313L-28.0688 563.072" stroke="#357AB6" stroke-width="0.83" stroke-miterlimit="10"/>
<path d="M1056.26 -11.3313L-13.1206 563.072" stroke="#357AB6" stroke-width="0.83" stroke-miterlimit="10"/>
<path d="M1071.21 -11.3313L1.83936 563.072" stroke="#357AB6" stroke-width="0.83" stroke-miterlimit="10"/>
<path d="M1086.16 -11.3313L16.7876 563.072" stroke="#357AB6" stroke-width="0.83" stroke-miterlimit="10"/>
<path d="M1101.12 -11.3313L31.7363 563.072" stroke="#357AB6" stroke-width="0.83" stroke-miterlimit="10"/>
<path d="M1116.07 -11.3313L46.6846 563.072" stroke="#357AB6" stroke-width="0.83" stroke-miterlimit="10"/>
<path d="M1131.02 -11.3313L61.6328 563.072" stroke="#357AB6" stroke-width="0.83" stroke-miterlimit="10"/>
<path d="M1145.96 -11.3313L76.5811 563.072" stroke="#357AB6" stroke-width="0.83" stroke-miterlimit="10"/>
<path d="M1160.91 -11.3313L91.541 563.072" stroke="#357AB6" stroke-width="0.83" stroke-miterlimit="10"/>
<path d="M1175.86 -11.3313L106.489 563.072" stroke="#357AB6" stroke-width="0.83" stroke-miterlimit="10"/>
<path d="M1190.82 -11.3313L121.438 563.072" stroke="#357AB6" stroke-width="0.83" stroke-miterlimit="10"/>
<path d="M1205.77 -11.3313L136.386 563.072" stroke="#357AB6" stroke-width="0.83" stroke-miterlimit="10"/>
<path d="M1220.72 -11.3313L151.335 563.072" stroke="#357AB6" stroke-width="0.83" stroke-miterlimit="10"/>
<path d="M1235.67 -11.3313L166.283 563.072" stroke="#357AB6" stroke-width="0.83" stroke-miterlimit="10"/>
<path d="M1250.61 -11.3313L181.243 563.072" stroke="#357AB6" stroke-width="0.83" stroke-miterlimit="10"/>
<path d="M1265.56 -11.3313L196.192 563.072" stroke="#357AB6" stroke-width="0.83" stroke-miterlimit="10"/>
<path d="M1280.51 -11.3313L211.14 563.072" stroke="#357AB6" stroke-width="0.83" stroke-miterlimit="10"/>
<path d="M1295.47 -11.3313L226.088 563.072" stroke="#357AB6" stroke-width="0.83" stroke-miterlimit="10"/>
<path d="M1310.42 -11.3313L241.036 563.072" stroke="#357AB6" stroke-width="0.83" stroke-miterlimit="10"/>
<path d="M1325.37 -11.3313L255.984 563.072" stroke="#357AB6" stroke-width="0.83" stroke-miterlimit="10"/>
<path d="M1340.32 -11.3313L270.945 563.072" stroke="#357AB6" stroke-width="0.83" stroke-miterlimit="10"/>
<path d="M1355.26 -11.3313L285.894 563.072" stroke="#357AB6" stroke-width="0.83" stroke-miterlimit="10"/>
<path d="M1370.21 -11.3313L300.842 563.072" stroke="#357AB6" stroke-width="0.83" stroke-miterlimit="10"/>
<path d="M1383.64 -11.3313L314.265 563.072" stroke="#357AB6" stroke-width="0.83" stroke-miterlimit="10"/>
<path d="M1398.6 -11.3313L329.213 563.072" stroke="#357AB6" stroke-width="0.83" stroke-miterlimit="10"/>
<path d="M1413.54 -11.3313L344.161 563.072" stroke="#357AB6" stroke-width="0.83" stroke-miterlimit="10"/>
<path d="M1428.49 -11.3313L359.109 563.072" stroke="#357AB6" stroke-width="0.83" stroke-miterlimit="10"/>
<path d="M1443.44 -11.3313L374.058 563.072" stroke="#357AB6" stroke-width="0.83" stroke-miterlimit="10"/>
<path d="M1458.39 -11.3313L389.018 563.072" stroke="#357AB6" stroke-width="0.83" stroke-miterlimit="10"/>
<path d="M1473.34 -11.3313L403.966 563.072" stroke="#357AB6" stroke-width="0.83" stroke-miterlimit="10"/>
<path d="M1488.29 -11.3313L418.915 563.072" stroke="#357AB6" stroke-width="0.83" stroke-miterlimit="10"/>
<path d="M1503.25 -11.3313L433.863 563.072" stroke="#357AB6" stroke-width="0.83" stroke-miterlimit="10"/>
<path d="M1518.19 -11.3313L448.812 563.072" stroke="#357AB6" stroke-width="0.83" stroke-miterlimit="10"/>
<path d="M1533.14 -11.3313L463.76 563.072" stroke="#357AB6" stroke-width="0.83" stroke-miterlimit="10"/>
<path d="M1548.09 -11.3313L478.72 563.072" stroke="#357AB6" stroke-width="0.83" stroke-miterlimit="10"/>
<path d="M1563.04 -11.3313L493.668 563.072" stroke="#357AB6" stroke-width="0.83" stroke-miterlimit="10"/>
<path d="M1577.99 -11.3313L508.617 563.072" stroke="#357AB6" stroke-width="0.83" stroke-miterlimit="10"/>
<path d="M1592.95 -11.3313L523.565 563.072" stroke="#357AB6" stroke-width="0.83" stroke-miterlimit="10"/>
<path d="M1607.9 -11.3313L538.513 563.072" stroke="#357AB6" stroke-width="0.83" stroke-miterlimit="10"/>
<path d="M1622.84 -11.3313L553.461 563.072" stroke="#357AB6" stroke-width="0.83" stroke-miterlimit="10"/>
<path d="M1637.79 -11.3313L568.422 563.072" stroke="#357AB6" stroke-width="0.83" stroke-miterlimit="10"/>
<path d="M1652.74 -11.3313L583.37 563.072" stroke="#357AB6" stroke-width="0.83" stroke-miterlimit="10"/>
<path d="M1667.69 -11.3313L598.318 563.072" stroke="#357AB6" stroke-width="0.83" stroke-miterlimit="10"/>
<path d="M1682.65 -11.3313L613.267 563.072" stroke="#357AB6" stroke-width="0.83" stroke-miterlimit="10"/>
<path d="M1697.6 -11.3313L628.215 563.072" stroke="#357AB6" stroke-width="0.83" stroke-miterlimit="10"/>
<path d="M1712.55 -11.3313L643.164 563.072" stroke="#357AB6" stroke-width="0.83" stroke-miterlimit="10"/>
<path d="M1727.49 -11.3313L658.124 563.072" stroke="#357AB6" stroke-width="0.83" stroke-miterlimit="10"/>
<path d="M1742.44 -11.3313L673.072 563.072" stroke="#357AB6" stroke-width="0.83" stroke-miterlimit="10"/>
<path d="M1757.39 -11.3313L688.021 563.072" stroke="#357AB6" stroke-width="0.83" stroke-miterlimit="10"/>
<path d="M1772.35 -11.3313L702.969 563.072" stroke="#357AB6" stroke-width="0.83" stroke-miterlimit="10"/>
<path d="M1787.3 -11.3313L717.917 563.072" stroke="#357AB6" stroke-width="0.83" stroke-miterlimit="10"/>
<path d="M1802.25 -11.3313L732.865 563.072" stroke="#357AB6" stroke-width="0.83" stroke-miterlimit="10"/>
<path d="M1817.2 -11.3313L747.813 563.072" stroke="#357AB6" stroke-width="0.83" stroke-miterlimit="10"/>
<path d="M1832.14 -11.3313L762.773 563.072" stroke="#357AB6" stroke-width="0.83" stroke-miterlimit="10"/>
<path d="M1847.09 -11.3313L777.722 563.072" stroke="#357AB6" stroke-width="0.83" stroke-miterlimit="10"/>
<path d="M1862.05 -11.3313L792.67 563.072" stroke="#357AB6" stroke-width="0.83" stroke-miterlimit="10"/>
<path d="M1877 -11.3313L807.619 563.072" stroke="#357AB6" stroke-width="0.83" stroke-miterlimit="10"/>
<path d="M1891.95 -11.3313L822.567 563.072" stroke="#357AB6" stroke-width="0.83" stroke-miterlimit="10"/>
<path d="M1906.9 -11.3313L837.516 563.072" stroke="#357AB6" stroke-width="0.83" stroke-miterlimit="10"/>
<path d="M1921.85 -11.3313L852.476 563.072" stroke="#357AB6" stroke-width="0.83" stroke-miterlimit="10"/>
<path d="M1936.79 -11.3313L867.424 563.072" stroke="#357AB6" stroke-width="0.83" stroke-miterlimit="10"/>
<path d="M1951.75 -11.3313L882.372 563.072" stroke="#357AB6" stroke-width="0.83" stroke-miterlimit="10"/>
<path d="M1966.7 -11.3313L897.321 563.072" stroke="#357AB6" stroke-width="0.83" stroke-miterlimit="10"/>
<path d="M1981.65 -11.3313L912.269 563.072" stroke="#357AB6" stroke-width="0.83" stroke-miterlimit="10"/>
<path d="M1996.6 -11.3313L927.217 563.072" stroke="#357AB6" stroke-width="0.83" stroke-miterlimit="10"/>
<path d="M2011.55 -11.3313L942.177 563.072" stroke="#357AB6" stroke-width="0.83" stroke-miterlimit="10"/>
<path d="M2026.5 -11.3313L957.126 563.072" stroke="#357AB6" stroke-width="0.83" stroke-miterlimit="10"/>
<path d="M2041.46 -11.3313L972.074 563.072" stroke="#357AB6" stroke-width="0.83" stroke-miterlimit="10"/>
<path d="M2056.4 -11.3313L987.022 563.072" stroke="#357AB6" stroke-width="0.83" stroke-miterlimit="10"/>
<path d="M2071.35 -11.3313L1001.97 563.072" stroke="#357AB6" stroke-width="0.83" stroke-miterlimit="10"/>
<path d="M2086.3 -11.3313L1016.92 563.072" stroke="#357AB6" stroke-width="0.83" stroke-miterlimit="10"/>
<path d="M2101.25 -11.3313L1031.88 563.072" stroke="#357AB6" stroke-width="0.83" stroke-miterlimit="10"/>
<path d="M2116.2 -11.3313L1046.83 563.072" stroke="#357AB6" stroke-width="0.83" stroke-miterlimit="10"/>
<path d="M2131.16 -11.3313L1061.78 563.072" stroke="#357AB6" stroke-width="0.83" stroke-miterlimit="10"/>
<path d="M2146.11 -11.3313L1076.72 563.072" stroke="#357AB6" stroke-width="0.83" stroke-miterlimit="10"/>
<path d="M2161.06 -11.3313L1091.67 563.072" stroke="#357AB6" stroke-width="0.83" stroke-miterlimit="10"/>
<path d="M2176 -11.3313L1106.62 563.072" stroke="#357AB6" stroke-width="0.83" stroke-miterlimit="10"/>
<path d="M2190.95 -11.3313L1121.58 563.072" stroke="#357AB6" stroke-width="0.83" stroke-miterlimit="10"/>
<path d="M2205.9 -11.3313L1136.53 563.072" stroke="#357AB6" stroke-width="0.83" stroke-miterlimit="10"/>
<path d="M2220.86 -11.3313L1151.48 563.072" stroke="#357AB6" stroke-width="0.83" stroke-miterlimit="10"/>
<path d="M2235.81 -11.3313L1166.43 563.072" stroke="#357AB6" stroke-width="0.83" stroke-miterlimit="10"/>
<path d="M2250.76 -11.3313L1181.37 563.072" stroke="#357AB6" stroke-width="0.83" stroke-miterlimit="10"/>
<path d="M2265.71 -11.3313L1196.32 563.072" stroke="#357AB6" stroke-width="0.83" stroke-miterlimit="10"/>
<path d="M2280.65 -11.3313L1211.28 563.072" stroke="#357AB6" stroke-width="0.83" stroke-miterlimit="10"/>
<path d="M2295.6 -11.3313L1226.23 563.072" stroke="#357AB6" stroke-width="0.83" stroke-miterlimit="10"/>
</g>
</g>
</svg>
