<svg width="1235" height="836" viewBox="0 0 1235 836" fill="none" xmlns="http://www.w3.org/2000/svg">
<g opacity="0.3">
<mask id="mask0_324_2135" style="mask-type:luminance" maskUnits="userSpaceOnUse" x="0" y="0" width="1235" height="836">
<path d="M1235 0H0V836H1235V0Z" fill="white"/>
</mask>
<g mask="url(#mask0_324_2135)">
<path opacity="0.15" d="M1235 -3.05176e-05H0V907.981H1235V-3.05176e-05Z" fill="#1262A9"/>
<path d="M33.1007 -19.3022L-832.796 959.125" stroke="#357AB6" stroke-width="0.83" stroke-miterlimit="10"/>
<path d="M45.2045 -19.3022L-820.692 959.125" stroke="#357AB6" stroke-width="0.83" stroke-miterlimit="10"/>
<path d="M57.3084 -19.3022L-808.579 959.125" stroke="#357AB6" stroke-width="0.83" stroke-miterlimit="10"/>
<path d="M69.4124 -19.3022L-796.475 959.125" stroke="#357AB6" stroke-width="0.83" stroke-miterlimit="10"/>
<path d="M81.5258 -19.3022L-784.371 959.125" stroke="#357AB6" stroke-width="0.83" stroke-miterlimit="10"/>
<path d="M93.6298 -19.3022L-772.267 959.125" stroke="#357AB6" stroke-width="0.83" stroke-miterlimit="10"/>
<path d="M105.734 -19.3022L-760.163 959.125" stroke="#357AB6" stroke-width="0.83" stroke-miterlimit="10"/>
<path d="M117.838 -19.3022L-748.059 959.125" stroke="#357AB6" stroke-width="0.83" stroke-miterlimit="10"/>
<path d="M129.942 -19.3022L-735.946 959.125" stroke="#357AB6" stroke-width="0.83" stroke-miterlimit="10"/>
<path d="M142.046 -19.3022L-723.842 959.125" stroke="#357AB6" stroke-width="0.83" stroke-miterlimit="10"/>
<path d="M154.159 -19.3022L-711.738 959.125" stroke="#357AB6" stroke-width="0.83" stroke-miterlimit="10"/>
<path d="M166.263 -19.3022L-699.634 959.125" stroke="#357AB6" stroke-width="0.83" stroke-miterlimit="10"/>
<path d="M178.367 -19.3022L-687.53 959.125" stroke="#357AB6" stroke-width="0.83" stroke-miterlimit="10"/>
<path d="M190.471 -19.3022L-675.426 959.125" stroke="#357AB6" stroke-width="0.83" stroke-miterlimit="10"/>
<path d="M202.575 -19.3022L-663.312 959.125" stroke="#357AB6" stroke-width="0.83" stroke-miterlimit="10"/>
<path d="M214.679 -19.3022L-651.208 959.125" stroke="#357AB6" stroke-width="0.83" stroke-miterlimit="10"/>
<path d="M226.792 -19.3022L-639.105 959.125" stroke="#357AB6" stroke-width="0.83" stroke-miterlimit="10"/>
<path d="M238.896 -19.3022L-627.001 959.125" stroke="#357AB6" stroke-width="0.83" stroke-miterlimit="10"/>
<path d="M251 -19.3022L-614.897 959.125" stroke="#357AB6" stroke-width="0.83" stroke-miterlimit="10"/>
<path d="M263.104 -19.3022L-602.793 959.125" stroke="#357AB6" stroke-width="0.83" stroke-miterlimit="10"/>
<path d="M275.208 -19.3022L-590.679 959.125" stroke="#357AB6" stroke-width="0.83" stroke-miterlimit="10"/>
<path d="M287.312 -19.3022L-578.575 959.125" stroke="#357AB6" stroke-width="0.83" stroke-miterlimit="10"/>
<path d="M299.425 -19.3022L-566.471 959.125" stroke="#357AB6" stroke-width="0.83" stroke-miterlimit="10"/>
<path d="M311.529 -19.3022L-554.367 959.125" stroke="#357AB6" stroke-width="0.83" stroke-miterlimit="10"/>
<path d="M323.633 -19.3022L-542.264 959.125" stroke="#357AB6" stroke-width="0.83" stroke-miterlimit="10"/>
<path d="M335.737 -19.3022L-530.16 959.125" stroke="#357AB6" stroke-width="0.83" stroke-miterlimit="10"/>
<path d="M347.841 -19.3022L-518.046 959.125" stroke="#357AB6" stroke-width="0.83" stroke-miterlimit="10"/>
<path d="M359.945 -19.3022L-505.942 959.125" stroke="#357AB6" stroke-width="0.83" stroke-miterlimit="10"/>
<path d="M372.049 -19.3022L-493.838 959.125" stroke="#357AB6" stroke-width="0.83" stroke-miterlimit="10"/>
<path d="M384.162 -19.3022L-481.734 959.125" stroke="#357AB6" stroke-width="0.83" stroke-miterlimit="10"/>
<path d="M396.266 -19.3022L-469.63 959.125" stroke="#357AB6" stroke-width="0.83" stroke-miterlimit="10"/>
<path d="M408.37 -19.3022L-457.526 959.125" stroke="#357AB6" stroke-width="0.83" stroke-miterlimit="10"/>
<path d="M420.474 -19.3022L-445.413 959.125" stroke="#357AB6" stroke-width="0.83" stroke-miterlimit="10"/>
<path d="M432.578 -19.3022L-433.31 959.125" stroke="#357AB6" stroke-width="0.83" stroke-miterlimit="10"/>
<path d="M444.682 -19.3022L-421.205 959.125" stroke="#357AB6" stroke-width="0.83" stroke-miterlimit="10"/>
<path d="M456.795 -19.3022L-409.102 959.125" stroke="#357AB6" stroke-width="0.83" stroke-miterlimit="10"/>
<path d="M468.899 -19.3022L-396.998 959.125" stroke="#357AB6" stroke-width="0.83" stroke-miterlimit="10"/>
<path d="M481.003 -19.3022L-384.894 959.125" stroke="#357AB6" stroke-width="0.83" stroke-miterlimit="10"/>
<path d="M493.107 -19.3022L-372.78 959.125" stroke="#357AB6" stroke-width="0.83" stroke-miterlimit="10"/>
<path d="M505.211 -19.3022L-360.676 959.125" stroke="#357AB6" stroke-width="0.83" stroke-miterlimit="10"/>
<path d="M517.315 -19.3022L-348.572 959.125" stroke="#357AB6" stroke-width="0.83" stroke-miterlimit="10"/>
<path d="M529.428 -19.3022L-336.468 959.125" stroke="#357AB6" stroke-width="0.83" stroke-miterlimit="10"/>
<path d="M541.532 -19.3022L-324.364 959.125" stroke="#357AB6" stroke-width="0.83" stroke-miterlimit="10"/>
<path d="M553.636 -19.3022L-312.261 959.125" stroke="#357AB6" stroke-width="0.83" stroke-miterlimit="10"/>
<path d="M565.74 -19.3022L-300.156 959.125" stroke="#357AB6" stroke-width="0.83" stroke-miterlimit="10"/>
<path d="M577.844 -19.3022L-288.043 959.125" stroke="#357AB6" stroke-width="0.83" stroke-miterlimit="10"/>
<path d="M589.948 -19.3022L-275.939 959.125" stroke="#357AB6" stroke-width="0.83" stroke-miterlimit="10"/>
<path d="M602.062 -19.3022L-263.835 959.125" stroke="#357AB6" stroke-width="0.83" stroke-miterlimit="10"/>
<path d="M614.165 -19.3022L-251.731 959.125" stroke="#357AB6" stroke-width="0.83" stroke-miterlimit="10"/>
<path d="M626.269 -19.3022L-239.627 959.125" stroke="#357AB6" stroke-width="0.83" stroke-miterlimit="10"/>
<path d="M638.373 -19.3022L-227.523 959.125" stroke="#357AB6" stroke-width="0.83" stroke-miterlimit="10"/>
<path d="M650.477 -19.3022L-215.41 959.125" stroke="#357AB6" stroke-width="0.83" stroke-miterlimit="10"/>
<path d="M662.581 -19.3022L-203.306 959.125" stroke="#357AB6" stroke-width="0.83" stroke-miterlimit="10"/>
<path d="M674.694 -19.3022L-191.202 959.125" stroke="#357AB6" stroke-width="0.83" stroke-miterlimit="10"/>
<path d="M686.798 -19.3022L-179.098 959.125" stroke="#357AB6" stroke-width="0.83" stroke-miterlimit="10"/>
<path d="M698.902 -19.3022L-166.994 959.125" stroke="#357AB6" stroke-width="0.83" stroke-miterlimit="10"/>
<path d="M711.006 -19.3022L-154.891 959.125" stroke="#357AB6" stroke-width="0.83" stroke-miterlimit="10"/>
<path d="M723.11 -19.3022L-142.777 959.125" stroke="#357AB6" stroke-width="0.83" stroke-miterlimit="10"/>
<path d="M735.214 -19.3022L-130.673 959.125" stroke="#357AB6" stroke-width="0.83" stroke-miterlimit="10"/>
<path d="M747.327 -19.3022L-118.569 959.125" stroke="#357AB6" stroke-width="0.83" stroke-miterlimit="10"/>
<path d="M759.431 -19.3022L-106.465 959.125" stroke="#357AB6" stroke-width="0.83" stroke-miterlimit="10"/>
<path d="M771.535 -19.3022L-94.3613 959.125" stroke="#357AB6" stroke-width="0.83" stroke-miterlimit="10"/>
<path d="M783.639 -19.3022L-82.2573 959.125" stroke="#357AB6" stroke-width="0.83" stroke-miterlimit="10"/>
<path d="M795.744 -19.3022L-70.1436 959.125" stroke="#357AB6" stroke-width="0.83" stroke-miterlimit="10"/>
<path d="M807.847 -19.3022L-58.04 959.125" stroke="#357AB6" stroke-width="0.83" stroke-miterlimit="10"/>
<path d="M819.961 -19.3022L-45.936 959.125" stroke="#357AB6" stroke-width="0.83" stroke-miterlimit="10"/>
<path d="M832.065 -19.3022L-33.832 959.125" stroke="#357AB6" stroke-width="0.83" stroke-miterlimit="10"/>
<path d="M844.169 -19.3022L-21.728 959.125" stroke="#357AB6" stroke-width="0.83" stroke-miterlimit="10"/>
<path d="M856.273 -19.3022L-9.62402 959.125" stroke="#357AB6" stroke-width="0.83" stroke-miterlimit="10"/>
<path d="M868.376 -19.3022L2.48926 959.125" stroke="#357AB6" stroke-width="0.83" stroke-miterlimit="10"/>
<path d="M880.48 -19.3022L14.5933 959.125" stroke="#357AB6" stroke-width="0.83" stroke-miterlimit="10"/>
<path d="M892.594 -19.3022L26.6973 959.125" stroke="#357AB6" stroke-width="0.83" stroke-miterlimit="10"/>
<path d="M904.697 -19.3022L38.8008 959.125" stroke="#357AB6" stroke-width="0.83" stroke-miterlimit="10"/>
<path d="M916.801 -19.3022L50.9048 959.125" stroke="#357AB6" stroke-width="0.83" stroke-miterlimit="10"/>
<path d="M928.906 -19.3022L63.0093 959.125" stroke="#357AB6" stroke-width="0.83" stroke-miterlimit="10"/>
<path d="M941.009 -19.3022L75.1221 959.125" stroke="#357AB6" stroke-width="0.83" stroke-miterlimit="10"/>
<path d="M953.113 -19.3022L87.2261 959.125" stroke="#357AB6" stroke-width="0.83" stroke-miterlimit="10"/>
<path d="M965.227 -19.3022L99.3301 959.125" stroke="#357AB6" stroke-width="0.83" stroke-miterlimit="10"/>
<path d="M977.331 -19.3022L111.434 959.125" stroke="#357AB6" stroke-width="0.83" stroke-miterlimit="10"/>
<path d="M989.435 -19.3022L123.538 959.125" stroke="#357AB6" stroke-width="0.83" stroke-miterlimit="10"/>
<path d="M1001.54 -19.3022L135.642 959.125" stroke="#357AB6" stroke-width="0.83" stroke-miterlimit="10"/>
<path d="M1013.64 -19.3022L147.755 959.125" stroke="#357AB6" stroke-width="0.83" stroke-miterlimit="10"/>
<path d="M1025.75 -19.3022L159.859 959.125" stroke="#357AB6" stroke-width="0.83" stroke-miterlimit="10"/>
<path d="M1037.85 -19.3022L171.963 959.125" stroke="#357AB6" stroke-width="0.83" stroke-miterlimit="10"/>
<path d="M1049.96 -19.3022L184.067 959.125" stroke="#357AB6" stroke-width="0.83" stroke-miterlimit="10"/>
<path d="M1062.07 -19.3022L196.171 959.125" stroke="#357AB6" stroke-width="0.83" stroke-miterlimit="10"/>
<path d="M1074.17 -19.3022L208.275 959.125" stroke="#357AB6" stroke-width="0.83" stroke-miterlimit="10"/>
<path d="M1086.28 -19.3022L220.388 959.125" stroke="#357AB6" stroke-width="0.83" stroke-miterlimit="10"/>
<path d="M1098.38 -19.3022L232.492 959.125" stroke="#357AB6" stroke-width="0.83" stroke-miterlimit="10"/>
<path d="M1110.48 -19.3022L244.597 959.125" stroke="#357AB6" stroke-width="0.83" stroke-miterlimit="10"/>
<path d="M1121.35 -19.3022L255.465 959.125" stroke="#357AB6" stroke-width="0.83" stroke-miterlimit="10"/>
<path d="M1133.47 -19.3022L267.569 959.125" stroke="#357AB6" stroke-width="0.83" stroke-miterlimit="10"/>
<path d="M1145.57 -19.3022L279.673 959.125" stroke="#357AB6" stroke-width="0.83" stroke-miterlimit="10"/>
<path d="M1157.67 -19.3022L291.777 959.125" stroke="#357AB6" stroke-width="0.83" stroke-miterlimit="10"/>
<path d="M1169.78 -19.3022L303.881 959.125" stroke="#357AB6" stroke-width="0.83" stroke-miterlimit="10"/>
<path d="M1181.88 -19.3022L315.994 959.125" stroke="#357AB6" stroke-width="0.83" stroke-miterlimit="10"/>
<path d="M1193.99 -19.3022L328.098 959.125" stroke="#357AB6" stroke-width="0.83" stroke-miterlimit="10"/>
<path d="M1206.09 -19.3022L340.202 959.125" stroke="#357AB6" stroke-width="0.83" stroke-miterlimit="10"/>
<path d="M1218.2 -19.3022L352.306 959.125" stroke="#357AB6" stroke-width="0.83" stroke-miterlimit="10"/>
<path d="M1230.31 -19.3022L364.41 959.125" stroke="#357AB6" stroke-width="0.83" stroke-miterlimit="10"/>
<path d="M1242.41 -19.3022L376.514 959.125" stroke="#357AB6" stroke-width="0.83" stroke-miterlimit="10"/>
<path d="M1254.51 -19.3022L388.627 959.125" stroke="#357AB6" stroke-width="0.83" stroke-miterlimit="10"/>
<path d="M1266.62 -19.3022L400.731 959.125" stroke="#357AB6" stroke-width="0.83" stroke-miterlimit="10"/>
<path d="M1278.72 -19.3022L412.835 959.125" stroke="#357AB6" stroke-width="0.83" stroke-miterlimit="10"/>
<path d="M1290.84 -19.3022L424.939 959.125" stroke="#357AB6" stroke-width="0.83" stroke-miterlimit="10"/>
<path d="M1302.94 -19.3022L437.043 959.125" stroke="#357AB6" stroke-width="0.83" stroke-miterlimit="10"/>
<path d="M1315.04 -19.3022L449.147 959.125" stroke="#357AB6" stroke-width="0.83" stroke-miterlimit="10"/>
<path d="M1327.15 -19.3022L461.261 959.125" stroke="#357AB6" stroke-width="0.83" stroke-miterlimit="10"/>
<path d="M1339.25 -19.3022L473.364 959.125" stroke="#357AB6" stroke-width="0.83" stroke-miterlimit="10"/>
<path d="M1351.36 -19.3022L485.468 959.125" stroke="#357AB6" stroke-width="0.83" stroke-miterlimit="10"/>
<path d="M1363.47 -19.3022L497.572 959.125" stroke="#357AB6" stroke-width="0.83" stroke-miterlimit="10"/>
<path d="M1375.57 -19.3022L509.676 959.125" stroke="#357AB6" stroke-width="0.83" stroke-miterlimit="10"/>
<path d="M1387.68 -19.3022L521.78 959.125" stroke="#357AB6" stroke-width="0.83" stroke-miterlimit="10"/>
<path d="M1399.78 -19.3022L533.894 959.125" stroke="#357AB6" stroke-width="0.83" stroke-miterlimit="10"/>
<path d="M1411.88 -19.3022L545.998 959.125" stroke="#357AB6" stroke-width="0.83" stroke-miterlimit="10"/>
<path d="M1423.99 -19.3022L558.102 959.125" stroke="#357AB6" stroke-width="0.83" stroke-miterlimit="10"/>
<path d="M1436.1 -19.3022L570.206 959.125" stroke="#357AB6" stroke-width="0.83" stroke-miterlimit="10"/>
<path d="M1448.21 -19.3022L582.31 959.125" stroke="#357AB6" stroke-width="0.83" stroke-miterlimit="10"/>
<path d="M1460.31 -19.3022L594.413 959.125" stroke="#357AB6" stroke-width="0.83" stroke-miterlimit="10"/>
<path d="M1472.41 -19.3022L606.517 959.125" stroke="#357AB6" stroke-width="0.83" stroke-miterlimit="10"/>
<path d="M1484.52 -19.3022L618.63 959.125" stroke="#357AB6" stroke-width="0.83" stroke-miterlimit="10"/>
<path d="M1496.62 -19.3022L630.734 959.125" stroke="#357AB6" stroke-width="0.83" stroke-miterlimit="10"/>
<path d="M1508.74 -19.3022L642.838 959.125" stroke="#357AB6" stroke-width="0.83" stroke-miterlimit="10"/>
<path d="M1520.84 -19.3022L654.942 959.125" stroke="#357AB6" stroke-width="0.83" stroke-miterlimit="10"/>
<path d="M1532.94 -19.3022L667.046 959.125" stroke="#357AB6" stroke-width="0.83" stroke-miterlimit="10"/>
<path d="M1545.05 -19.3022L679.15 959.125" stroke="#357AB6" stroke-width="0.83" stroke-miterlimit="10"/>
<path d="M1557.15 -19.3022L691.264 959.125" stroke="#357AB6" stroke-width="0.83" stroke-miterlimit="10"/>
<path d="M1569.25 -19.3022L703.368 959.125" stroke="#357AB6" stroke-width="0.83" stroke-miterlimit="10"/>
<path d="M1581.37 -19.3022L715.472 959.125" stroke="#357AB6" stroke-width="0.83" stroke-miterlimit="10"/>
<path d="M1593.47 -19.3022L727.576 959.125" stroke="#357AB6" stroke-width="0.83" stroke-miterlimit="10"/>
<path d="M1605.58 -19.3022L739.68 959.125" stroke="#357AB6" stroke-width="0.83" stroke-miterlimit="10"/>
<path d="M1617.68 -19.3022L751.783 959.125" stroke="#357AB6" stroke-width="0.83" stroke-miterlimit="10"/>
<path d="M1629.78 -19.3022L763.896 959.125" stroke="#357AB6" stroke-width="0.83" stroke-miterlimit="10"/>
<path d="M1641.89 -19.3022L776.001 959.125" stroke="#357AB6" stroke-width="0.83" stroke-miterlimit="10"/>
<path d="M1654 -19.3022L788.104 959.125" stroke="#357AB6" stroke-width="0.83" stroke-miterlimit="10"/>
<path d="M1666.11 -19.3022L800.208 959.125" stroke="#357AB6" stroke-width="0.83" stroke-miterlimit="10"/>
<path d="M1678.21 -19.3022L812.312 959.125" stroke="#357AB6" stroke-width="0.83" stroke-miterlimit="10"/>
<path d="M1690.31 -19.3022L824.417 959.125" stroke="#357AB6" stroke-width="0.83" stroke-miterlimit="10"/>
<path d="M1702.42 -19.3022L836.53 959.125" stroke="#357AB6" stroke-width="0.83" stroke-miterlimit="10"/>
<path d="M1714.52 -19.3022L848.634 959.125" stroke="#357AB6" stroke-width="0.83" stroke-miterlimit="10"/>
<path d="M1726.63 -19.3022L860.737 959.125" stroke="#357AB6" stroke-width="0.83" stroke-miterlimit="10"/>
<path d="M1738.74 -19.3022L872.842 959.125" stroke="#357AB6" stroke-width="0.83" stroke-miterlimit="10"/>
<path d="M1750.84 -19.3022L884.945 959.125" stroke="#357AB6" stroke-width="0.83" stroke-miterlimit="10"/>
<path d="M1762.95 -19.3022L897.049 959.125" stroke="#357AB6" stroke-width="0.83" stroke-miterlimit="10"/>
<path d="M1775.05 -19.3022L909.163 959.125" stroke="#357AB6" stroke-width="0.83" stroke-miterlimit="10"/>
<path d="M1787.15 -19.3022L921.267 959.125" stroke="#357AB6" stroke-width="0.83" stroke-miterlimit="10"/>
<path d="M1799.27 -19.3022L933.371 959.125" stroke="#357AB6" stroke-width="0.83" stroke-miterlimit="10"/>
<path d="M1811.37 -19.3022L945.475 959.125" stroke="#357AB6" stroke-width="0.83" stroke-miterlimit="10"/>
<path d="M1823.48 -19.3022L957.579 959.125" stroke="#357AB6" stroke-width="0.83" stroke-miterlimit="10"/>
<path d="M1835.58 -19.3022L969.683 959.125" stroke="#357AB6" stroke-width="0.83" stroke-miterlimit="10"/>
<path d="M1847.68 -19.3022L981.796 959.125" stroke="#357AB6" stroke-width="0.83" stroke-miterlimit="10"/>
<path d="M1859.79 -19.3022L993.9 959.125" stroke="#357AB6" stroke-width="0.83" stroke-miterlimit="10"/>
<path d="M1871.9 -19.3022L1006 959.125" stroke="#357AB6" stroke-width="0.83" stroke-miterlimit="10"/>
<path d="M1884 -19.3022L1018.11 959.125" stroke="#357AB6" stroke-width="0.83" stroke-miterlimit="10"/>
<path d="M1896.11 -19.3022L1030.21 959.125" stroke="#357AB6" stroke-width="0.83" stroke-miterlimit="10"/>
<path d="M1908.21 -19.3022L1042.32 959.125" stroke="#357AB6" stroke-width="0.83" stroke-miterlimit="10"/>
<path d="M1920.32 -19.3022L1054.43 959.125" stroke="#357AB6" stroke-width="0.83" stroke-miterlimit="10"/>
<path d="M1932.42 -19.3022L1066.53 959.125" stroke="#357AB6" stroke-width="0.83" stroke-miterlimit="10"/>
<path d="M1944.52 -19.3022L1078.64 959.125" stroke="#357AB6" stroke-width="0.83" stroke-miterlimit="10"/>
<path d="M1956.64 -19.3022L1090.74 959.125" stroke="#357AB6" stroke-width="0.83" stroke-miterlimit="10"/>
<path d="M1968.74 -19.3022L1102.84 959.125" stroke="#357AB6" stroke-width="0.83" stroke-miterlimit="10"/>
<path d="M1980.85 -19.3022L1114.95 959.125" stroke="#357AB6" stroke-width="0.83" stroke-miterlimit="10"/>
<path d="M1992.95 -19.3022L1127.06 959.125" stroke="#357AB6" stroke-width="0.83" stroke-miterlimit="10"/>
<path d="M2005.05 -19.3022L1139.17 959.125" stroke="#357AB6" stroke-width="0.83" stroke-miterlimit="10"/>
<path d="M2017.16 -19.3022L1151.27 959.125" stroke="#357AB6" stroke-width="0.83" stroke-miterlimit="10"/>
<path d="M2029.27 -19.3022L1163.37 959.125" stroke="#357AB6" stroke-width="0.83" stroke-miterlimit="10"/>
<path d="M2041.37 -19.3022L1175.48 959.125" stroke="#357AB6" stroke-width="0.83" stroke-miterlimit="10"/>
<path d="M2053.48 -19.3022L1187.58 959.125" stroke="#357AB6" stroke-width="0.83" stroke-miterlimit="10"/>
<path d="M2065.58 -19.3022L1199.7 959.125" stroke="#357AB6" stroke-width="0.83" stroke-miterlimit="10"/>
<path d="M2077.69 -19.3022L1211.8 959.125" stroke="#357AB6" stroke-width="0.83" stroke-miterlimit="10"/>
<path d="M2089.79 -19.3022L1223.9 959.125" stroke="#357AB6" stroke-width="0.83" stroke-miterlimit="10"/>
</g>
</g>
</svg>
