<svg width="1243" height="1319" viewBox="0 0 1243 1319" fill="none" xmlns="http://www.w3.org/2000/svg">
<g opacity="0.3">
<mask id="mask0_324_1876" style="mask-type:luminance" maskUnits="userSpaceOnUse" x="4" y="0" width="1235" height="1311">
<path d="M1239 0H4V1311H1239V0Z" fill="white"/>
</mask>
<g mask="url(#mask0_324_1876)">
<path opacity="0.15" d="M1239 0H4V1423.88H1239V0Z" fill="#1262A9"/>
<path d="M37.1007 -30.27L-828.796 1504.08" stroke="#357AB6" stroke-width="0.83" stroke-miterlimit="10"/>
<path d="M49.2045 -30.27L-816.692 1504.08" stroke="#357AB6" stroke-width="0.83" stroke-miterlimit="10"/>
<path d="M61.3084 -30.27L-804.579 1504.08" stroke="#357AB6" stroke-width="0.83" stroke-miterlimit="10"/>
<path d="M73.4124 -30.27L-792.475 1504.08" stroke="#357AB6" stroke-width="0.83" stroke-miterlimit="10"/>
<path d="M85.5258 -30.27L-780.371 1504.08" stroke="#357AB6" stroke-width="0.83" stroke-miterlimit="10"/>
<path d="M97.6298 -30.27L-768.267 1504.08" stroke="#357AB6" stroke-width="0.83" stroke-miterlimit="10"/>
<path d="M109.734 -30.27L-756.163 1504.08" stroke="#357AB6" stroke-width="0.83" stroke-miterlimit="10"/>
<path d="M121.838 -30.27L-744.059 1504.08" stroke="#357AB6" stroke-width="0.83" stroke-miterlimit="10"/>
<path d="M133.942 -30.27L-731.946 1504.08" stroke="#357AB6" stroke-width="0.83" stroke-miterlimit="10"/>
<path d="M146.046 -30.27L-719.842 1504.08" stroke="#357AB6" stroke-width="0.83" stroke-miterlimit="10"/>
<path d="M158.159 -30.27L-707.738 1504.08" stroke="#357AB6" stroke-width="0.83" stroke-miterlimit="10"/>
<path d="M170.263 -30.27L-695.634 1504.08" stroke="#357AB6" stroke-width="0.83" stroke-miterlimit="10"/>
<path d="M182.367 -30.27L-683.53 1504.08" stroke="#357AB6" stroke-width="0.83" stroke-miterlimit="10"/>
<path d="M194.471 -30.27L-671.426 1504.08" stroke="#357AB6" stroke-width="0.83" stroke-miterlimit="10"/>
<path d="M206.575 -30.27L-659.312 1504.08" stroke="#357AB6" stroke-width="0.83" stroke-miterlimit="10"/>
<path d="M218.679 -30.27L-647.208 1504.08" stroke="#357AB6" stroke-width="0.83" stroke-miterlimit="10"/>
<path d="M230.792 -30.27L-635.105 1504.08" stroke="#357AB6" stroke-width="0.83" stroke-miterlimit="10"/>
<path d="M242.896 -30.27L-623.001 1504.08" stroke="#357AB6" stroke-width="0.83" stroke-miterlimit="10"/>
<path d="M255 -30.27L-610.897 1504.08" stroke="#357AB6" stroke-width="0.83" stroke-miterlimit="10"/>
<path d="M267.104 -30.27L-598.793 1504.08" stroke="#357AB6" stroke-width="0.83" stroke-miterlimit="10"/>
<path d="M279.208 -30.27L-586.679 1504.08" stroke="#357AB6" stroke-width="0.83" stroke-miterlimit="10"/>
<path d="M291.312 -30.27L-574.575 1504.08" stroke="#357AB6" stroke-width="0.83" stroke-miterlimit="10"/>
<path d="M303.425 -30.27L-562.471 1504.08" stroke="#357AB6" stroke-width="0.83" stroke-miterlimit="10"/>
<path d="M315.529 -30.27L-550.367 1504.08" stroke="#357AB6" stroke-width="0.83" stroke-miterlimit="10"/>
<path d="M327.633 -30.27L-538.264 1504.08" stroke="#357AB6" stroke-width="0.83" stroke-miterlimit="10"/>
<path d="M339.737 -30.27L-526.16 1504.08" stroke="#357AB6" stroke-width="0.83" stroke-miterlimit="10"/>
<path d="M351.841 -30.27L-514.046 1504.08" stroke="#357AB6" stroke-width="0.83" stroke-miterlimit="10"/>
<path d="M363.945 -30.27L-501.942 1504.08" stroke="#357AB6" stroke-width="0.83" stroke-miterlimit="10"/>
<path d="M376.049 -30.27L-489.838 1504.08" stroke="#357AB6" stroke-width="0.83" stroke-miterlimit="10"/>
<path d="M388.162 -30.27L-477.735 1504.08" stroke="#357AB6" stroke-width="0.83" stroke-miterlimit="10"/>
<path d="M400.266 -30.27L-465.63 1504.08" stroke="#357AB6" stroke-width="0.83" stroke-miterlimit="10"/>
<path d="M412.37 -30.27L-453.527 1504.08" stroke="#357AB6" stroke-width="0.83" stroke-miterlimit="10"/>
<path d="M424.474 -30.27L-441.413 1504.08" stroke="#357AB6" stroke-width="0.83" stroke-miterlimit="10"/>
<path d="M436.578 -30.27L-429.309 1504.08" stroke="#357AB6" stroke-width="0.83" stroke-miterlimit="10"/>
<path d="M448.682 -30.27L-417.205 1504.08" stroke="#357AB6" stroke-width="0.83" stroke-miterlimit="10"/>
<path d="M460.795 -30.27L-405.101 1504.08" stroke="#357AB6" stroke-width="0.83" stroke-miterlimit="10"/>
<path d="M472.899 -30.27L-392.998 1504.08" stroke="#357AB6" stroke-width="0.83" stroke-miterlimit="10"/>
<path d="M485.003 -30.27L-380.894 1504.08" stroke="#357AB6" stroke-width="0.83" stroke-miterlimit="10"/>
<path d="M497.107 -30.27L-368.78 1504.08" stroke="#357AB6" stroke-width="0.83" stroke-miterlimit="10"/>
<path d="M509.211 -30.27L-356.676 1504.08" stroke="#357AB6" stroke-width="0.83" stroke-miterlimit="10"/>
<path d="M521.315 -30.27L-344.572 1504.08" stroke="#357AB6" stroke-width="0.83" stroke-miterlimit="10"/>
<path d="M533.428 -30.27L-332.468 1504.08" stroke="#357AB6" stroke-width="0.83" stroke-miterlimit="10"/>
<path d="M545.532 -30.27L-320.364 1504.08" stroke="#357AB6" stroke-width="0.83" stroke-miterlimit="10"/>
<path d="M557.636 -30.27L-308.261 1504.08" stroke="#357AB6" stroke-width="0.83" stroke-miterlimit="10"/>
<path d="M569.74 -30.27L-296.156 1504.08" stroke="#357AB6" stroke-width="0.83" stroke-miterlimit="10"/>
<path d="M581.844 -30.27L-284.043 1504.08" stroke="#357AB6" stroke-width="0.83" stroke-miterlimit="10"/>
<path d="M593.948 -30.27L-271.939 1504.08" stroke="#357AB6" stroke-width="0.83" stroke-miterlimit="10"/>
<path d="M606.062 -30.27L-259.835 1504.08" stroke="#357AB6" stroke-width="0.83" stroke-miterlimit="10"/>
<path d="M618.165 -30.27L-247.731 1504.08" stroke="#357AB6" stroke-width="0.83" stroke-miterlimit="10"/>
<path d="M630.269 -30.27L-235.627 1504.08" stroke="#357AB6" stroke-width="0.83" stroke-miterlimit="10"/>
<path d="M642.373 -30.27L-223.523 1504.08" stroke="#357AB6" stroke-width="0.83" stroke-miterlimit="10"/>
<path d="M654.477 -30.27L-211.41 1504.08" stroke="#357AB6" stroke-width="0.83" stroke-miterlimit="10"/>
<path d="M666.581 -30.27L-199.306 1504.08" stroke="#357AB6" stroke-width="0.83" stroke-miterlimit="10"/>
<path d="M678.694 -30.27L-187.202 1504.08" stroke="#357AB6" stroke-width="0.83" stroke-miterlimit="10"/>
<path d="M690.798 -30.27L-175.098 1504.08" stroke="#357AB6" stroke-width="0.83" stroke-miterlimit="10"/>
<path d="M702.902 -30.27L-162.994 1504.08" stroke="#357AB6" stroke-width="0.83" stroke-miterlimit="10"/>
<path d="M715.006 -30.27L-150.891 1504.08" stroke="#357AB6" stroke-width="0.83" stroke-miterlimit="10"/>
<path d="M727.11 -30.27L-138.777 1504.08" stroke="#357AB6" stroke-width="0.83" stroke-miterlimit="10"/>
<path d="M739.214 -30.27L-126.673 1504.08" stroke="#357AB6" stroke-width="0.83" stroke-miterlimit="10"/>
<path d="M751.327 -30.27L-114.569 1504.08" stroke="#357AB6" stroke-width="0.83" stroke-miterlimit="10"/>
<path d="M763.431 -30.27L-102.465 1504.08" stroke="#357AB6" stroke-width="0.83" stroke-miterlimit="10"/>
<path d="M775.535 -30.27L-90.3613 1504.08" stroke="#357AB6" stroke-width="0.83" stroke-miterlimit="10"/>
<path d="M787.639 -30.27L-78.2573 1504.08" stroke="#357AB6" stroke-width="0.83" stroke-miterlimit="10"/>
<path d="M799.744 -30.27L-66.1436 1504.08" stroke="#357AB6" stroke-width="0.83" stroke-miterlimit="10"/>
<path d="M811.847 -30.27L-54.04 1504.08" stroke="#357AB6" stroke-width="0.83" stroke-miterlimit="10"/>
<path d="M823.961 -30.27L-41.936 1504.08" stroke="#357AB6" stroke-width="0.83" stroke-miterlimit="10"/>
<path d="M836.065 -30.27L-29.832 1504.08" stroke="#357AB6" stroke-width="0.83" stroke-miterlimit="10"/>
<path d="M848.169 -30.27L-17.728 1504.08" stroke="#357AB6" stroke-width="0.83" stroke-miterlimit="10"/>
<path d="M860.273 -30.27L-5.62402 1504.08" stroke="#357AB6" stroke-width="0.83" stroke-miterlimit="10"/>
<path d="M872.376 -30.27L6.48926 1504.08" stroke="#357AB6" stroke-width="0.83" stroke-miterlimit="10"/>
<path d="M884.48 -30.27L18.5933 1504.08" stroke="#357AB6" stroke-width="0.83" stroke-miterlimit="10"/>
<path d="M896.594 -30.27L30.6973 1504.08" stroke="#357AB6" stroke-width="0.83" stroke-miterlimit="10"/>
<path d="M908.697 -30.27L42.8008 1504.08" stroke="#357AB6" stroke-width="0.83" stroke-miterlimit="10"/>
<path d="M920.801 -30.27L54.9048 1504.08" stroke="#357AB6" stroke-width="0.83" stroke-miterlimit="10"/>
<path d="M932.906 -30.27L67.0093 1504.08" stroke="#357AB6" stroke-width="0.83" stroke-miterlimit="10"/>
<path d="M945.009 -30.27L79.1221 1504.08" stroke="#357AB6" stroke-width="0.83" stroke-miterlimit="10"/>
<path d="M957.113 -30.27L91.2261 1504.08" stroke="#357AB6" stroke-width="0.83" stroke-miterlimit="10"/>
<path d="M969.227 -30.27L103.33 1504.08" stroke="#357AB6" stroke-width="0.83" stroke-miterlimit="10"/>
<path d="M981.331 -30.27L115.434 1504.08" stroke="#357AB6" stroke-width="0.83" stroke-miterlimit="10"/>
<path d="M993.435 -30.27L127.538 1504.08" stroke="#357AB6" stroke-width="0.83" stroke-miterlimit="10"/>
<path d="M1005.54 -30.27L139.642 1504.08" stroke="#357AB6" stroke-width="0.83" stroke-miterlimit="10"/>
<path d="M1017.64 -30.27L151.755 1504.08" stroke="#357AB6" stroke-width="0.83" stroke-miterlimit="10"/>
<path d="M1029.75 -30.27L163.859 1504.08" stroke="#357AB6" stroke-width="0.83" stroke-miterlimit="10"/>
<path d="M1041.85 -30.27L175.963 1504.08" stroke="#357AB6" stroke-width="0.83" stroke-miterlimit="10"/>
<path d="M1053.96 -30.27L188.067 1504.08" stroke="#357AB6" stroke-width="0.83" stroke-miterlimit="10"/>
<path d="M1066.07 -30.27L200.171 1504.08" stroke="#357AB6" stroke-width="0.83" stroke-miterlimit="10"/>
<path d="M1078.17 -30.27L212.275 1504.08" stroke="#357AB6" stroke-width="0.83" stroke-miterlimit="10"/>
<path d="M1090.28 -30.27L224.389 1504.08" stroke="#357AB6" stroke-width="0.83" stroke-miterlimit="10"/>
<path d="M1102.38 -30.27L236.492 1504.08" stroke="#357AB6" stroke-width="0.83" stroke-miterlimit="10"/>
<path d="M1114.48 -30.27L248.597 1504.08" stroke="#357AB6" stroke-width="0.83" stroke-miterlimit="10"/>
<path d="M1125.35 -30.27L259.465 1504.08" stroke="#357AB6" stroke-width="0.83" stroke-miterlimit="10"/>
<path d="M1137.47 -30.27L271.569 1504.08" stroke="#357AB6" stroke-width="0.83" stroke-miterlimit="10"/>
<path d="M1149.57 -30.27L283.673 1504.08" stroke="#357AB6" stroke-width="0.83" stroke-miterlimit="10"/>
<path d="M1161.67 -30.27L295.777 1504.08" stroke="#357AB6" stroke-width="0.83" stroke-miterlimit="10"/>
<path d="M1173.78 -30.27L307.881 1504.08" stroke="#357AB6" stroke-width="0.83" stroke-miterlimit="10"/>
<path d="M1185.88 -30.27L319.994 1504.08" stroke="#357AB6" stroke-width="0.83" stroke-miterlimit="10"/>
<path d="M1197.99 -30.27L332.098 1504.08" stroke="#357AB6" stroke-width="0.83" stroke-miterlimit="10"/>
<path d="M1210.09 -30.27L344.202 1504.08" stroke="#357AB6" stroke-width="0.83" stroke-miterlimit="10"/>
<path d="M1222.2 -30.27L356.306 1504.08" stroke="#357AB6" stroke-width="0.83" stroke-miterlimit="10"/>
<path d="M1234.31 -30.27L368.41 1504.08" stroke="#357AB6" stroke-width="0.83" stroke-miterlimit="10"/>
<path d="M1246.41 -30.27L380.514 1504.08" stroke="#357AB6" stroke-width="0.83" stroke-miterlimit="10"/>
<path d="M1258.51 -30.27L392.627 1504.08" stroke="#357AB6" stroke-width="0.83" stroke-miterlimit="10"/>
<path d="M1270.62 -30.27L404.731 1504.08" stroke="#357AB6" stroke-width="0.83" stroke-miterlimit="10"/>
<path d="M1282.72 -30.27L416.835 1504.08" stroke="#357AB6" stroke-width="0.83" stroke-miterlimit="10"/>
<path d="M1294.84 -30.27L428.939 1504.08" stroke="#357AB6" stroke-width="0.83" stroke-miterlimit="10"/>
<path d="M1306.94 -30.27L441.043 1504.08" stroke="#357AB6" stroke-width="0.83" stroke-miterlimit="10"/>
<path d="M1319.04 -30.27L453.147 1504.08" stroke="#357AB6" stroke-width="0.83" stroke-miterlimit="10"/>
<path d="M1331.15 -30.27L465.261 1504.08" stroke="#357AB6" stroke-width="0.83" stroke-miterlimit="10"/>
<path d="M1343.25 -30.27L477.364 1504.08" stroke="#357AB6" stroke-width="0.83" stroke-miterlimit="10"/>
<path d="M1355.36 -30.27L489.468 1504.08" stroke="#357AB6" stroke-width="0.83" stroke-miterlimit="10"/>
<path d="M1367.47 -30.27L501.572 1504.08" stroke="#357AB6" stroke-width="0.83" stroke-miterlimit="10"/>
<path d="M1379.57 -30.27L513.676 1504.08" stroke="#357AB6" stroke-width="0.83" stroke-miterlimit="10"/>
<path d="M1391.68 -30.27L525.78 1504.08" stroke="#357AB6" stroke-width="0.83" stroke-miterlimit="10"/>
<path d="M1403.78 -30.27L537.894 1504.08" stroke="#357AB6" stroke-width="0.83" stroke-miterlimit="10"/>
<path d="M1415.88 -30.27L549.998 1504.08" stroke="#357AB6" stroke-width="0.83" stroke-miterlimit="10"/>
<path d="M1427.99 -30.27L562.102 1504.08" stroke="#357AB6" stroke-width="0.83" stroke-miterlimit="10"/>
<path d="M1440.1 -30.27L574.206 1504.08" stroke="#357AB6" stroke-width="0.83" stroke-miterlimit="10"/>
<path d="M1452.21 -30.27L586.31 1504.08" stroke="#357AB6" stroke-width="0.83" stroke-miterlimit="10"/>
<path d="M1464.31 -30.27L598.413 1504.08" stroke="#357AB6" stroke-width="0.83" stroke-miterlimit="10"/>
<path d="M1476.41 -30.27L610.517 1504.08" stroke="#357AB6" stroke-width="0.83" stroke-miterlimit="10"/>
<path d="M1488.52 -30.27L622.631 1504.08" stroke="#357AB6" stroke-width="0.83" stroke-miterlimit="10"/>
<path d="M1500.62 -30.27L634.734 1504.08" stroke="#357AB6" stroke-width="0.83" stroke-miterlimit="10"/>
<path d="M1512.74 -30.27L646.838 1504.08" stroke="#357AB6" stroke-width="0.83" stroke-miterlimit="10"/>
<path d="M1524.84 -30.27L658.942 1504.08" stroke="#357AB6" stroke-width="0.83" stroke-miterlimit="10"/>
<path d="M1536.94 -30.27L671.046 1504.08" stroke="#357AB6" stroke-width="0.83" stroke-miterlimit="10"/>
<path d="M1549.05 -30.27L683.15 1504.08" stroke="#357AB6" stroke-width="0.83" stroke-miterlimit="10"/>
<path d="M1561.15 -30.27L695.264 1504.08" stroke="#357AB6" stroke-width="0.83" stroke-miterlimit="10"/>
<path d="M1573.25 -30.27L707.368 1504.08" stroke="#357AB6" stroke-width="0.83" stroke-miterlimit="10"/>
<path d="M1585.37 -30.27L719.472 1504.08" stroke="#357AB6" stroke-width="0.83" stroke-miterlimit="10"/>
<path d="M1597.47 -30.27L731.576 1504.08" stroke="#357AB6" stroke-width="0.83" stroke-miterlimit="10"/>
<path d="M1609.58 -30.27L743.68 1504.08" stroke="#357AB6" stroke-width="0.83" stroke-miterlimit="10"/>
<path d="M1621.68 -30.27L755.783 1504.08" stroke="#357AB6" stroke-width="0.83" stroke-miterlimit="10"/>
<path d="M1633.78 -30.27L767.896 1504.08" stroke="#357AB6" stroke-width="0.83" stroke-miterlimit="10"/>
<path d="M1645.89 -30.27L780.001 1504.08" stroke="#357AB6" stroke-width="0.83" stroke-miterlimit="10"/>
<path d="M1658 -30.27L792.104 1504.08" stroke="#357AB6" stroke-width="0.83" stroke-miterlimit="10"/>
<path d="M1670.11 -30.27L804.208 1504.08" stroke="#357AB6" stroke-width="0.83" stroke-miterlimit="10"/>
<path d="M1682.21 -30.27L816.312 1504.08" stroke="#357AB6" stroke-width="0.83" stroke-miterlimit="10"/>
<path d="M1694.31 -30.27L828.417 1504.08" stroke="#357AB6" stroke-width="0.83" stroke-miterlimit="10"/>
<path d="M1706.42 -30.27L840.53 1504.08" stroke="#357AB6" stroke-width="0.83" stroke-miterlimit="10"/>
<path d="M1718.52 -30.27L852.634 1504.08" stroke="#357AB6" stroke-width="0.83" stroke-miterlimit="10"/>
<path d="M1730.63 -30.27L864.737 1504.08" stroke="#357AB6" stroke-width="0.83" stroke-miterlimit="10"/>
<path d="M1742.74 -30.27L876.842 1504.08" stroke="#357AB6" stroke-width="0.83" stroke-miterlimit="10"/>
<path d="M1754.84 -30.27L888.945 1504.08" stroke="#357AB6" stroke-width="0.83" stroke-miterlimit="10"/>
<path d="M1766.95 -30.27L901.049 1504.08" stroke="#357AB6" stroke-width="0.83" stroke-miterlimit="10"/>
<path d="M1779.05 -30.27L913.163 1504.08" stroke="#357AB6" stroke-width="0.83" stroke-miterlimit="10"/>
<path d="M1791.15 -30.27L925.267 1504.08" stroke="#357AB6" stroke-width="0.83" stroke-miterlimit="10"/>
<path d="M1803.27 -30.27L937.371 1504.08" stroke="#357AB6" stroke-width="0.83" stroke-miterlimit="10"/>
<path d="M1815.37 -30.27L949.475 1504.08" stroke="#357AB6" stroke-width="0.83" stroke-miterlimit="10"/>
<path d="M1827.48 -30.27L961.579 1504.08" stroke="#357AB6" stroke-width="0.83" stroke-miterlimit="10"/>
<path d="M1839.58 -30.27L973.683 1504.08" stroke="#357AB6" stroke-width="0.83" stroke-miterlimit="10"/>
<path d="M1851.68 -30.27L985.796 1504.08" stroke="#357AB6" stroke-width="0.83" stroke-miterlimit="10"/>
<path d="M1863.79 -30.27L997.9 1504.08" stroke="#357AB6" stroke-width="0.83" stroke-miterlimit="10"/>
<path d="M1875.9 -30.27L1010 1504.08" stroke="#357AB6" stroke-width="0.83" stroke-miterlimit="10"/>
<path d="M1888 -30.27L1022.11 1504.08" stroke="#357AB6" stroke-width="0.83" stroke-miterlimit="10"/>
<path d="M1900.11 -30.27L1034.21 1504.08" stroke="#357AB6" stroke-width="0.83" stroke-miterlimit="10"/>
<path d="M1912.21 -30.27L1046.32 1504.08" stroke="#357AB6" stroke-width="0.83" stroke-miterlimit="10"/>
<path d="M1924.32 -30.27L1058.43 1504.08" stroke="#357AB6" stroke-width="0.83" stroke-miterlimit="10"/>
<path d="M1936.42 -30.27L1070.53 1504.08" stroke="#357AB6" stroke-width="0.83" stroke-miterlimit="10"/>
<path d="M1948.52 -30.27L1082.64 1504.08" stroke="#357AB6" stroke-width="0.83" stroke-miterlimit="10"/>
<path d="M1960.64 -30.27L1094.74 1504.08" stroke="#357AB6" stroke-width="0.83" stroke-miterlimit="10"/>
<path d="M1972.74 -30.27L1106.84 1504.08" stroke="#357AB6" stroke-width="0.83" stroke-miterlimit="10"/>
<path d="M1984.85 -30.27L1118.95 1504.08" stroke="#357AB6" stroke-width="0.83" stroke-miterlimit="10"/>
<path d="M1996.95 -30.27L1131.06 1504.08" stroke="#357AB6" stroke-width="0.83" stroke-miterlimit="10"/>
<path d="M2009.05 -30.27L1143.17 1504.08" stroke="#357AB6" stroke-width="0.83" stroke-miterlimit="10"/>
<path d="M2021.16 -30.27L1155.27 1504.08" stroke="#357AB6" stroke-width="0.83" stroke-miterlimit="10"/>
<path d="M2033.27 -30.27L1167.37 1504.08" stroke="#357AB6" stroke-width="0.83" stroke-miterlimit="10"/>
<path d="M2045.37 -30.27L1179.48 1504.08" stroke="#357AB6" stroke-width="0.83" stroke-miterlimit="10"/>
<path d="M2057.48 -30.27L1191.58 1504.08" stroke="#357AB6" stroke-width="0.83" stroke-miterlimit="10"/>
<path d="M2069.58 -30.27L1203.7 1504.08" stroke="#357AB6" stroke-width="0.83" stroke-miterlimit="10"/>
<path d="M2081.69 -30.27L1215.8 1504.08" stroke="#357AB6" stroke-width="0.83" stroke-miterlimit="10"/>
<path d="M2093.79 -30.27L1227.9 1504.08" stroke="#357AB6" stroke-width="0.83" stroke-miterlimit="10"/>
</g>
</g>
</svg>
