<svg width="1235" height="902" viewBox="0 0 1235 902" fill="none" xmlns="http://www.w3.org/2000/svg">
<g opacity="0.3">
<mask id="mask0_324_4410" style="mask-type:luminance" maskUnits="userSpaceOnUse" x="0" y="0" width="1235" height="902">
<path d="M1235 0H0V902H1235V0Z" fill="white"/>
</mask>
<g mask="url(#mask0_324_4410)">
<path opacity="0.15" d="M1523.99 0.000228882H-1.23535V985.263H1523.99V0.000228882Z" fill="#1262A9"/>
<path d="M39.644 -20.9446L-1029.74 1040.76" stroke="#357AB6" stroke-width="0.83" stroke-miterlimit="10"/>
<path d="M54.5923 -20.9446L-1014.79 1040.76" stroke="#357AB6" stroke-width="0.83" stroke-miterlimit="10"/>
<path d="M69.5405 -20.9446L-999.83 1040.76" stroke="#357AB6" stroke-width="0.83" stroke-miterlimit="10"/>
<path d="M84.4887 -20.9446L-984.882 1040.76" stroke="#357AB6" stroke-width="0.83" stroke-miterlimit="10"/>
<path d="M99.4487 -20.9446L-969.934 1040.76" stroke="#357AB6" stroke-width="0.83" stroke-miterlimit="10"/>
<path d="M114.397 -20.9446L-954.985 1040.76" stroke="#357AB6" stroke-width="0.83" stroke-miterlimit="10"/>
<path d="M129.345 -20.9446L-940.037 1040.76" stroke="#357AB6" stroke-width="0.83" stroke-miterlimit="10"/>
<path d="M144.294 -20.9446L-925.088 1040.76" stroke="#357AB6" stroke-width="0.83" stroke-miterlimit="10"/>
<path d="M159.243 -20.9446L-910.128 1040.76" stroke="#357AB6" stroke-width="0.83" stroke-miterlimit="10"/>
<path d="M174.191 -20.9446L-895.18 1040.76" stroke="#357AB6" stroke-width="0.83" stroke-miterlimit="10"/>
<path d="M189.151 -20.9446L-880.231 1040.76" stroke="#357AB6" stroke-width="0.83" stroke-miterlimit="10"/>
<path d="M204.099 -20.9446L-865.283 1040.76" stroke="#357AB6" stroke-width="0.83" stroke-miterlimit="10"/>
<path d="M219.047 -20.9446L-850.335 1040.76" stroke="#357AB6" stroke-width="0.83" stroke-miterlimit="10"/>
<path d="M233.996 -20.9446L-835.387 1040.76" stroke="#357AB6" stroke-width="0.83" stroke-miterlimit="10"/>
<path d="M248.944 -20.9446L-820.427 1040.76" stroke="#357AB6" stroke-width="0.83" stroke-miterlimit="10"/>
<path d="M263.893 -20.9446L-805.478 1040.76" stroke="#357AB6" stroke-width="0.83" stroke-miterlimit="10"/>
<path d="M278.852 -20.9446L-790.53 1040.76" stroke="#357AB6" stroke-width="0.83" stroke-miterlimit="10"/>
<path d="M293.801 -20.9446L-775.581 1040.76" stroke="#357AB6" stroke-width="0.83" stroke-miterlimit="10"/>
<path d="M308.749 -20.9446L-760.633 1040.76" stroke="#357AB6" stroke-width="0.83" stroke-miterlimit="10"/>
<path d="M323.698 -20.9446L-745.685 1040.76" stroke="#357AB6" stroke-width="0.83" stroke-miterlimit="10"/>
<path d="M338.646 -20.9446L-730.725 1040.76" stroke="#357AB6" stroke-width="0.83" stroke-miterlimit="10"/>
<path d="M353.595 -20.9446L-715.775 1040.76" stroke="#357AB6" stroke-width="0.83" stroke-miterlimit="10"/>
<path d="M368.554 -20.9446L-700.828 1040.76" stroke="#357AB6" stroke-width="0.83" stroke-miterlimit="10"/>
<path d="M383.503 -20.9446L-685.879 1040.76" stroke="#357AB6" stroke-width="0.83" stroke-miterlimit="10"/>
<path d="M398.452 -20.9446L-670.931 1040.76" stroke="#357AB6" stroke-width="0.83" stroke-miterlimit="10"/>
<path d="M413.4 -20.9446L-655.982 1040.76" stroke="#357AB6" stroke-width="0.83" stroke-miterlimit="10"/>
<path d="M428.348 -20.9446L-641.022 1040.76" stroke="#357AB6" stroke-width="0.83" stroke-miterlimit="10"/>
<path d="M443.296 -20.9446L-626.074 1040.76" stroke="#357AB6" stroke-width="0.83" stroke-miterlimit="10"/>
<path d="M458.245 -20.9446L-611.126 1040.76" stroke="#357AB6" stroke-width="0.83" stroke-miterlimit="10"/>
<path d="M473.205 -20.9446L-596.178 1040.76" stroke="#357AB6" stroke-width="0.83" stroke-miterlimit="10"/>
<path d="M488.154 -20.9446L-581.229 1040.76" stroke="#357AB6" stroke-width="0.83" stroke-miterlimit="10"/>
<path d="M503.102 -20.9446L-566.28 1040.76" stroke="#357AB6" stroke-width="0.83" stroke-miterlimit="10"/>
<path d="M518.05 -20.9446L-551.32 1040.76" stroke="#357AB6" stroke-width="0.83" stroke-miterlimit="10"/>
<path d="M532.998 -20.9446L-536.373 1040.76" stroke="#357AB6" stroke-width="0.83" stroke-miterlimit="10"/>
<path d="M547.946 -20.9446L-521.425 1040.76" stroke="#357AB6" stroke-width="0.83" stroke-miterlimit="10"/>
<path d="M562.907 -20.9446L-506.476 1040.76" stroke="#357AB6" stroke-width="0.83" stroke-miterlimit="10"/>
<path d="M577.855 -20.9446L-491.527 1040.76" stroke="#357AB6" stroke-width="0.83" stroke-miterlimit="10"/>
<path d="M592.803 -20.9446L-476.579 1040.76" stroke="#357AB6" stroke-width="0.83" stroke-miterlimit="10"/>
<path d="M607.752 -20.9446L-461.619 1040.76" stroke="#357AB6" stroke-width="0.83" stroke-miterlimit="10"/>
<path d="M622.7 -20.9446L-446.671 1040.76" stroke="#357AB6" stroke-width="0.83" stroke-miterlimit="10"/>
<path d="M637.648 -20.9446L-431.723 1040.76" stroke="#357AB6" stroke-width="0.83" stroke-miterlimit="10"/>
<path d="M652.609 -20.9446L-416.773 1040.76" stroke="#357AB6" stroke-width="0.83" stroke-miterlimit="10"/>
<path d="M667.556 -20.9446L-401.826 1040.76" stroke="#357AB6" stroke-width="0.83" stroke-miterlimit="10"/>
<path d="M682.504 -20.9446L-386.878 1040.76" stroke="#357AB6" stroke-width="0.83" stroke-miterlimit="10"/>
<path d="M697.454 -20.9446L-371.929 1040.76" stroke="#357AB6" stroke-width="0.83" stroke-miterlimit="10"/>
<path d="M712.402 -20.9446L-356.969 1040.76" stroke="#357AB6" stroke-width="0.83" stroke-miterlimit="10"/>
<path d="M727.35 -20.9446L-342.021 1040.76" stroke="#357AB6" stroke-width="0.83" stroke-miterlimit="10"/>
<path d="M742.311 -20.9446L-327.071 1040.76" stroke="#357AB6" stroke-width="0.83" stroke-miterlimit="10"/>
<path d="M757.259 -20.9446L-312.123 1040.76" stroke="#357AB6" stroke-width="0.83" stroke-miterlimit="10"/>
<path d="M772.207 -20.9446L-297.176 1040.76" stroke="#357AB6" stroke-width="0.83" stroke-miterlimit="10"/>
<path d="M787.156 -20.9446L-282.227 1040.76" stroke="#357AB6" stroke-width="0.83" stroke-miterlimit="10"/>
<path d="M802.104 -20.9446L-267.267 1040.76" stroke="#357AB6" stroke-width="0.83" stroke-miterlimit="10"/>
<path d="M817.052 -20.9446L-252.318 1040.76" stroke="#357AB6" stroke-width="0.83" stroke-miterlimit="10"/>
<path d="M832.012 -20.9446L-237.37 1040.76" stroke="#357AB6" stroke-width="0.83" stroke-miterlimit="10"/>
<path d="M846.96 -20.9446L-222.422 1040.76" stroke="#357AB6" stroke-width="0.83" stroke-miterlimit="10"/>
<path d="M861.909 -20.9446L-207.474 1040.76" stroke="#357AB6" stroke-width="0.83" stroke-miterlimit="10"/>
<path d="M876.858 -20.9446L-192.524 1040.76" stroke="#357AB6" stroke-width="0.83" stroke-miterlimit="10"/>
<path d="M891.806 -20.9446L-177.564 1040.76" stroke="#357AB6" stroke-width="0.83" stroke-miterlimit="10"/>
<path d="M906.754 -20.9446L-162.616 1040.76" stroke="#357AB6" stroke-width="0.83" stroke-miterlimit="10"/>
<path d="M921.714 -20.9446L-147.668 1040.76" stroke="#357AB6" stroke-width="0.83" stroke-miterlimit="10"/>
<path d="M936.663 -20.9446L-132.72 1040.76" stroke="#357AB6" stroke-width="0.83" stroke-miterlimit="10"/>
<path d="M951.611 -20.9446L-117.771 1040.76" stroke="#357AB6" stroke-width="0.83" stroke-miterlimit="10"/>
<path d="M966.56 -20.9446L-102.822 1040.76" stroke="#357AB6" stroke-width="0.83" stroke-miterlimit="10"/>
<path d="M981.507 -20.9446L-87.8633 1040.76" stroke="#357AB6" stroke-width="0.83" stroke-miterlimit="10"/>
<path d="M996.456 -20.9446L-72.915 1040.76" stroke="#357AB6" stroke-width="0.83" stroke-miterlimit="10"/>
<path d="M1011.42 -20.9446L-57.9668 1040.76" stroke="#357AB6" stroke-width="0.83" stroke-miterlimit="10"/>
<path d="M1026.36 -20.9446L-43.0176 1040.76" stroke="#357AB6" stroke-width="0.83" stroke-miterlimit="10"/>
<path d="M1041.31 -20.9446L-28.0693 1040.76" stroke="#357AB6" stroke-width="0.83" stroke-miterlimit="10"/>
<path d="M1056.26 -20.9446L-13.1211 1040.76" stroke="#357AB6" stroke-width="0.83" stroke-miterlimit="10"/>
<path d="M1071.21 -20.9446L1.83887 1040.76" stroke="#357AB6" stroke-width="0.83" stroke-miterlimit="10"/>
<path d="M1086.16 -20.9446L16.7871 1040.76" stroke="#357AB6" stroke-width="0.83" stroke-miterlimit="10"/>
<path d="M1101.12 -20.9446L31.7354 1040.76" stroke="#357AB6" stroke-width="0.83" stroke-miterlimit="10"/>
<path d="M1116.07 -20.9446L46.6836 1040.76" stroke="#357AB6" stroke-width="0.83" stroke-miterlimit="10"/>
<path d="M1131.02 -20.9446L61.6328 1040.76" stroke="#357AB6" stroke-width="0.83" stroke-miterlimit="10"/>
<path d="M1145.96 -20.9446L76.5811 1040.76" stroke="#357AB6" stroke-width="0.83" stroke-miterlimit="10"/>
<path d="M1160.91 -20.9446L91.54 1040.76" stroke="#357AB6" stroke-width="0.83" stroke-miterlimit="10"/>
<path d="M1175.86 -20.9446L106.488 1040.76" stroke="#357AB6" stroke-width="0.83" stroke-miterlimit="10"/>
<path d="M1190.82 -20.9446L121.438 1040.76" stroke="#357AB6" stroke-width="0.83" stroke-miterlimit="10"/>
<path d="M1205.77 -20.9446L136.386 1040.76" stroke="#357AB6" stroke-width="0.83" stroke-miterlimit="10"/>
<path d="M1220.72 -20.9446L151.334 1040.76" stroke="#357AB6" stroke-width="0.83" stroke-miterlimit="10"/>
<path d="M1235.66 -20.9446L166.282 1040.76" stroke="#357AB6" stroke-width="0.83" stroke-miterlimit="10"/>
<path d="M1250.61 -20.9446L181.242 1040.76" stroke="#357AB6" stroke-width="0.83" stroke-miterlimit="10"/>
<path d="M1265.56 -20.9446L196.19 1040.76" stroke="#357AB6" stroke-width="0.83" stroke-miterlimit="10"/>
<path d="M1280.51 -20.9446L211.139 1040.76" stroke="#357AB6" stroke-width="0.83" stroke-miterlimit="10"/>
<path d="M1295.47 -20.9446L226.088 1040.76" stroke="#357AB6" stroke-width="0.83" stroke-miterlimit="10"/>
<path d="M1310.42 -20.9446L241.035 1040.76" stroke="#357AB6" stroke-width="0.83" stroke-miterlimit="10"/>
<path d="M1325.37 -20.9446L255.984 1040.76" stroke="#357AB6" stroke-width="0.83" stroke-miterlimit="10"/>
<path d="M1340.31 -20.9446L270.944 1040.76" stroke="#357AB6" stroke-width="0.83" stroke-miterlimit="10"/>
<path d="M1355.26 -20.9446L285.893 1040.76" stroke="#357AB6" stroke-width="0.83" stroke-miterlimit="10"/>
<path d="M1370.21 -20.9446L300.842 1040.76" stroke="#357AB6" stroke-width="0.83" stroke-miterlimit="10"/>
<path d="M1383.63 -20.9446L314.264 1040.76" stroke="#357AB6" stroke-width="0.83" stroke-miterlimit="10"/>
<path d="M1398.59 -20.9446L329.212 1040.76" stroke="#357AB6" stroke-width="0.83" stroke-miterlimit="10"/>
<path d="M1413.54 -20.9446L344.16 1040.76" stroke="#357AB6" stroke-width="0.83" stroke-miterlimit="10"/>
<path d="M1428.49 -20.9446L359.108 1040.76" stroke="#357AB6" stroke-width="0.83" stroke-miterlimit="10"/>
<path d="M1443.44 -20.9446L374.057 1040.76" stroke="#357AB6" stroke-width="0.83" stroke-miterlimit="10"/>
<path d="M1458.39 -20.9446L389.017 1040.76" stroke="#357AB6" stroke-width="0.83" stroke-miterlimit="10"/>
<path d="M1473.34 -20.9446L403.965 1040.76" stroke="#357AB6" stroke-width="0.83" stroke-miterlimit="10"/>
<path d="M1488.28 -20.9446L418.914 1040.76" stroke="#357AB6" stroke-width="0.83" stroke-miterlimit="10"/>
<path d="M1503.24 -20.9446L433.862 1040.76" stroke="#357AB6" stroke-width="0.83" stroke-miterlimit="10"/>
<path d="M1518.19 -20.9446L448.811 1040.76" stroke="#357AB6" stroke-width="0.83" stroke-miterlimit="10"/>
<path d="M1533.14 -20.9446L463.759 1040.76" stroke="#357AB6" stroke-width="0.83" stroke-miterlimit="10"/>
<path d="M1548.09 -20.9446L478.719 1040.76" stroke="#357AB6" stroke-width="0.83" stroke-miterlimit="10"/>
<path d="M1563.04 -20.9446L493.667 1040.76" stroke="#357AB6" stroke-width="0.83" stroke-miterlimit="10"/>
<path d="M1577.99 -20.9446L508.616 1040.76" stroke="#357AB6" stroke-width="0.83" stroke-miterlimit="10"/>
<path d="M1592.95 -20.9446L523.563 1040.76" stroke="#357AB6" stroke-width="0.83" stroke-miterlimit="10"/>
<path d="M1607.89 -20.9446L538.512 1040.76" stroke="#357AB6" stroke-width="0.83" stroke-miterlimit="10"/>
<path d="M1622.84 -20.9446L553.461 1040.76" stroke="#357AB6" stroke-width="0.83" stroke-miterlimit="10"/>
<path d="M1637.79 -20.9446L568.421 1040.76" stroke="#357AB6" stroke-width="0.83" stroke-miterlimit="10"/>
<path d="M1652.74 -20.9446L583.369 1040.76" stroke="#357AB6" stroke-width="0.83" stroke-miterlimit="10"/>
<path d="M1667.69 -20.9446L598.317 1040.76" stroke="#357AB6" stroke-width="0.83" stroke-miterlimit="10"/>
<path d="M1682.65 -20.9446L613.266 1040.76" stroke="#357AB6" stroke-width="0.83" stroke-miterlimit="10"/>
<path d="M1697.6 -20.9446L628.214 1040.76" stroke="#357AB6" stroke-width="0.83" stroke-miterlimit="10"/>
<path d="M1712.55 -20.9446L643.163 1040.76" stroke="#357AB6" stroke-width="0.83" stroke-miterlimit="10"/>
<path d="M1727.49 -20.9446L658.123 1040.76" stroke="#357AB6" stroke-width="0.83" stroke-miterlimit="10"/>
<path d="M1742.44 -20.9446L673.071 1040.76" stroke="#357AB6" stroke-width="0.83" stroke-miterlimit="10"/>
<path d="M1757.39 -20.9446L688.02 1040.76" stroke="#357AB6" stroke-width="0.83" stroke-miterlimit="10"/>
<path d="M1772.35 -20.9446L702.968 1040.76" stroke="#357AB6" stroke-width="0.83" stroke-miterlimit="10"/>
<path d="M1787.3 -20.9446L717.916 1040.76" stroke="#357AB6" stroke-width="0.83" stroke-miterlimit="10"/>
<path d="M1802.25 -20.9446L732.864 1040.76" stroke="#357AB6" stroke-width="0.83" stroke-miterlimit="10"/>
<path d="M1817.19 -20.9446L747.812 1040.76" stroke="#357AB6" stroke-width="0.83" stroke-miterlimit="10"/>
<path d="M1832.14 -20.9446L762.772 1040.76" stroke="#357AB6" stroke-width="0.83" stroke-miterlimit="10"/>
<path d="M1847.09 -20.9446L777.721 1040.76" stroke="#357AB6" stroke-width="0.83" stroke-miterlimit="10"/>
<path d="M1862.05 -20.9446L792.67 1040.76" stroke="#357AB6" stroke-width="0.83" stroke-miterlimit="10"/>
<path d="M1877 -20.9446L807.618 1040.76" stroke="#357AB6" stroke-width="0.83" stroke-miterlimit="10"/>
<path d="M1891.95 -20.9446L822.565 1040.76" stroke="#357AB6" stroke-width="0.83" stroke-miterlimit="10"/>
<path d="M1906.9 -20.9446L837.515 1040.76" stroke="#357AB6" stroke-width="0.83" stroke-miterlimit="10"/>
<path d="M1921.85 -20.9446L852.475 1040.76" stroke="#357AB6" stroke-width="0.83" stroke-miterlimit="10"/>
<path d="M1936.79 -20.9446L867.423 1040.76" stroke="#357AB6" stroke-width="0.83" stroke-miterlimit="10"/>
<path d="M1951.75 -20.9446L882.371 1040.76" stroke="#357AB6" stroke-width="0.83" stroke-miterlimit="10"/>
<path d="M1966.7 -20.9446L897.32 1040.76" stroke="#357AB6" stroke-width="0.83" stroke-miterlimit="10"/>
<path d="M1981.65 -20.9446L912.269 1040.76" stroke="#357AB6" stroke-width="0.83" stroke-miterlimit="10"/>
<path d="M1996.6 -20.9446L927.217 1040.76" stroke="#357AB6" stroke-width="0.83" stroke-miterlimit="10"/>
<path d="M2011.55 -20.9446L942.176 1040.76" stroke="#357AB6" stroke-width="0.83" stroke-miterlimit="10"/>
<path d="M2026.5 -20.9446L957.125 1040.76" stroke="#357AB6" stroke-width="0.83" stroke-miterlimit="10"/>
<path d="M2041.46 -20.9446L972.073 1040.76" stroke="#357AB6" stroke-width="0.83" stroke-miterlimit="10"/>
<path d="M2056.4 -20.9446L987.021 1040.76" stroke="#357AB6" stroke-width="0.83" stroke-miterlimit="10"/>
<path d="M2071.35 -20.9446L1001.97 1040.76" stroke="#357AB6" stroke-width="0.83" stroke-miterlimit="10"/>
<path d="M2086.3 -20.9446L1016.92 1040.76" stroke="#357AB6" stroke-width="0.83" stroke-miterlimit="10"/>
<path d="M2101.25 -20.9446L1031.88 1040.76" stroke="#357AB6" stroke-width="0.83" stroke-miterlimit="10"/>
<path d="M2116.2 -20.9446L1046.83 1040.76" stroke="#357AB6" stroke-width="0.83" stroke-miterlimit="10"/>
<path d="M2131.16 -20.9446L1061.77 1040.76" stroke="#357AB6" stroke-width="0.83" stroke-miterlimit="10"/>
<path d="M2146.11 -20.9446L1076.72 1040.76" stroke="#357AB6" stroke-width="0.83" stroke-miterlimit="10"/>
<path d="M2161.05 -20.9446L1091.67 1040.76" stroke="#357AB6" stroke-width="0.83" stroke-miterlimit="10"/>
<path d="M2176 -20.9446L1106.62 1040.76" stroke="#357AB6" stroke-width="0.83" stroke-miterlimit="10"/>
<path d="M2190.95 -20.9446L1121.58 1040.76" stroke="#357AB6" stroke-width="0.83" stroke-miterlimit="10"/>
<path d="M2205.9 -20.9446L1136.53 1040.76" stroke="#357AB6" stroke-width="0.83" stroke-miterlimit="10"/>
<path d="M2220.86 -20.9446L1151.48 1040.76" stroke="#357AB6" stroke-width="0.83" stroke-miterlimit="10"/>
<path d="M2235.81 -20.9446L1166.42 1040.76" stroke="#357AB6" stroke-width="0.83" stroke-miterlimit="10"/>
<path d="M2250.76 -20.9446L1181.37 1040.76" stroke="#357AB6" stroke-width="0.83" stroke-miterlimit="10"/>
<path d="M2265.7 -20.9446L1196.32 1040.76" stroke="#357AB6" stroke-width="0.83" stroke-miterlimit="10"/>
<path d="M2280.65 -20.9446L1211.28 1040.76" stroke="#357AB6" stroke-width="0.83" stroke-miterlimit="10"/>
<path d="M2295.6 -20.9446L1226.23 1040.76" stroke="#357AB6" stroke-width="0.83" stroke-miterlimit="10"/>
</g>
</g>
</svg>
