<svg width="239" height="103" viewBox="0 0 239 103" fill="none" xmlns="http://www.w3.org/2000/svg">
<g opacity="0.3">
<mask id="mask0_324_611" style="mask-type:luminance" maskUnits="userSpaceOnUse" x="0" y="0" width="239" height="103">
<path d="M239 0H0V102.42H239V0Z" fill="white"/>
</mask>
<g mask="url(#mask0_324_611)">
<path d="M31.6267 -6.99353L-419.047 186.136" stroke="#357AB6" stroke-width="0.75" stroke-miterlimit="10"/>
<path d="M43.1949 -6.99353L-407.489 186.136" stroke="#357AB6" stroke-width="0.75" stroke-miterlimit="10"/>
<path d="M54.7629 -6.99353L-395.921 186.136" stroke="#357AB6" stroke-width="0.75" stroke-miterlimit="10"/>
<path d="M66.331 -6.99353L-384.353 186.136" stroke="#357AB6" stroke-width="0.75" stroke-miterlimit="10"/>
<path d="M77.8991 -6.99353L-372.785 186.136" stroke="#357AB6" stroke-width="0.75" stroke-miterlimit="10"/>
<path d="M89.4672 -6.99353L-361.217 186.136" stroke="#357AB6" stroke-width="0.75" stroke-miterlimit="10"/>
<path d="M101.035 -6.99353L-349.649 186.136" stroke="#357AB6" stroke-width="0.75" stroke-miterlimit="10"/>
<path d="M112.593 -6.99353L-338.08 186.136" stroke="#357AB6" stroke-width="0.75" stroke-miterlimit="10"/>
<path d="M124.161 -6.99353L-326.512 186.136" stroke="#357AB6" stroke-width="0.75" stroke-miterlimit="10"/>
<path d="M135.729 -6.99353L-314.944 186.136" stroke="#357AB6" stroke-width="0.75" stroke-miterlimit="10"/>
<path d="M147.297 -6.99353L-303.376 186.136" stroke="#357AB6" stroke-width="0.75" stroke-miterlimit="10"/>
<path d="M158.866 -6.99353L-291.808 186.136" stroke="#357AB6" stroke-width="0.75" stroke-miterlimit="10"/>
<path d="M170.434 -6.99353L-280.24 186.136" stroke="#357AB6" stroke-width="0.75" stroke-miterlimit="10"/>
<path d="M182.002 -6.99353L-268.682 186.136" stroke="#357AB6" stroke-width="0.75" stroke-miterlimit="10"/>
<path d="M193.57 -6.99353L-257.114 186.136" stroke="#357AB6" stroke-width="0.75" stroke-miterlimit="10"/>
<path d="M205.138 -6.99353L-245.546 186.136" stroke="#357AB6" stroke-width="0.75" stroke-miterlimit="10"/>
<path d="M216.706 -6.99353L-233.978 186.136" stroke="#357AB6" stroke-width="0.75" stroke-miterlimit="10"/>
<path d="M228.274 -6.99353L-222.41 186.136" stroke="#357AB6" stroke-width="0.75" stroke-miterlimit="10"/>
<path d="M239.842 -6.99353L-210.842 186.136" stroke="#357AB6" stroke-width="0.75" stroke-miterlimit="10"/>
<path d="M251.4 -6.99353L-199.274 186.136" stroke="#357AB6" stroke-width="0.75" stroke-miterlimit="10"/>
<path d="M262.968 -6.99353L-187.706 186.136" stroke="#357AB6" stroke-width="0.75" stroke-miterlimit="10"/>
<path d="M274.536 -6.99353L-176.137 186.136" stroke="#357AB6" stroke-width="0.75" stroke-miterlimit="10"/>
<path d="M286.104 -6.99353L-164.569 186.136" stroke="#357AB6" stroke-width="0.75" stroke-miterlimit="10"/>
<path d="M297.672 -6.99353L-153.001 186.136" stroke="#357AB6" stroke-width="0.75" stroke-miterlimit="10"/>
<path d="M309.24 -6.99353L-141.433 186.136" stroke="#357AB6" stroke-width="0.75" stroke-miterlimit="10"/>
<path d="M320.809 -6.99353L-129.865 186.136" stroke="#357AB6" stroke-width="0.75" stroke-miterlimit="10"/>
<path d="M332.377 -6.99353L-118.307 186.136" stroke="#357AB6" stroke-width="0.75" stroke-miterlimit="10"/>
<path d="M343.945 -6.99353L-106.739 186.136" stroke="#357AB6" stroke-width="0.75" stroke-miterlimit="10"/>
<path d="M355.513 -6.99353L-95.171 186.136" stroke="#357AB6" stroke-width="0.75" stroke-miterlimit="10"/>
<path d="M367.081 -6.99353L-83.6029 186.136" stroke="#357AB6" stroke-width="0.75" stroke-miterlimit="10"/>
<path d="M378.649 -6.99353L-72.0348 186.136" stroke="#357AB6" stroke-width="0.75" stroke-miterlimit="10"/>
<path d="M390.217 -6.99353L-60.4667 186.136" stroke="#357AB6" stroke-width="0.75" stroke-miterlimit="10"/>
<path d="M401.775 -6.99353L-48.8987 186.136" stroke="#357AB6" stroke-width="0.75" stroke-miterlimit="10"/>
<path d="M413.343 -6.99353L-37.3306 186.136" stroke="#357AB6" stroke-width="0.75" stroke-miterlimit="10"/>
<path d="M424.911 -6.99353L-25.7625 186.136" stroke="#357AB6" stroke-width="0.75" stroke-miterlimit="10"/>
<path d="M436.479 -6.99353L-14.1945 186.136" stroke="#357AB6" stroke-width="0.75" stroke-miterlimit="10"/>
<path d="M448.047 -6.99353L-2.62634 186.136" stroke="#357AB6" stroke-width="0.75" stroke-miterlimit="10"/>
<path d="M459.615 -6.99353L8.94177 186.136" stroke="#357AB6" stroke-width="0.75" stroke-miterlimit="10"/>
<path d="M471.184 -6.99353L20.4998 186.136" stroke="#357AB6" stroke-width="0.75" stroke-miterlimit="10"/>
<path d="M482.752 -6.99353L32.0678 186.136" stroke="#357AB6" stroke-width="0.75" stroke-miterlimit="10"/>
<path d="M494.32 -6.99353L43.6359 186.136" stroke="#357AB6" stroke-width="0.75" stroke-miterlimit="10"/>
<path d="M505.888 -6.99353L55.204 186.136" stroke="#357AB6" stroke-width="0.75" stroke-miterlimit="10"/>
<path d="M517.456 -6.99353L66.772 186.136" stroke="#357AB6" stroke-width="0.75" stroke-miterlimit="10"/>
<path d="M529.024 -6.99353L78.3401 186.136" stroke="#357AB6" stroke-width="0.75" stroke-miterlimit="10"/>
<path d="M540.582 -6.99353L89.9082 186.136" stroke="#357AB6" stroke-width="0.75" stroke-miterlimit="10"/>
<path d="M552.15 -6.99353L101.476 186.136" stroke="#357AB6" stroke-width="0.75" stroke-miterlimit="10"/>
<path d="M563.718 -6.99353L113.044 186.136" stroke="#357AB6" stroke-width="0.75" stroke-miterlimit="10"/>
<path d="M575.286 -6.99353L124.612 186.136" stroke="#357AB6" stroke-width="0.75" stroke-miterlimit="10"/>
<path d="M586.854 -6.99353L136.18 186.136" stroke="#357AB6" stroke-width="0.75" stroke-miterlimit="10"/>
<path d="M598.422 -6.99353L147.749 186.136" stroke="#357AB6" stroke-width="0.75" stroke-miterlimit="10"/>
<path d="M609.99 -6.99353L159.317 186.136" stroke="#357AB6" stroke-width="0.75" stroke-miterlimit="10"/>
<path d="M621.558 -6.99353L170.875 186.136" stroke="#357AB6" stroke-width="0.75" stroke-miterlimit="10"/>
<path d="M633.127 -6.99353L182.443 186.136" stroke="#357AB6" stroke-width="0.75" stroke-miterlimit="10"/>
<path d="M644.695 -6.99353L194.011 186.136" stroke="#357AB6" stroke-width="0.75" stroke-miterlimit="10"/>
<path d="M656.263 -6.99353L205.579 186.136" stroke="#357AB6" stroke-width="0.75" stroke-miterlimit="10"/>
<path d="M667.831 -6.99353L217.147 186.136" stroke="#357AB6" stroke-width="0.75" stroke-miterlimit="10"/>
<path d="M679.399 -6.99353L228.715 186.136" stroke="#357AB6" stroke-width="0.75" stroke-miterlimit="10"/>
</g>
</g>
</svg>
