<svg width="1233" height="796" viewBox="0 0 1233 796" fill="none" xmlns="http://www.w3.org/2000/svg">
<g opacity="0.3">
<mask id="mask0_324_411" style="mask-type:luminance" maskUnits="userSpaceOnUse" x="0" y="0" width="1233" height="796">
<path d="M1233 0H0V796H1233V0Z" fill="white"/>
</mask>
<g mask="url(#mask0_324_411)">
<path opacity="0.15" d="M1233 0H-6.10352e-05V864.537H1233V0Z" fill="#1262A9"/>
<path d="M33.0469 -18.3787L-831.447 913.234" stroke="#357AB6" stroke-width="0.83" stroke-miterlimit="10"/>
<path d="M45.1311 -18.3787L-819.363 913.234" stroke="#357AB6" stroke-width="0.83" stroke-miterlimit="10"/>
<path d="M57.2155 -18.3787L-807.269 913.234" stroke="#357AB6" stroke-width="0.83" stroke-miterlimit="10"/>
<path d="M69.2999 -18.3787L-795.185 913.234" stroke="#357AB6" stroke-width="0.83" stroke-miterlimit="10"/>
<path d="M81.3937 -18.3787L-783.101 913.234" stroke="#357AB6" stroke-width="0.83" stroke-miterlimit="10"/>
<path d="M93.478 -18.3787L-771.016 913.234" stroke="#357AB6" stroke-width="0.83" stroke-miterlimit="10"/>
<path d="M105.562 -18.3787L-758.932 913.234" stroke="#357AB6" stroke-width="0.83" stroke-miterlimit="10"/>
<path d="M117.647 -18.3787L-746.848 913.234" stroke="#357AB6" stroke-width="0.83" stroke-miterlimit="10"/>
<path d="M129.731 -18.3787L-734.754 913.234" stroke="#357AB6" stroke-width="0.83" stroke-miterlimit="10"/>
<path d="M141.815 -18.3787L-722.669 913.234" stroke="#357AB6" stroke-width="0.83" stroke-miterlimit="10"/>
<path d="M153.909 -18.3787L-710.585 913.234" stroke="#357AB6" stroke-width="0.83" stroke-miterlimit="10"/>
<path d="M165.993 -18.3787L-698.501 913.234" stroke="#357AB6" stroke-width="0.83" stroke-miterlimit="10"/>
<path d="M178.078 -18.3787L-686.416 913.234" stroke="#357AB6" stroke-width="0.83" stroke-miterlimit="10"/>
<path d="M190.162 -18.3787L-674.332 913.234" stroke="#357AB6" stroke-width="0.83" stroke-miterlimit="10"/>
<path d="M202.246 -18.3787L-662.238 913.234" stroke="#357AB6" stroke-width="0.83" stroke-miterlimit="10"/>
<path d="M214.331 -18.3787L-650.154 913.234" stroke="#357AB6" stroke-width="0.83" stroke-miterlimit="10"/>
<path d="M226.425 -18.3787L-638.07 913.234" stroke="#357AB6" stroke-width="0.83" stroke-miterlimit="10"/>
<path d="M238.509 -18.3787L-625.985 913.234" stroke="#357AB6" stroke-width="0.83" stroke-miterlimit="10"/>
<path d="M250.593 -18.3787L-613.901 913.234" stroke="#357AB6" stroke-width="0.83" stroke-miterlimit="10"/>
<path d="M262.678 -18.3787L-601.817 913.234" stroke="#357AB6" stroke-width="0.83" stroke-miterlimit="10"/>
<path d="M274.762 -18.3787L-589.723 913.234" stroke="#357AB6" stroke-width="0.83" stroke-miterlimit="10"/>
<path d="M286.846 -18.3787L-577.639 913.234" stroke="#357AB6" stroke-width="0.83" stroke-miterlimit="10"/>
<path d="M298.94 -18.3787L-565.554 913.234" stroke="#357AB6" stroke-width="0.83" stroke-miterlimit="10"/>
<path d="M311.024 -18.3787L-553.47 913.234" stroke="#357AB6" stroke-width="0.83" stroke-miterlimit="10"/>
<path d="M323.109 -18.3787L-541.385 913.234" stroke="#357AB6" stroke-width="0.83" stroke-miterlimit="10"/>
<path d="M335.193 -18.3787L-529.301 913.234" stroke="#357AB6" stroke-width="0.83" stroke-miterlimit="10"/>
<path d="M347.277 -18.3787L-517.207 913.234" stroke="#357AB6" stroke-width="0.83" stroke-miterlimit="10"/>
<path d="M359.362 -18.3787L-505.123 913.234" stroke="#357AB6" stroke-width="0.83" stroke-miterlimit="10"/>
<path d="M371.446 -18.3787L-493.039 913.234" stroke="#357AB6" stroke-width="0.83" stroke-miterlimit="10"/>
<path d="M383.54 -18.3787L-480.954 913.234" stroke="#357AB6" stroke-width="0.83" stroke-miterlimit="10"/>
<path d="M395.624 -18.3787L-468.87 913.234" stroke="#357AB6" stroke-width="0.83" stroke-miterlimit="10"/>
<path d="M407.709 -18.3787L-456.786 913.234" stroke="#357AB6" stroke-width="0.83" stroke-miterlimit="10"/>
<path d="M419.793 -18.3787L-444.692 913.234" stroke="#357AB6" stroke-width="0.83" stroke-miterlimit="10"/>
<path d="M431.877 -18.3787L-432.608 913.234" stroke="#357AB6" stroke-width="0.83" stroke-miterlimit="10"/>
<path d="M443.961 -18.3787L-420.523 913.234" stroke="#357AB6" stroke-width="0.83" stroke-miterlimit="10"/>
<path d="M456.055 -18.3787L-408.439 913.234" stroke="#357AB6" stroke-width="0.83" stroke-miterlimit="10"/>
<path d="M468.14 -18.3787L-396.355 913.234" stroke="#357AB6" stroke-width="0.83" stroke-miterlimit="10"/>
<path d="M480.224 -18.3787L-384.27 913.234" stroke="#357AB6" stroke-width="0.83" stroke-miterlimit="10"/>
<path d="M492.308 -18.3787L-372.177 913.234" stroke="#357AB6" stroke-width="0.83" stroke-miterlimit="10"/>
<path d="M504.393 -18.3787L-360.092 913.234" stroke="#357AB6" stroke-width="0.83" stroke-miterlimit="10"/>
<path d="M516.477 -18.3787L-348.008 913.234" stroke="#357AB6" stroke-width="0.83" stroke-miterlimit="10"/>
<path d="M528.571 -18.3787L-335.923 913.234" stroke="#357AB6" stroke-width="0.83" stroke-miterlimit="10"/>
<path d="M540.655 -18.3787L-323.839 913.234" stroke="#357AB6" stroke-width="0.83" stroke-miterlimit="10"/>
<path d="M552.739 -18.3787L-311.755 913.234" stroke="#357AB6" stroke-width="0.83" stroke-miterlimit="10"/>
<path d="M564.824 -18.3787L-299.671 913.234" stroke="#357AB6" stroke-width="0.83" stroke-miterlimit="10"/>
<path d="M576.908 -18.3787L-287.577 913.234" stroke="#357AB6" stroke-width="0.83" stroke-miterlimit="10"/>
<path d="M588.992 -18.3787L-275.492 913.234" stroke="#357AB6" stroke-width="0.83" stroke-miterlimit="10"/>
<path d="M601.086 -18.3787L-263.408 913.234" stroke="#357AB6" stroke-width="0.83" stroke-miterlimit="10"/>
<path d="M613.171 -18.3787L-251.324 913.234" stroke="#357AB6" stroke-width="0.83" stroke-miterlimit="10"/>
<path d="M625.255 -18.3787L-239.239 913.234" stroke="#357AB6" stroke-width="0.83" stroke-miterlimit="10"/>
<path d="M637.339 -18.3787L-227.155 913.234" stroke="#357AB6" stroke-width="0.83" stroke-miterlimit="10"/>
<path d="M649.424 -18.3787L-215.061 913.234" stroke="#357AB6" stroke-width="0.83" stroke-miterlimit="10"/>
<path d="M661.508 -18.3787L-202.977 913.234" stroke="#357AB6" stroke-width="0.83" stroke-miterlimit="10"/>
<path d="M673.602 -18.3787L-190.893 913.234" stroke="#357AB6" stroke-width="0.83" stroke-miterlimit="10"/>
<path d="M685.686 -18.3787L-178.808 913.234" stroke="#357AB6" stroke-width="0.83" stroke-miterlimit="10"/>
<path d="M697.77 -18.3787L-166.724 913.234" stroke="#357AB6" stroke-width="0.83" stroke-miterlimit="10"/>
<path d="M709.855 -18.3787L-154.64 913.234" stroke="#357AB6" stroke-width="0.83" stroke-miterlimit="10"/>
<path d="M721.939 -18.3787L-142.546 913.234" stroke="#357AB6" stroke-width="0.83" stroke-miterlimit="10"/>
<path d="M734.023 -18.3787L-130.461 913.234" stroke="#357AB6" stroke-width="0.83" stroke-miterlimit="10"/>
<path d="M746.117 -18.3787L-118.377 913.234" stroke="#357AB6" stroke-width="0.83" stroke-miterlimit="10"/>
<path d="M758.201 -18.3787L-106.293 913.234" stroke="#357AB6" stroke-width="0.83" stroke-miterlimit="10"/>
<path d="M770.286 -18.3787L-94.2084 913.234" stroke="#357AB6" stroke-width="0.83" stroke-miterlimit="10"/>
<path d="M782.37 -18.3787L-82.1241 913.234" stroke="#357AB6" stroke-width="0.83" stroke-miterlimit="10"/>
<path d="M794.454 -18.3787L-70.0303 913.234" stroke="#357AB6" stroke-width="0.83" stroke-miterlimit="10"/>
<path d="M806.539 -18.3787L-57.946 913.234" stroke="#357AB6" stroke-width="0.83" stroke-miterlimit="10"/>
<path d="M818.633 -18.3787L-45.8617 913.234" stroke="#357AB6" stroke-width="0.83" stroke-miterlimit="10"/>
<path d="M830.717 -18.3787L-33.7773 913.234" stroke="#357AB6" stroke-width="0.83" stroke-miterlimit="10"/>
<path d="M842.801 -18.3787L-21.6931 913.234" stroke="#357AB6" stroke-width="0.83" stroke-miterlimit="10"/>
<path d="M854.886 -18.3787L-9.6087 913.234" stroke="#357AB6" stroke-width="0.83" stroke-miterlimit="10"/>
<path d="M866.97 -18.3787L2.48511 913.234" stroke="#357AB6" stroke-width="0.83" stroke-miterlimit="10"/>
<path d="M879.054 -18.3787L14.5695 913.234" stroke="#357AB6" stroke-width="0.83" stroke-miterlimit="10"/>
<path d="M891.148 -18.3787L26.6538 913.234" stroke="#357AB6" stroke-width="0.83" stroke-miterlimit="10"/>
<path d="M903.232 -18.3787L38.7382 913.234" stroke="#357AB6" stroke-width="0.83" stroke-miterlimit="10"/>
<path d="M915.317 -18.3787L50.8224 913.234" stroke="#357AB6" stroke-width="0.83" stroke-miterlimit="10"/>
<path d="M927.401 -18.3787L62.9068 913.234" stroke="#357AB6" stroke-width="0.83" stroke-miterlimit="10"/>
<path d="M939.485 -18.3787L75.0005 913.234" stroke="#357AB6" stroke-width="0.83" stroke-miterlimit="10"/>
<path d="M951.57 -18.3787L87.0849 913.234" stroke="#357AB6" stroke-width="0.83" stroke-miterlimit="10"/>
<path d="M963.664 -18.3787L99.1693 913.234" stroke="#357AB6" stroke-width="0.83" stroke-miterlimit="10"/>
<path d="M975.748 -18.3787L111.254 913.234" stroke="#357AB6" stroke-width="0.83" stroke-miterlimit="10"/>
<path d="M987.832 -18.3787L123.338 913.234" stroke="#357AB6" stroke-width="0.83" stroke-miterlimit="10"/>
<path d="M999.916 -18.3787L135.422 913.234" stroke="#357AB6" stroke-width="0.83" stroke-miterlimit="10"/>
<path d="M1012 -18.3787L147.516 913.234" stroke="#357AB6" stroke-width="0.83" stroke-miterlimit="10"/>
<path d="M1024.09 -18.3787L159.6 913.234" stroke="#357AB6" stroke-width="0.83" stroke-miterlimit="10"/>
<path d="M1036.17 -18.3787L171.685 913.234" stroke="#357AB6" stroke-width="0.83" stroke-miterlimit="10"/>
<path d="M1048.26 -18.3787L183.769 913.234" stroke="#357AB6" stroke-width="0.83" stroke-miterlimit="10"/>
<path d="M1060.35 -18.3787L195.853 913.234" stroke="#357AB6" stroke-width="0.83" stroke-miterlimit="10"/>
<path d="M1072.43 -18.3787L207.938 913.234" stroke="#357AB6" stroke-width="0.83" stroke-miterlimit="10"/>
<path d="M1084.52 -18.3787L220.031 913.234" stroke="#357AB6" stroke-width="0.83" stroke-miterlimit="10"/>
<path d="M1096.6 -18.3787L232.116 913.234" stroke="#357AB6" stroke-width="0.83" stroke-miterlimit="10"/>
<path d="M1108.68 -18.3787L244.2 913.234" stroke="#357AB6" stroke-width="0.83" stroke-miterlimit="10"/>
<path d="M1119.54 -18.3787L255.051 913.234" stroke="#357AB6" stroke-width="0.83" stroke-miterlimit="10"/>
<path d="M1131.63 -18.3787L267.136 913.234" stroke="#357AB6" stroke-width="0.83" stroke-miterlimit="10"/>
<path d="M1143.71 -18.3787L279.22 913.234" stroke="#357AB6" stroke-width="0.83" stroke-miterlimit="10"/>
<path d="M1155.8 -18.3787L291.304 913.234" stroke="#357AB6" stroke-width="0.83" stroke-miterlimit="10"/>
<path d="M1167.88 -18.3787L303.389 913.234" stroke="#357AB6" stroke-width="0.83" stroke-miterlimit="10"/>
<path d="M1179.97 -18.3787L315.482 913.234" stroke="#357AB6" stroke-width="0.83" stroke-miterlimit="10"/>
<path d="M1192.05 -18.3787L327.567 913.234" stroke="#357AB6" stroke-width="0.83" stroke-miterlimit="10"/>
<path d="M1204.14 -18.3787L339.651 913.234" stroke="#357AB6" stroke-width="0.83" stroke-miterlimit="10"/>
<path d="M1216.23 -18.3787L351.736 913.234" stroke="#357AB6" stroke-width="0.83" stroke-miterlimit="10"/>
<path d="M1228.31 -18.3787L363.82 913.234" stroke="#357AB6" stroke-width="0.83" stroke-miterlimit="10"/>
<path d="M1240.4 -18.3787L375.904 913.234" stroke="#357AB6" stroke-width="0.83" stroke-miterlimit="10"/>
<path d="M1252.48 -18.3787L387.998 913.234" stroke="#357AB6" stroke-width="0.83" stroke-miterlimit="10"/>
<path d="M1264.57 -18.3787L400.082 913.234" stroke="#357AB6" stroke-width="0.83" stroke-miterlimit="10"/>
<path d="M1276.65 -18.3787L412.167 913.234" stroke="#357AB6" stroke-width="0.83" stroke-miterlimit="10"/>
<path d="M1288.75 -18.3787L424.251 913.234" stroke="#357AB6" stroke-width="0.83" stroke-miterlimit="10"/>
<path d="M1300.83 -18.3787L436.335 913.234" stroke="#357AB6" stroke-width="0.83" stroke-miterlimit="10"/>
<path d="M1312.91 -18.3787L448.42 913.234" stroke="#357AB6" stroke-width="0.83" stroke-miterlimit="10"/>
<path d="M1325 -18.3787L460.513 913.234" stroke="#357AB6" stroke-width="0.83" stroke-miterlimit="10"/>
<path d="M1337.08 -18.3787L472.598 913.234" stroke="#357AB6" stroke-width="0.83" stroke-miterlimit="10"/>
<path d="M1349.17 -18.3787L484.682 913.234" stroke="#357AB6" stroke-width="0.83" stroke-miterlimit="10"/>
<path d="M1361.26 -18.3787L496.766 913.234" stroke="#357AB6" stroke-width="0.83" stroke-miterlimit="10"/>
<path d="M1373.35 -18.3787L508.851 913.234" stroke="#357AB6" stroke-width="0.83" stroke-miterlimit="10"/>
<path d="M1385.43 -18.3787L520.935 913.234" stroke="#357AB6" stroke-width="0.83" stroke-miterlimit="10"/>
<path d="M1397.51 -18.3787L533.029 913.234" stroke="#357AB6" stroke-width="0.83" stroke-miterlimit="10"/>
<path d="M1409.6 -18.3787L545.113 913.234" stroke="#357AB6" stroke-width="0.83" stroke-miterlimit="10"/>
<path d="M1421.68 -18.3787L557.198 913.234" stroke="#357AB6" stroke-width="0.83" stroke-miterlimit="10"/>
<path d="M1433.78 -18.3787L569.282 913.234" stroke="#357AB6" stroke-width="0.83" stroke-miterlimit="10"/>
<path d="M1445.86 -18.3787L581.366 913.234" stroke="#357AB6" stroke-width="0.83" stroke-miterlimit="10"/>
<path d="M1457.94 -18.3787L593.45 913.234" stroke="#357AB6" stroke-width="0.83" stroke-miterlimit="10"/>
<path d="M1470.03 -18.3787L605.535 913.234" stroke="#357AB6" stroke-width="0.83" stroke-miterlimit="10"/>
<path d="M1482.11 -18.3787L617.629 913.234" stroke="#357AB6" stroke-width="0.83" stroke-miterlimit="10"/>
<path d="M1494.2 -18.3787L629.713 913.234" stroke="#357AB6" stroke-width="0.83" stroke-miterlimit="10"/>
<path d="M1506.29 -18.3787L641.797 913.234" stroke="#357AB6" stroke-width="0.83" stroke-miterlimit="10"/>
<path d="M1518.38 -18.3787L653.882 913.234" stroke="#357AB6" stroke-width="0.83" stroke-miterlimit="10"/>
<path d="M1530.46 -18.3787L665.966 913.234" stroke="#357AB6" stroke-width="0.83" stroke-miterlimit="10"/>
<path d="M1542.54 -18.3787L678.05 913.234" stroke="#357AB6" stroke-width="0.83" stroke-miterlimit="10"/>
<path d="M1554.63 -18.3787L690.144 913.234" stroke="#357AB6" stroke-width="0.83" stroke-miterlimit="10"/>
<path d="M1566.71 -18.3787L702.229 913.234" stroke="#357AB6" stroke-width="0.83" stroke-miterlimit="10"/>
<path d="M1578.81 -18.3787L714.313 913.234" stroke="#357AB6" stroke-width="0.83" stroke-miterlimit="10"/>
<path d="M1590.89 -18.3787L726.397 913.234" stroke="#357AB6" stroke-width="0.83" stroke-miterlimit="10"/>
<path d="M1602.98 -18.3787L738.481 913.234" stroke="#357AB6" stroke-width="0.83" stroke-miterlimit="10"/>
<path d="M1615.06 -18.3787L750.566 913.234" stroke="#357AB6" stroke-width="0.83" stroke-miterlimit="10"/>
<path d="M1627.14 -18.3787L762.66 913.234" stroke="#357AB6" stroke-width="0.83" stroke-miterlimit="10"/>
<path d="M1639.23 -18.3787L774.744 913.234" stroke="#357AB6" stroke-width="0.83" stroke-miterlimit="10"/>
<path d="M1651.32 -18.3787L786.828 913.234" stroke="#357AB6" stroke-width="0.83" stroke-miterlimit="10"/>
<path d="M1663.41 -18.3787L798.913 913.234" stroke="#357AB6" stroke-width="0.83" stroke-miterlimit="10"/>
<path d="M1675.49 -18.3787L810.997 913.234" stroke="#357AB6" stroke-width="0.83" stroke-miterlimit="10"/>
<path d="M1687.58 -18.3787L823.081 913.234" stroke="#357AB6" stroke-width="0.83" stroke-miterlimit="10"/>
<path d="M1699.66 -18.3787L835.175 913.234" stroke="#357AB6" stroke-width="0.83" stroke-miterlimit="10"/>
<path d="M1711.74 -18.3787L847.259 913.234" stroke="#357AB6" stroke-width="0.83" stroke-miterlimit="10"/>
<path d="M1723.84 -18.3787L859.344 913.234" stroke="#357AB6" stroke-width="0.83" stroke-miterlimit="10"/>
<path d="M1735.92 -18.3787L871.428 913.234" stroke="#357AB6" stroke-width="0.83" stroke-miterlimit="10"/>
<path d="M1748.01 -18.3787L883.512 913.234" stroke="#357AB6" stroke-width="0.83" stroke-miterlimit="10"/>
<path d="M1760.09 -18.3787L895.597 913.234" stroke="#357AB6" stroke-width="0.83" stroke-miterlimit="10"/>
<path d="M1772.18 -18.3787L907.69 913.234" stroke="#357AB6" stroke-width="0.83" stroke-miterlimit="10"/>
<path d="M1784.26 -18.3787L919.775 913.234" stroke="#357AB6" stroke-width="0.83" stroke-miterlimit="10"/>
<path d="M1796.35 -18.3787L931.859 913.234" stroke="#357AB6" stroke-width="0.83" stroke-miterlimit="10"/>
<path d="M1808.44 -18.3787L943.943 913.234" stroke="#357AB6" stroke-width="0.83" stroke-miterlimit="10"/>
<path d="M1820.52 -18.3787L956.028 913.234" stroke="#357AB6" stroke-width="0.83" stroke-miterlimit="10"/>
<path d="M1832.61 -18.3787L968.112 913.234" stroke="#357AB6" stroke-width="0.83" stroke-miterlimit="10"/>
<path d="M1844.69 -18.3787L980.206 913.234" stroke="#357AB6" stroke-width="0.83" stroke-miterlimit="10"/>
<path d="M1856.78 -18.3787L992.29 913.234" stroke="#357AB6" stroke-width="0.83" stroke-miterlimit="10"/>
<path d="M1868.87 -18.3787L1004.37 913.234" stroke="#357AB6" stroke-width="0.83" stroke-miterlimit="10"/>
<path d="M1880.95 -18.3787L1016.46 913.234" stroke="#357AB6" stroke-width="0.83" stroke-miterlimit="10"/>
<path d="M1893.04 -18.3787L1028.54 913.234" stroke="#357AB6" stroke-width="0.83" stroke-miterlimit="10"/>
<path d="M1905.12 -18.3787L1040.63 913.234" stroke="#357AB6" stroke-width="0.83" stroke-miterlimit="10"/>
<path d="M1917.21 -18.3787L1052.72 913.234" stroke="#357AB6" stroke-width="0.83" stroke-miterlimit="10"/>
<path d="M1929.29 -18.3787L1064.81 913.234" stroke="#357AB6" stroke-width="0.83" stroke-miterlimit="10"/>
<path d="M1941.37 -18.3787L1076.89 913.234" stroke="#357AB6" stroke-width="0.83" stroke-miterlimit="10"/>
<path d="M1953.47 -18.3787L1088.97 913.234" stroke="#357AB6" stroke-width="0.83" stroke-miterlimit="10"/>
<path d="M1965.55 -18.3787L1101.06 913.234" stroke="#357AB6" stroke-width="0.83" stroke-miterlimit="10"/>
<path d="M1977.64 -18.3787L1113.14 913.234" stroke="#357AB6" stroke-width="0.83" stroke-miterlimit="10"/>
<path d="M1989.72 -18.3787L1125.24 913.234" stroke="#357AB6" stroke-width="0.83" stroke-miterlimit="10"/>
<path d="M2001.81 -18.3787L1137.32 913.234" stroke="#357AB6" stroke-width="0.83" stroke-miterlimit="10"/>
<path d="M2013.89 -18.3787L1149.41 913.234" stroke="#357AB6" stroke-width="0.83" stroke-miterlimit="10"/>
<path d="M2025.98 -18.3787L1161.49 913.234" stroke="#357AB6" stroke-width="0.83" stroke-miterlimit="10"/>
<path d="M2038.07 -18.3787L1173.57 913.234" stroke="#357AB6" stroke-width="0.83" stroke-miterlimit="10"/>
<path d="M2050.15 -18.3787L1185.66 913.234" stroke="#357AB6" stroke-width="0.83" stroke-miterlimit="10"/>
<path d="M2062.24 -18.3787L1197.75 913.234" stroke="#357AB6" stroke-width="0.83" stroke-miterlimit="10"/>
<path d="M2074.32 -18.3787L1209.84 913.234" stroke="#357AB6" stroke-width="0.83" stroke-miterlimit="10"/>
<path d="M2086.41 -18.3787L1221.92 913.234" stroke="#357AB6" stroke-width="0.83" stroke-miterlimit="10"/>
</g>
</g>
</svg>
