<svg width="1232" height="486" viewBox="0 0 1232 486" fill="none" xmlns="http://www.w3.org/2000/svg">
<g opacity="0.3">
<mask id="mask0_324_178" style="mask-type:luminance" maskUnits="userSpaceOnUse" x="0" y="0" width="1232" height="486">
<path d="M1231.75 0H0V486H1231.75V0Z" fill="white"/>
</mask>
<g mask="url(#mask0_324_178)">
<path opacity="0.15" d="M1231.75 0H0V535.274H1231.75V0Z" fill="#1262A9"/>
<path d="M33.0133 -18.6396L-628.343 704.918" stroke="#357AB6" stroke-width="0.83" stroke-miterlimit="10"/>
<path d="M45.0852 -18.6396L-616.271 704.918" stroke="#357AB6" stroke-width="0.83" stroke-miterlimit="10"/>
<path d="M57.1572 -18.6396L-604.19 704.918" stroke="#357AB6" stroke-width="0.83" stroke-miterlimit="10"/>
<path d="M69.2294 -18.6396L-592.118 704.918" stroke="#357AB6" stroke-width="0.83" stroke-miterlimit="10"/>
<path d="M81.3109 -18.6396L-580.046 704.918" stroke="#357AB6" stroke-width="0.83" stroke-miterlimit="10"/>
<path d="M93.3829 -18.6396L-567.974 704.918" stroke="#357AB6" stroke-width="0.83" stroke-miterlimit="10"/>
<path d="M105.455 -18.6396L-555.902 704.918" stroke="#357AB6" stroke-width="0.83" stroke-miterlimit="10"/>
<path d="M117.527 -18.6396L-543.83 704.918" stroke="#357AB6" stroke-width="0.83" stroke-miterlimit="10"/>
<path d="M129.599 -18.6396L-531.748 704.918" stroke="#357AB6" stroke-width="0.83" stroke-miterlimit="10"/>
<path d="M141.671 -18.6396L-519.676 704.918" stroke="#357AB6" stroke-width="0.83" stroke-miterlimit="10"/>
<path d="M153.743 -18.6396L-507.604 704.918" stroke="#357AB6" stroke-width="0.83" stroke-miterlimit="10"/>
<path d="M165.825 -18.6396L-495.532 704.918" stroke="#357AB6" stroke-width="0.83" stroke-miterlimit="10"/>
<path d="M177.897 -18.6396L-483.46 704.918" stroke="#357AB6" stroke-width="0.83" stroke-miterlimit="10"/>
<path d="M189.969 -18.6396L-471.388 704.918" stroke="#357AB6" stroke-width="0.83" stroke-miterlimit="10"/>
<path d="M202.041 -18.6396L-459.306 704.918" stroke="#357AB6" stroke-width="0.83" stroke-miterlimit="10"/>
<path d="M214.113 -18.6396L-447.234 704.918" stroke="#357AB6" stroke-width="0.83" stroke-miterlimit="10"/>
<path d="M226.185 -18.6396L-435.162 704.918" stroke="#357AB6" stroke-width="0.83" stroke-miterlimit="10"/>
<path d="M238.266 -18.6396L-423.09 704.918" stroke="#357AB6" stroke-width="0.83" stroke-miterlimit="10"/>
<path d="M250.338 -18.6396L-411.018 704.918" stroke="#357AB6" stroke-width="0.83" stroke-miterlimit="10"/>
<path d="M262.41 -18.6396L-398.946 704.918" stroke="#357AB6" stroke-width="0.83" stroke-miterlimit="10"/>
<path d="M274.482 -18.6396L-386.865 704.918" stroke="#357AB6" stroke-width="0.83" stroke-miterlimit="10"/>
<path d="M286.554 -18.6396L-374.793 704.918" stroke="#357AB6" stroke-width="0.83" stroke-miterlimit="10"/>
<path d="M298.627 -18.6396L-362.72 704.918" stroke="#357AB6" stroke-width="0.83" stroke-miterlimit="10"/>
<path d="M310.708 -18.6396L-350.648 704.918" stroke="#357AB6" stroke-width="0.83" stroke-miterlimit="10"/>
<path d="M322.78 -18.6396L-338.576 704.918" stroke="#357AB6" stroke-width="0.83" stroke-miterlimit="10"/>
<path d="M334.852 -18.6396L-326.504 704.918" stroke="#357AB6" stroke-width="0.83" stroke-miterlimit="10"/>
<path d="M346.924 -18.6396L-314.423 704.918" stroke="#357AB6" stroke-width="0.83" stroke-miterlimit="10"/>
<path d="M358.996 -18.6396L-302.351 704.918" stroke="#357AB6" stroke-width="0.83" stroke-miterlimit="10"/>
<path d="M371.068 -18.6396L-290.279 704.918" stroke="#357AB6" stroke-width="0.83" stroke-miterlimit="10"/>
<path d="M383.15 -18.6396L-278.207 704.918" stroke="#357AB6" stroke-width="0.83" stroke-miterlimit="10"/>
<path d="M395.222 -18.6396L-266.135 704.918" stroke="#357AB6" stroke-width="0.83" stroke-miterlimit="10"/>
<path d="M407.294 -18.6396L-254.063 704.918" stroke="#357AB6" stroke-width="0.83" stroke-miterlimit="10"/>
<path d="M419.366 -18.6396L-241.981 704.918" stroke="#357AB6" stroke-width="0.83" stroke-miterlimit="10"/>
<path d="M431.438 -18.6396L-229.909 704.918" stroke="#357AB6" stroke-width="0.83" stroke-miterlimit="10"/>
<path d="M443.51 -18.6396L-217.837 704.918" stroke="#357AB6" stroke-width="0.83" stroke-miterlimit="10"/>
<path d="M455.591 -18.6396L-205.765 704.918" stroke="#357AB6" stroke-width="0.83" stroke-miterlimit="10"/>
<path d="M467.664 -18.6396L-193.693 704.918" stroke="#357AB6" stroke-width="0.83" stroke-miterlimit="10"/>
<path d="M479.736 -18.6396L-181.621 704.918" stroke="#357AB6" stroke-width="0.83" stroke-miterlimit="10"/>
<path d="M491.808 -18.6396L-169.539 704.918" stroke="#357AB6" stroke-width="0.83" stroke-miterlimit="10"/>
<path d="M503.88 -18.6396L-157.467 704.918" stroke="#357AB6" stroke-width="0.83" stroke-miterlimit="10"/>
<path d="M515.952 -18.6396L-145.395 704.918" stroke="#357AB6" stroke-width="0.83" stroke-miterlimit="10"/>
<path d="M528.033 -18.6396L-133.323 704.918" stroke="#357AB6" stroke-width="0.83" stroke-miterlimit="10"/>
<path d="M540.105 -18.6396L-121.251 704.918" stroke="#357AB6" stroke-width="0.83" stroke-miterlimit="10"/>
<path d="M552.177 -18.6396L-109.179 704.918" stroke="#357AB6" stroke-width="0.83" stroke-miterlimit="10"/>
<path d="M564.249 -18.6396L-97.1071 704.918" stroke="#357AB6" stroke-width="0.83" stroke-miterlimit="10"/>
<path d="M576.321 -18.6396L-85.0256 704.918" stroke="#357AB6" stroke-width="0.83" stroke-miterlimit="10"/>
<path d="M588.393 -18.6396L-72.9535 704.918" stroke="#357AB6" stroke-width="0.83" stroke-miterlimit="10"/>
<path d="M600.475 -18.6396L-60.8813 704.918" stroke="#357AB6" stroke-width="0.83" stroke-miterlimit="10"/>
<path d="M612.547 -18.6396L-48.8094 704.918" stroke="#357AB6" stroke-width="0.83" stroke-miterlimit="10"/>
<path d="M624.619 -18.6396L-36.7374 704.918" stroke="#357AB6" stroke-width="0.83" stroke-miterlimit="10"/>
<path d="M636.691 -18.6396L-24.6653 704.918" stroke="#357AB6" stroke-width="0.83" stroke-miterlimit="10"/>
<path d="M648.763 -18.6396L-12.5837 704.918" stroke="#357AB6" stroke-width="0.83" stroke-miterlimit="10"/>
<path d="M660.835 -18.6396L-0.511719 704.918" stroke="#357AB6" stroke-width="0.83" stroke-miterlimit="10"/>
<path d="M672.917 -18.6396L11.5603 704.918" stroke="#357AB6" stroke-width="0.83" stroke-miterlimit="10"/>
<path d="M684.989 -18.6396L23.6323 704.918" stroke="#357AB6" stroke-width="0.83" stroke-miterlimit="10"/>
<path d="M697.061 -18.6396L35.7043 704.918" stroke="#357AB6" stroke-width="0.83" stroke-miterlimit="10"/>
<path d="M709.133 -18.6396L47.7764 704.918" stroke="#357AB6" stroke-width="0.83" stroke-miterlimit="10"/>
<path d="M721.205 -18.6396L59.8579 704.918" stroke="#357AB6" stroke-width="0.83" stroke-miterlimit="10"/>
<path d="M733.277 -18.6396L71.9299 704.918" stroke="#357AB6" stroke-width="0.83" stroke-miterlimit="10"/>
<path d="M745.358 -18.6396L84.002 704.918" stroke="#357AB6" stroke-width="0.83" stroke-miterlimit="10"/>
<path d="M757.43 -18.6396L96.074 704.918" stroke="#357AB6" stroke-width="0.83" stroke-miterlimit="10"/>
<path d="M769.503 -18.6396L108.146 704.918" stroke="#357AB6" stroke-width="0.83" stroke-miterlimit="10"/>
<path d="M781.575 -18.6396L120.218 704.918" stroke="#357AB6" stroke-width="0.83" stroke-miterlimit="10"/>
<path d="M793.647 -18.6396L132.3 704.918" stroke="#357AB6" stroke-width="0.83" stroke-miterlimit="10"/>
<path d="M805.719 -18.6396L144.372 704.918" stroke="#357AB6" stroke-width="0.83" stroke-miterlimit="10"/>
<path d="M817.8 -18.6396L156.444 704.918" stroke="#357AB6" stroke-width="0.83" stroke-miterlimit="10"/>
<path d="M829.872 -18.6396L168.516 704.918" stroke="#357AB6" stroke-width="0.83" stroke-miterlimit="10"/>
<path d="M841.944 -18.6396L180.588 704.918" stroke="#357AB6" stroke-width="0.83" stroke-miterlimit="10"/>
<path d="M854.016 -18.6396L192.66 704.918" stroke="#357AB6" stroke-width="0.83" stroke-miterlimit="10"/>
<path d="M866.088 -18.6396L204.741 704.918" stroke="#357AB6" stroke-width="0.83" stroke-miterlimit="10"/>
<path d="M878.16 -18.6396L216.813 704.918" stroke="#357AB6" stroke-width="0.83" stroke-miterlimit="10"/>
<path d="M890.232 -18.6396L228.885 704.918" stroke="#357AB6" stroke-width="0.83" stroke-miterlimit="10"/>
<path d="M902.314 -18.6396L240.957 704.918" stroke="#357AB6" stroke-width="0.83" stroke-miterlimit="10"/>
<path d="M914.386 -18.6396L253.03 704.918" stroke="#357AB6" stroke-width="0.83" stroke-miterlimit="10"/>
<path d="M926.458 -18.6396L265.102 704.918" stroke="#357AB6" stroke-width="0.83" stroke-miterlimit="10"/>
<path d="M938.53 -18.6396L277.183 704.918" stroke="#357AB6" stroke-width="0.83" stroke-miterlimit="10"/>
<path d="M950.602 -18.6396L289.255 704.918" stroke="#357AB6" stroke-width="0.83" stroke-miterlimit="10"/>
<path d="M962.674 -18.6396L301.327 704.918" stroke="#357AB6" stroke-width="0.83" stroke-miterlimit="10"/>
<path d="M974.756 -18.6396L313.399 704.918" stroke="#357AB6" stroke-width="0.83" stroke-miterlimit="10"/>
<path d="M986.828 -18.6396L325.471 704.918" stroke="#357AB6" stroke-width="0.83" stroke-miterlimit="10"/>
<path d="M998.9 -18.6396L337.543 704.918" stroke="#357AB6" stroke-width="0.83" stroke-miterlimit="10"/>
<path d="M1010.97 -18.6396L349.625 704.918" stroke="#357AB6" stroke-width="0.83" stroke-miterlimit="10"/>
<path d="M1023.04 -18.6396L361.697 704.918" stroke="#357AB6" stroke-width="0.83" stroke-miterlimit="10"/>
<path d="M1035.12 -18.6396L373.769 704.918" stroke="#357AB6" stroke-width="0.83" stroke-miterlimit="10"/>
<path d="M1047.2 -18.6396L385.841 704.918" stroke="#357AB6" stroke-width="0.83" stroke-miterlimit="10"/>
<path d="M1059.27 -18.6396L397.913 704.918" stroke="#357AB6" stroke-width="0.83" stroke-miterlimit="10"/>
<path d="M1071.34 -18.6396L409.985 704.918" stroke="#357AB6" stroke-width="0.83" stroke-miterlimit="10"/>
<path d="M1083.41 -18.6396L422.066 704.918" stroke="#357AB6" stroke-width="0.83" stroke-miterlimit="10"/>
<path d="M1095.49 -18.6396L434.139 704.918" stroke="#357AB6" stroke-width="0.83" stroke-miterlimit="10"/>
<path d="M1107.56 -18.6396L446.211 704.918" stroke="#357AB6" stroke-width="0.83" stroke-miterlimit="10"/>
<path d="M1118.4 -18.6396L457.051 704.918" stroke="#357AB6" stroke-width="0.83" stroke-miterlimit="10"/>
<path d="M1130.47 -18.6396L469.123 704.918" stroke="#357AB6" stroke-width="0.83" stroke-miterlimit="10"/>
<path d="M1142.55 -18.6396L481.195 704.918" stroke="#357AB6" stroke-width="0.83" stroke-miterlimit="10"/>
<path d="M1154.62 -18.6396L493.267 704.918" stroke="#357AB6" stroke-width="0.83" stroke-miterlimit="10"/>
<path d="M1166.7 -18.6396L505.339 704.918" stroke="#357AB6" stroke-width="0.83" stroke-miterlimit="10"/>
<path d="M1178.77 -18.6396L517.42 704.918" stroke="#357AB6" stroke-width="0.83" stroke-miterlimit="10"/>
<path d="M1190.84 -18.6396L529.492 704.918" stroke="#357AB6" stroke-width="0.83" stroke-miterlimit="10"/>
<path d="M1202.91 -18.6396L541.565 704.918" stroke="#357AB6" stroke-width="0.83" stroke-miterlimit="10"/>
<path d="M1214.99 -18.6396L553.637 704.918" stroke="#357AB6" stroke-width="0.83" stroke-miterlimit="10"/>
<path d="M1227.07 -18.6396L565.709 704.918" stroke="#357AB6" stroke-width="0.83" stroke-miterlimit="10"/>
<path d="M1239.14 -18.6396L577.781 704.918" stroke="#357AB6" stroke-width="0.83" stroke-miterlimit="10"/>
<path d="M1251.21 -18.6396L589.862 704.918" stroke="#357AB6" stroke-width="0.83" stroke-miterlimit="10"/>
<path d="M1263.28 -18.6396L601.934 704.918" stroke="#357AB6" stroke-width="0.83" stroke-miterlimit="10"/>
<path d="M1275.35 -18.6396L614.006 704.918" stroke="#357AB6" stroke-width="0.83" stroke-miterlimit="10"/>
<path d="M1287.43 -18.6396L626.078 704.918" stroke="#357AB6" stroke-width="0.83" stroke-miterlimit="10"/>
<path d="M1299.51 -18.6396L638.15 704.918" stroke="#357AB6" stroke-width="0.83" stroke-miterlimit="10"/>
<path d="M1311.58 -18.6396L650.222 704.918" stroke="#357AB6" stroke-width="0.83" stroke-miterlimit="10"/>
<path d="M1323.65 -18.6396L662.304 704.918" stroke="#357AB6" stroke-width="0.83" stroke-miterlimit="10"/>
<path d="M1335.72 -18.6396L674.376 704.918" stroke="#357AB6" stroke-width="0.83" stroke-miterlimit="10"/>
<path d="M1347.79 -18.6396L686.448 704.918" stroke="#357AB6" stroke-width="0.83" stroke-miterlimit="10"/>
<path d="M1359.88 -18.6396L698.52 704.918" stroke="#357AB6" stroke-width="0.83" stroke-miterlimit="10"/>
<path d="M1371.95 -18.6396L710.592 704.918" stroke="#357AB6" stroke-width="0.83" stroke-miterlimit="10"/>
<path d="M1384.02 -18.6396L722.664 704.918" stroke="#357AB6" stroke-width="0.83" stroke-miterlimit="10"/>
<path d="M1396.09 -18.6396L734.746 704.918" stroke="#357AB6" stroke-width="0.83" stroke-miterlimit="10"/>
<path d="M1408.16 -18.6396L746.818 704.918" stroke="#357AB6" stroke-width="0.83" stroke-miterlimit="10"/>
<path d="M1420.24 -18.6396L758.89 704.918" stroke="#357AB6" stroke-width="0.83" stroke-miterlimit="10"/>
<path d="M1432.32 -18.6396L770.962 704.918" stroke="#357AB6" stroke-width="0.83" stroke-miterlimit="10"/>
<path d="M1444.39 -18.6396L783.034 704.918" stroke="#357AB6" stroke-width="0.83" stroke-miterlimit="10"/>
<path d="M1456.46 -18.6396L795.106 704.918" stroke="#357AB6" stroke-width="0.83" stroke-miterlimit="10"/>
<path d="M1468.53 -18.6396L807.178 704.918" stroke="#357AB6" stroke-width="0.83" stroke-miterlimit="10"/>
<path d="M1480.61 -18.6396L819.259 704.918" stroke="#357AB6" stroke-width="0.83" stroke-miterlimit="10"/>
<path d="M1492.68 -18.6396L831.331 704.918" stroke="#357AB6" stroke-width="0.83" stroke-miterlimit="10"/>
<path d="M1504.76 -18.6396L843.403 704.918" stroke="#357AB6" stroke-width="0.83" stroke-miterlimit="10"/>
<path d="M1516.83 -18.6396L855.475 704.918" stroke="#357AB6" stroke-width="0.83" stroke-miterlimit="10"/>
<path d="M1528.9 -18.6396L867.547 704.918" stroke="#357AB6" stroke-width="0.83" stroke-miterlimit="10"/>
<path d="M1540.98 -18.6396L879.62 704.918" stroke="#357AB6" stroke-width="0.83" stroke-miterlimit="10"/>
<path d="M1553.05 -18.6396L891.701 704.918" stroke="#357AB6" stroke-width="0.83" stroke-miterlimit="10"/>
<path d="M1565.12 -18.6396L903.773 704.918" stroke="#357AB6" stroke-width="0.83" stroke-miterlimit="10"/>
<path d="M1577.2 -18.6396L915.845 704.918" stroke="#357AB6" stroke-width="0.83" stroke-miterlimit="10"/>
<path d="M1589.27 -18.6396L927.917 704.918" stroke="#357AB6" stroke-width="0.83" stroke-miterlimit="10"/>
<path d="M1601.35 -18.6396L939.989 704.918" stroke="#357AB6" stroke-width="0.83" stroke-miterlimit="10"/>
<path d="M1613.42 -18.6396L952.061 704.918" stroke="#357AB6" stroke-width="0.83" stroke-miterlimit="10"/>
<path d="M1625.49 -18.6396L964.143 704.918" stroke="#357AB6" stroke-width="0.83" stroke-miterlimit="10"/>
<path d="M1637.56 -18.6396L976.215 704.918" stroke="#357AB6" stroke-width="0.83" stroke-miterlimit="10"/>
<path d="M1649.64 -18.6396L988.287 704.918" stroke="#357AB6" stroke-width="0.83" stroke-miterlimit="10"/>
<path d="M1661.72 -18.6396L1000.36 704.918" stroke="#357AB6" stroke-width="0.83" stroke-miterlimit="10"/>
<path d="M1673.79 -18.6396L1012.43 704.918" stroke="#357AB6" stroke-width="0.83" stroke-miterlimit="10"/>
<path d="M1685.86 -18.6396L1024.5 704.918" stroke="#357AB6" stroke-width="0.83" stroke-miterlimit="10"/>
<path d="M1697.93 -18.6396L1036.58 704.918" stroke="#357AB6" stroke-width="0.83" stroke-miterlimit="10"/>
<path d="M1710 -18.6396L1048.66 704.918" stroke="#357AB6" stroke-width="0.83" stroke-miterlimit="10"/>
<path d="M1722.09 -18.6396L1060.73 704.918" stroke="#357AB6" stroke-width="0.83" stroke-miterlimit="10"/>
<path d="M1734.16 -18.6396L1072.8 704.918" stroke="#357AB6" stroke-width="0.83" stroke-miterlimit="10"/>
<path d="M1746.23 -18.6396L1084.87 704.918" stroke="#357AB6" stroke-width="0.83" stroke-miterlimit="10"/>
<path d="M1758.3 -18.6396L1096.94 704.918" stroke="#357AB6" stroke-width="0.83" stroke-miterlimit="10"/>
<path d="M1770.37 -18.6396L1109.03 704.918" stroke="#357AB6" stroke-width="0.83" stroke-miterlimit="10"/>
<path d="M1782.45 -18.6396L1121.1 704.918" stroke="#357AB6" stroke-width="0.83" stroke-miterlimit="10"/>
<path d="M1794.52 -18.6396L1133.17 704.918" stroke="#357AB6" stroke-width="0.83" stroke-miterlimit="10"/>
<path d="M1806.6 -18.6396L1145.24 704.918" stroke="#357AB6" stroke-width="0.83" stroke-miterlimit="10"/>
<path d="M1818.67 -18.6396L1157.31 704.918" stroke="#357AB6" stroke-width="0.83" stroke-miterlimit="10"/>
<path d="M1830.74 -18.6396L1169.39 704.918" stroke="#357AB6" stroke-width="0.83" stroke-miterlimit="10"/>
<path d="M1842.81 -18.6396L1181.47 704.918" stroke="#357AB6" stroke-width="0.83" stroke-miterlimit="10"/>
<path d="M1854.89 -18.6396L1193.54 704.918" stroke="#357AB6" stroke-width="0.83" stroke-miterlimit="10"/>
<path d="M1866.96 -18.6396L1205.61 704.918" stroke="#357AB6" stroke-width="0.83" stroke-miterlimit="10"/>
<path d="M1879.04 -18.6396L1217.68 704.918" stroke="#357AB6" stroke-width="0.83" stroke-miterlimit="10"/>
<path d="M1891.11 -18.6396L1229.76 704.918" stroke="#357AB6" stroke-width="0.83" stroke-miterlimit="10"/>
</g>
</g>
</svg>
