<svg width="320" height="459" viewBox="0 0 320 459" fill="none" xmlns="http://www.w3.org/2000/svg">
<g opacity="0.3">
<mask id="mask0_324_5753" style="mask-type:luminance" maskUnits="userSpaceOnUse" x="0" y="0" width="320" height="459">
<path d="M320 0H0V459H320V0Z" fill="white"/>
</mask>
<g mask="url(#mask0_324_5753)">
<path opacity="0.15" d="M320 6.10352e-05H0V498.52H320V6.10352e-05Z" fill="#1262A9"/>
<path d="M8.57286 -10.5978L-215.789 526.6" stroke="#357AB6" stroke-width="0.83" stroke-miterlimit="10"/>
<path d="M11.7096 -10.5978L-212.652 526.6" stroke="#357AB6" stroke-width="0.83" stroke-miterlimit="10"/>
<path d="M14.8457 -10.5978L-209.514 526.6" stroke="#357AB6" stroke-width="0.83" stroke-miterlimit="10"/>
<path d="M17.9824 -10.5978L-206.377 526.6" stroke="#357AB6" stroke-width="0.83" stroke-miterlimit="10"/>
<path d="M21.1217 -10.5978L-203.24 526.6" stroke="#357AB6" stroke-width="0.83" stroke-miterlimit="10"/>
<path d="M24.2584 -10.5978L-200.104 526.6" stroke="#357AB6" stroke-width="0.83" stroke-miterlimit="10"/>
<path d="M27.3942 -10.5978L-196.968 526.6" stroke="#357AB6" stroke-width="0.83" stroke-miterlimit="10"/>
<path d="M30.5309 -10.5978L-193.831 526.6" stroke="#357AB6" stroke-width="0.83" stroke-miterlimit="10"/>
<path d="M33.668 -10.5978L-190.691 526.6" stroke="#357AB6" stroke-width="0.83" stroke-miterlimit="10"/>
<path d="M36.8037 -10.5978L-187.556 526.6" stroke="#357AB6" stroke-width="0.83" stroke-miterlimit="10"/>
<path d="M39.943 -10.5978L-184.419 526.6" stroke="#357AB6" stroke-width="0.83" stroke-miterlimit="10"/>
<path d="M43.0797 -10.5978L-181.282 526.6" stroke="#357AB6" stroke-width="0.83" stroke-miterlimit="10"/>
<path d="M46.2164 -10.5978L-178.146 526.6" stroke="#357AB6" stroke-width="0.83" stroke-miterlimit="10"/>
<path d="M49.3619 -10.5978L-175 526.6" stroke="#357AB6" stroke-width="0.83" stroke-miterlimit="10"/>
<path d="M52.4843 -10.5978L-171.875 526.6" stroke="#357AB6" stroke-width="0.83" stroke-miterlimit="10"/>
<path d="M55.6182 -10.5978L-168.741 526.6" stroke="#357AB6" stroke-width="0.83" stroke-miterlimit="10"/>
<path d="M58.7574 -10.5978L-165.604 526.6" stroke="#357AB6" stroke-width="0.83" stroke-miterlimit="10"/>
<path d="M61.8942 -10.5978L-162.468 526.6" stroke="#357AB6" stroke-width="0.83" stroke-miterlimit="10"/>
<path d="M65.0299 -10.5978L-159.332 526.6" stroke="#357AB6" stroke-width="0.83" stroke-miterlimit="10"/>
<path d="M68.1666 -10.5978L-156.195 526.6" stroke="#357AB6" stroke-width="0.83" stroke-miterlimit="10"/>
<path d="M71.3027 -10.5978L-153.057 526.6" stroke="#357AB6" stroke-width="0.83" stroke-miterlimit="10"/>
<path d="M74.4395 -10.5978L-149.92 526.6" stroke="#357AB6" stroke-width="0.83" stroke-miterlimit="10"/>
<path d="M77.5787 -10.5978L-146.783 526.6" stroke="#357AB6" stroke-width="0.83" stroke-miterlimit="10"/>
<path d="M80.7154 -10.5978L-143.646 526.6" stroke="#357AB6" stroke-width="0.83" stroke-miterlimit="10"/>
<path d="M83.8522 -10.5978L-140.51 526.6" stroke="#357AB6" stroke-width="0.83" stroke-miterlimit="10"/>
<path d="M86.9879 -10.5978L-137.374 526.6" stroke="#357AB6" stroke-width="0.83" stroke-miterlimit="10"/>
<path d="M90.125 -10.5978L-134.234 526.6" stroke="#357AB6" stroke-width="0.83" stroke-miterlimit="10"/>
<path d="M93.2617 -10.5978L-131.098 526.6" stroke="#357AB6" stroke-width="0.83" stroke-miterlimit="10"/>
<path d="M96.3984 -10.5978L-127.961 526.6" stroke="#357AB6" stroke-width="0.83" stroke-miterlimit="10"/>
<path d="M99.5367 -10.5978L-124.825 526.6" stroke="#357AB6" stroke-width="0.83" stroke-miterlimit="10"/>
<path d="M102.673 -10.5978L-121.688 526.6" stroke="#357AB6" stroke-width="0.83" stroke-miterlimit="10"/>
<path d="M105.81 -10.5978L-118.552 526.6" stroke="#357AB6" stroke-width="0.83" stroke-miterlimit="10"/>
<path d="M108.946 -10.5978L-115.413 526.6" stroke="#357AB6" stroke-width="0.83" stroke-miterlimit="10"/>
<path d="M112.083 -10.5978L-112.276 526.6" stroke="#357AB6" stroke-width="0.83" stroke-miterlimit="10"/>
<path d="M115.22 -10.5978L-109.14 526.6" stroke="#357AB6" stroke-width="0.83" stroke-miterlimit="10"/>
<path d="M118.358 -10.5978L-106.004 526.6" stroke="#357AB6" stroke-width="0.83" stroke-miterlimit="10"/>
<path d="M121.496 -10.5978L-102.866 526.6" stroke="#357AB6" stroke-width="0.83" stroke-miterlimit="10"/>
<path d="M124.631 -10.5978L-99.7305 526.6" stroke="#357AB6" stroke-width="0.83" stroke-miterlimit="10"/>
<path d="M127.768 -10.5978L-96.5918 526.6" stroke="#357AB6" stroke-width="0.83" stroke-miterlimit="10"/>
<path d="M130.905 -10.5978L-93.4541 526.6" stroke="#357AB6" stroke-width="0.83" stroke-miterlimit="10"/>
<path d="M134.031 -10.5978L-90.3281 526.6" stroke="#357AB6" stroke-width="0.83" stroke-miterlimit="10"/>
<path d="M137.159 -10.5978L-87.2031 526.6" stroke="#357AB6" stroke-width="0.83" stroke-miterlimit="10"/>
<path d="M140.309 -10.5978L-84.0527 526.6" stroke="#357AB6" stroke-width="0.83" stroke-miterlimit="10"/>
<path d="M143.446 -10.5978L-80.916 526.6" stroke="#357AB6" stroke-width="0.83" stroke-miterlimit="10"/>
<path d="M146.582 -10.5978L-77.7803 526.6" stroke="#357AB6" stroke-width="0.83" stroke-miterlimit="10"/>
<path d="M149.719 -10.5978L-74.6406 526.6" stroke="#357AB6" stroke-width="0.83" stroke-miterlimit="10"/>
<path d="M152.855 -10.5978L-71.5039 526.6" stroke="#357AB6" stroke-width="0.83" stroke-miterlimit="10"/>
<path d="M155.994 -10.5978L-68.3682 526.6" stroke="#357AB6" stroke-width="0.83" stroke-miterlimit="10"/>
<path d="M159.13 -10.5978L-65.2314 526.6" stroke="#357AB6" stroke-width="0.83" stroke-miterlimit="10"/>
<path d="M162.267 -10.5978L-62.0947 526.6" stroke="#357AB6" stroke-width="0.83" stroke-miterlimit="10"/>
<path d="M165.404 -10.5978L-58.958 526.6" stroke="#357AB6" stroke-width="0.83" stroke-miterlimit="10"/>
<path d="M168.54 -10.5978L-55.8193 526.6" stroke="#357AB6" stroke-width="0.83" stroke-miterlimit="10"/>
<path d="M171.677 -10.5978L-52.6826 526.6" stroke="#357AB6" stroke-width="0.83" stroke-miterlimit="10"/>
<path d="M174.816 -10.5978L-49.5459 526.6" stroke="#357AB6" stroke-width="0.83" stroke-miterlimit="10"/>
<path d="M177.952 -10.5978L-46.4102 526.6" stroke="#357AB6" stroke-width="0.83" stroke-miterlimit="10"/>
<path d="M181.088 -10.5978L-43.2734 526.6" stroke="#357AB6" stroke-width="0.83" stroke-miterlimit="10"/>
<path d="M184.225 -10.5978L-40.1367 526.6" stroke="#357AB6" stroke-width="0.83" stroke-miterlimit="10"/>
<path d="M187.361 -10.5978L-36.998 526.6" stroke="#357AB6" stroke-width="0.83" stroke-miterlimit="10"/>
<path d="M190.499 -10.5978L-33.8604 526.6" stroke="#357AB6" stroke-width="0.83" stroke-miterlimit="10"/>
<path d="M193.637 -10.5978L-30.7246 526.6" stroke="#357AB6" stroke-width="0.83" stroke-miterlimit="10"/>
<path d="M196.774 -10.5978L-27.5879 526.6" stroke="#357AB6" stroke-width="0.83" stroke-miterlimit="10"/>
<path d="M199.911 -10.5978L-24.4512 526.6" stroke="#357AB6" stroke-width="0.83" stroke-miterlimit="10"/>
<path d="M203.047 -10.5978L-21.3145 526.6" stroke="#357AB6" stroke-width="0.83" stroke-miterlimit="10"/>
<path d="M206.184 -10.5978L-18.1758 526.6" stroke="#357AB6" stroke-width="0.83" stroke-miterlimit="10"/>
<path d="M209.319 -10.5978L-15.04 526.6" stroke="#357AB6" stroke-width="0.83" stroke-miterlimit="10"/>
<path d="M212.46 -10.5978L-11.9023 526.6" stroke="#357AB6" stroke-width="0.83" stroke-miterlimit="10"/>
<path d="M215.594 -10.5978L-8.76758 526.6" stroke="#357AB6" stroke-width="0.83" stroke-miterlimit="10"/>
<path d="M218.729 -10.5978L-5.63281 526.6" stroke="#357AB6" stroke-width="0.83" stroke-miterlimit="10"/>
<path d="M221.854 -10.5978L-2.50781 526.6" stroke="#357AB6" stroke-width="0.83" stroke-miterlimit="10"/>
<path d="M224.997 -10.5978L0.637695 526.6" stroke="#357AB6" stroke-width="0.83" stroke-miterlimit="10"/>
<path d="M228.134 -10.5978L3.77441 526.6" stroke="#357AB6" stroke-width="0.83" stroke-miterlimit="10"/>
<path d="M231.273 -10.5978L6.91113 526.6" stroke="#357AB6" stroke-width="0.83" stroke-miterlimit="10"/>
<path d="M234.41 -10.5978L10.0479 526.6" stroke="#357AB6" stroke-width="0.83" stroke-miterlimit="10"/>
<path d="M237.546 -10.5978L13.1836 526.6" stroke="#357AB6" stroke-width="0.83" stroke-miterlimit="10"/>
<path d="M240.682 -10.5978L16.3203 526.6" stroke="#357AB6" stroke-width="0.83" stroke-miterlimit="10"/>
<path d="M243.819 -10.5978L19.46 526.6" stroke="#357AB6" stroke-width="0.83" stroke-miterlimit="10"/>
<path d="M246.955 -10.5978L22.5957 526.6" stroke="#357AB6" stroke-width="0.83" stroke-miterlimit="10"/>
<path d="M250.094 -10.5978L25.7324 526.6" stroke="#357AB6" stroke-width="0.83" stroke-miterlimit="10"/>
<path d="M253.231 -10.5978L28.8691 526.6" stroke="#357AB6" stroke-width="0.83" stroke-miterlimit="10"/>
<path d="M256.368 -10.5978L32.0059 526.6" stroke="#357AB6" stroke-width="0.83" stroke-miterlimit="10"/>
<path d="M259.505 -10.5978L35.1426 526.6" stroke="#357AB6" stroke-width="0.83" stroke-miterlimit="10"/>
<path d="M262.641 -10.5978L38.2812 526.6" stroke="#357AB6" stroke-width="0.83" stroke-miterlimit="10"/>
<path d="M265.777 -10.5978L41.418 526.6" stroke="#357AB6" stroke-width="0.83" stroke-miterlimit="10"/>
<path d="M268.914 -10.5978L44.5547 526.6" stroke="#357AB6" stroke-width="0.83" stroke-miterlimit="10"/>
<path d="M272.053 -10.5978L47.6914 526.6" stroke="#357AB6" stroke-width="0.83" stroke-miterlimit="10"/>
<path d="M275.189 -10.5978L50.8271 526.6" stroke="#357AB6" stroke-width="0.83" stroke-miterlimit="10"/>
<path d="M278.326 -10.5978L53.9639 526.6" stroke="#357AB6" stroke-width="0.83" stroke-miterlimit="10"/>
<path d="M281.463 -10.5978L57.1035 526.6" stroke="#357AB6" stroke-width="0.83" stroke-miterlimit="10"/>
<path d="M284.599 -10.5978L60.2393 526.6" stroke="#357AB6" stroke-width="0.83" stroke-miterlimit="10"/>
<path d="M287.735 -10.5978L63.376 526.6" stroke="#357AB6" stroke-width="0.83" stroke-miterlimit="10"/>
<path d="M290.551 -10.5978L66.1914 526.6" stroke="#357AB6" stroke-width="0.83" stroke-miterlimit="10"/>
<path d="M293.69 -10.5978L69.3281 526.6" stroke="#357AB6" stroke-width="0.83" stroke-miterlimit="10"/>
<path d="M296.826 -10.5978L72.4639 526.6" stroke="#357AB6" stroke-width="0.83" stroke-miterlimit="10"/>
<path d="M299.963 -10.5978L75.6006 526.6" stroke="#357AB6" stroke-width="0.83" stroke-miterlimit="10"/>
<path d="M303.099 -10.5978L78.7373 526.6" stroke="#357AB6" stroke-width="0.83" stroke-miterlimit="10"/>
<path d="M306.235 -10.5978L81.876 526.6" stroke="#357AB6" stroke-width="0.83" stroke-miterlimit="10"/>
<path d="M309.372 -10.5978L85.0127 526.6" stroke="#357AB6" stroke-width="0.83" stroke-miterlimit="10"/>
<path d="M312.509 -10.5978L88.1494 526.6" stroke="#357AB6" stroke-width="0.83" stroke-miterlimit="10"/>
<path d="M315.648 -10.5978L91.2861 526.6" stroke="#357AB6" stroke-width="0.83" stroke-miterlimit="10"/>
<path d="M318.784 -10.5978L94.4219 526.6" stroke="#357AB6" stroke-width="0.83" stroke-miterlimit="10"/>
<path d="M321.921 -10.5978L97.5596 526.6" stroke="#357AB6" stroke-width="0.83" stroke-miterlimit="10"/>
<path d="M325.058 -10.5978L100.698 526.6" stroke="#357AB6" stroke-width="0.83" stroke-miterlimit="10"/>
<path d="M328.193 -10.5978L103.834 526.6" stroke="#357AB6" stroke-width="0.83" stroke-miterlimit="10"/>
<path d="M331.33 -10.5978L106.971 526.6" stroke="#357AB6" stroke-width="0.83" stroke-miterlimit="10"/>
<path d="M334.469 -10.5978L110.107 526.6" stroke="#357AB6" stroke-width="0.83" stroke-miterlimit="10"/>
<path d="M337.606 -10.5978L113.244 526.6" stroke="#357AB6" stroke-width="0.83" stroke-miterlimit="10"/>
<path d="M340.743 -10.5978L116.381 526.6" stroke="#357AB6" stroke-width="0.83" stroke-miterlimit="10"/>
<path d="M343.88 -10.5978L119.521 526.6" stroke="#357AB6" stroke-width="0.83" stroke-miterlimit="10"/>
<path d="M347.023 -10.5978L122.664 526.6" stroke="#357AB6" stroke-width="0.83" stroke-miterlimit="10"/>
<path d="M350.148 -10.5978L125.789 526.6" stroke="#357AB6" stroke-width="0.83" stroke-miterlimit="10"/>
<path d="M353.284 -10.5978L128.922 526.6" stroke="#357AB6" stroke-width="0.83" stroke-miterlimit="10"/>
<path d="M356.42 -10.5978L132.058 526.6" stroke="#357AB6" stroke-width="0.83" stroke-miterlimit="10"/>
<path d="M359.556 -10.5978L135.194 526.6" stroke="#357AB6" stroke-width="0.83" stroke-miterlimit="10"/>
<path d="M362.693 -10.5978L138.334 526.6" stroke="#357AB6" stroke-width="0.83" stroke-miterlimit="10"/>
<path d="M365.829 -10.5978L141.47 526.6" stroke="#357AB6" stroke-width="0.83" stroke-miterlimit="10"/>
<path d="M368.966 -10.5978L144.606 526.6" stroke="#357AB6" stroke-width="0.83" stroke-miterlimit="10"/>
<path d="M372.105 -10.5978L147.743 526.6" stroke="#357AB6" stroke-width="0.83" stroke-miterlimit="10"/>
<path d="M375.242 -10.5978L150.88 526.6" stroke="#357AB6" stroke-width="0.83" stroke-miterlimit="10"/>
<path d="M378.378 -10.5978L154.016 526.6" stroke="#357AB6" stroke-width="0.83" stroke-miterlimit="10"/>
<path d="M381.514 -10.5978L157.152 526.6" stroke="#357AB6" stroke-width="0.83" stroke-miterlimit="10"/>
<path d="M384.651 -10.5978L160.292 526.6" stroke="#357AB6" stroke-width="0.83" stroke-miterlimit="10"/>
<path d="M387.788 -10.5978L163.429 526.6" stroke="#357AB6" stroke-width="0.83" stroke-miterlimit="10"/>
<path d="M390.927 -10.5978L166.565 526.6" stroke="#357AB6" stroke-width="0.83" stroke-miterlimit="10"/>
<path d="M394.064 -10.5978L169.702 526.6" stroke="#357AB6" stroke-width="0.83" stroke-miterlimit="10"/>
<path d="M397.2 -10.5978L172.838 526.6" stroke="#357AB6" stroke-width="0.83" stroke-miterlimit="10"/>
<path d="M400.337 -10.5978L175.975 526.6" stroke="#357AB6" stroke-width="0.83" stroke-miterlimit="10"/>
<path d="M403.473 -10.5978L179.113 526.6" stroke="#357AB6" stroke-width="0.83" stroke-miterlimit="10"/>
<path d="M406.609 -10.5978L182.25 526.6" stroke="#357AB6" stroke-width="0.83" stroke-miterlimit="10"/>
<path d="M409.748 -10.5978L185.386 526.6" stroke="#357AB6" stroke-width="0.83" stroke-miterlimit="10"/>
<path d="M412.885 -10.5978L188.523 526.6" stroke="#357AB6" stroke-width="0.83" stroke-miterlimit="10"/>
<path d="M416.022 -10.5978L191.66 526.6" stroke="#357AB6" stroke-width="0.83" stroke-miterlimit="10"/>
<path d="M419.158 -10.5978L194.796 526.6" stroke="#357AB6" stroke-width="0.83" stroke-miterlimit="10"/>
<path d="M422.295 -10.5978L197.936 526.6" stroke="#357AB6" stroke-width="0.83" stroke-miterlimit="10"/>
<path d="M425.432 -10.5978L201.072 526.6" stroke="#357AB6" stroke-width="0.83" stroke-miterlimit="10"/>
<path d="M428.57 -10.5978L204.208 526.6" stroke="#357AB6" stroke-width="0.83" stroke-miterlimit="10"/>
<path d="M431.697 -10.5978L207.335 526.6" stroke="#357AB6" stroke-width="0.83" stroke-miterlimit="10"/>
<path d="M434.837 -10.5978L210.475 526.6" stroke="#357AB6" stroke-width="0.83" stroke-miterlimit="10"/>
<path d="M437.971 -10.5978L213.609 526.6" stroke="#357AB6" stroke-width="0.83" stroke-miterlimit="10"/>
<path d="M441.108 -10.5978L216.749 526.6" stroke="#357AB6" stroke-width="0.83" stroke-miterlimit="10"/>
<path d="M444.245 -10.5978L219.886 526.6" stroke="#357AB6" stroke-width="0.83" stroke-miterlimit="10"/>
<path d="M447.383 -10.5978L223.021 526.6" stroke="#357AB6" stroke-width="0.83" stroke-miterlimit="10"/>
<path d="M450.52 -10.5978L226.158 526.6" stroke="#357AB6" stroke-width="0.83" stroke-miterlimit="10"/>
<path d="M453.657 -10.5978L229.295 526.6" stroke="#357AB6" stroke-width="0.83" stroke-miterlimit="10"/>
<path d="M456.794 -10.5978L232.432 526.6" stroke="#357AB6" stroke-width="0.83" stroke-miterlimit="10"/>
<path d="M459.93 -10.5978L235.57 526.6" stroke="#357AB6" stroke-width="0.83" stroke-miterlimit="10"/>
<path d="M463.066 -10.5978L238.707 526.6" stroke="#357AB6" stroke-width="0.83" stroke-miterlimit="10"/>
<path d="M466.206 -10.5978L241.844 526.6" stroke="#357AB6" stroke-width="0.83" stroke-miterlimit="10"/>
<path d="M469.342 -10.5978L244.98 526.6" stroke="#357AB6" stroke-width="0.83" stroke-miterlimit="10"/>
<path d="M472.478 -10.5978L248.116 526.6" stroke="#357AB6" stroke-width="0.83" stroke-miterlimit="10"/>
<path d="M475.616 -10.5978L251.254 526.6" stroke="#357AB6" stroke-width="0.83" stroke-miterlimit="10"/>
<path d="M478.752 -10.5978L254.393 526.6" stroke="#357AB6" stroke-width="0.83" stroke-miterlimit="10"/>
<path d="M481.889 -10.5978L257.529 526.6" stroke="#357AB6" stroke-width="0.83" stroke-miterlimit="10"/>
<path d="M485.028 -10.5978L260.666 526.6" stroke="#357AB6" stroke-width="0.83" stroke-miterlimit="10"/>
<path d="M488.164 -10.5978L263.802 526.6" stroke="#357AB6" stroke-width="0.83" stroke-miterlimit="10"/>
<path d="M491.3 -10.5978L266.938 526.6" stroke="#357AB6" stroke-width="0.83" stroke-miterlimit="10"/>
<path d="M494.437 -10.5978L270.075 526.6" stroke="#357AB6" stroke-width="0.83" stroke-miterlimit="10"/>
<path d="M497.573 -10.5978L273.214 526.6" stroke="#357AB6" stroke-width="0.83" stroke-miterlimit="10"/>
<path d="M500.71 -10.5978L276.351 526.6" stroke="#357AB6" stroke-width="0.83" stroke-miterlimit="10"/>
<path d="M503.847 -10.5978L279.487 526.6" stroke="#357AB6" stroke-width="0.83" stroke-miterlimit="10"/>
<path d="M506.985 -10.5978L282.623 526.6" stroke="#357AB6" stroke-width="0.83" stroke-miterlimit="10"/>
<path d="M510.122 -10.5978L285.76 526.6" stroke="#357AB6" stroke-width="0.83" stroke-miterlimit="10"/>
<path d="M513.258 -10.5978L288.896 526.6" stroke="#357AB6" stroke-width="0.83" stroke-miterlimit="10"/>
<path d="M516.399 -10.5978L292.04 526.6" stroke="#357AB6" stroke-width="0.83" stroke-miterlimit="10"/>
<path d="M519.524 -10.5978L295.165 526.6" stroke="#357AB6" stroke-width="0.83" stroke-miterlimit="10"/>
<path d="M522.66 -10.5978L298.301 526.6" stroke="#357AB6" stroke-width="0.83" stroke-miterlimit="10"/>
<path d="M525.799 -10.5978L301.438 526.6" stroke="#357AB6" stroke-width="0.83" stroke-miterlimit="10"/>
<path d="M528.936 -10.5978L304.574 526.6" stroke="#357AB6" stroke-width="0.83" stroke-miterlimit="10"/>
<path d="M532.072 -10.5978L307.71 526.6" stroke="#357AB6" stroke-width="0.83" stroke-miterlimit="10"/>
<path d="M535.209 -10.5978L310.85 526.6" stroke="#357AB6" stroke-width="0.83" stroke-miterlimit="10"/>
<path d="M538.345 -10.5978L313.985 526.6" stroke="#357AB6" stroke-width="0.83" stroke-miterlimit="10"/>
<path d="M541.481 -10.5978L317.122 526.6" stroke="#357AB6" stroke-width="0.83" stroke-miterlimit="10"/>
<path d="M544.622 -10.5978L320.26 526.6" stroke="#357AB6" stroke-width="0.83" stroke-miterlimit="10"/>
</g>
</g>
</svg>
