<svg width="945" height="150" viewBox="0 0 945 150" fill="none" xmlns="http://www.w3.org/2000/svg">
<g opacity="0.3">
<mask id="mask0_719_409" style="mask-type:luminance" maskUnits="userSpaceOnUse" x="-55" y="0" width="1000" height="150">
<path d="M945 0H-55V150H945V0Z" fill="white"/>
</mask>
<g mask="url(#mask0_719_409)">
<path opacity="0.15" d="M1179 0.00012207H-56V243.585H1179V0.00012207Z" fill="#1262A9"/>
<path d="M1.30897 -5.17822L-864.578 257.305" stroke="#357AB6" stroke-width="0.83" stroke-miterlimit="10"/>
<path d="M13.4125 -5.17822L-852.475 257.305" stroke="#357AB6" stroke-width="0.83" stroke-miterlimit="10"/>
<path d="M25.5255 -5.17822L-840.371 257.305" stroke="#357AB6" stroke-width="0.83" stroke-miterlimit="10"/>
<path d="M37.63 -5.17822L-828.267 257.305" stroke="#357AB6" stroke-width="0.83" stroke-miterlimit="10"/>
<path d="M49.7335 -5.17822L-816.163 257.305" stroke="#357AB6" stroke-width="0.83" stroke-miterlimit="10"/>
<path d="M61.838 -5.17822L-804.059 257.305" stroke="#357AB6" stroke-width="0.83" stroke-miterlimit="10"/>
<path d="M73.9418 -5.17822L-791.945 257.305" stroke="#357AB6" stroke-width="0.83" stroke-miterlimit="10"/>
<path d="M86.0453 -5.17822L-779.842 257.305" stroke="#357AB6" stroke-width="0.83" stroke-miterlimit="10"/>
<path d="M98.1593 -5.17822L-767.737 257.305" stroke="#357AB6" stroke-width="0.83" stroke-miterlimit="10"/>
<path d="M110.263 -5.17822L-755.634 257.305" stroke="#357AB6" stroke-width="0.83" stroke-miterlimit="10"/>
<path d="M122.367 -5.17822L-743.529 257.305" stroke="#357AB6" stroke-width="0.83" stroke-miterlimit="10"/>
<path d="M134.471 -5.17822L-731.426 257.305" stroke="#357AB6" stroke-width="0.83" stroke-miterlimit="10"/>
<path d="M146.575 -5.17822L-719.312 257.305" stroke="#357AB6" stroke-width="0.83" stroke-miterlimit="10"/>
<path d="M158.678 -5.17822L-707.209 257.305" stroke="#357AB6" stroke-width="0.83" stroke-miterlimit="10"/>
<path d="M170.792 -5.17822L-695.104 257.305" stroke="#357AB6" stroke-width="0.83" stroke-miterlimit="10"/>
<path d="M182.896 -5.17822L-683.001 257.305" stroke="#357AB6" stroke-width="0.83" stroke-miterlimit="10"/>
<path d="M195 -5.17822L-670.896 257.305" stroke="#357AB6" stroke-width="0.83" stroke-miterlimit="10"/>
<path d="M207.104 -5.17822L-658.793 257.305" stroke="#357AB6" stroke-width="0.83" stroke-miterlimit="10"/>
<path d="M219.207 -5.17822L-646.68 257.305" stroke="#357AB6" stroke-width="0.83" stroke-miterlimit="10"/>
<path d="M231.312 -5.17822L-634.575 257.305" stroke="#357AB6" stroke-width="0.83" stroke-miterlimit="10"/>
<path d="M243.425 -5.17822L-622.472 257.305" stroke="#357AB6" stroke-width="0.83" stroke-miterlimit="10"/>
<path d="M255.529 -5.17822L-610.367 257.305" stroke="#357AB6" stroke-width="0.83" stroke-miterlimit="10"/>
<path d="M267.633 -5.17822L-598.264 257.305" stroke="#357AB6" stroke-width="0.83" stroke-miterlimit="10"/>
<path d="M279.736 -5.17822L-586.16 257.305" stroke="#357AB6" stroke-width="0.83" stroke-miterlimit="10"/>
<path d="M291.841 -5.17822L-574.046 257.305" stroke="#357AB6" stroke-width="0.83" stroke-miterlimit="10"/>
<path d="M303.945 -5.17822L-561.942 257.305" stroke="#357AB6" stroke-width="0.83" stroke-miterlimit="10"/>
<path d="M316.049 -5.17822L-549.838 257.305" stroke="#357AB6" stroke-width="0.83" stroke-miterlimit="10"/>
<path d="M328.162 -5.17822L-537.734 257.305" stroke="#357AB6" stroke-width="0.83" stroke-miterlimit="10"/>
<path d="M340.266 -5.17822L-525.631 257.305" stroke="#357AB6" stroke-width="0.83" stroke-miterlimit="10"/>
<path d="M352.37 -5.17822L-513.526 257.305" stroke="#357AB6" stroke-width="0.83" stroke-miterlimit="10"/>
<path d="M364.474 -5.17822L-501.413 257.305" stroke="#357AB6" stroke-width="0.83" stroke-miterlimit="10"/>
<path d="M376.578 -5.17822L-489.31 257.305" stroke="#357AB6" stroke-width="0.83" stroke-miterlimit="10"/>
<path d="M388.682 -5.17822L-477.205 257.305" stroke="#357AB6" stroke-width="0.83" stroke-miterlimit="10"/>
<path d="M400.795 -5.17822L-465.102 257.305" stroke="#357AB6" stroke-width="0.83" stroke-miterlimit="10"/>
<path d="M412.9 -5.17822L-452.997 257.305" stroke="#357AB6" stroke-width="0.83" stroke-miterlimit="10"/>
<path d="M425.003 -5.17822L-440.894 257.305" stroke="#357AB6" stroke-width="0.83" stroke-miterlimit="10"/>
<path d="M437.107 -5.17822L-428.78 257.305" stroke="#357AB6" stroke-width="0.83" stroke-miterlimit="10"/>
<path d="M449.211 -5.17822L-416.676 257.305" stroke="#357AB6" stroke-width="0.83" stroke-miterlimit="10"/>
<path d="M461.315 -5.17822L-404.572 257.305" stroke="#357AB6" stroke-width="0.83" stroke-miterlimit="10"/>
<path d="M473.428 -5.17822L-392.469 257.305" stroke="#357AB6" stroke-width="0.83" stroke-miterlimit="10"/>
<path d="M485.532 -5.17822L-380.364 257.305" stroke="#357AB6" stroke-width="0.83" stroke-miterlimit="10"/>
<path d="M497.636 -5.17822L-368.261 257.305" stroke="#357AB6" stroke-width="0.83" stroke-miterlimit="10"/>
<path d="M509.74 -5.17822L-356.156 257.305" stroke="#357AB6" stroke-width="0.83" stroke-miterlimit="10"/>
<path d="M521.844 -5.17822L-344.043 257.305" stroke="#357AB6" stroke-width="0.83" stroke-miterlimit="10"/>
<path d="M533.948 -5.17822L-331.939 257.305" stroke="#357AB6" stroke-width="0.83" stroke-miterlimit="10"/>
<path d="M546.062 -5.17822L-319.835 257.305" stroke="#357AB6" stroke-width="0.83" stroke-miterlimit="10"/>
<path d="M558.165 -5.17822L-307.731 257.305" stroke="#357AB6" stroke-width="0.83" stroke-miterlimit="10"/>
<path d="M570.27 -5.17822L-295.627 257.305" stroke="#357AB6" stroke-width="0.83" stroke-miterlimit="10"/>
<path d="M582.373 -5.17822L-283.523 257.305" stroke="#357AB6" stroke-width="0.83" stroke-miterlimit="10"/>
<path d="M594.477 -5.17822L-271.41 257.305" stroke="#357AB6" stroke-width="0.83" stroke-miterlimit="10"/>
<path d="M606.581 -5.17822L-259.306 257.305" stroke="#357AB6" stroke-width="0.83" stroke-miterlimit="10"/>
<path d="M618.694 -5.17822L-247.202 257.305" stroke="#357AB6" stroke-width="0.83" stroke-miterlimit="10"/>
<path d="M630.799 -5.17822L-235.098 257.305" stroke="#357AB6" stroke-width="0.83" stroke-miterlimit="10"/>
<path d="M642.902 -5.17822L-222.994 257.305" stroke="#357AB6" stroke-width="0.83" stroke-miterlimit="10"/>
<path d="M655.006 -5.17822L-210.891 257.305" stroke="#357AB6" stroke-width="0.83" stroke-miterlimit="10"/>
<path d="M667.11 -5.17822L-198.777 257.305" stroke="#357AB6" stroke-width="0.83" stroke-miterlimit="10"/>
<path d="M679.214 -5.17822L-186.673 257.305" stroke="#357AB6" stroke-width="0.83" stroke-miterlimit="10"/>
<path d="M691.327 -5.17822L-174.569 257.305" stroke="#357AB6" stroke-width="0.83" stroke-miterlimit="10"/>
<path d="M703.432 -5.17822L-162.465 257.305" stroke="#357AB6" stroke-width="0.83" stroke-miterlimit="10"/>
<path d="M715.535 -5.17822L-150.361 257.305" stroke="#357AB6" stroke-width="0.83" stroke-miterlimit="10"/>
<path d="M727.64 -5.17822L-138.257 257.305" stroke="#357AB6" stroke-width="0.83" stroke-miterlimit="10"/>
<path d="M739.744 -5.17822L-126.144 257.305" stroke="#357AB6" stroke-width="0.83" stroke-miterlimit="10"/>
<path d="M751.847 -5.17822L-114.04 257.305" stroke="#357AB6" stroke-width="0.83" stroke-miterlimit="10"/>
<path d="M763.961 -5.17822L-101.936 257.305" stroke="#357AB6" stroke-width="0.83" stroke-miterlimit="10"/>
<path d="M776.065 -5.17822L-89.832 257.305" stroke="#357AB6" stroke-width="0.83" stroke-miterlimit="10"/>
<path d="M788.169 -5.17822L-77.7275 257.305" stroke="#357AB6" stroke-width="0.83" stroke-miterlimit="10"/>
<path d="M800.273 -5.17822L-65.624 257.305" stroke="#357AB6" stroke-width="0.83" stroke-miterlimit="10"/>
<path d="M812.376 -5.17822L-53.5107 257.305" stroke="#357AB6" stroke-width="0.83" stroke-miterlimit="10"/>
<path d="M824.48 -5.17822L-41.4072 257.305" stroke="#357AB6" stroke-width="0.83" stroke-miterlimit="10"/>
<path d="M836.594 -5.17822L-29.3027 257.305" stroke="#357AB6" stroke-width="0.83" stroke-miterlimit="10"/>
<path d="M848.697 -5.17822L-17.1992 257.305" stroke="#357AB6" stroke-width="0.83" stroke-miterlimit="10"/>
<path d="M860.802 -5.17822L-5.09473 257.305" stroke="#357AB6" stroke-width="0.83" stroke-miterlimit="10"/>
<path d="M872.905 -5.17822L7.00879 257.305" stroke="#357AB6" stroke-width="0.83" stroke-miterlimit="10"/>
<path d="M885.009 -5.17822L19.1221 257.305" stroke="#357AB6" stroke-width="0.83" stroke-miterlimit="10"/>
<path d="M897.114 -5.17822L31.2266 257.305" stroke="#357AB6" stroke-width="0.83" stroke-miterlimit="10"/>
<path d="M909.227 -5.17822L43.3301 257.305" stroke="#357AB6" stroke-width="0.83" stroke-miterlimit="10"/>
<path d="M921.331 -5.17822L55.4346 257.305" stroke="#357AB6" stroke-width="0.83" stroke-miterlimit="10"/>
<path d="M933.435 -5.17822L67.5381 257.305" stroke="#357AB6" stroke-width="0.83" stroke-miterlimit="10"/>
<path d="M945.538 -5.17822L79.6416 257.305" stroke="#357AB6" stroke-width="0.83" stroke-miterlimit="10"/>
<path d="M957.642 -5.17822L91.7549 257.305" stroke="#357AB6" stroke-width="0.83" stroke-miterlimit="10"/>
<path d="M969.746 -5.17822L103.859 257.305" stroke="#357AB6" stroke-width="0.83" stroke-miterlimit="10"/>
<path d="M981.85 -5.17822L115.963 257.305" stroke="#357AB6" stroke-width="0.83" stroke-miterlimit="10"/>
<path d="M993.964 -5.17822L128.067 257.305" stroke="#357AB6" stroke-width="0.83" stroke-miterlimit="10"/>
<path d="M1006.07 -5.17822L140.171 257.305" stroke="#357AB6" stroke-width="0.83" stroke-miterlimit="10"/>
<path d="M1018.17 -5.17822L152.274 257.305" stroke="#357AB6" stroke-width="0.83" stroke-miterlimit="10"/>
<path d="M1030.28 -5.17822L164.389 257.305" stroke="#357AB6" stroke-width="0.83" stroke-miterlimit="10"/>
<path d="M1042.38 -5.17822L176.492 257.305" stroke="#357AB6" stroke-width="0.83" stroke-miterlimit="10"/>
<path d="M1054.48 -5.17822L188.597 257.305" stroke="#357AB6" stroke-width="0.83" stroke-miterlimit="10"/>
<path d="M1065.35 -5.17822L199.465 257.305" stroke="#357AB6" stroke-width="0.83" stroke-miterlimit="10"/>
<path d="M1077.46 -5.17822L211.568 257.305" stroke="#357AB6" stroke-width="0.83" stroke-miterlimit="10"/>
<path d="M1089.57 -5.17822L223.673 257.305" stroke="#357AB6" stroke-width="0.83" stroke-miterlimit="10"/>
<path d="M1101.67 -5.17822L235.776 257.305" stroke="#357AB6" stroke-width="0.83" stroke-miterlimit="10"/>
<path d="M1113.78 -5.17822L247.88 257.305" stroke="#357AB6" stroke-width="0.83" stroke-miterlimit="10"/>
<path d="M1125.88 -5.17822L259.994 257.305" stroke="#357AB6" stroke-width="0.83" stroke-miterlimit="10"/>
<path d="M1137.98 -5.17822L272.098 257.305" stroke="#357AB6" stroke-width="0.83" stroke-miterlimit="10"/>
<path d="M1150.09 -5.17822L284.202 257.305" stroke="#357AB6" stroke-width="0.83" stroke-miterlimit="10"/>
<path d="M1162.2 -5.17822L296.306 257.305" stroke="#357AB6" stroke-width="0.83" stroke-miterlimit="10"/>
<path d="M1174.31 -5.17822L308.41 257.305" stroke="#357AB6" stroke-width="0.83" stroke-miterlimit="10"/>
<path d="M1186.41 -5.17822L320.514 257.305" stroke="#357AB6" stroke-width="0.83" stroke-miterlimit="10"/>
<path d="M1198.51 -5.17822L332.627 257.305" stroke="#357AB6" stroke-width="0.83" stroke-miterlimit="10"/>
<path d="M1210.62 -5.17822L344.731 257.305" stroke="#357AB6" stroke-width="0.83" stroke-miterlimit="10"/>
<path d="M1222.72 -5.17822L356.835 257.305" stroke="#357AB6" stroke-width="0.83" stroke-miterlimit="10"/>
<path d="M1234.84 -5.17822L368.938 257.305" stroke="#357AB6" stroke-width="0.83" stroke-miterlimit="10"/>
<path d="M1246.94 -5.17822L381.043 257.305" stroke="#357AB6" stroke-width="0.83" stroke-miterlimit="10"/>
<path d="M1259.04 -5.17822L393.146 257.305" stroke="#357AB6" stroke-width="0.83" stroke-miterlimit="10"/>
<path d="M1271.15 -5.17822L405.26 257.305" stroke="#357AB6" stroke-width="0.83" stroke-miterlimit="10"/>
<path d="M1283.25 -5.17822L417.364 257.305" stroke="#357AB6" stroke-width="0.83" stroke-miterlimit="10"/>
<path d="M1295.35 -5.17822L429.468 257.305" stroke="#357AB6" stroke-width="0.83" stroke-miterlimit="10"/>
<path d="M1307.47 -5.17822L441.572 257.305" stroke="#357AB6" stroke-width="0.83" stroke-miterlimit="10"/>
<path d="M1319.57 -5.17822L453.676 257.305" stroke="#357AB6" stroke-width="0.83" stroke-miterlimit="10"/>
<path d="M1331.68 -5.17822L465.779 257.305" stroke="#357AB6" stroke-width="0.83" stroke-miterlimit="10"/>
<path d="M1343.78 -5.17822L477.894 257.305" stroke="#357AB6" stroke-width="0.83" stroke-miterlimit="10"/>
<path d="M1355.88 -5.17822L489.997 257.305" stroke="#357AB6" stroke-width="0.83" stroke-miterlimit="10"/>
<path d="M1367.99 -5.17822L502.102 257.305" stroke="#357AB6" stroke-width="0.83" stroke-miterlimit="10"/>
<path d="M1380.1 -5.17822L514.205 257.305" stroke="#357AB6" stroke-width="0.83" stroke-miterlimit="10"/>
<path d="M1392.21 -5.17822L526.309 257.305" stroke="#357AB6" stroke-width="0.83" stroke-miterlimit="10"/>
<path d="M1404.31 -5.17822L538.413 257.305" stroke="#357AB6" stroke-width="0.83" stroke-miterlimit="10"/>
<path d="M1416.41 -5.17822L550.517 257.305" stroke="#357AB6" stroke-width="0.83" stroke-miterlimit="10"/>
<path d="M1428.52 -5.17822L562.63 257.305" stroke="#357AB6" stroke-width="0.83" stroke-miterlimit="10"/>
<path d="M1440.62 -5.17822L574.734 257.305" stroke="#357AB6" stroke-width="0.83" stroke-miterlimit="10"/>
<path d="M1452.73 -5.17822L586.838 257.305" stroke="#357AB6" stroke-width="0.83" stroke-miterlimit="10"/>
<path d="M1464.84 -5.17822L598.941 257.305" stroke="#357AB6" stroke-width="0.83" stroke-miterlimit="10"/>
<path d="M1476.94 -5.17822L611.045 257.305" stroke="#357AB6" stroke-width="0.83" stroke-miterlimit="10"/>
<path d="M1489.05 -5.17822L623.149 257.305" stroke="#357AB6" stroke-width="0.83" stroke-miterlimit="10"/>
<path d="M1501.15 -5.17822L635.263 257.305" stroke="#357AB6" stroke-width="0.83" stroke-miterlimit="10"/>
<path d="M1513.25 -5.17822L647.367 257.305" stroke="#357AB6" stroke-width="0.83" stroke-miterlimit="10"/>
<path d="M1525.37 -5.17822L659.471 257.305" stroke="#357AB6" stroke-width="0.83" stroke-miterlimit="10"/>
<path d="M1537.47 -5.17822L671.575 257.305" stroke="#357AB6" stroke-width="0.83" stroke-miterlimit="10"/>
<path d="M1549.58 -5.17822L683.679 257.305" stroke="#357AB6" stroke-width="0.83" stroke-miterlimit="10"/>
<path d="M1561.68 -5.17822L695.783 257.305" stroke="#357AB6" stroke-width="0.83" stroke-miterlimit="10"/>
<path d="M1573.78 -5.17822L707.896 257.305" stroke="#357AB6" stroke-width="0.83" stroke-miterlimit="10"/>
<path d="M1585.89 -5.17822L720 257.305" stroke="#357AB6" stroke-width="0.83" stroke-miterlimit="10"/>
<path d="M1598 -5.17822L732.104 257.305" stroke="#357AB6" stroke-width="0.83" stroke-miterlimit="10"/>
<path d="M1610.1 -5.17822L744.208 257.305" stroke="#357AB6" stroke-width="0.83" stroke-miterlimit="10"/>
<path d="M1622.21 -5.17822L756.312 257.305" stroke="#357AB6" stroke-width="0.83" stroke-miterlimit="10"/>
<path d="M1634.31 -5.17822L768.416 257.305" stroke="#357AB6" stroke-width="0.83" stroke-miterlimit="10"/>
<path d="M1646.42 -5.17822L780.529 257.305" stroke="#357AB6" stroke-width="0.83" stroke-miterlimit="10"/>
<path d="M1658.52 -5.17822L792.633 257.305" stroke="#357AB6" stroke-width="0.83" stroke-miterlimit="10"/>
<path d="M1670.63 -5.17822L804.737 257.305" stroke="#357AB6" stroke-width="0.83" stroke-miterlimit="10"/>
<path d="M1682.74 -5.17822L816.841 257.305" stroke="#357AB6" stroke-width="0.83" stroke-miterlimit="10"/>
<path d="M1694.84 -5.17822L828.945 257.305" stroke="#357AB6" stroke-width="0.83" stroke-miterlimit="10"/>
<path d="M1706.95 -5.17822L841.049 257.305" stroke="#357AB6" stroke-width="0.83" stroke-miterlimit="10"/>
<path d="M1719.05 -5.17822L853.162 257.305" stroke="#357AB6" stroke-width="0.83" stroke-miterlimit="10"/>
<path d="M1731.15 -5.17822L865.267 257.305" stroke="#357AB6" stroke-width="0.83" stroke-miterlimit="10"/>
<path d="M1743.27 -5.17822L877.37 257.305" stroke="#357AB6" stroke-width="0.83" stroke-miterlimit="10"/>
<path d="M1755.37 -5.17822L889.475 257.305" stroke="#357AB6" stroke-width="0.83" stroke-miterlimit="10"/>
<path d="M1767.47 -5.17822L901.578 257.305" stroke="#357AB6" stroke-width="0.83" stroke-miterlimit="10"/>
<path d="M1779.58 -5.17822L913.682 257.305" stroke="#357AB6" stroke-width="0.83" stroke-miterlimit="10"/>
<path d="M1791.68 -5.17822L925.796 257.305" stroke="#357AB6" stroke-width="0.83" stroke-miterlimit="10"/>
<path d="M1803.79 -5.17822L937.899 257.305" stroke="#357AB6" stroke-width="0.83" stroke-miterlimit="10"/>
</g>
</g>
</svg>
