<svg width="1175" height="286" viewBox="0 0 1175 286" fill="none" xmlns="http://www.w3.org/2000/svg">
<g opacity="0.3">
<mask id="mask0_324_2904" style="mask-type:luminance" maskUnits="userSpaceOnUse" x="0" y="0" width="1175" height="286">
<path d="M1175 0H0V286H1175V0Z" fill="white"/>
</mask>
<g mask="url(#mask0_324_2904)">
<path opacity="0.15" d="M1175 0H0V310.625H1175V0Z" fill="#1262A9"/>
<path d="M31.4928 -6.60352L-792.336 328.122" stroke="#357AB6" stroke-width="0.83" stroke-miterlimit="10"/>
<path d="M43.0084 -6.60352L-780.82 328.122" stroke="#357AB6" stroke-width="0.83" stroke-miterlimit="10"/>
<path d="M54.5238 -6.60352L-769.296 328.122" stroke="#357AB6" stroke-width="0.83" stroke-miterlimit="10"/>
<path d="M66.0404 -6.60352L-757.779 328.122" stroke="#357AB6" stroke-width="0.83" stroke-miterlimit="10"/>
<path d="M77.5651 -6.60352L-746.264 328.122" stroke="#357AB6" stroke-width="0.83" stroke-miterlimit="10"/>
<path d="M89.0807 -6.60352L-734.748 328.122" stroke="#357AB6" stroke-width="0.83" stroke-miterlimit="10"/>
<path d="M100.596 -6.60352L-723.232 328.122" stroke="#357AB6" stroke-width="0.83" stroke-miterlimit="10"/>
<path d="M112.113 -6.60352L-711.716 328.122" stroke="#357AB6" stroke-width="0.83" stroke-miterlimit="10"/>
<path d="M123.629 -6.60352L-700.19 328.122" stroke="#357AB6" stroke-width="0.83" stroke-miterlimit="10"/>
<path d="M135.145 -6.60352L-688.675 328.122" stroke="#357AB6" stroke-width="0.83" stroke-miterlimit="10"/>
<path d="M146.67 -6.60352L-677.159 328.122" stroke="#357AB6" stroke-width="0.83" stroke-miterlimit="10"/>
<path d="M158.185 -6.60352L-665.644 328.122" stroke="#357AB6" stroke-width="0.83" stroke-miterlimit="10"/>
<path d="M169.701 -6.60352L-654.128 328.122" stroke="#357AB6" stroke-width="0.83" stroke-miterlimit="10"/>
<path d="M181.217 -6.60352L-642.611 328.122" stroke="#357AB6" stroke-width="0.83" stroke-miterlimit="10"/>
<path d="M192.733 -6.60352L-631.087 328.122" stroke="#357AB6" stroke-width="0.83" stroke-miterlimit="10"/>
<path d="M204.248 -6.60352L-619.571 328.122" stroke="#357AB6" stroke-width="0.83" stroke-miterlimit="10"/>
<path d="M215.773 -6.60352L-608.056 328.122" stroke="#357AB6" stroke-width="0.83" stroke-miterlimit="10"/>
<path d="M227.29 -6.60352L-596.539 328.122" stroke="#357AB6" stroke-width="0.83" stroke-miterlimit="10"/>
<path d="M238.805 -6.60352L-585.023 328.122" stroke="#357AB6" stroke-width="0.83" stroke-miterlimit="10"/>
<path d="M250.321 -6.60352L-573.508 328.122" stroke="#357AB6" stroke-width="0.83" stroke-miterlimit="10"/>
<path d="M261.837 -6.60352L-561.982 328.122" stroke="#357AB6" stroke-width="0.83" stroke-miterlimit="10"/>
<path d="M273.354 -6.60352L-550.466 328.122" stroke="#357AB6" stroke-width="0.83" stroke-miterlimit="10"/>
<path d="M284.878 -6.60352L-538.951 328.122" stroke="#357AB6" stroke-width="0.83" stroke-miterlimit="10"/>
<path d="M296.394 -6.60352L-527.435 328.122" stroke="#357AB6" stroke-width="0.83" stroke-miterlimit="10"/>
<path d="M307.91 -6.60352L-515.919 328.122" stroke="#357AB6" stroke-width="0.83" stroke-miterlimit="10"/>
<path d="M319.425 -6.60352L-504.403 328.122" stroke="#357AB6" stroke-width="0.83" stroke-miterlimit="10"/>
<path d="M330.942 -6.60352L-492.878 328.122" stroke="#357AB6" stroke-width="0.83" stroke-miterlimit="10"/>
<path d="M342.457 -6.60352L-481.362 328.122" stroke="#357AB6" stroke-width="0.83" stroke-miterlimit="10"/>
<path d="M353.973 -6.60352L-469.847 328.122" stroke="#357AB6" stroke-width="0.83" stroke-miterlimit="10"/>
<path d="M365.499 -6.60352L-458.33 328.122" stroke="#357AB6" stroke-width="0.83" stroke-miterlimit="10"/>
<path d="M377.014 -6.60352L-446.814 328.122" stroke="#357AB6" stroke-width="0.83" stroke-miterlimit="10"/>
<path d="M388.53 -6.60352L-435.299 328.122" stroke="#357AB6" stroke-width="0.83" stroke-miterlimit="10"/>
<path d="M400.046 -6.60352L-423.773 328.122" stroke="#357AB6" stroke-width="0.83" stroke-miterlimit="10"/>
<path d="M411.562 -6.60352L-412.258 328.122" stroke="#357AB6" stroke-width="0.83" stroke-miterlimit="10"/>
<path d="M423.078 -6.60352L-400.742 328.122" stroke="#357AB6" stroke-width="0.83" stroke-miterlimit="10"/>
<path d="M434.602 -6.60352L-389.227 328.122" stroke="#357AB6" stroke-width="0.83" stroke-miterlimit="10"/>
<path d="M446.119 -6.60352L-377.71 328.122" stroke="#357AB6" stroke-width="0.83" stroke-miterlimit="10"/>
<path d="M457.634 -6.60352L-366.194 328.122" stroke="#357AB6" stroke-width="0.83" stroke-miterlimit="10"/>
<path d="M469.15 -6.60352L-354.67 328.122" stroke="#357AB6" stroke-width="0.83" stroke-miterlimit="10"/>
<path d="M480.666 -6.60352L-343.153 328.122" stroke="#357AB6" stroke-width="0.83" stroke-miterlimit="10"/>
<path d="M492.182 -6.60352L-331.638 328.122" stroke="#357AB6" stroke-width="0.83" stroke-miterlimit="10"/>
<path d="M503.707 -6.60352L-320.122 328.122" stroke="#357AB6" stroke-width="0.83" stroke-miterlimit="10"/>
<path d="M515.222 -6.60352L-308.606 328.122" stroke="#357AB6" stroke-width="0.83" stroke-miterlimit="10"/>
<path d="M526.739 -6.60352L-297.09 328.122" stroke="#357AB6" stroke-width="0.83" stroke-miterlimit="10"/>
<path d="M538.255 -6.60352L-285.574 328.122" stroke="#357AB6" stroke-width="0.83" stroke-miterlimit="10"/>
<path d="M549.771 -6.60352L-274.049 328.122" stroke="#357AB6" stroke-width="0.83" stroke-miterlimit="10"/>
<path d="M561.287 -6.60352L-262.533 328.122" stroke="#357AB6" stroke-width="0.83" stroke-miterlimit="10"/>
<path d="M572.811 -6.60352L-251.018 328.122" stroke="#357AB6" stroke-width="0.83" stroke-miterlimit="10"/>
<path d="M584.328 -6.60352L-239.501 328.122" stroke="#357AB6" stroke-width="0.83" stroke-miterlimit="10"/>
<path d="M595.843 -6.60352L-227.985 328.122" stroke="#357AB6" stroke-width="0.83" stroke-miterlimit="10"/>
<path d="M607.359 -6.60352L-216.47 328.122" stroke="#357AB6" stroke-width="0.83" stroke-miterlimit="10"/>
<path d="M618.874 -6.60352L-204.945 328.122" stroke="#357AB6" stroke-width="0.83" stroke-miterlimit="10"/>
<path d="M630.391 -6.60352L-193.429 328.122" stroke="#357AB6" stroke-width="0.83" stroke-miterlimit="10"/>
<path d="M641.916 -6.60352L-181.913 328.122" stroke="#357AB6" stroke-width="0.83" stroke-miterlimit="10"/>
<path d="M653.431 -6.60352L-170.397 328.122" stroke="#357AB6" stroke-width="0.83" stroke-miterlimit="10"/>
<path d="M664.948 -6.60352L-158.881 328.122" stroke="#357AB6" stroke-width="0.83" stroke-miterlimit="10"/>
<path d="M676.464 -6.60352L-147.365 328.122" stroke="#357AB6" stroke-width="0.83" stroke-miterlimit="10"/>
<path d="M687.98 -6.60352L-135.84 328.122" stroke="#357AB6" stroke-width="0.83" stroke-miterlimit="10"/>
<path d="M699.495 -6.60352L-124.324 328.122" stroke="#357AB6" stroke-width="0.83" stroke-miterlimit="10"/>
<path d="M711.02 -6.60352L-112.809 328.122" stroke="#357AB6" stroke-width="0.83" stroke-miterlimit="10"/>
<path d="M722.536 -6.60352L-101.293 328.122" stroke="#357AB6" stroke-width="0.83" stroke-miterlimit="10"/>
<path d="M734.051 -6.60352L-89.7773 328.122" stroke="#357AB6" stroke-width="0.83" stroke-miterlimit="10"/>
<path d="M745.568 -6.60352L-78.2607 328.122" stroke="#357AB6" stroke-width="0.83" stroke-miterlimit="10"/>
<path d="M757.084 -6.60352L-66.7354 328.122" stroke="#357AB6" stroke-width="0.83" stroke-miterlimit="10"/>
<path d="M768.599 -6.60352L-55.2207 328.122" stroke="#357AB6" stroke-width="0.83" stroke-miterlimit="10"/>
<path d="M780.125 -6.60352L-43.7041 328.122" stroke="#357AB6" stroke-width="0.83" stroke-miterlimit="10"/>
<path d="M791.64 -6.60352L-32.1885 328.122" stroke="#357AB6" stroke-width="0.83" stroke-miterlimit="10"/>
<path d="M803.156 -6.60352L-20.6729 328.122" stroke="#357AB6" stroke-width="0.83" stroke-miterlimit="10"/>
<path d="M814.672 -6.60352L-9.15625 328.122" stroke="#357AB6" stroke-width="0.83" stroke-miterlimit="10"/>
<path d="M826.188 -6.60352L2.36816 328.122" stroke="#357AB6" stroke-width="0.83" stroke-miterlimit="10"/>
<path d="M837.704 -6.60352L13.8848 328.122" stroke="#357AB6" stroke-width="0.83" stroke-miterlimit="10"/>
<path d="M849.229 -6.60352L25.4004 328.122" stroke="#357AB6" stroke-width="0.83" stroke-miterlimit="10"/>
<path d="M860.745 -6.60352L36.916 328.122" stroke="#357AB6" stroke-width="0.83" stroke-miterlimit="10"/>
<path d="M872.26 -6.60352L48.4316 328.122" stroke="#357AB6" stroke-width="0.83" stroke-miterlimit="10"/>
<path d="M883.777 -6.60352L59.9482 328.122" stroke="#357AB6" stroke-width="0.83" stroke-miterlimit="10"/>
<path d="M895.292 -6.60352L71.4727 328.122" stroke="#357AB6" stroke-width="0.83" stroke-miterlimit="10"/>
<path d="M906.808 -6.60352L82.9883 328.122" stroke="#357AB6" stroke-width="0.83" stroke-miterlimit="10"/>
<path d="M918.333 -6.60352L94.5039 328.122" stroke="#357AB6" stroke-width="0.83" stroke-miterlimit="10"/>
<path d="M929.849 -6.60352L106.021 328.122" stroke="#357AB6" stroke-width="0.83" stroke-miterlimit="10"/>
<path d="M941.365 -6.60352L117.536 328.122" stroke="#357AB6" stroke-width="0.83" stroke-miterlimit="10"/>
<path d="M952.88 -6.60352L129.052 328.122" stroke="#357AB6" stroke-width="0.83" stroke-miterlimit="10"/>
<path d="M964.397 -6.60352L140.577 328.122" stroke="#357AB6" stroke-width="0.83" stroke-miterlimit="10"/>
<path d="M975.912 -6.60352L152.093 328.122" stroke="#357AB6" stroke-width="0.83" stroke-miterlimit="10"/>
<path d="M987.428 -6.60352L163.608 328.122" stroke="#357AB6" stroke-width="0.83" stroke-miterlimit="10"/>
<path d="M998.954 -6.60352L175.125 328.122" stroke="#357AB6" stroke-width="0.83" stroke-miterlimit="10"/>
<path d="M1010.47 -6.60352L186.641 328.122" stroke="#357AB6" stroke-width="0.83" stroke-miterlimit="10"/>
<path d="M1021.98 -6.60352L198.156 328.122" stroke="#357AB6" stroke-width="0.83" stroke-miterlimit="10"/>
<path d="M1033.5 -6.60352L209.681 328.122" stroke="#357AB6" stroke-width="0.83" stroke-miterlimit="10"/>
<path d="M1045.02 -6.60352L221.197 328.122" stroke="#357AB6" stroke-width="0.83" stroke-miterlimit="10"/>
<path d="M1056.53 -6.60352L232.714 328.122" stroke="#357AB6" stroke-width="0.83" stroke-miterlimit="10"/>
<path d="M1066.87 -6.60352L243.054 328.122" stroke="#357AB6" stroke-width="0.83" stroke-miterlimit="10"/>
<path d="M1078.4 -6.60352L254.569 328.122" stroke="#357AB6" stroke-width="0.83" stroke-miterlimit="10"/>
<path d="M1089.91 -6.60352L266.085 328.122" stroke="#357AB6" stroke-width="0.83" stroke-miterlimit="10"/>
<path d="M1101.43 -6.60352L277.601 328.122" stroke="#357AB6" stroke-width="0.83" stroke-miterlimit="10"/>
<path d="M1112.95 -6.60352L289.117 328.122" stroke="#357AB6" stroke-width="0.83" stroke-miterlimit="10"/>
<path d="M1124.46 -6.60352L300.642 328.122" stroke="#357AB6" stroke-width="0.83" stroke-miterlimit="10"/>
<path d="M1135.98 -6.60352L312.157 328.122" stroke="#357AB6" stroke-width="0.83" stroke-miterlimit="10"/>
<path d="M1147.49 -6.60352L323.674 328.122" stroke="#357AB6" stroke-width="0.83" stroke-miterlimit="10"/>
<path d="M1159.02 -6.60352L335.189 328.122" stroke="#357AB6" stroke-width="0.83" stroke-miterlimit="10"/>
<path d="M1170.53 -6.60352L346.705 328.122" stroke="#357AB6" stroke-width="0.83" stroke-miterlimit="10"/>
<path d="M1182.05 -6.60352L358.222 328.122" stroke="#357AB6" stroke-width="0.83" stroke-miterlimit="10"/>
<path d="M1193.57 -6.60352L369.746 328.122" stroke="#357AB6" stroke-width="0.83" stroke-miterlimit="10"/>
<path d="M1205.08 -6.60352L381.263 328.122" stroke="#357AB6" stroke-width="0.83" stroke-miterlimit="10"/>
<path d="M1216.6 -6.60352L392.778 328.122" stroke="#357AB6" stroke-width="0.83" stroke-miterlimit="10"/>
<path d="M1228.12 -6.60352L404.294 328.122" stroke="#357AB6" stroke-width="0.83" stroke-miterlimit="10"/>
<path d="M1239.64 -6.60352L415.81 328.122" stroke="#357AB6" stroke-width="0.83" stroke-miterlimit="10"/>
<path d="M1251.15 -6.60352L427.325 328.122" stroke="#357AB6" stroke-width="0.83" stroke-miterlimit="10"/>
<path d="M1262.67 -6.60352L438.851 328.122" stroke="#357AB6" stroke-width="0.83" stroke-miterlimit="10"/>
<path d="M1274.19 -6.60352L450.366 328.122" stroke="#357AB6" stroke-width="0.83" stroke-miterlimit="10"/>
<path d="M1285.7 -6.60352L461.882 328.122" stroke="#357AB6" stroke-width="0.83" stroke-miterlimit="10"/>
<path d="M1297.23 -6.60352L473.398 328.122" stroke="#357AB6" stroke-width="0.83" stroke-miterlimit="10"/>
<path d="M1308.74 -6.60352L484.914 328.122" stroke="#357AB6" stroke-width="0.83" stroke-miterlimit="10"/>
<path d="M1320.26 -6.60352L496.43 328.122" stroke="#357AB6" stroke-width="0.83" stroke-miterlimit="10"/>
<path d="M1331.77 -6.60352L507.955 328.122" stroke="#357AB6" stroke-width="0.83" stroke-miterlimit="10"/>
<path d="M1343.29 -6.60352L519.471 328.122" stroke="#357AB6" stroke-width="0.83" stroke-miterlimit="10"/>
<path d="M1354.81 -6.60352L530.986 328.122" stroke="#357AB6" stroke-width="0.83" stroke-miterlimit="10"/>
<path d="M1366.33 -6.60352L542.503 328.122" stroke="#357AB6" stroke-width="0.83" stroke-miterlimit="10"/>
<path d="M1377.85 -6.60352L554.019 328.122" stroke="#357AB6" stroke-width="0.83" stroke-miterlimit="10"/>
<path d="M1389.36 -6.60352L565.534 328.122" stroke="#357AB6" stroke-width="0.83" stroke-miterlimit="10"/>
<path d="M1400.88 -6.60352L577.05 328.122" stroke="#357AB6" stroke-width="0.83" stroke-miterlimit="10"/>
<path d="M1412.39 -6.60352L588.575 328.122" stroke="#357AB6" stroke-width="0.83" stroke-miterlimit="10"/>
<path d="M1423.91 -6.60352L600.091 328.122" stroke="#357AB6" stroke-width="0.83" stroke-miterlimit="10"/>
<path d="M1435.44 -6.60352L611.606 328.122" stroke="#357AB6" stroke-width="0.83" stroke-miterlimit="10"/>
<path d="M1446.95 -6.60352L623.123 328.122" stroke="#357AB6" stroke-width="0.83" stroke-miterlimit="10"/>
<path d="M1458.47 -6.60352L634.639 328.122" stroke="#357AB6" stroke-width="0.83" stroke-miterlimit="10"/>
<path d="M1469.98 -6.60352L646.154 328.122" stroke="#357AB6" stroke-width="0.83" stroke-miterlimit="10"/>
<path d="M1481.5 -6.60352L657.68 328.122" stroke="#357AB6" stroke-width="0.83" stroke-miterlimit="10"/>
<path d="M1493.02 -6.60352L669.195 328.122" stroke="#357AB6" stroke-width="0.83" stroke-miterlimit="10"/>
<path d="M1504.54 -6.60352L680.711 328.122" stroke="#357AB6" stroke-width="0.83" stroke-miterlimit="10"/>
<path d="M1516.06 -6.60352L692.228 328.122" stroke="#357AB6" stroke-width="0.83" stroke-miterlimit="10"/>
<path d="M1527.57 -6.60352L703.743 328.122" stroke="#357AB6" stroke-width="0.83" stroke-miterlimit="10"/>
<path d="M1539.09 -6.60352L715.259 328.122" stroke="#357AB6" stroke-width="0.83" stroke-miterlimit="10"/>
<path d="M1550.6 -6.60352L726.783 328.122" stroke="#357AB6" stroke-width="0.83" stroke-miterlimit="10"/>
<path d="M1562.12 -6.60352L738.3 328.122" stroke="#357AB6" stroke-width="0.83" stroke-miterlimit="10"/>
<path d="M1573.64 -6.60352L749.815 328.122" stroke="#357AB6" stroke-width="0.83" stroke-miterlimit="10"/>
<path d="M1585.16 -6.60352L761.331 328.122" stroke="#357AB6" stroke-width="0.83" stroke-miterlimit="10"/>
<path d="M1596.68 -6.60352L772.848 328.122" stroke="#357AB6" stroke-width="0.83" stroke-miterlimit="10"/>
<path d="M1608.19 -6.60352L784.363 328.122" stroke="#357AB6" stroke-width="0.83" stroke-miterlimit="10"/>
<path d="M1619.71 -6.60352L795.889 328.122" stroke="#357AB6" stroke-width="0.83" stroke-miterlimit="10"/>
<path d="M1631.22 -6.60352L807.404 328.122" stroke="#357AB6" stroke-width="0.83" stroke-miterlimit="10"/>
<path d="M1642.75 -6.60352L818.92 328.122" stroke="#357AB6" stroke-width="0.83" stroke-miterlimit="10"/>
<path d="M1654.26 -6.60352L830.436 328.122" stroke="#357AB6" stroke-width="0.83" stroke-miterlimit="10"/>
<path d="M1665.78 -6.60352L841.951 328.122" stroke="#357AB6" stroke-width="0.83" stroke-miterlimit="10"/>
<path d="M1677.3 -6.60352L853.468 328.122" stroke="#357AB6" stroke-width="0.83" stroke-miterlimit="10"/>
<path d="M1688.81 -6.60352L864.993 328.122" stroke="#357AB6" stroke-width="0.83" stroke-miterlimit="10"/>
<path d="M1700.33 -6.60352L876.509 328.122" stroke="#357AB6" stroke-width="0.83" stroke-miterlimit="10"/>
<path d="M1711.85 -6.60352L888.024 328.122" stroke="#357AB6" stroke-width="0.83" stroke-miterlimit="10"/>
<path d="M1723.37 -6.60352L899.54 328.122" stroke="#357AB6" stroke-width="0.83" stroke-miterlimit="10"/>
<path d="M1734.88 -6.60352L911.056 328.122" stroke="#357AB6" stroke-width="0.83" stroke-miterlimit="10"/>
<path d="M1746.4 -6.60352L922.572 328.122" stroke="#357AB6" stroke-width="0.83" stroke-miterlimit="10"/>
<path d="M1757.92 -6.60352L934.097 328.122" stroke="#357AB6" stroke-width="0.83" stroke-miterlimit="10"/>
<path d="M1769.43 -6.60352L945.613 328.122" stroke="#357AB6" stroke-width="0.83" stroke-miterlimit="10"/>
<path d="M1780.96 -6.60352L957.129 328.122" stroke="#357AB6" stroke-width="0.83" stroke-miterlimit="10"/>
<path d="M1792.47 -6.60352L968.645 328.122" stroke="#357AB6" stroke-width="0.83" stroke-miterlimit="10"/>
<path d="M1803.99 -6.60352L980.16 328.122" stroke="#357AB6" stroke-width="0.83" stroke-miterlimit="10"/>
<path d="M1815.51 -6.60352L991.677 328.122" stroke="#357AB6" stroke-width="0.83" stroke-miterlimit="10"/>
<path d="M1827.02 -6.60352L1003.2 328.122" stroke="#357AB6" stroke-width="0.83" stroke-miterlimit="10"/>
<path d="M1838.54 -6.60352L1014.72 328.122" stroke="#357AB6" stroke-width="0.83" stroke-miterlimit="10"/>
<path d="M1850.05 -6.60352L1026.23 328.122" stroke="#357AB6" stroke-width="0.83" stroke-miterlimit="10"/>
<path d="M1861.58 -6.60352L1037.75 328.122" stroke="#357AB6" stroke-width="0.83" stroke-miterlimit="10"/>
<path d="M1873.09 -6.60352L1049.26 328.122" stroke="#357AB6" stroke-width="0.83" stroke-miterlimit="10"/>
<path d="M1884.61 -6.60352L1060.78 328.122" stroke="#357AB6" stroke-width="0.83" stroke-miterlimit="10"/>
<path d="M1896.13 -6.60352L1072.31 328.122" stroke="#357AB6" stroke-width="0.83" stroke-miterlimit="10"/>
<path d="M1907.64 -6.60352L1083.82 328.122" stroke="#357AB6" stroke-width="0.83" stroke-miterlimit="10"/>
<path d="M1919.16 -6.60352L1095.34 328.122" stroke="#357AB6" stroke-width="0.83" stroke-miterlimit="10"/>
<path d="M1930.68 -6.60352L1106.85 328.122" stroke="#357AB6" stroke-width="0.83" stroke-miterlimit="10"/>
<path d="M1942.2 -6.60352L1118.37 328.122" stroke="#357AB6" stroke-width="0.83" stroke-miterlimit="10"/>
<path d="M1953.71 -6.60352L1129.88 328.122" stroke="#357AB6" stroke-width="0.83" stroke-miterlimit="10"/>
<path d="M1965.23 -6.60352L1141.41 328.122" stroke="#357AB6" stroke-width="0.83" stroke-miterlimit="10"/>
<path d="M1976.75 -6.60352L1152.93 328.122" stroke="#357AB6" stroke-width="0.83" stroke-miterlimit="10"/>
<path d="M1988.26 -6.60352L1164.44 328.122" stroke="#357AB6" stroke-width="0.83" stroke-miterlimit="10"/>
</g>
</g>
</svg>
