<svg width="353" height="893" viewBox="0 0 353 893" fill="none" xmlns="http://www.w3.org/2000/svg">
<path opacity="0.03" d="M353 0.185547H0V892.124H353V0.185547Z" fill="#1262A9"/>
<g opacity="0.3">
<mask id="mask0_324_1186" style="mask-type:luminance" maskUnits="userSpaceOnUse" x="0" y="0" width="353" height="891">
<path d="M353 0.185547H0V890.2H353V0.185547Z" fill="white"/>
</mask>
<g mask="url(#mask0_324_1186)">
<path d="M11.9678 -9.40974L-591.47 927.946" stroke="#357AB6" stroke-width="0.5" stroke-miterlimit="10"/>
<path d="M16.3492 -9.40974L-587.094 927.946" stroke="#357AB6" stroke-width="0.5" stroke-miterlimit="10"/>
<path d="M20.7249 -9.40974L-582.719 927.946" stroke="#357AB6" stroke-width="0.5" stroke-miterlimit="10"/>
<path d="M25.1006 -9.40974L-578.337 927.946" stroke="#357AB6" stroke-width="0.5" stroke-miterlimit="10"/>
<path d="M29.482 -9.40974L-573.962 927.946" stroke="#357AB6" stroke-width="0.5" stroke-miterlimit="10"/>
<path d="M33.8578 -9.40974L-569.58 927.946" stroke="#357AB6" stroke-width="0.5" stroke-miterlimit="10"/>
<path d="M38.2334 -9.40974L-565.205 927.946" stroke="#357AB6" stroke-width="0.5" stroke-miterlimit="10"/>
<path d="M42.6148 -9.40974L-560.829 927.946" stroke="#357AB6" stroke-width="0.5" stroke-miterlimit="10"/>
<path d="M46.9904 -9.40974L-556.448 927.946" stroke="#357AB6" stroke-width="0.5" stroke-miterlimit="10"/>
<path d="M51.3719 -9.40974L-552.072 927.946" stroke="#357AB6" stroke-width="0.5" stroke-miterlimit="10"/>
<path d="M55.7476 -9.40974L-547.696 927.946" stroke="#357AB6" stroke-width="0.5" stroke-miterlimit="10"/>
<path d="M60.1233 -9.40974L-543.315 927.946" stroke="#357AB6" stroke-width="0.5" stroke-miterlimit="10"/>
<path d="M64.5047 -9.40974L-538.939 927.946" stroke="#357AB6" stroke-width="0.5" stroke-miterlimit="10"/>
<path d="M68.8805 -9.40974L-534.563 927.946" stroke="#357AB6" stroke-width="0.5" stroke-miterlimit="10"/>
<path d="M73.2561 -9.40974L-530.182 927.946" stroke="#357AB6" stroke-width="0.5" stroke-miterlimit="10"/>
<path d="M77.6375 -9.40974L-525.806 927.946" stroke="#357AB6" stroke-width="0.5" stroke-miterlimit="10"/>
<path d="M82.0131 -9.40974L-521.425 927.946" stroke="#357AB6" stroke-width="0.5" stroke-miterlimit="10"/>
<path d="M86.3889 -9.40974L-517.049 927.946" stroke="#357AB6" stroke-width="0.5" stroke-miterlimit="10"/>
<path d="M90.7703 -9.40974L-512.673 927.946" stroke="#357AB6" stroke-width="0.5" stroke-miterlimit="10"/>
<path d="M95.146 -9.40974L-508.292 927.946" stroke="#357AB6" stroke-width="0.5" stroke-miterlimit="10"/>
<path d="M99.5274 -9.40974L-503.916 927.946" stroke="#357AB6" stroke-width="0.5" stroke-miterlimit="10"/>
<path d="M103.903 -9.40974L-499.541 927.946" stroke="#357AB6" stroke-width="0.5" stroke-miterlimit="10"/>
<path d="M108.279 -9.40974L-495.159 927.946" stroke="#357AB6" stroke-width="0.5" stroke-miterlimit="10"/>
<path d="M112.66 -9.40974L-490.783 927.946" stroke="#357AB6" stroke-width="0.5" stroke-miterlimit="10"/>
<path d="M117.036 -9.40974L-486.402 927.946" stroke="#357AB6" stroke-width="0.5" stroke-miterlimit="10"/>
<path d="M121.412 -9.40974L-482.026 927.946" stroke="#357AB6" stroke-width="0.5" stroke-miterlimit="10"/>
<path d="M125.793 -9.40974L-477.651 927.946" stroke="#357AB6" stroke-width="0.5" stroke-miterlimit="10"/>
<path d="M130.169 -9.40974L-473.269 927.946" stroke="#357AB6" stroke-width="0.5" stroke-miterlimit="10"/>
<path d="M134.55 -9.40974L-468.894 927.946" stroke="#357AB6" stroke-width="0.5" stroke-miterlimit="10"/>
<path d="M138.926 -9.40974L-464.518 927.946" stroke="#357AB6" stroke-width="0.5" stroke-miterlimit="10"/>
<path d="M143.302 -9.40974L-460.136 927.946" stroke="#357AB6" stroke-width="0.5" stroke-miterlimit="10"/>
<path d="M147.683 -9.40974L-455.761 927.946" stroke="#357AB6" stroke-width="0.5" stroke-miterlimit="10"/>
<path d="M152.058 -9.40974L-451.385 927.946" stroke="#357AB6" stroke-width="0.5" stroke-miterlimit="10"/>
<path d="M156.434 -9.40974L-447.004 927.946" stroke="#357AB6" stroke-width="0.5" stroke-miterlimit="10"/>
<path d="M160.816 -9.40974L-442.628 927.946" stroke="#357AB6" stroke-width="0.5" stroke-miterlimit="10"/>
<path d="M165.191 -9.40974L-438.247 927.946" stroke="#357AB6" stroke-width="0.5" stroke-miterlimit="10"/>
<path d="M169.567 -9.40974L-433.871 927.946" stroke="#357AB6" stroke-width="0.5" stroke-miterlimit="10"/>
<path d="M173.948 -9.40974L-429.495 927.946" stroke="#357AB6" stroke-width="0.5" stroke-miterlimit="10"/>
<path d="M178.324 -9.40974L-425.114 927.946" stroke="#357AB6" stroke-width="0.5" stroke-miterlimit="10"/>
<path d="M182.706 -9.40974L-420.738 927.946" stroke="#357AB6" stroke-width="0.5" stroke-miterlimit="10"/>
<path d="M187.081 -9.40974L-416.362 927.946" stroke="#357AB6" stroke-width="0.5" stroke-miterlimit="10"/>
<path d="M191.457 -9.40974L-411.981 927.946" stroke="#357AB6" stroke-width="0.5" stroke-miterlimit="10"/>
<path d="M195.838 -9.40974L-407.605 927.946" stroke="#357AB6" stroke-width="0.5" stroke-miterlimit="10"/>
<path d="M200.214 -9.40974L-403.224 927.946" stroke="#357AB6" stroke-width="0.5" stroke-miterlimit="10"/>
<path d="M204.59 -9.40974L-398.848 927.946" stroke="#357AB6" stroke-width="0.5" stroke-miterlimit="10"/>
<path d="M208.971 -9.40974L-394.473 927.946" stroke="#357AB6" stroke-width="0.5" stroke-miterlimit="10"/>
<path d="M213.347 -9.40974L-390.091 927.946" stroke="#357AB6" stroke-width="0.5" stroke-miterlimit="10"/>
<path d="M217.723 -9.40974L-385.715 927.946" stroke="#357AB6" stroke-width="0.5" stroke-miterlimit="10"/>
<path d="M222.104 -9.40974L-381.34 927.946" stroke="#357AB6" stroke-width="0.5" stroke-miterlimit="10"/>
<path d="M226.48 -9.40974L-376.958 927.946" stroke="#357AB6" stroke-width="0.5" stroke-miterlimit="10"/>
<path d="M230.861 -9.40974L-372.583 927.946" stroke="#357AB6" stroke-width="0.5" stroke-miterlimit="10"/>
<path d="M235.237 -9.40974L-368.207 927.946" stroke="#357AB6" stroke-width="0.5" stroke-miterlimit="10"/>
<path d="M239.612 -9.40974L-363.826 927.946" stroke="#357AB6" stroke-width="0.5" stroke-miterlimit="10"/>
<path d="M243.994 -9.40974L-359.45 927.946" stroke="#357AB6" stroke-width="0.5" stroke-miterlimit="10"/>
<path d="M248.37 -9.40974L-355.068 927.946" stroke="#357AB6" stroke-width="0.5" stroke-miterlimit="10"/>
<path d="M252.745 -9.40974L-350.693 927.946" stroke="#357AB6" stroke-width="0.5" stroke-miterlimit="10"/>
<path d="M257.127 -9.40974L-346.317 927.946" stroke="#357AB6" stroke-width="0.5" stroke-miterlimit="10"/>
<path d="M261.502 -9.40974L-341.936 927.946" stroke="#357AB6" stroke-width="0.5" stroke-miterlimit="10"/>
<path d="M265.884 -9.40974L-337.56 927.946" stroke="#357AB6" stroke-width="0.5" stroke-miterlimit="10"/>
<path d="M270.259 -9.40974L-333.184 927.946" stroke="#357AB6" stroke-width="0.5" stroke-miterlimit="10"/>
<path d="M274.635 -9.40974L-328.803 927.946" stroke="#357AB6" stroke-width="0.5" stroke-miterlimit="10"/>
<path d="M279.016 -9.40974L-324.427 927.946" stroke="#357AB6" stroke-width="0.5" stroke-miterlimit="10"/>
<path d="M283.392 -9.40974L-320.046 927.946" stroke="#357AB6" stroke-width="0.5" stroke-miterlimit="10"/>
<path d="M287.768 -9.40974L-315.67 927.946" stroke="#357AB6" stroke-width="0.5" stroke-miterlimit="10"/>
<path d="M292.149 -9.40974L-311.294 927.946" stroke="#357AB6" stroke-width="0.5" stroke-miterlimit="10"/>
<path d="M296.525 -9.40974L-306.913 927.946" stroke="#357AB6" stroke-width="0.5" stroke-miterlimit="10"/>
<path d="M300.901 -9.40974L-302.537 927.946" stroke="#357AB6" stroke-width="0.5" stroke-miterlimit="10"/>
<path d="M305.282 -9.40974L-298.162 927.946" stroke="#357AB6" stroke-width="0.5" stroke-miterlimit="10"/>
<path d="M309.658 -9.40974L-293.78 927.946" stroke="#357AB6" stroke-width="0.5" stroke-miterlimit="10"/>
<path d="M314.039 -9.40974L-289.405 927.946" stroke="#357AB6" stroke-width="0.5" stroke-miterlimit="10"/>
<path d="M318.415 -9.40974L-285.029 927.946" stroke="#357AB6" stroke-width="0.5" stroke-miterlimit="10"/>
<path d="M322.791 -9.40974L-280.647 927.946" stroke="#357AB6" stroke-width="0.5" stroke-miterlimit="10"/>
<path d="M327.172 -9.40974L-276.272 927.946" stroke="#357AB6" stroke-width="0.5" stroke-miterlimit="10"/>
<path d="M331.548 -9.40974L-271.89 927.946" stroke="#357AB6" stroke-width="0.5" stroke-miterlimit="10"/>
<path d="M335.923 -9.40974L-267.515 927.946" stroke="#357AB6" stroke-width="0.5" stroke-miterlimit="10"/>
<path d="M340.305 -9.40974L-263.139 927.946" stroke="#357AB6" stroke-width="0.5" stroke-miterlimit="10"/>
<path d="M344.68 -9.40974L-258.758 927.946" stroke="#357AB6" stroke-width="0.5" stroke-miterlimit="10"/>
<path d="M349.062 -9.40974L-254.382 927.946" stroke="#357AB6" stroke-width="0.5" stroke-miterlimit="10"/>
<path d="M353.438 -9.40974L-250.006 927.946" stroke="#357AB6" stroke-width="0.5" stroke-miterlimit="10"/>
<path d="M357.813 -9.40974L-245.625 927.946" stroke="#357AB6" stroke-width="0.5" stroke-miterlimit="10"/>
<path d="M362.195 -9.40974L-241.249 927.946" stroke="#357AB6" stroke-width="0.5" stroke-miterlimit="10"/>
<path d="M366.57 -9.40974L-236.868 927.946" stroke="#357AB6" stroke-width="0.5" stroke-miterlimit="10"/>
<path d="M370.946 -9.40974L-232.492 927.946" stroke="#357AB6" stroke-width="0.5" stroke-miterlimit="10"/>
<path d="M375.327 -9.40974L-228.116 927.946" stroke="#357AB6" stroke-width="0.5" stroke-miterlimit="10"/>
<path d="M379.703 -9.40974L-223.735 927.946" stroke="#357AB6" stroke-width="0.5" stroke-miterlimit="10"/>
<path d="M384.079 -9.40974L-219.359 927.946" stroke="#357AB6" stroke-width="0.5" stroke-miterlimit="10"/>
<path d="M388.46 -9.40974L-214.984 927.946" stroke="#357AB6" stroke-width="0.5" stroke-miterlimit="10"/>
<path d="M392.836 -9.40974L-210.602 927.946" stroke="#357AB6" stroke-width="0.5" stroke-miterlimit="10"/>
<path d="M397.217 -9.40974L-206.226 927.946" stroke="#357AB6" stroke-width="0.5" stroke-miterlimit="10"/>
<path d="M401.593 -9.40974L-201.851 927.946" stroke="#357AB6" stroke-width="0.5" stroke-miterlimit="10"/>
<path d="M405.525 -9.40974L-197.918 927.946" stroke="#357AB6" stroke-width="0.5" stroke-miterlimit="10"/>
<path d="M409.901 -9.40974L-193.542 927.946" stroke="#357AB6" stroke-width="0.5" stroke-miterlimit="10"/>
<path d="M414.277 -9.40974L-189.161 927.946" stroke="#357AB6" stroke-width="0.5" stroke-miterlimit="10"/>
<path d="M418.658 -9.40974L-184.785 927.946" stroke="#357AB6" stroke-width="0.5" stroke-miterlimit="10"/>
<path d="M423.034 -9.40974L-180.404 927.946" stroke="#357AB6" stroke-width="0.5" stroke-miterlimit="10"/>
<path d="M427.41 -9.40974L-176.028 927.946" stroke="#357AB6" stroke-width="0.5" stroke-miterlimit="10"/>
<path d="M431.791 -9.40974L-171.653 927.946" stroke="#357AB6" stroke-width="0.5" stroke-miterlimit="10"/>
<path d="M436.167 -9.40974L-167.271 927.946" stroke="#357AB6" stroke-width="0.5" stroke-miterlimit="10"/>
<path d="M440.542 -9.40974L-162.896 927.946" stroke="#357AB6" stroke-width="0.5" stroke-miterlimit="10"/>
<path d="M444.924 -9.40974L-158.52 927.946" stroke="#357AB6" stroke-width="0.5" stroke-miterlimit="10"/>
<path d="M449.3 -9.40974L-154.138 927.946" stroke="#357AB6" stroke-width="0.5" stroke-miterlimit="10"/>
<path d="M453.681 -9.40974L-149.763 927.946" stroke="#357AB6" stroke-width="0.5" stroke-miterlimit="10"/>
<path d="M458.057 -9.40974L-145.387 927.946" stroke="#357AB6" stroke-width="0.5" stroke-miterlimit="10"/>
<path d="M462.432 -9.40974L-141.006 927.946" stroke="#357AB6" stroke-width="0.5" stroke-miterlimit="10"/>
<path d="M466.814 -9.40974L-136.63 927.946" stroke="#357AB6" stroke-width="0.5" stroke-miterlimit="10"/>
<path d="M471.189 -9.40974L-132.249 927.946" stroke="#357AB6" stroke-width="0.5" stroke-miterlimit="10"/>
<path d="M475.565 -9.40974L-127.873 927.946" stroke="#357AB6" stroke-width="0.5" stroke-miterlimit="10"/>
<path d="M479.946 -9.40974L-123.497 927.946" stroke="#357AB6" stroke-width="0.5" stroke-miterlimit="10"/>
<path d="M484.322 -9.40974L-119.116 927.946" stroke="#357AB6" stroke-width="0.5" stroke-miterlimit="10"/>
<path d="M488.704 -9.40974L-114.74 927.946" stroke="#357AB6" stroke-width="0.5" stroke-miterlimit="10"/>
<path d="M493.079 -9.40974L-110.364 927.946" stroke="#357AB6" stroke-width="0.5" stroke-miterlimit="10"/>
<path d="M497.455 -9.40974L-105.983 927.946M499.444 -5.88765L-103.994 931.468" stroke="#357AB6" stroke-width="0.5" stroke-miterlimit="10"/>
<path d="M506.212 -9.40974L-97.226 927.946" stroke="#357AB6" stroke-width="0.5" stroke-miterlimit="10"/>
<path d="M510.588 -9.40974L-92.8501 927.946" stroke="#357AB6" stroke-width="0.5" stroke-miterlimit="10"/>
<path d="M514.969 -9.40974L-88.4744 927.946" stroke="#357AB6" stroke-width="0.5" stroke-miterlimit="10"/>
<path d="M519.345 -9.40974L-84.093 927.946" stroke="#357AB6" stroke-width="0.5" stroke-miterlimit="10"/>
<path d="M523.721 -9.40974L-79.7174 927.946" stroke="#357AB6" stroke-width="0.5" stroke-miterlimit="10"/>
<path d="M528.102 -9.40974L-75.3418 927.946" stroke="#357AB6" stroke-width="0.5" stroke-miterlimit="10"/>
<path d="M532.478 -9.40974L-70.9602 927.946" stroke="#357AB6" stroke-width="0.5" stroke-miterlimit="10"/>
<path d="M536.859 -9.40974L-66.5845 927.946" stroke="#357AB6" stroke-width="0.5" stroke-miterlimit="10"/>
<path d="M541.235 -9.40974L-62.2089 927.946" stroke="#357AB6" stroke-width="0.5" stroke-miterlimit="10"/>
<path d="M545.61 -9.40974L-57.8275 927.946" stroke="#357AB6" stroke-width="0.5" stroke-miterlimit="10"/>
<path d="M549.992 -9.40974L-53.4519 927.946" stroke="#357AB6" stroke-width="0.5" stroke-miterlimit="10"/>
<path d="M554.368 -9.40974L-49.0703 927.946" stroke="#357AB6" stroke-width="0.5" stroke-miterlimit="10"/>
<path d="M558.743 -9.40974L-44.6947 927.946" stroke="#357AB6" stroke-width="0.5" stroke-miterlimit="10"/>
<path d="M563.125 -9.40974L-40.319 927.946" stroke="#357AB6" stroke-width="0.5" stroke-miterlimit="10"/>
<path d="M567.5 -9.40974L-35.9376 927.946" stroke="#357AB6" stroke-width="0.5" stroke-miterlimit="10"/>
<path d="M571.882 -9.40974L-31.5619 927.946" stroke="#357AB6" stroke-width="0.5" stroke-miterlimit="10"/>
<path d="M576.257 -9.40974L-27.1863 927.946" stroke="#357AB6" stroke-width="0.5" stroke-miterlimit="10"/>
<path d="M580.633 -9.40974L-22.8048 927.946" stroke="#357AB6" stroke-width="0.5" stroke-miterlimit="10"/>
<path d="M585.015 -9.40974L-18.4291 927.946" stroke="#357AB6" stroke-width="0.5" stroke-miterlimit="10"/>
<path d="M589.39 -9.40974L-14.0476 927.946" stroke="#357AB6" stroke-width="0.5" stroke-miterlimit="10"/>
<path d="M593.766 -9.40974L-9.672 927.946" stroke="#357AB6" stroke-width="0.5" stroke-miterlimit="10"/>
<path d="M598.147 -9.40974L-5.29626 927.946" stroke="#357AB6" stroke-width="0.5" stroke-miterlimit="10"/>
<path d="M602.523 -9.40974L-0.914917 927.946" stroke="#357AB6" stroke-width="0.5" stroke-miterlimit="10"/>
<path d="M606.899 -9.40974L3.46069 927.946" stroke="#357AB6" stroke-width="0.5" stroke-miterlimit="10"/>
<path d="M611.28 -9.40974L7.83643 927.946" stroke="#357AB6" stroke-width="0.5" stroke-miterlimit="10"/>
<path d="M615.656 -9.40974L12.2179 927.946" stroke="#357AB6" stroke-width="0.5" stroke-miterlimit="10"/>
<path d="M620.037 -9.40974L16.5935 927.946" stroke="#357AB6" stroke-width="0.5" stroke-miterlimit="10"/>
<path d="M624.413 -9.40974L20.9692 927.946" stroke="#357AB6" stroke-width="0.5" stroke-miterlimit="10"/>
<path d="M628.789 -9.40974L25.3506 927.946" stroke="#357AB6" stroke-width="0.5" stroke-miterlimit="10"/>
<path d="M633.17 -9.40974L29.7263 927.946" stroke="#357AB6" stroke-width="0.5" stroke-miterlimit="10"/>
<path d="M637.546 -9.40974L34.1078 927.946" stroke="#357AB6" stroke-width="0.5" stroke-miterlimit="10"/>
<path d="M641.921 -9.40974L38.4834 927.946" stroke="#357AB6" stroke-width="0.5" stroke-miterlimit="10"/>
<path d="M646.303 -9.40974L42.8591 927.946" stroke="#357AB6" stroke-width="0.5" stroke-miterlimit="10"/>
<path d="M650.678 -9.40974L47.2405 927.946" stroke="#357AB6" stroke-width="0.5" stroke-miterlimit="10"/>
<path d="M655.06 -9.40974L51.6162 927.946" stroke="#357AB6" stroke-width="0.5" stroke-miterlimit="10"/>
<path d="M659.436 -9.40974L55.9919 927.946" stroke="#357AB6" stroke-width="0.5" stroke-miterlimit="10"/>
<path d="M663.811 -9.40974L60.3733 927.946" stroke="#357AB6" stroke-width="0.5" stroke-miterlimit="10"/>
<path d="M668.193 -9.40974L64.749 927.946" stroke="#357AB6" stroke-width="0.5" stroke-miterlimit="10"/>
<path d="M672.568 -9.40974L69.1304 927.946" stroke="#357AB6" stroke-width="0.5" stroke-miterlimit="10"/>
<path d="M676.944 -9.40974L73.5061 927.946" stroke="#357AB6" stroke-width="0.5" stroke-miterlimit="10"/>
<path d="M681.325 -9.40974L77.8818 927.946" stroke="#357AB6" stroke-width="0.5" stroke-miterlimit="10"/>
<path d="M685.701 -9.40974L82.2632 927.946" stroke="#357AB6" stroke-width="0.5" stroke-miterlimit="10"/>
<path d="M690.077 -9.40974L86.6389 927.946" stroke="#357AB6" stroke-width="0.5" stroke-miterlimit="10"/>
<path d="M694.458 -9.40974L91.0146 927.946" stroke="#357AB6" stroke-width="0.5" stroke-miterlimit="10"/>
<path d="M698.834 -9.40974L95.396 927.946" stroke="#357AB6" stroke-width="0.5" stroke-miterlimit="10"/>
<path d="M703.215 -9.40974L99.7717 927.946" stroke="#357AB6" stroke-width="0.5" stroke-miterlimit="10"/>
<path d="M707.591 -9.40974L104.147 927.946" stroke="#357AB6" stroke-width="0.5" stroke-miterlimit="10"/>
<path d="M711.967 -9.40974L108.529 927.946" stroke="#357AB6" stroke-width="0.5" stroke-miterlimit="10"/>
<path d="M716.348 -9.40974L112.905 927.946" stroke="#357AB6" stroke-width="0.5" stroke-miterlimit="10"/>
<path d="M720.724 -9.40974L117.286 927.946" stroke="#357AB6" stroke-width="0.5" stroke-miterlimit="10"/>
<path d="M725.1 -9.40974L121.662 927.946" stroke="#357AB6" stroke-width="0.5" stroke-miterlimit="10"/>
<path d="M729.481 -9.40974L126.037 927.946" stroke="#357AB6" stroke-width="0.5" stroke-miterlimit="10"/>
<path d="M733.857 -9.40974L130.419 927.946" stroke="#357AB6" stroke-width="0.5" stroke-miterlimit="10"/>
<path d="M738.238 -9.40974L134.794 927.946" stroke="#357AB6" stroke-width="0.5" stroke-miterlimit="10"/>
<path d="M742.614 -9.40974L139.17 927.946" stroke="#357AB6" stroke-width="0.5" stroke-miterlimit="10"/>
<path d="M746.99 -9.40974L143.552 927.946" stroke="#357AB6" stroke-width="0.5" stroke-miterlimit="10"/>
<path d="M751.371 -9.40974L147.927 927.946" stroke="#357AB6" stroke-width="0.5" stroke-miterlimit="10"/>
<path d="M755.747 -9.40974L152.309 927.946" stroke="#357AB6" stroke-width="0.5" stroke-miterlimit="10"/>
<path d="M760.122 -9.40974L156.684 927.946" stroke="#357AB6" stroke-width="0.5" stroke-miterlimit="10"/>
<path d="M764.504 -9.40974L161.06 927.946" stroke="#357AB6" stroke-width="0.5" stroke-miterlimit="10"/>
<path d="M768.879 -9.40974L165.441 927.946" stroke="#357AB6" stroke-width="0.5" stroke-miterlimit="10"/>
<path d="M773.255 -9.40974L169.817 927.946" stroke="#357AB6" stroke-width="0.5" stroke-miterlimit="10"/>
<path d="M777.636 -9.40974L174.193 927.946" stroke="#357AB6" stroke-width="0.5" stroke-miterlimit="10"/>
<path d="M782.012 -9.40974L178.574 927.946" stroke="#357AB6" stroke-width="0.5" stroke-miterlimit="10"/>
<path d="M786.394 -9.40974L182.95 927.946" stroke="#357AB6" stroke-width="0.5" stroke-miterlimit="10"/>
<path d="M790.769 -9.40974L187.326 927.946" stroke="#357AB6" stroke-width="0.5" stroke-miterlimit="10"/>
<path d="M795.145 -9.40974L191.707 927.946" stroke="#357AB6" stroke-width="0.5" stroke-miterlimit="10"/>
</g>
</g>
</svg>
