<svg width="348" height="224" viewBox="0 0 348 224" fill="none" xmlns="http://www.w3.org/2000/svg">
<g opacity="0.3">
<mask id="mask0_324_774" style="mask-type:luminance" maskUnits="userSpaceOnUse" x="0" y="0" width="348" height="224">
<path d="M347.18 0H0V223.461H347.18V0Z" fill="white"/>
</mask>
<g mask="url(#mask0_324_774)">
<path d="M11.7705 -4.76868L-224.076 180.354" stroke="#357AB6" stroke-width="0.5" stroke-miterlimit="10"/>
<path d="M16.0796 -4.76868L-219.772 180.354" stroke="#357AB6" stroke-width="0.5" stroke-miterlimit="10"/>
<path d="M20.3832 -4.76868L-215.463 180.354" stroke="#357AB6" stroke-width="0.5" stroke-miterlimit="10"/>
<path d="M24.6868 -4.76868L-211.16 180.354" stroke="#357AB6" stroke-width="0.5" stroke-miterlimit="10"/>
<path d="M28.996 -4.76868L-206.856 180.354" stroke="#357AB6" stroke-width="0.5" stroke-miterlimit="10"/>
<path d="M33.2994 -4.76868L-202.547 180.354" stroke="#357AB6" stroke-width="0.5" stroke-miterlimit="10"/>
<path d="M37.603 -4.76868L-198.243 180.354" stroke="#357AB6" stroke-width="0.5" stroke-miterlimit="10"/>
<path d="M41.9123 -4.76868L-193.934 180.354" stroke="#357AB6" stroke-width="0.5" stroke-miterlimit="10"/>
<path d="M46.2157 -4.76868L-189.631 180.354" stroke="#357AB6" stroke-width="0.5" stroke-miterlimit="10"/>
<path d="M50.5249 -4.76868L-185.327 180.354" stroke="#357AB6" stroke-width="0.5" stroke-miterlimit="10"/>
<path d="M54.8285 -4.76868L-181.018 180.354" stroke="#357AB6" stroke-width="0.5" stroke-miterlimit="10"/>
<path d="M59.132 -4.76868L-176.714 180.354" stroke="#357AB6" stroke-width="0.5" stroke-miterlimit="10"/>
<path d="M63.4412 -4.76868L-172.411 180.354" stroke="#357AB6" stroke-width="0.5" stroke-miterlimit="10"/>
<path d="M67.7447 -4.76868L-168.102 180.354" stroke="#357AB6" stroke-width="0.5" stroke-miterlimit="10"/>
<path d="M72.0482 -4.76868L-163.798 180.354" stroke="#357AB6" stroke-width="0.5" stroke-miterlimit="10"/>
<path d="M76.3575 -4.76868L-159.494 180.354" stroke="#357AB6" stroke-width="0.5" stroke-miterlimit="10"/>
<path d="M80.6611 -4.76868L-155.185 180.354" stroke="#357AB6" stroke-width="0.5" stroke-miterlimit="10"/>
<path d="M84.9701 -4.76868L-150.882 180.354" stroke="#357AB6" stroke-width="0.5" stroke-miterlimit="10"/>
<path d="M89.2737 -4.76868L-146.573 180.354" stroke="#357AB6" stroke-width="0.5" stroke-miterlimit="10"/>
<path d="M93.5773 -4.76868L-142.269 180.354" stroke="#357AB6" stroke-width="0.5" stroke-miterlimit="10"/>
<path d="M97.8864 -4.76868L-137.965 180.354" stroke="#357AB6" stroke-width="0.5" stroke-miterlimit="10"/>
<path d="M102.19 -4.76868L-133.656 180.354" stroke="#357AB6" stroke-width="0.5" stroke-miterlimit="10"/>
<path d="M106.494 -4.76868L-129.353 180.354" stroke="#357AB6" stroke-width="0.5" stroke-miterlimit="10"/>
<path d="M110.803 -4.76868L-125.049 180.354" stroke="#357AB6" stroke-width="0.5" stroke-miterlimit="10"/>
<path d="M115.106 -4.76868L-120.74 180.354" stroke="#357AB6" stroke-width="0.5" stroke-miterlimit="10"/>
<path d="M119.41 -4.76868L-116.437 180.354" stroke="#357AB6" stroke-width="0.5" stroke-miterlimit="10"/>
<path d="M123.719 -4.76868L-112.127 180.354" stroke="#357AB6" stroke-width="0.5" stroke-miterlimit="10"/>
<path d="M128.023 -4.76868L-107.824 180.354" stroke="#357AB6" stroke-width="0.5" stroke-miterlimit="10"/>
<path d="M132.332 -4.76868L-103.52 180.354" stroke="#357AB6" stroke-width="0.5" stroke-miterlimit="10"/>
<path d="M136.635 -4.76868L-99.2111 180.354" stroke="#357AB6" stroke-width="0.5" stroke-miterlimit="10"/>
<path d="M140.939 -4.76868L-94.9075 180.354" stroke="#357AB6" stroke-width="0.5" stroke-miterlimit="10"/>
<path d="M145.248 -4.76868L-90.604 180.354" stroke="#357AB6" stroke-width="0.5" stroke-miterlimit="10"/>
<path d="M149.552 -4.76868L-86.2948 180.354" stroke="#357AB6" stroke-width="0.5" stroke-miterlimit="10"/>
<path d="M153.855 -4.76868L-81.9912 180.354" stroke="#357AB6" stroke-width="0.5" stroke-miterlimit="10"/>
<path d="M158.164 -4.76868L-77.6876 180.354" stroke="#357AB6" stroke-width="0.5" stroke-miterlimit="10"/>
<path d="M162.468 -4.76868L-73.3785 180.354" stroke="#357AB6" stroke-width="0.5" stroke-miterlimit="10"/>
<path d="M166.777 -4.76868L-69.075 180.354" stroke="#357AB6" stroke-width="0.5" stroke-miterlimit="10"/>
<path d="M171.081 -4.76868L-64.7657 180.354" stroke="#357AB6" stroke-width="0.5" stroke-miterlimit="10"/>
<path d="M175.384 -4.76868L-60.4623 180.354" stroke="#357AB6" stroke-width="0.5" stroke-miterlimit="10"/>
<path d="M179.693 -4.76868L-56.1587 180.354" stroke="#357AB6" stroke-width="0.5" stroke-miterlimit="10"/>
<path d="M183.997 -4.76868L-51.8495 180.354" stroke="#357AB6" stroke-width="0.5" stroke-miterlimit="10"/>
<path d="M188.3 -4.76868L-47.546 180.354" stroke="#357AB6" stroke-width="0.5" stroke-miterlimit="10"/>
<path d="M192.609 -4.76868L-43.2424 180.354" stroke="#357AB6" stroke-width="0.5" stroke-miterlimit="10"/>
<path d="M196.913 -4.76868L-38.9332 180.354" stroke="#357AB6" stroke-width="0.5" stroke-miterlimit="10"/>
<path d="M201.217 -4.76868L-34.6298 180.354" stroke="#357AB6" stroke-width="0.5" stroke-miterlimit="10"/>
<path d="M205.526 -4.76868L-30.3206 180.354" stroke="#357AB6" stroke-width="0.5" stroke-miterlimit="10"/>
<path d="M209.829 -4.76868L-26.017 180.354" stroke="#357AB6" stroke-width="0.5" stroke-miterlimit="10"/>
<path d="M214.138 -4.76868L-21.7135 180.354" stroke="#357AB6" stroke-width="0.5" stroke-miterlimit="10"/>
<path d="M218.442 -4.76868L-17.4043 180.354" stroke="#357AB6" stroke-width="0.5" stroke-miterlimit="10"/>
<path d="M222.746 -4.76868L-13.1007 180.354" stroke="#357AB6" stroke-width="0.5" stroke-miterlimit="10"/>
<path d="M227.055 -4.76868L-8.79712 180.354" stroke="#357AB6" stroke-width="0.5" stroke-miterlimit="10"/>
<path d="M231.358 -4.76868L-4.48804 180.354" stroke="#357AB6" stroke-width="0.5" stroke-miterlimit="10"/>
<path d="M235.662 -4.76868L-0.184448 180.354" stroke="#357AB6" stroke-width="0.5" stroke-miterlimit="10"/>
<path d="M239.971 -4.76868L4.11914 180.354" stroke="#357AB6" stroke-width="0.5" stroke-miterlimit="10"/>
<path d="M244.275 -4.76868L8.42822 180.354" stroke="#357AB6" stroke-width="0.5" stroke-miterlimit="10"/>
<path d="M248.578 -4.76868L12.7318 180.354" stroke="#357AB6" stroke-width="0.5" stroke-miterlimit="10"/>
<path d="M252.887 -4.76868L17.041 180.354" stroke="#357AB6" stroke-width="0.5" stroke-miterlimit="10"/>
<path d="M257.191 -4.76868L21.3445 180.354" stroke="#357AB6" stroke-width="0.5" stroke-miterlimit="10"/>
<path d="M261.5 -4.76868L25.6481 180.354" stroke="#357AB6" stroke-width="0.5" stroke-miterlimit="10"/>
<path d="M265.804 -4.76868L29.9573 180.354" stroke="#357AB6" stroke-width="0.5" stroke-miterlimit="10"/>
<path d="M270.107 -4.76868L34.2607 180.354" stroke="#357AB6" stroke-width="0.5" stroke-miterlimit="10"/>
<path d="M274.416 -4.76868L38.5645 180.354" stroke="#357AB6" stroke-width="0.5" stroke-miterlimit="10"/>
<path d="M278.72 -4.76868L42.8735 180.354" stroke="#357AB6" stroke-width="0.5" stroke-miterlimit="10"/>
<path d="M283.023 -4.76868L47.177 180.354" stroke="#357AB6" stroke-width="0.5" stroke-miterlimit="10"/>
<path d="M287.333 -4.76868L51.4862 180.354" stroke="#357AB6" stroke-width="0.5" stroke-miterlimit="10"/>
<path d="M291.636 -4.76868L55.7898 180.354" stroke="#357AB6" stroke-width="0.5" stroke-miterlimit="10"/>
<path d="M295.945 -4.76868L60.0933 180.354" stroke="#357AB6" stroke-width="0.5" stroke-miterlimit="10"/>
<path d="M300.249 -4.76868L64.4025 180.354" stroke="#357AB6" stroke-width="0.5" stroke-miterlimit="10"/>
<path d="M304.552 -4.76868L68.7061 180.354" stroke="#357AB6" stroke-width="0.5" stroke-miterlimit="10"/>
<path d="M308.861 -4.76868L73.0096 180.354" stroke="#357AB6" stroke-width="0.5" stroke-miterlimit="10"/>
<path d="M313.165 -4.76868L77.3187 180.354" stroke="#357AB6" stroke-width="0.5" stroke-miterlimit="10"/>
<path d="M317.469 -4.76868L81.6223 180.354" stroke="#357AB6" stroke-width="0.5" stroke-miterlimit="10"/>
<path d="M321.778 -4.76868L85.9259 180.354" stroke="#357AB6" stroke-width="0.5" stroke-miterlimit="10"/>
<path d="M326.081 -4.76868L90.235 180.354" stroke="#357AB6" stroke-width="0.5" stroke-miterlimit="10"/>
<path d="M330.385 -4.76868L94.5386 180.354" stroke="#357AB6" stroke-width="0.5" stroke-miterlimit="10"/>
<path d="M334.694 -4.76868L98.8478 180.354" stroke="#357AB6" stroke-width="0.5" stroke-miterlimit="10"/>
<path d="M338.998 -4.76868L103.151 180.354" stroke="#357AB6" stroke-width="0.5" stroke-miterlimit="10"/>
<path d="M343.307 -4.76868L107.455 180.354" stroke="#357AB6" stroke-width="0.5" stroke-miterlimit="10"/>
<path d="M347.61 -4.76868L111.764 180.354" stroke="#357AB6" stroke-width="0.5" stroke-miterlimit="10"/>
<path d="M351.914 -4.76868L116.068 180.354" stroke="#357AB6" stroke-width="0.5" stroke-miterlimit="10"/>
<path d="M356.223 -4.76868L120.371 180.354" stroke="#357AB6" stroke-width="0.5" stroke-miterlimit="10"/>
<path d="M360.527 -4.76868L124.68 180.354" stroke="#357AB6" stroke-width="0.5" stroke-miterlimit="10"/>
<path d="M364.83 -4.76868L128.984 180.354" stroke="#357AB6" stroke-width="0.5" stroke-miterlimit="10"/>
<path d="M369.139 -4.76868L133.293 180.354" stroke="#357AB6" stroke-width="0.5" stroke-miterlimit="10"/>
<path d="M373.443 -4.76868L137.597 180.354" stroke="#357AB6" stroke-width="0.5" stroke-miterlimit="10"/>
<path d="M377.752 -4.76868L141.9 180.354" stroke="#357AB6" stroke-width="0.5" stroke-miterlimit="10"/>
<path d="M382.056 -4.76868L146.209 180.354" stroke="#357AB6" stroke-width="0.5" stroke-miterlimit="10"/>
<path d="M386.359 -4.76868L150.513 180.354" stroke="#357AB6" stroke-width="0.5" stroke-miterlimit="10"/>
<path d="M390.668 -4.76868L154.816 180.354" stroke="#357AB6" stroke-width="0.5" stroke-miterlimit="10"/>
<path d="M394.972 -4.76868L159.125 180.354" stroke="#357AB6" stroke-width="0.5" stroke-miterlimit="10"/>
<path d="M398.839 -4.76868L162.988 180.354" stroke="#357AB6" stroke-width="0.5" stroke-miterlimit="10"/>
<path d="M403.143 -4.76868L167.297 180.354" stroke="#357AB6" stroke-width="0.5" stroke-miterlimit="10"/>
<path d="M407.447 -4.76868L171.6 180.354" stroke="#357AB6" stroke-width="0.5" stroke-miterlimit="10"/>
<path d="M411.756 -4.76868L175.904 180.354" stroke="#357AB6" stroke-width="0.5" stroke-miterlimit="10"/>
<path d="M416.059 -4.76868L180.213 180.354" stroke="#357AB6" stroke-width="0.5" stroke-miterlimit="10"/>
<path d="M420.363 -4.76868L184.516 180.354" stroke="#357AB6" stroke-width="0.5" stroke-miterlimit="10"/>
<path d="M424.672 -4.76868L188.826 180.354" stroke="#357AB6" stroke-width="0.5" stroke-miterlimit="10"/>
<path d="M428.976 -4.76868L193.129 180.354" stroke="#357AB6" stroke-width="0.5" stroke-miterlimit="10"/>
<path d="M433.285 -4.76868L197.433 180.354" stroke="#357AB6" stroke-width="0.5" stroke-miterlimit="10"/>
<path d="M437.588 -4.76868L201.742 180.354" stroke="#357AB6" stroke-width="0.5" stroke-miterlimit="10"/>
<path d="M441.892 -4.76868L206.046 180.354" stroke="#357AB6" stroke-width="0.5" stroke-miterlimit="10"/>
<path d="M446.201 -4.76868L210.349 180.354" stroke="#357AB6" stroke-width="0.5" stroke-miterlimit="10"/>
<path d="M450.504 -4.76868L214.658 180.354" stroke="#357AB6" stroke-width="0.5" stroke-miterlimit="10"/>
<path d="M454.808 -4.76868L218.962 180.354" stroke="#357AB6" stroke-width="0.5" stroke-miterlimit="10"/>
<path d="M459.117 -4.76868L223.265 180.354" stroke="#357AB6" stroke-width="0.5" stroke-miterlimit="10"/>
<path d="M463.421 -4.76868L227.574 180.354" stroke="#357AB6" stroke-width="0.5" stroke-miterlimit="10"/>
<path d="M467.724 -4.76868L231.878 180.354" stroke="#357AB6" stroke-width="0.5" stroke-miterlimit="10"/>
<path d="M472.034 -4.76868L236.187 180.354" stroke="#357AB6" stroke-width="0.5" stroke-miterlimit="10"/>
<path d="M476.337 -4.76868L240.491 180.354" stroke="#357AB6" stroke-width="0.5" stroke-miterlimit="10"/>
<path d="M480.646 -4.76868L244.794 180.354" stroke="#357AB6" stroke-width="0.5" stroke-miterlimit="10"/>
<path d="M484.95 -4.76868L249.104 180.354" stroke="#357AB6" stroke-width="0.5" stroke-miterlimit="10"/>
<path d="M489.253 -4.76868L253.407 180.354" stroke="#357AB6" stroke-width="0.5" stroke-miterlimit="10"/>
<path d="M493.562 -4.76868L257.711 180.354" stroke="#357AB6" stroke-width="0.5" stroke-miterlimit="10"/>
<path d="M497.866 -4.76868L262.02 180.354" stroke="#357AB6" stroke-width="0.5" stroke-miterlimit="10"/>
<path d="M502.17 -4.76868L266.323 180.354" stroke="#357AB6" stroke-width="0.5" stroke-miterlimit="10"/>
<path d="M506.479 -4.76868L270.632 180.354" stroke="#357AB6" stroke-width="0.5" stroke-miterlimit="10"/>
<path d="M510.782 -4.76868L274.936 180.354" stroke="#357AB6" stroke-width="0.5" stroke-miterlimit="10"/>
<path d="M515.091 -4.76868L279.24 180.354" stroke="#357AB6" stroke-width="0.5" stroke-miterlimit="10"/>
<path d="M519.395 -4.76868L283.549 180.354" stroke="#357AB6" stroke-width="0.5" stroke-miterlimit="10"/>
<path d="M523.699 -4.76868L287.852 180.354" stroke="#357AB6" stroke-width="0.5" stroke-miterlimit="10"/>
<path d="M528.008 -4.76868L292.156 180.354" stroke="#357AB6" stroke-width="0.5" stroke-miterlimit="10"/>
<path d="M532.311 -4.76868L296.465 180.354" stroke="#357AB6" stroke-width="0.5" stroke-miterlimit="10"/>
<path d="M536.615 -4.76868L300.769 180.354" stroke="#357AB6" stroke-width="0.5" stroke-miterlimit="10"/>
<path d="M540.924 -4.76868L305.072 180.354" stroke="#357AB6" stroke-width="0.5" stroke-miterlimit="10"/>
<path d="M545.228 -4.76868L309.381 180.354" stroke="#357AB6" stroke-width="0.5" stroke-miterlimit="10"/>
<path d="M549.531 -4.76868L313.685 180.354" stroke="#357AB6" stroke-width="0.5" stroke-miterlimit="10"/>
<path d="M553.84 -4.76868L317.994 180.354" stroke="#357AB6" stroke-width="0.5" stroke-miterlimit="10"/>
<path d="M558.144 -4.76868L322.298 180.354" stroke="#357AB6" stroke-width="0.5" stroke-miterlimit="10"/>
<path d="M562.453 -4.76868L326.601 180.354" stroke="#357AB6" stroke-width="0.5" stroke-miterlimit="10"/>
<path d="M566.757 -4.76868L330.91 180.354" stroke="#357AB6" stroke-width="0.5" stroke-miterlimit="10"/>
<path d="M571.06 -4.76868L335.214 180.354" stroke="#357AB6" stroke-width="0.5" stroke-miterlimit="10"/>
<path d="M575.369 -4.76868L339.517 180.354" stroke="#357AB6" stroke-width="0.5" stroke-miterlimit="10"/>
<path d="M579.673 -4.76868L343.827 180.354" stroke="#357AB6" stroke-width="0.5" stroke-miterlimit="10"/>
<path d="M4.11917 180.354L-231.727 365.477" stroke="#357AB6" stroke-width="0.5" stroke-miterlimit="10"/>
<path d="M8.4282 180.354L-227.418 365.477" stroke="#357AB6" stroke-width="0.5" stroke-miterlimit="10"/>
<path d="M12.7318 180.354L-223.115 365.477" stroke="#357AB6" stroke-width="0.5" stroke-miterlimit="10"/>
<path d="M17.041 180.354L-218.811 365.477" stroke="#357AB6" stroke-width="0.5" stroke-miterlimit="10"/>
<path d="M21.3445 180.354L-214.502 365.477" stroke="#357AB6" stroke-width="0.5" stroke-miterlimit="10"/>
<path d="M25.6481 180.354L-210.198 365.477" stroke="#357AB6" stroke-width="0.5" stroke-miterlimit="10"/>
<path d="M29.9572 180.354L-205.895 365.477" stroke="#357AB6" stroke-width="0.5" stroke-miterlimit="10"/>
<path d="M34.2608 180.354L-201.586 365.477" stroke="#357AB6" stroke-width="0.5" stroke-miterlimit="10"/>
<path d="M38.5644 180.354L-197.282 365.477" stroke="#357AB6" stroke-width="0.5" stroke-miterlimit="10"/>
<path d="M42.8735 180.354L-192.973 365.477" stroke="#357AB6" stroke-width="0.5" stroke-miterlimit="10"/>
<path d="M47.177 180.354L-188.669 365.477" stroke="#357AB6" stroke-width="0.5" stroke-miterlimit="10"/>
<path d="M51.4862 180.354L-184.366 365.477" stroke="#357AB6" stroke-width="0.5" stroke-miterlimit="10"/>
<path d="M55.7898 180.354L-180.057 365.477" stroke="#357AB6" stroke-width="0.5" stroke-miterlimit="10"/>
<path d="M60.0934 180.354L-175.753 365.477" stroke="#357AB6" stroke-width="0.5" stroke-miterlimit="10"/>
<path d="M64.4024 180.354L-171.449 365.477" stroke="#357AB6" stroke-width="0.5" stroke-miterlimit="10"/>
<path d="M68.706 180.354L-167.14 365.477" stroke="#357AB6" stroke-width="0.5" stroke-miterlimit="10"/>
<path d="M73.0097 180.354L-162.837 365.477" stroke="#357AB6" stroke-width="0.5" stroke-miterlimit="10"/>
<path d="M77.3187 180.354L-158.533 365.477" stroke="#357AB6" stroke-width="0.5" stroke-miterlimit="10"/>
<path d="M81.6224 180.354L-154.224 365.477" stroke="#357AB6" stroke-width="0.5" stroke-miterlimit="10"/>
<path d="M85.9259 180.354L-149.92 365.477" stroke="#357AB6" stroke-width="0.5" stroke-miterlimit="10"/>
<path d="M90.235 180.354L-145.611 365.477" stroke="#357AB6" stroke-width="0.5" stroke-miterlimit="10"/>
<path d="M94.5386 180.354L-141.308 365.477" stroke="#357AB6" stroke-width="0.5" stroke-miterlimit="10"/>
<path d="M98.8477 180.354L-137.004 365.477" stroke="#357AB6" stroke-width="0.5" stroke-miterlimit="10"/>
<path d="M103.151 180.354L-132.695 365.477" stroke="#357AB6" stroke-width="0.5" stroke-miterlimit="10"/>
<path d="M107.455 180.354L-128.391 365.477" stroke="#357AB6" stroke-width="0.5" stroke-miterlimit="10"/>
<path d="M111.764 180.354L-124.088 365.477" stroke="#357AB6" stroke-width="0.5" stroke-miterlimit="10"/>
<path d="M116.067 180.354L-119.779 365.477" stroke="#357AB6" stroke-width="0.5" stroke-miterlimit="10"/>
<path d="M120.371 180.354L-115.475 365.477" stroke="#357AB6" stroke-width="0.5" stroke-miterlimit="10"/>
<path d="M124.68 180.354L-111.166 365.477" stroke="#357AB6" stroke-width="0.5" stroke-miterlimit="10"/>
<path d="M128.984 180.354L-106.862 365.477" stroke="#357AB6" stroke-width="0.5" stroke-miterlimit="10"/>
<path d="M133.293 180.354L-102.559 365.477" stroke="#357AB6" stroke-width="0.5" stroke-miterlimit="10"/>
<path d="M137.597 180.354L-98.2498 365.477" stroke="#357AB6" stroke-width="0.5" stroke-miterlimit="10"/>
<path d="M141.9 180.354L-93.9463 365.477" stroke="#357AB6" stroke-width="0.5" stroke-miterlimit="10"/>
<path d="M146.209 180.354L-89.6426 365.477" stroke="#357AB6" stroke-width="0.5" stroke-miterlimit="10"/>
<path d="M150.513 180.354L-85.3335 365.477" stroke="#357AB6" stroke-width="0.5" stroke-miterlimit="10"/>
<path d="M154.816 180.354L-81.0299 365.477" stroke="#357AB6" stroke-width="0.5" stroke-miterlimit="10"/>
<path d="M159.126 180.354L-76.7263 365.477" stroke="#357AB6" stroke-width="0.5" stroke-miterlimit="10"/>
<path d="M162.988 180.354L-72.8588 365.477" stroke="#357AB6" stroke-width="0.5" stroke-miterlimit="10"/>
<path d="M167.297 180.354L-68.5553 365.477" stroke="#357AB6" stroke-width="0.5" stroke-miterlimit="10"/>
<path d="M171.6 180.354L-64.2461 365.477" stroke="#357AB6" stroke-width="0.5" stroke-miterlimit="10"/>
<path d="M175.904 180.354L-59.9425 365.477" stroke="#357AB6" stroke-width="0.5" stroke-miterlimit="10"/>
<path d="M180.213 180.354L-55.6333 365.477" stroke="#357AB6" stroke-width="0.5" stroke-miterlimit="10"/>
<path d="M184.516 180.354L-51.3298 365.477" stroke="#357AB6" stroke-width="0.5" stroke-miterlimit="10"/>
<path d="M188.826 180.354L-47.0262 365.477" stroke="#357AB6" stroke-width="0.5" stroke-miterlimit="10"/>
<path d="M193.129 180.354L-42.717 365.477" stroke="#357AB6" stroke-width="0.5" stroke-miterlimit="10"/>
<path d="M197.433 180.354L-38.4136 365.477" stroke="#357AB6" stroke-width="0.5" stroke-miterlimit="10"/>
<path d="M201.742 180.354L-34.11 365.477" stroke="#357AB6" stroke-width="0.5" stroke-miterlimit="10"/>
<path d="M206.046 180.354L-29.8008 365.477" stroke="#357AB6" stroke-width="0.5" stroke-miterlimit="10"/>
<path d="M210.349 180.354L-25.4973 365.477" stroke="#357AB6" stroke-width="0.5" stroke-miterlimit="10"/>
<path d="M214.658 180.354L-21.1937 365.477" stroke="#357AB6" stroke-width="0.5" stroke-miterlimit="10"/>
<path d="M218.962 180.354L-16.8845 365.477" stroke="#357AB6" stroke-width="0.5" stroke-miterlimit="10"/>
<path d="M223.265 180.354L-12.5809 365.477" stroke="#357AB6" stroke-width="0.5" stroke-miterlimit="10"/>
<path d="M227.574 180.354L-8.27185 365.477" stroke="#357AB6" stroke-width="0.5" stroke-miterlimit="10"/>
<path d="M231.878 180.354L-3.96826 365.477" stroke="#357AB6" stroke-width="0.5" stroke-miterlimit="10"/>
<path d="M236.187 180.354L0.335205 365.477" stroke="#357AB6" stroke-width="0.5" stroke-miterlimit="10"/>
<path d="M240.491 180.354L4.64441 365.477" stroke="#357AB6" stroke-width="0.5" stroke-miterlimit="10"/>
<path d="M244.794 180.354L8.948 365.477" stroke="#357AB6" stroke-width="0.5" stroke-miterlimit="10"/>
<path d="M249.104 180.354L13.2516 365.477" stroke="#357AB6" stroke-width="0.5" stroke-miterlimit="10"/>
<path d="M253.407 180.354L17.5607 365.477" stroke="#357AB6" stroke-width="0.5" stroke-miterlimit="10"/>
<path d="M257.711 180.354L21.8643 365.477" stroke="#357AB6" stroke-width="0.5" stroke-miterlimit="10"/>
<path d="M262.02 180.354L26.1733 365.477" stroke="#357AB6" stroke-width="0.5" stroke-miterlimit="10"/>
<path d="M266.323 180.354L30.4769 365.477" stroke="#357AB6" stroke-width="0.5" stroke-miterlimit="10"/>
<path d="M270.633 180.354L34.7806 365.477" stroke="#357AB6" stroke-width="0.5" stroke-miterlimit="10"/>
<path d="M274.936 180.354L39.0897 365.477" stroke="#357AB6" stroke-width="0.5" stroke-miterlimit="10"/>
<path d="M279.24 180.354L43.3933 365.477" stroke="#357AB6" stroke-width="0.5" stroke-miterlimit="10"/>
<path d="M283.549 180.354L47.6968 365.477" stroke="#357AB6" stroke-width="0.5" stroke-miterlimit="10"/>
<path d="M287.852 180.354L52.006 365.477" stroke="#357AB6" stroke-width="0.5" stroke-miterlimit="10"/>
<path d="M292.156 180.354L56.3096 365.477" stroke="#357AB6" stroke-width="0.5" stroke-miterlimit="10"/>
<path d="M296.465 180.354L60.6132 365.477" stroke="#357AB6" stroke-width="0.5" stroke-miterlimit="10"/>
<path d="M300.769 180.354L64.9222 365.477" stroke="#357AB6" stroke-width="0.5" stroke-miterlimit="10"/>
<path d="M305.072 180.354L69.2258 365.477" stroke="#357AB6" stroke-width="0.5" stroke-miterlimit="10"/>
<path d="M309.381 180.354L73.5349 365.477" stroke="#357AB6" stroke-width="0.5" stroke-miterlimit="10"/>
<path d="M313.685 180.354L77.8385 365.477" stroke="#357AB6" stroke-width="0.5" stroke-miterlimit="10"/>
<path d="M317.994 180.354L82.1421 365.477" stroke="#357AB6" stroke-width="0.5" stroke-miterlimit="10"/>
<path d="M322.297 180.354L86.4512 365.477" stroke="#357AB6" stroke-width="0.5" stroke-miterlimit="10"/>
<path d="M326.601 180.354L90.7548 365.477" stroke="#357AB6" stroke-width="0.5" stroke-miterlimit="10"/>
<path d="M330.91 180.354L95.0583 365.477" stroke="#357AB6" stroke-width="0.5" stroke-miterlimit="10"/>
<path d="M335.214 180.354L99.3674 365.477" stroke="#357AB6" stroke-width="0.5" stroke-miterlimit="10"/>
<path d="M339.517 180.354L103.671 365.477" stroke="#357AB6" stroke-width="0.5" stroke-miterlimit="10"/>
<path d="M343.827 180.354L107.98 365.477" stroke="#357AB6" stroke-width="0.5" stroke-miterlimit="10"/>
<path d="M348.13 180.354L112.284 365.477" stroke="#357AB6" stroke-width="0.5" stroke-miterlimit="10"/>
<path d="M352.439 180.354L116.587 365.477" stroke="#357AB6" stroke-width="0.5" stroke-miterlimit="10"/>
<path d="M356.743 180.354L120.896 365.477" stroke="#357AB6" stroke-width="0.5" stroke-miterlimit="10"/>
<path d="M361.046 180.354L125.2 365.477" stroke="#357AB6" stroke-width="0.5" stroke-miterlimit="10"/>
<path d="M365.356 180.354L129.504 365.477" stroke="#357AB6" stroke-width="0.5" stroke-miterlimit="10"/>
<path d="M369.659 180.354L133.813 365.477" stroke="#357AB6" stroke-width="0.5" stroke-miterlimit="10"/>
<path d="M373.963 180.354L138.116 365.477" stroke="#357AB6" stroke-width="0.5" stroke-miterlimit="10"/>
<path d="M378.272 180.354L142.42 365.477" stroke="#357AB6" stroke-width="0.5" stroke-miterlimit="10"/>
<path d="M382.575 180.354L146.729 365.477" stroke="#357AB6" stroke-width="0.5" stroke-miterlimit="10"/>
<path d="M386.879 180.354L151.033 365.477" stroke="#357AB6" stroke-width="0.5" stroke-miterlimit="10"/>
<path d="M391.188 180.354L155.342 365.477" stroke="#357AB6" stroke-width="0.5" stroke-miterlimit="10"/>
<path d="M395.492 180.354L159.645 365.477" stroke="#357AB6" stroke-width="0.5" stroke-miterlimit="10"/>
<path d="M399.801 180.354L163.949 365.477" stroke="#357AB6" stroke-width="0.5" stroke-miterlimit="10"/>
<path d="M404.104 180.354L168.258 365.477" stroke="#357AB6" stroke-width="0.5" stroke-miterlimit="10"/>
<path d="M408.408 180.354L172.562 365.477" stroke="#357AB6" stroke-width="0.5" stroke-miterlimit="10"/>
<path d="M412.717 180.354L176.865 365.477" stroke="#357AB6" stroke-width="0.5" stroke-miterlimit="10"/>
<path d="M417.021 180.354L181.174 365.477" stroke="#357AB6" stroke-width="0.5" stroke-miterlimit="10"/>
<path d="M421.324 180.354L185.478 365.477" stroke="#357AB6" stroke-width="0.5" stroke-miterlimit="10"/>
<path d="M425.633 180.354L189.787 365.477" stroke="#357AB6" stroke-width="0.5" stroke-miterlimit="10"/>
<path d="M429.937 180.354L194.091 365.477" stroke="#357AB6" stroke-width="0.5" stroke-miterlimit="10"/>
<path d="M434.246 180.354L198.394 365.477" stroke="#357AB6" stroke-width="0.5" stroke-miterlimit="10"/>
<path d="M438.55 180.354L202.703 365.477" stroke="#357AB6" stroke-width="0.5" stroke-miterlimit="10"/>
<path d="M442.853 180.354L207.007 365.477" stroke="#357AB6" stroke-width="0.5" stroke-miterlimit="10"/>
<path d="M447.162 180.354L211.31 365.477" stroke="#357AB6" stroke-width="0.5" stroke-miterlimit="10"/>
<path d="M451.466 180.354L215.62 365.477" stroke="#357AB6" stroke-width="0.5" stroke-miterlimit="10"/>
<path d="M455.769 180.354L219.923 365.477" stroke="#357AB6" stroke-width="0.5" stroke-miterlimit="10"/>
<path d="M460.079 180.354L224.227 365.477" stroke="#357AB6" stroke-width="0.5" stroke-miterlimit="10"/>
<path d="M464.382 180.354L228.536 365.477" stroke="#357AB6" stroke-width="0.5" stroke-miterlimit="10"/>
<path d="M468.686 180.354L232.839 365.477" stroke="#357AB6" stroke-width="0.5" stroke-miterlimit="10"/>
<path d="M472.995 180.354L237.149 365.477" stroke="#357AB6" stroke-width="0.5" stroke-miterlimit="10"/>
<path d="M477.298 180.354L241.452 365.477" stroke="#357AB6" stroke-width="0.5" stroke-miterlimit="10"/>
<path d="M481.608 180.354L245.756 365.477" stroke="#357AB6" stroke-width="0.5" stroke-miterlimit="10"/>
<path d="M485.911 180.354L250.065 365.477" stroke="#357AB6" stroke-width="0.5" stroke-miterlimit="10"/>
<path d="M490.215 180.354L254.368 365.477" stroke="#357AB6" stroke-width="0.5" stroke-miterlimit="10"/>
<path d="M494.524 180.354L258.672 365.477" stroke="#357AB6" stroke-width="0.5" stroke-miterlimit="10"/>
<path d="M498.827 180.354L262.981 365.477" stroke="#357AB6" stroke-width="0.5" stroke-miterlimit="10"/>
<path d="M503.131 180.354L267.285 365.477" stroke="#357AB6" stroke-width="0.5" stroke-miterlimit="10"/>
<path d="M507.44 180.354L271.594 365.477" stroke="#357AB6" stroke-width="0.5" stroke-miterlimit="10"/>
<path d="M511.744 180.354L275.897 365.477" stroke="#357AB6" stroke-width="0.5" stroke-miterlimit="10"/>
<path d="M516.053 180.354L280.201 365.477" stroke="#357AB6" stroke-width="0.5" stroke-miterlimit="10"/>
<path d="M520.356 180.354L284.51 365.477" stroke="#357AB6" stroke-width="0.5" stroke-miterlimit="10"/>
<path d="M524.66 180.354L288.814 365.477" stroke="#357AB6" stroke-width="0.5" stroke-miterlimit="10"/>
<path d="M528.969 180.354L293.117 365.477" stroke="#357AB6" stroke-width="0.5" stroke-miterlimit="10"/>
<path d="M533.273 180.354L297.426 365.477" stroke="#357AB6" stroke-width="0.5" stroke-miterlimit="10"/>
<path d="M537.576 180.354L301.73 365.477" stroke="#357AB6" stroke-width="0.5" stroke-miterlimit="10"/>
<path d="M541.885 180.354L306.033 365.477" stroke="#357AB6" stroke-width="0.5" stroke-miterlimit="10"/>
<path d="M546.189 180.354L310.343 365.477" stroke="#357AB6" stroke-width="0.5" stroke-miterlimit="10"/>
</g>
</g>
</svg>
