<svg width="52" height="52" viewBox="0 0 52 52" fill="none" xmlns="http://www.w3.org/2000/svg">
<path d="M26 0C11.6369 0 0 11.6471 0 26C0 40.3529 11.6471 51.9999 26 51.9999C40.3528 51.9999 52 40.3529 52 26C52 11.6471 40.3528 0 26 0ZM22.0939 41.8482V27.4139V27.3936H17.2316V21.7582H22.0939V17.608C22.0939 16.1127 22.3787 14.8208 22.8975 13.7629C22.9178 13.7222 22.9483 13.6815 22.9687 13.6307C23.0501 13.4679 23.1416 13.3153 23.2332 13.1627C23.2739 13.0915 23.3247 13.0203 23.3756 12.9593C23.457 12.8372 23.5384 12.7253 23.6299 12.6134C23.6808 12.5422 23.7418 12.4812 23.8028 12.4202C23.8944 12.3083 23.9859 12.2066 24.0877 12.1048C24.1284 12.0641 24.1792 12.0235 24.23 11.9828C24.3521 11.8709 24.4742 11.7488 24.6064 11.6471C24.6267 11.6369 24.637 11.6267 24.6573 11.6166C25.878 10.6706 27.4851 10.1721 29.3466 10.1721C31.4014 10.1721 33.1714 10.3247 33.6902 10.3959V15.4311H30.7097C28.3701 15.4311 27.9123 16.5399 27.9123 18.1674V21.7379V21.7684H33.4867L32.7645 27.4037H27.9123V41.8583H22.0939V41.8482Z" fill="white"/>
</svg>
