<svg width="36" height="36" viewBox="0 0 36 36" fill="none" xmlns="http://www.w3.org/2000/svg">
<path d="M18 0C8.05634 0 0 8.06338 0 18C0 27.9366 8.06338 36 18 36C27.9366 36 36 27.9366 36 18C36 8.06338 27.9366 0 18 0ZM15.2958 28.9718V18.9789V18.9648H11.9296V15.0634H15.2958V12.1901C15.2958 11.1549 15.493 10.2606 15.8521 9.52817C15.8662 9.5 15.8873 9.47183 15.9014 9.43662C15.9578 9.32394 16.0211 9.21831 16.0845 9.11268C16.1127 9.06338 16.1479 9.01408 16.1831 8.97183C16.2395 8.88732 16.2958 8.80986 16.3592 8.73239C16.3944 8.6831 16.4366 8.64085 16.4789 8.59859C16.5423 8.52113 16.6057 8.4507 16.6761 8.38028C16.7043 8.35211 16.7394 8.32394 16.7747 8.29577C16.8592 8.21831 16.9437 8.1338 17.0352 8.06338C17.0493 8.05634 17.0564 8.0493 17.0705 8.04225C17.9155 7.38732 19.0282 7.04225 20.3169 7.04225C21.7395 7.04225 22.9648 7.14789 23.324 7.19718V10.6831H21.2606C19.6408 10.6831 19.3239 11.4507 19.3239 12.5775V15.0493V15.0704H23.1831L22.6831 18.9718H19.3239V28.9789H15.2958V28.9718Z" fill="#1262A9"/>
</svg>
