<svg width="52" height="40" viewBox="0 0 52 40" fill="none" xmlns="http://www.w3.org/2000/svg">
<path d="M49.4494 0.112549H2.5508C2.1086 0.113071 1.68467 0.29038 1.37205 0.605562C1.05942 0.920743 0.883653 1.34805 0.883307 1.79369V5.17571C0.883307 5.33153 1.05097 5.51036 1.18797 5.58268L25.839 19.7728C25.9021 19.8092 25.9737 19.828 26.0464 19.8274C26.1208 19.8276 26.1938 19.8076 26.2578 19.7695L50.1638 5.59649C50.2982 5.52088 50.6544 5.32101 50.7881 5.22896C50.9499 5.11785 51.1169 5.01726 51.1169 4.81804V1.79304C51.1164 1.3475 50.9406 0.920369 50.628 0.60533C50.3154 0.29029 49.8915 0.113071 49.4494 0.112549ZM50.9088 10.275C50.8447 10.2381 50.772 10.219 50.6981 10.2194C50.6242 10.2199 50.5518 10.24 50.488 10.2777L36.9595 18.2994C36.9056 18.3311 36.8595 18.3746 36.8245 18.4266C36.7896 18.4787 36.7667 18.5381 36.7576 18.6003C36.7485 18.6625 36.7535 18.726 36.772 18.786C36.7906 18.846 36.8224 18.9011 36.8649 18.947L50.3954 33.646C50.4342 33.6885 50.4813 33.7223 50.5337 33.7454C50.5862 33.7685 50.6428 33.7803 50.7001 33.7801C50.8106 33.78 50.9165 33.7357 50.9946 33.6569C51.0728 33.5782 51.1168 33.4714 51.1169 33.36V10.6399C51.1172 10.566 51.0981 10.4933 51.0616 10.4293C51.025 10.3652 50.9723 10.312 50.9088 10.275ZM33.0609 20.9931C32.9967 20.9226 32.9104 20.8764 32.8165 20.8623C32.7226 20.8482 32.6267 20.867 32.5448 20.9155L27.1222 24.1312C26.8045 24.3162 26.4445 24.4147 26.0776 24.4171C25.7107 24.4195 25.3495 24.3258 25.0294 24.145L20.2572 21.3974C20.1801 21.3532 20.0911 21.3348 20.003 21.345C19.915 21.3552 19.8324 21.3933 19.7672 21.4539L1.64529 38.3943C1.59778 38.439 1.56131 38.4943 1.53877 38.5558C1.51623 38.6173 1.50826 38.6832 1.51548 38.7484C1.52271 38.8135 1.54493 38.876 1.58038 38.931C1.61583 38.9859 1.66352 39.0318 1.71966 39.0649C2.00149 39.2319 2.27354 39.3114 2.55015 39.3114H48.9693C49.0505 39.3116 49.13 39.2877 49.1979 39.2427C49.2657 39.1977 49.319 39.1335 49.3509 39.0583C49.3835 38.9835 49.3935 38.9007 49.3799 38.8202C49.3662 38.7396 49.3294 38.6649 49.274 38.6053L33.0609 20.9931ZM15.7799 19.45C15.8279 19.4053 15.8648 19.3498 15.8876 19.2881C15.9104 19.2263 15.9184 19.16 15.9111 19.0946C15.9038 19.0291 15.8813 18.9663 15.8455 18.9112C15.8097 18.8561 15.7615 18.8103 15.7048 18.7774L1.50503 10.6038C1.44166 10.5675 1.36995 10.5486 1.29708 10.5491C1.22421 10.5495 1.15273 10.5692 1.08978 10.6062C1.02684 10.6432 0.97464 10.6962 0.938406 10.76C0.902171 10.8237 0.883172 10.8959 0.883307 10.9693V32.4159C0.882848 32.4978 0.906231 32.5781 0.950564 32.6467C0.994896 32.7154 1.05823 32.7694 1.13273 32.8022C1.20723 32.8349 1.28962 32.8449 1.36971 32.8309C1.4498 32.817 1.52406 32.7797 1.58332 32.7236L15.7799 19.45Z" fill="#1262A9"/>
</svg>
