<svg width="53" height="53" viewBox="0 0 53 53" fill="none" xmlns="http://www.w3.org/2000/svg">
<path d="M26.4476 0C11.8373 0 0 11.8476 0 26.4476C0 41.0476 11.8373 52.8952 26.4476 52.8952C41.0579 52.8952 52.8952 41.0476 52.8952 26.4476C52.8952 11.8476 41.0476 0 26.4476 0ZM27.0477 23.0123C27.0477 23.0123 27.0581 23.0123 27.0684 23.0123C26.965 22.5984 26.9236 22.1742 26.9236 21.7189C26.9236 18.594 29.4586 16.059 32.5835 16.059C34.208 16.059 35.6877 16.7419 36.7121 17.849C37.7675 17.6421 38.7712 17.2799 39.7024 16.7936C39.899 16.6901 40.106 16.597 40.3026 16.4832C39.9611 17.5283 39.3196 18.4388 38.4918 19.1114C38.2745 19.277 38.0676 19.4425 37.8193 19.577C37.8296 19.577 37.8399 19.577 37.8503 19.577C37.8503 19.577 37.8296 19.5874 37.8193 19.5977C38.7402 19.4942 39.63 19.2666 40.4785 18.9458C40.6751 18.8734 40.8613 18.8113 41.0579 18.7285C40.3026 19.8564 39.3506 20.8497 38.2435 21.6361C38.2642 21.8845 38.2642 22.1225 38.2642 22.3708C38.2642 29.8519 32.5732 38.4815 22.1535 38.4815C18.9562 38.4815 15.9762 37.5502 13.4721 35.9361C13.9171 35.9878 14.362 36.0188 14.8276 36.0188C16.7626 36.0188 18.5733 35.5325 20.1668 34.684C20.1979 34.6633 20.2392 34.653 20.2703 34.6323C20.3738 34.5806 20.4669 34.5185 20.5703 34.4564C21.0153 34.1977 21.4395 33.9287 21.8534 33.6079C21.8534 33.6079 21.8431 33.6079 21.8327 33.6079C21.8327 33.6079 21.8431 33.6079 21.8534 33.5976C19.6908 33.5562 17.8283 32.3042 16.9074 30.4934C16.7729 30.2347 16.6694 29.9553 16.5763 29.676C16.9178 29.738 17.2696 29.7691 17.6317 29.7691C17.9939 29.7691 18.3664 29.7173 18.7182 29.6553C18.8527 29.6346 18.9872 29.6139 19.1217 29.5932C16.5246 29.0758 14.5793 26.7787 14.5793 24.0367V23.9746C15.1794 24.3057 15.852 24.5334 16.5556 24.6265C16.7522 24.6575 16.9385 24.6782 17.1351 24.6886C17.1351 24.6886 17.1247 24.6782 17.1144 24.6679C17.1247 24.6679 17.135 24.6679 17.1454 24.6679C15.6243 23.6538 14.6207 21.9259 14.6207 19.9599C14.6207 19.07 14.838 18.2319 15.2105 17.4869C15.2725 17.3627 15.3243 17.2385 15.3967 17.1247C18.1491 20.4979 22.2466 22.7329 26.8822 23.0123C26.9339 23.0123 26.9857 23.0227 27.0477 23.033V23.0123Z" fill="white"/>
</svg>
