<svg width="37" height="37" viewBox="0 0 37 37" fill="none" xmlns="http://www.w3.org/2000/svg">
<path d="M18.3099 0C8.19503 0 0 8.2022 0 18.3099C0 28.4176 8.19503 36.6198 18.3099 36.6198C28.4247 36.6198 36.6197 28.4176 36.6197 18.3099C36.6197 8.2022 28.4176 0 18.3099 0ZM18.7254 15.9316C18.7254 15.9316 18.7325 15.9316 18.7397 15.9316C18.6681 15.6451 18.6394 15.3514 18.6394 15.0362C18.6394 12.8728 20.3944 11.1177 22.5578 11.1177C23.6825 11.1177 24.7069 11.5905 25.4161 12.357C26.1468 12.2138 26.8416 11.963 27.4863 11.6263C27.6224 11.5547 27.7657 11.4902 27.9018 11.4114C27.6654 12.135 27.2213 12.7653 26.6482 13.231C26.4977 13.3456 26.3545 13.4602 26.1826 13.5533C26.1897 13.5533 26.1969 13.5533 26.204 13.5533C26.204 13.5533 26.1897 13.5605 26.1826 13.5677C26.8201 13.496 27.4361 13.3384 28.0236 13.1164C28.1597 13.0662 28.2886 13.0232 28.4247 12.9659C27.9018 13.7467 27.2428 14.4344 26.4763 14.9789C26.4906 15.1508 26.4906 15.3155 26.4906 15.4875C26.4906 20.6667 22.5507 26.641 15.337 26.641C13.1235 26.641 11.0604 25.9963 9.32686 24.8788C9.63489 24.9146 9.94292 24.9361 10.2653 24.9361C11.6048 24.9361 12.8585 24.5994 13.9616 24.012C13.9831 23.9977 14.0118 23.9905 14.0333 23.9762C14.1049 23.9404 14.1694 23.8974 14.241 23.8544C14.549 23.6753 14.8428 23.4891 15.1293 23.267C15.1293 23.267 15.1221 23.267 15.1149 23.267C15.1149 23.267 15.1221 23.267 15.1293 23.2599C13.6321 23.2312 12.3427 22.3644 11.7051 21.1108C11.612 20.9317 11.5404 20.7383 11.4759 20.5449C11.7123 20.5879 11.9559 20.6094 12.2066 20.6094C12.4573 20.6094 12.7152 20.5735 12.9588 20.5306C13.0519 20.5162 13.145 20.5019 13.2381 20.4876C11.4401 20.1294 10.0934 18.5391 10.0934 16.6408V16.5978C10.5088 16.827 10.9745 16.9846 11.4616 17.0491C11.5977 17.0706 11.7266 17.0849 11.8627 17.0921C11.8627 17.0921 11.8556 17.0849 11.8484 17.0778C11.8556 17.0778 11.8627 17.0778 11.8699 17.0778C10.8169 16.3757 10.122 15.1794 10.122 13.8184C10.122 13.2023 10.2724 12.6221 10.5303 12.1063C10.5733 12.0203 10.6091 11.9344 10.6593 11.8556C12.5647 14.1909 15.4015 15.7382 18.6107 15.9316C18.6466 15.9316 18.6824 15.9388 18.7254 15.9459V15.9316Z" fill="#1262A9"/>
</svg>
